<?xml version="1.0" standalone="no"?>
<!DOCTYPE svg PUBLIC "-//W3C//DTD SVG 1.1//EN" "http://www.w3.org/Graphics/SVG/1.1/DTD/svg11.dtd" >
<svg xmlns="http://www.w3.org/2000/svg" xmlns:xlink="http://www.w3.org/1999/xlink" version="1.1">
<metadata>
Created by FontForge 20200427 at Wed Jun 16 21:15:38 2010
 By www
Copyright 1981-1983, 1989,1993, 1998 Heidelberger Druckmaschinen AG. All rights reserved. The  digitally encoded machine readable outline data for producing the Typefaces licensed are the property of Heidelberger Druckmaschinen AG and/or its subsidiaries, represented by Linotype Library GmbH, Dupont Strasse 1, 61352 Bad Homburg Germany. Portions (c) 1996-1998 Microsoft Corporation. All Rights Reserved.
</metadata>
<defs>
<font id="PalatinoLinotypeW02-BoldIt" horiz-adv-x="1139" >
  <font-face 
    font-family="PalatinoLinotypeW02-BoldIt"
    font-weight="400"
    font-style="italic"
    font-stretch="normal"
    units-per-em="2048"
    panose-1="2 4 7 2 6 3 5 10 2 4"
    ascent="1488"
    descent="-560"
    x-height="975"
    cap-height="1492"
    bbox="-320 -596 2193 1965"
    underline-thickness="103"
    underline-position="-307"
    unicode-range="U+000D-FB02"
  />
<missing-glyph horiz-adv-x="0" 
 />
    <glyph glyph-name=".notdef" horiz-adv-x="0" 
 />
    <glyph glyph-name="glyph1" horiz-adv-x="0" 
 />
    <glyph glyph-name="uni000D" unicode="&#xd;" horiz-adv-x="0" 
 />
    <glyph glyph-name="space" unicode=" " horiz-adv-x="512" 
 />
    <glyph glyph-name="space" unicode="&#xa0;" horiz-adv-x="512" 
 />
    <glyph glyph-name="exclam" unicode="!" horiz-adv-x="682" 
d="M287 387l-26 18q6 49 28 267l39 405q18 186 23 287q168 28 283 59l23 -18l-196 -634q-80 -259 -94 -333zM137 91q0 52 19 91.5t50.5 62.5t78.5 23q59 0 90.5 -33.5t31.5 -89.5q0 -64 -38.5 -121t-117.5 -57q-114 0 -114 124z" />
    <glyph glyph-name="quotedbl" unicode="&#x22;" horiz-adv-x="1024" 
d="M559 1357q0 -35 -26 -72l-245 -349h-68l142 426q30 89 102 89q39 0 67 -27.5t28 -66.5zM1019 1357q0 -35 -26 -72l-245 -349h-68l142 426q30 89 102 89q39 0 67 -27.5t28 -66.5z" />
    <glyph glyph-name="quotedbl" unicode="&#x2ba;" horiz-adv-x="1024" 
d="M559 1357q0 -35 -26 -72l-245 -349h-68l142 426q30 89 102 89q39 0 67 -27.5t28 -66.5zM1019 1357q0 -35 -26 -72l-245 -349h-68l142 426q30 89 102 89q39 0 67 -27.5t28 -66.5z" />
    <glyph glyph-name="numbersign" unicode="#" horiz-adv-x="987" 
d="M220 0l63 341h-148l29 156h149l76 410h-148l29 156h148l55 296h76l-56 -296h229l55 296h75l-55 -296h148l-29 -156h-148l-77 -410h148l-29 -156h-148l-64 -341h-75l64 341h-229l-64 -341h-74zM387 497h229l77 410h-229z" />
    <glyph glyph-name="dollar" unicode="$" horiz-adv-x="1024" 
d="M322 -225l35 195q-84 4 -154 28.5t-153 69.5l-3 11q14 37 30.5 141.5t17.5 139.5l9 8h52l9 -8q0 -37 -10 -150q66 -108 222 -127l87 498q-186 32 -254 114.5t-68 208.5q0 179 128 314.5t335 157.5l17 130l11 9h64l8 -10l-21 -129q83 0 144.5 -17.5t139.5 -61.5l3 -11
q-11 -33 -29.5 -130.5t-20.5 -129.5l-8 -9h-47l-9 8q6 48 6 105q0 10 -1 31q-20 41 -74.5 72.5t-120.5 40.5l-84 -477q126 -27 183.5 -53.5t98 -69.5t57.5 -96t17 -113q0 -141 -83.5 -257.5t-207.5 -176.5t-196 -60h-13l-33 -196l-11 -9h-66zM586 1276q-141 -7 -202.5 -90
t-61.5 -185q0 -61 35.5 -105.5t148.5 -77.5zM457 78q146 0 214 85.5t68 192.5q0 56 -26 99.5t-60 62.5t-111 42z" />
    <glyph glyph-name="percent" unicode="%" horiz-adv-x="1821" 
d="M135 1023q0 230 178 351q90 61 219 61q191 0 273 -135q44 -72 44 -168t-46 -186q-49 -98 -136 -158q-91 -63 -221 -63q-209 0 -279 153q-32 70 -32 145zM328 933q0 -65 30.5 -104t80.5 -39q126 0 184 229q29 116 29 206q0 145 -113 145q-117 0 -177 -216
q-34 -119 -34 -221zM1037 254q0 230 177 351q91 62 219 62q149 0 235 -86q82 -82 82 -217q0 -100 -50 -195q-52 -101 -140 -155q-91 -57 -212 -57q-208 0 -278 151q-33 69 -33 146zM1230 165q0 -143 113 -143q121 0 179 221q32 122 32 205q0 154 -113 154q-95 0 -157 -152
q-54 -132 -54 -285zM1456 1487l-966 -1563h-75l-5 10l965 1562h76z" />
    <glyph glyph-name="ampersand" unicode="&#x26;" horiz-adv-x="1706" 
d="M1544 1082q114 -53 114 -175q0 -65 -28 -121.5t-70.5 -87t-102 -44.5t-191.5 -37q119 -51 119 -176q0 -123 -96.5 -231t-272 -179t-365.5 -71q-103 0 -192.5 23t-161.5 76t-108.5 128.5t-36.5 170.5q0 297 415 431q-80 9 -135 68t-55 149q0 77 39 140t127 132t168 106
t184 37q121 0 225 -52l6 -13q-8 -18 -24 -114.5t-17 -129.5l-8 -9h-45l-8 9l-4 114q-80 82 -197 82q-104 0 -175 -63t-71 -162q0 -66 32.5 -117t83 -75t104.5 -24q20 0 51 5l8 -8q-22 -81 -24 -113q-33 6 -64 6q-94 0 -184 -38t-140 -120.5t-50 -183.5q0 -102 48.5 -180.5
t136 -121t209.5 -42.5q89 0 161.5 22.5t129 66.5t89.5 104.5t33 129.5q0 52 -22.5 96t-64.5 64.5t-81 20.5q-30 0 -63 -12.5t-52 -39t-25.5 -45t-16.5 -63.5l-9 -9h-35l-7 9l22 213q66 64 141.5 88t227.5 44q142 18 216 35t110.5 54.5t36.5 85.5q0 75 -71 99v13l26 33z" />
    <glyph glyph-name="quotesingle" unicode="'" horiz-adv-x="512" 
d="M559 1357q0 -35 -26 -72l-245 -349h-68l142 426q30 89 102 89q39 0 67 -27.5t28 -66.5z" />
    <glyph glyph-name="quotesingle" unicode="&#x2b9;" horiz-adv-x="512" 
d="M559 1357q0 -35 -26 -72l-245 -349h-68l142 426q30 89 102 89q39 0 67 -27.5t28 -66.5z" />
    <glyph glyph-name="parenleft" unicode="(" horiz-adv-x="682" 
d="M500 -262q-98 113 -183.5 260.5t-120 266.5t-34.5 264q0 130 30 240.5t97 233.5t179.5 243.5t268.5 245.5h13l38 -39l-1 -13q-194 -195 -298 -472.5t-104 -582.5q0 -191 44 -341.5t126 -261.5l-3 -12l-40 -32h-12z" />
    <glyph glyph-name="parenright" unicode=")" horiz-adv-x="682" 
d="M219 1492q87 -96 175.5 -246t125.5 -271.5t37 -273.5q0 -130 -29.5 -240t-97 -233.5t-180 -244t-268.5 -245.5h-13l-38 39l1 14q193 191 298 469t105 585q0 372 -171 603l3 12l40 32h12z" />
    <glyph glyph-name="asterisk" unicode="*" horiz-adv-x="909" 
d="M587 696l-16 11q-10 194 -23 311q-141 -136 -223 -224l-20 2q-22 47 -57 106l-28 48l4 9l198 73q53 18 99 41q-38 19 -122 57l-172 76l-3 15q53 64 91 151l18 1q128 -156 220 -245q16 98 28 217l9 83l11 10q50 -20 128 -33l52 -9l6 -14q-143 -235 -167 -285q15 4 151 27
q67 11 146 34l17 -16q-6 -46 -6 -81q0 -31 4 -87l-13 -9q-168 49 -315 73q9 -14 41 -75l45 -82l63 -110l-6 -18q-91 -25 -160 -57z" />
    <glyph glyph-name="plus" unicode="+" horiz-adv-x="1024" 
d="M993 515h-392v-386h-177v386h-392v172h392v386h177v-386h392v-172z" />
    <glyph glyph-name="comma" unicode="," horiz-adv-x="512" 
d="M-60 -354l-37 30q65 94 130.5 263.5t72.5 279.5q130 23 258 71l33 -30l-73 -141q-32 -62 -80 -138t-93.5 -137t-103.5 -127z" />
    <glyph glyph-name="hyphen" unicode="-" horiz-adv-x="796" 
d="M90 403l-12 19q43 101 57 190q66 -14 261 -14q246 0 332 10l10 -17q-47 -111 -60 -190q-110 11 -341 11q-156 0 -247 -9z" />
    <glyph glyph-name="hyphen" unicode="&#x2011;" horiz-adv-x="796" 
d="M90 403l-12 19q43 101 57 190q66 -14 261 -14q246 0 332 10l10 -17q-47 -111 -60 -190q-110 11 -341 11q-156 0 -247 -9z" />
    <glyph glyph-name="hyphen" unicode="&#x2010;" horiz-adv-x="796" 
d="M90 403l-12 19q43 101 57 190q66 -14 261 -14q246 0 332 10l10 -17q-47 -111 -60 -190q-110 11 -341 11q-156 0 -247 -9z" />
    <glyph glyph-name="hyphen" unicode="&#xad;" horiz-adv-x="796" 
d="M90 403l-12 19q43 101 57 190q66 -14 261 -14q246 0 332 10l10 -17q-47 -111 -60 -190q-110 11 -341 11q-156 0 -247 -9z" />
    <glyph glyph-name="period" unicode="." horiz-adv-x="512" 
d="M83 107q0 75 44 125.5t110 50.5q58 0 94.5 -36t36.5 -101q0 -69 -39.5 -125t-114.5 -56q-62 0 -96.5 37.5t-34.5 104.5z" />
    <glyph glyph-name="slash" unicode="/" horiz-adv-x="645" 
d="M-5 -56l524 1555l11 9h121l6 -9l-524 -1555l-10 -9h-122z" />
    <glyph glyph-name="zero" unicode="0" horiz-adv-x="1024" 
d="M88 455q0 376 149 666t399 290q72 0 130 -23.5t97.5 -59.5t67.5 -91.5t47.5 -142t19.5 -195.5q0 -142 -32 -300t-88.5 -282.5t-126.5 -207t-144.5 -117.5t-164.5 -35q-118 0 -197 63.5t-118 167.5t-39 267zM321 225q0 -92 30.5 -140.5t89.5 -48.5q46 0 81.5 25.5
t64.5 90.5t71 238t74 394t32 356q0 96 -36 143.5t-92 47.5q-32 0 -60 -15.5t-56.5 -59.5t-60.5 -148t-67.5 -290t-53 -328.5t-17.5 -264.5z" />
    <glyph glyph-name="one" unicode="1" horiz-adv-x="1024" 
d="M87 -10l-6 8l14 56l11 9q161 4 203 17q12 4 24.5 17.5t21.5 44.5q18 65 69 357l80 463q36 207 39 241q-17 -11 -135 -64l-236 -107l-18 15l34 137q258 67 411.5 130.5t194.5 93.5l37 -28q-14 -51 -93 -510l-101 -571q-21 -113 -21 -160q0 -37 21 -52.5t107.5 -20
t137.5 -4.5l7 -9l-13 -54l-10 -9l-34 2q-13 1 -172 4.5t-180 3.5q-188 0 -393 -10z" />
    <glyph glyph-name="two" unicode="2" horiz-adv-x="1024" 
d="M6 -7l-7 9l7 47q12 14 92 89q113 106 261 273.5t229.5 318t81.5 273.5q0 101 -51.5 160.5t-154.5 59.5q-68 0 -114.5 -23.5t-76.5 -63t-75 -124.5l-12 -6l-47 16l-3 11l111 270q75 67 146.5 87.5t141.5 20.5q115 0 204 -42.5t136 -121.5t47 -191q0 -57 -10.5 -101.5
t-36.5 -95.5t-86.5 -128t-121 -138t-192.5 -191l-193 -185l1 -12l108 -1l256 3q127 1 169 4.5t96 13.5l15 -15q-22 -47 -64 -210l-10 -8q-273 8 -414 8z" />
    <glyph glyph-name="three" unicode="3" horiz-adv-x="1024" 
d="M21 58l58 315l10 8l50 -5l8 -11q-5 -56 -5 -98q0 -117 61 -171t157 -54q142 0 217.5 122.5t75.5 287.5q0 120 -58 184t-167 64q-63 0 -145 -29l-11 12l33 105q27 -7 67 -7q157 0 231.5 81.5t74.5 197.5q0 95 -54 140.5t-137 45.5q-85 0 -145.5 -39t-111.5 -133l-12 -6
l-43 18l-3 11l111 220q49 48 129.5 71t163.5 23q157 0 250.5 -73t93.5 -205q0 -64 -24.5 -121t-69.5 -99.5t-110 -83t-112 -54.5l-1 -8q162 -18 237 -101t75 -210q0 -118 -65 -231t-197.5 -188.5t-306.5 -75.5q-93 0 -164 19.5t-155 64.5z" />
    <glyph glyph-name="four" unicode="4" horiz-adv-x="1024" 
d="M208 -8l-7 8l15 54l11 9q51 2 121.5 6t83 10.5t22.5 23t25 90.5t31 176l-492 -5l-7 9l8 68l127 203q60 95 163 242l143 200q41 54 200 258q147 29 248 70l27 -23q-25 -119 -56 -294l-101 -574q79 1 217 8l10 -8l-36 -150l-11 -8q-116 5 -208 5q-9 -61 -20.5 -137
t-11.5 -110q0 -26 12.5 -37t55.5 -16.5t154 -9.5l7 -8l-12 -51l-10 -9q-3 0 -103 3q-144 5 -233 5q-84 0 -373 -8zM541 523l73 425l22 120l28 157q-90 -111 -254.5 -343t-232.5 -359q64 -3 128 -3q97 0 236 3z" />
    <glyph glyph-name="five" unicode="5" horiz-adv-x="1024" 
d="M18 68q40 163 53 290l9 8l44 -6l7 -9q-4 -23 -4 -51q0 -115 62.5 -185t170.5 -70q137 0 217 136t80 308q0 123 -56 191t-166 68q-70 0 -121.5 -29.5t-95.5 -94.5l-63 27q108 542 129 727l11 8q124 -14 335 -14q215 0 328 9l12 -20l-92 -185q-161 -14 -251 -14
q-224 0 -283 7l-86 -408q114 103 286 103q107 0 194.5 -41t135 -128.5t47.5 -180.5q0 -118 -58 -243t-188.5 -215.5t-314.5 -90.5q-190 0 -339 93z" />
    <glyph glyph-name="six" unicode="6" horiz-adv-x="1024" 
d="M954 1236l-16 -6q-70 70 -172 70q-155 0 -255.5 -169.5t-146.5 -437.5q139 159 308 159q128 0 214 -84.5t86 -238.5q0 -100 -32 -192t-75.5 -149.5t-120 -115.5t-145.5 -86.5t-155 -28.5q-119 0 -203.5 57.5t-122 161t-37.5 237.5q0 130 31 263.5t77.5 232t118.5 194
t171.5 168.5t189.5 106.5t174 33.5q75 0 155 -32zM326 301q0 -247 172 -247q116 0 168.5 138.5t52.5 285.5q0 132 -47 184.5t-120 52.5q-110 0 -168 -115.5t-58 -298.5z" />
    <glyph glyph-name="seven" unicode="7" horiz-adv-x="1024" 
d="M157 -8l-13 25q78 113 219 335l83 129q34 53 131 197l167 247l99 148q30 44 53 75q-55 4 -93 4q-386 0 -463.5 -2t-177.5 -11l-10 16l12 59q22 101 31 165l10 12q20 0 119 -6q56 -3 91.5 -4t113.5 -1l226 -3q149 -3 165 -3q71 0 182 7l9 -10l-5 -66q-92 -126 -248 -392.5
t-294.5 -543.5t-169.5 -369l-12 -8q-87 4 -126 4t-99 -4z" />
    <glyph glyph-name="eight" unicode="8" horiz-adv-x="1024" 
d="M391 673q-94 51 -142.5 120t-48.5 172q0 91 37 165.5t111 137t155 103t185 40.5q126 0 214 -72t88 -199q0 -55 -18 -104t-54.5 -93t-71.5 -71t-154 -105q237 -120 237 -325q0 -67 -26 -141.5t-72.5 -127.5t-129 -109.5t-149.5 -81.5t-153 -25q-152 0 -247 83.5t-95 225.5
q0 52 13.5 97.5t41.5 87.5t74.5 84t76.5 61t128 77zM632 802q82 57 139 129t57 169q0 108 -58.5 160t-146.5 52q-98 0 -161.5 -66t-63.5 -167q0 -73 42.5 -136t191.5 -141zM452 634q-93 -48 -161.5 -138t-68.5 -205q0 -108 64.5 -172t166.5 -64q69 0 129.5 32.5t95 102
t34.5 143.5q0 82 -53.5 148.5t-206.5 152.5z" />
    <glyph glyph-name="nine" unicode="9" horiz-adv-x="1024" 
d="M108 -9q-2 31 -20.5 105.5t-31.5 106.5l47 23q72 -165 232 -165q93 0 163.5 61.5t126 205t93.5 343.5q-143 -168 -298 -168q-131 0 -217.5 88t-86.5 263q0 97 27.5 183.5t77.5 146.5t131.5 115t145 81t143.5 26q109 0 196 -55.5t126.5 -163t39.5 -235.5
q0 -125 -31.5 -268.5t-104.5 -286.5t-180.5 -245.5t-207 -148.5t-203.5 -46q-74 0 -168 34zM363 874q0 -106 47 -164.5t124 -58.5q66 0 117 46.5t74.5 146.5t23.5 205q0 72 -18 134.5t-60.5 92t-95.5 29.5q-50 0 -90 -25t-64.5 -75t-41.5 -125.5t-17 -160.5z" />
    <glyph glyph-name="colon" unicode=":" horiz-adv-x="512" 
d="M168 757q0 75 44 125.5t110 50.5q60 0 95.5 -37t35.5 -100q0 -68 -39.5 -124.5t-114.5 -56.5q-60 0 -95.5 36.5t-35.5 105.5zM51 107q0 75 44 125.5t110 50.5q58 0 94.5 -36t36.5 -101q0 -69 -39.5 -125t-114.5 -56q-62 0 -96.5 37.5t-34.5 104.5z" />
    <glyph glyph-name="semicolon" unicode=";" horiz-adv-x="512" 
d="M169 757q0 75 44 125.5t110 50.5q60 0 95.5 -37t35.5 -100q0 -70 -40.5 -125.5t-113.5 -55.5q-63 0 -97 37t-34 105zM-75 -354l-37 30q65 94 130.5 263.5t72.5 279.5q130 23 258 71l33 -30l-73 -141q-32 -62 -80 -138t-93.5 -137t-103.5 -127z" />
    <glyph glyph-name="less" unicode="&#x3c;" horiz-adv-x="1024" 
d="M993 15l-961 435v154l961 437v-176l-728 -337l728 -337v-176z" />
    <glyph glyph-name="equal" unicode="=" horiz-adv-x="1024" 
d="M993 715h-961v172h961v-172zM993 352h-961v172h961v-172z" />
    <glyph glyph-name="greater" unicode="&#x3e;" horiz-adv-x="1024" 
d="M993 450l-961 -435v176l728 337l-728 337v176l961 -437v-154z" />
    <glyph glyph-name="question" unicode="?" horiz-adv-x="909" 
d="M407 383q-49 47 -66 81.5t-17 73.5q0 43 25 94t117 145q115 117 156.5 183.5t41.5 138.5t-53.5 115.5t-136.5 43.5q-68 0 -119.5 -33t-97.5 -152l-11 -7l-49 8l-4 10q61 157 83 251q80 50 144 69t133 19q102 0 191 -37t132 -110t43 -162q0 -62 -18 -113.5t-56 -98
t-98.5 -94.5t-143.5 -105q-77 -52 -113.5 -82.5t-55.5 -62.5t-19 -60q0 -44 36 -79l-1 -12l-30 -24h-13zM207 91q0 73 39.5 125t108.5 52q57 0 89 -33t32 -90q0 -67 -39.5 -122.5t-110.5 -55.5q-119 0 -119 124z" />
    <glyph glyph-name="at" unicode="@" horiz-adv-x="1428" 
d="M1439 751q0 -112 -49 -225t-155 -195q-109 -84 -216 -84q-87 -3 -137 32.5t-50 104.5q-71 -126 -214 -126q-242 0 -242 262q0 193 111 332q120 150 307 150q103 0 134 -67l8 41l175 32l24 -22q-53 -198 -86 -365.5t-33 -210.5q0 -46 15.5 -60.5t37.5 -14.5
q27 -3 85.5 40.5t99.5 147.5q44 109 44 230q0 242 -199 356q-108 62 -267 62t-305 -80.5t-226 -227.5q-78 -142 -78 -312q0 -227 134.5 -368.5t367.5 -141.5q268 0 464 172l25 -25q-7 -24 -18 -59q-214 -171 -497 -171q-397 0 -569 271q-87 137 -87 314q0 181 94 337
q97 163 276 264q183 104 423 104q253 0 426 -134q177 -137 177 -363zM896 810q0 116 -93 116q-50 0 -100 -50q-53 -53 -92 -155q-40 -105 -40 -195q0 -108 28 -143t66 -35q50 0 103 61q66 76 108 264q20 91 20 137z" />
    <glyph glyph-name="A" unicode="A" horiz-adv-x="1479" 
d="M-61 -8l-7 9l7 52l10 8q78 6 89.5 8.5t23.5 11.5t24 26.5t77 129.5l117 199l283 487l173 291q76 126 112 197h195l41 -298l47 -330l39 -270l31 -202l20 -121q11 -82 34 -105t143 -24l7 -9l-6 -51l-10 -9q-226 8 -302 8q-66 0 -292 -8l-8 9l8 51l10 9q97 0 124 15t27 48
q0 70 -48 421q-91 1 -119 1l-153 -1h-180q-59 -102 -125 -229.5t-78.5 -162t-12.5 -46.5q0 -18 21 -30.5t148 -15.5l7 -9l-7 -52l-10 -8q-1 0 -73 4q-96 4 -146 4q-29 0 -241 -8zM504 636q48 -1 58 -1q311 0 335 1l-78 541zM958 1492zM598 -65z" />
    <glyph glyph-name="B" unicode="B" horiz-adv-x="1366" 
d="M48 -6l-7 7l7 53l10 9l29 8q62 14 75.5 29.5t41 163.5t96.5 549.5t69 467.5q0 25 -12.5 36.5t-30.5 14t-139 9.5l-7 8l8 55l9 8q134 -7 310 -7q8 0 131 4q119 4 238 4q93 0 166.5 -12.5t132.5 -50.5t88 -94t29 -127q0 -59 -21 -114.5t-62 -102.5t-97.5 -80.5t-90 -44.5
t-148.5 -41q201 -20 282 -99.5t81 -207.5q0 -190 -167.5 -320.5t-409.5 -130.5q-68 0 -163 5q-112 7 -171 7q-150 0 -277 -6zM543 772q33 -2 76 -2q124 0 187 19t110 60t75.5 114t28.5 149q0 87 -60.5 145t-212.5 58q-53 0 -109 -6q-4 -31 -43 -236zM434 104
q160 -25 231 -25q157 0 225.5 113t68.5 243q0 79 -32 140t-95 85.5t-198 24.5l-108 -2l-38 -232q-34 -199 -54 -347z" />
    <glyph glyph-name="C" unicode="C" horiz-adv-x="1403" 
d="M1276 235l-22 -82q-129 -85 -264.5 -140.5t-300.5 -55.5q-178 0 -304.5 66t-188 184.5t-61.5 292.5q0 215 81.5 409t303.5 360t498 166q63 0 133 -9.5t138.5 -30t116.5 -51.5l2 -12q-59 -190 -74 -327l-8 -8h-55l-9 8q5 157 5 166q0 26 -11 42t-58.5 43.5t-119 44
t-149.5 16.5q-97 0 -179 -26t-152 -94.5t-110.5 -179t-57 -231.5t-16.5 -234q0 -180 50 -275.5t138.5 -138.5t201.5 -43q60 0 121.5 11.5t117 32.5t211.5 114z" />
    <glyph glyph-name="D" unicode="D" horiz-adv-x="1593" 
d="M188 1404l9 8q144 -7 327 -7l380 6q256 0 388 -67.5t192.5 -192.5t60.5 -277q0 -196 -85 -395.5t-281 -343t-456 -143.5q-52 0 -183 4q-126 4 -191 4q-174 0 -301 -6l-7 7l7 53l10 9l29 8q62 14 75.5 29.5t41 163.5t96.5 549.5t69 467.5q0 25 -12.5 36.5t-30.5 14
t-139 9.5l-7 8zM434 121l140 -19q96 -14 164 -14q112 0 186 30.5t130 94.5t100 155t77 235.5t33 291.5q0 94 -22 168t-57.5 123t-87.5 80t-112 41.5t-145 10.5q-119 0 -200 -12q-5 -48 -37 -209l-87 -486q-66 -376 -82 -490z" />
    <glyph glyph-name="E" unicode="E" horiz-adv-x="1251" 
d="M41 1l7 53l10 9q78 19 94 29q8 5 14 14t16.5 51.5t72.5 397.5l77 446q37 221 37 280q0 25 -12.5 37t-30.5 14t-139 9l-7 8l8 55l9 8q159 -7 428 -7q48 0 608 7l10 -12q-2 -24 -29 -170q-14 -78 -22 -146l-9 -8h-52l-8 8q3 117 3 140q0 30 -7 41t-35 21t-106.5 18
t-148.5 8q-110 0 -182 -12l-62 -312q-14 -70 -37 -205q218 -5 276 -5q90 0 194 5l6 -12l-26 -88l-12 -9q-186 4 -372 9q-35 0 -82 -2l-63 -358q-28 -155 -34 -225h166q126 0 219.5 6t127.5 16t50 30t39 107q5 22 26 86l8 8h59l7 -8l-67 -341l-11 -9q-160 3 -219 3l-441 4
q-152 0 -351 -6zM791 1492zM553 -65z" />
    <glyph glyph-name="F" unicode="F" 
d="M192 1403l9 9q136 -7 311 -7l354 3q134 0 336 4l9 -12q-8 -56 -27.5 -162.5t-22.5 -151.5l-11 -8h-51l-8 8q2 69 3 138q0 30 -5.5 40.5t-27.5 20.5t-94 19t-152 9q-87 0 -162 -11q-18 -56 -43 -217q-7 -40 -66 -376l62 -2q300 0 416 15l9 -13l-25 -94l-11 -9
q-152 4 -365 4q-64 0 -105 -4q-72 -424 -72 -481q0 -32 21.5 -45t60.5 -15l106 -5l7 -8l-6 -50l-9 -9q-116 7 -329 7q-164 0 -314 -7l-7 8l6 50l9 9q9 1 46 3q87 3 106 18t33.5 69.5t108.5 596.5q81 463 81 534q0 25 -13 36.5t-30.5 14t-139.5 9.5l-6 8z" />
    <glyph glyph-name="G" unicode="G" horiz-adv-x="1593" 
d="M1334 93l-7 -7q-50 -10 -161 -48q-155 -53 -248 -67t-174 -14q-277 0 -434.5 141.5t-157.5 413.5q0 149 43.5 292t120.5 247t222.5 204.5t269 140t257.5 39.5q116 0 234 -27t178 -67l8 -14l-46 -169q-18 -64 -32 -157l-9 -8h-57l-7 8q8 109 8 191q-137 113 -350 113
q-134 0 -237 -43t-174 -151.5t-112 -271t-41 -319.5q0 -224 101 -343t290 -119q137 0 240 59l38 155q11 43 21.5 109t10.5 82t-9 27.5t-21 14.5t-70.5 6t-102.5 4l-7 8l10 54l9 9q192 -7 279 -7q42 0 308 7l7 -9l-8 -54l-10 -8q-54 -1 -78.5 -10t-37 -30.5t-28.5 -102.5
l-19 -87q-16 -78 -19.5 -101t-3.5 -49q0 -20 6 -42z" />
    <glyph glyph-name="H" unicode="H" horiz-adv-x="1594" 
d="M1134 793q74 423 74 489q0 19 -8 30t-24.5 16t-60.5 8l-90 5l-7 8l8 55l9 8q116 -7 281 -7q129 0 359 7l6 -8l-9 -55l-9 -8q-113 -4 -128.5 -8t-26 -13.5t-18.5 -27.5q-12 -30 -42 -185l-129 -749q-31 -188 -31 -233q0 -31 20.5 -44.5t65.5 -15.5l102 -5l7 -8l-6 -50
l-9 -9q-116 7 -307 7q-182 0 -336 -7l-7 8l6 50l9 9q9 1 46 3q83 3 100.5 14t30 44t43.5 206l65 369l-281 1l-308 -1q-89 -502 -89 -571q0 -31 21 -44.5t64 -15.5l103 -5l7 -8l-6 -50l-9 -9q-130 7 -307 7q-182 0 -336 -7l-7 8l5 50l10 9q9 1 46 3q84 3 100.5 14t29.5 43.5
t54 264.5l92 531q52 300 52 365q0 20 -7.5 31t-24 16t-60.5 8l-90 5l-7 8l8 55l9 8q120 -7 281 -7q105 0 359 7l6 -8l-9 -55l-9 -8q-110 -4 -126 -7.5t-29 -15t-25 -47t-39 -191.5l-51 -287q198 -7 297 -7z" />
    <glyph glyph-name="I" unicode="I" horiz-adv-x="797" 
d="M8 -7l-7 8l6 50l9 9q9 1 46 3q84 3 100.5 14t29.5 43t53 263l93 532q52 301 52 366q0 18 -6.5 29t-21.5 17t-62 9l-92 5l-7 8l8 54l9 9q136 -7 316 -7q74 0 324 7l6 -8l-9 -55l-9 -8q-114 -4 -128 -8q-16 -5 -26.5 -14t-18.5 -28q-13 -32 -44 -195l-131 -759
q-27 -171 -27 -212q0 -32 21 -45t63 -15l104 -5l7 -8l-6 -50l-9 -9q-116 7 -329 7q-164 0 -314 -7zM561 1492zM302 -65z" />
    <glyph glyph-name="J" unicode="J" horiz-adv-x="797" 
d="M239 1341l-6 8l7 54l10 9q136 -7 315 -7q76 0 324 7l7 -8l-9 -55l-9 -8q-111 -4 -127.5 -8t-27.5 -13.5t-21.5 -34t-35.5 -160.5l-132 -764q-44 -268 -64 -350q-39 -160 -112 -270t-163 -155.5t-216 -45.5q-46 0 -89 10l-16 46l9 17q34 -4 67 -4q92 0 134.5 26.5t71 88.5
t78.5 363l119 712q69 411 69 480q0 26 -12.5 38t-31 14.5t-139.5 9.5z" />
    <glyph glyph-name="K" unicode="K" horiz-adv-x="1479" 
d="M560 697q64 44 150 121.5t246 235t206.5 210t53.5 69.5t7 44v25l8 9q45 -6 72 -6q142 0 245 6l8 -9l-9 -56l-9 -8q-67 -2 -89 -8t-51.5 -24t-135.5 -109.5t-221 -200.5l-229 -216l393 -559q82 -117 109.5 -137.5t103.5 -23.5l7 -8l-5 -51l-11 -9l-30 1q-132 7 -209 7
q-52 0 -125 -8q-140 216 -231.5 348.5t-256.5 343.5l-49 -292q-23 -136 -30 -192.5t-7 -74.5q0 -32 21.5 -45t60.5 -15l106 -5l7 -8l-6 -50l-9 -9q-116 7 -329 7q-164 0 -314 -7l-7 8l6 50l9 9q9 1 46 3q84 3 100.5 14t29.5 43t53 263l93 532q52 301 52 366q0 18 -6.5 29
t-21.5 17t-62 9l-92 5l-7 8l8 54l9 9q136 -7 316 -7q74 0 324 7l6 -8l-9 -55l-9 -8q-110 -4 -126 -7.5t-29.5 -15t-25 -49t-43.5 -216.5z" />
    <glyph glyph-name="L" unicode="L" horiz-adv-x="1251" 
d="M79 1l7 53l10 9q75 18 90 27q9 5 13.5 10t9.5 17q14 38 40 189l127 746q29 183 29 229q0 25 -13 36.5t-31 14t-139 9.5l-6 8l7 54l10 9q141 -7 316 -7q47 0 323 7l6 -8l-8 -55l-9 -8q-112 -4 -128.5 -8t-29.5 -16.5t-26 -59.5t-47 -238l-126 -716q-26 -137 -31 -205h166
q126 0 219.5 6t127.5 16t50 30t39 107q5 22 26 86l8 8h59l7 -8q-3 -24 -19 -99q-13 -60 -25 -128q-15 -82 -23 -114l-11 -9q-168 3 -245 3l-404 4q-231 0 -362 -6z" />
    <glyph glyph-name="M" unicode="M" horiz-adv-x="1933" 
d="M1550 1411q147 -10 170 -10l283 10l8 -8l-6 -53l-12 -9q-10 -1 -49.5 -5t-60.5 -10t-34 -21.5t-22.5 -47t-25.5 -116.5l-140 -805q-29 -179 -29 -211q0 -29 17 -41t67 -16l94 -9l7 -8l-9 -51l-10 -6q-157 6 -307 6q-142 0 -299 -6l-8 8l6 49l8 6q110 16 132 22.5
t37.5 58.5t47.5 243l76 444l57 371q-421 -674 -635 -1057l-98 -176h-55l-128 526l-161 635l-152 -612q-81 -334 -81 -382q0 -37 17.5 -50.5t143.5 -20.5l9 -8l-7 -49l-8 -8q-104 6 -217 6q-114 0 -213 -6l-8 8l4 49l10 8q97 11 113.5 30t58.5 161.5t105 378.5l116 438
q41 158 41 195q0 55 -54.5 64t-135.5 13l-6 11l6 51l8 8q154 -6 234 -6q90 0 207 6l108 -448l152 -603q84 136 102 166l389 652z" />
    <glyph glyph-name="N" unicode="N" horiz-adv-x="1593" 
d="M1225 291q161 890 161 983q0 36 -24 49t-60.5 14.5t-89.5 5.5l-8 11l10 49l9 8h53q172 -6 211 -6q32 0 194 6l9 -8l-4 -51l-11 -9q-90 -2 -107.5 -6t-36 -29t-58.5 -226l-138 -709q-31 -161 -61 -389h-176l-635 1124q-162 -854 -162 -977q0 -41 28 -53t60.5 -13.5
t85.5 -5.5l6 -8l-8 -51l-8 -6h-53q-194 6 -222 6q-41 0 -186 -8l-6 8l4 51l8 8q99 4 113 10.5t28 21t27 74.5l42 194q28 134 49 246l114 622q-53 80 -78.5 92t-163.5 24l-6 9l6 51l13 8q86 -5 145 -4l283 4l182 -324z" />
    <glyph glyph-name="O" unicode="O" horiz-adv-x="1706" 
d="M153 531q0 78 22 209.5t91 267t179 233.5t248 146t302 48q127 0 242.5 -33.5t208 -115.5t131 -194.5t38.5 -252.5q0 -369 -230.5 -626t-617.5 -257q-195 0 -335 68t-209.5 195t-69.5 312zM433 468q0 -129 38.5 -225t133 -145.5t204.5 -49.5q161 0 266 94.5t182 328
t77 444.5q0 231 -102.5 328.5t-265.5 97.5q-152 0 -248.5 -70.5t-164.5 -221.5t-94 -312t-26 -269zM1007 1492zM738 -65z" />
    <glyph glyph-name="P" unicode="P" horiz-adv-x="1366" 
d="M239 1412q120 -7 294 -7q146 0 287 5q81 2 144 2q143 0 226.5 -38.5t133.5 -117.5t50 -188q0 -205 -150.5 -348t-355.5 -143q-97 0 -203 38l-9 64l6 8q76 -28 145 -28q89 0 157.5 57.5t103 152t34.5 192.5q0 125 -65.5 191t-194.5 66q-46 0 -151 -16q-37 -181 -65 -347
l-66 -379q-38 -214 -65 -410q-3 -21 -3 -41q0 -27 16.5 -41.5t65.5 -17.5l106 -6l7 -8l-6 -50l-9 -9q-146 7 -307 7q-191 0 -336 -7l-7 8l6 50l9 9q9 1 46 3q84 3 101 14.5t29.5 42t53.5 267.5l93 533q51 296 51 361q0 18 -6.5 29t-21.5 17t-62 9l-92 5l-7 8l8 54z" />
    <glyph glyph-name="Q" unicode="Q" horiz-adv-x="1706" 
d="M610 -31q-217 36 -337 178t-120 376q0 151 47.5 321t157 306t270.5 210.5t367 74.5q196 0 337.5 -72t212 -200.5t70.5 -323.5q0 -251 -108.5 -452.5t-293.5 -316t-444 -114.5q-61 0 -120 8q105 -27 340 -132q136 -61 214 -86.5t137 -25.5q30 0 61 16t56.5 52t43.5 110
l9 6l49 -17l5 -9q-34 -153 -111 -247.5t-188 -94.5q-44 0 -87.5 12t-86 32t-140.5 76q-209 121 -290.5 158.5t-146.5 37.5q-62 0 -106 -50.5t-46 -153.5l-10 -7l-43 28l-7 14q-1 11 -1 15q0 82 40 148t102 96t117 30q17 0 50 -3zM433 468q0 -129 38.5 -225t133 -145.5
t204.5 -49.5q161 0 266 94.5t182 328t77 444.5q0 231 -102.5 328.5t-265.5 97.5q-152 0 -248.5 -70.5t-164.5 -221.5t-94 -312t-26 -269z" />
    <glyph glyph-name="R" unicode="R" horiz-adv-x="1479" 
d="M1196 279q78 -135 100.5 -165t40 -40t84.5 -15l9 -8l-5 -49l-10 -8q-74 6 -170 6q-94 0 -192 -6q-273 523 -418 739l8 33q29 -2 59 -2q175 0 275 87.5t100 252.5q0 217 -248 217q-105 0 -161 -16l-133 -770q-60 -342 -60 -390v-22q0 -27 15 -40.5t69 -16.5l105 -7l6 -8
l-6 -49l-9 -8q-166 6 -329 6t-314 -6l-8 6l6 51l10 8l48 4q59 3 87.5 7.5t49 86.5t45.5 226l92 530q51 296 51 367q0 34 -17 43t-73 12l-90 6l-8 9l8 53l10 8q127 -6 316 -6l395 8q258 0 336 -90t78 -203q0 -130 -95.5 -235.5t-324.5 -151.5z" />
    <glyph glyph-name="S" unicode="S" 
d="M1032 1045l-10 -8h-48l-8 9q2 36 2 54l-2 103q-35 53 -108.5 83.5t-157.5 30.5q-81 0 -149 -31.5t-104 -99t-36 -147.5q0 -62 22 -102t57 -63.5t75.5 -37t155.5 -35.5q102 -20 154.5 -40t88.5 -55t57.5 -91.5t21.5 -125.5q0 -135 -83.5 -260t-214 -198.5t-293.5 -73.5
q-101 0 -196.5 29t-158.5 77l-4 12q9 31 28.5 149t21.5 150l11 9h47l8 -8l-2 -112q0 -14 2 -57q28 -47 117.5 -91t190.5 -44q154 0 230.5 86t76.5 195q0 49 -16.5 88t-40.5 60.5t-56 33.5t-100 28q-162 39 -234.5 71t-116.5 105.5t-44 185.5q0 152 83 268t207 179.5
t267 63.5q179 0 308 -89l4 -11q-35 -143 -53 -290z" />
    <glyph glyph-name="T" unicode="T" horiz-adv-x="1251" 
d="M237 60q10 1 47 3q82 3 97.5 12.5t29.5 38t60 291.5l84 487l69 406q-136 0 -203.5 -2.5t-106 -11t-46.5 -14.5t-20.5 -29t-28.5 -84t-25 -100l-9 -8h-58l-7 9q25 135 49 342l12 12q22 0 137 -6q217 -10 441 -10q137 0 331.5 4.5t271.5 11.5l15 -17q-58 -286 -61 -338
l-9 -8h-59l-7 8q9 82 9 150q0 53 -12 67.5t-72.5 19.5t-161.5 5l-112 -1l-80 -421l-91 -535q-21 -129 -27 -186q-1 -18 -1 -31q0 -27 16.5 -41.5t65.5 -17.5l106 -6l7 -8l-6 -50l-9 -9q-117 7 -329 7q-156 0 -314 -7l-7 8l5 50z" />
    <glyph glyph-name="U" unicode="U" horiz-adv-x="1593" 
d="M1319 127q0 -34 17 -46.5t61 -14.5l108 -7l6 -8l-6 -49l-8 -10q-164 8 -217 8l-240 -4l-10 12q37 163 49 252q-172 -182 -284 -241.5t-232 -59.5q-194 0 -279.5 94.5t-85.5 217.5q0 127 73 530t73 475q0 28 -17.5 43.5t-156.5 21.5l-8 9l8 53l14 8q83 0 164 -2l162 -4
q64 0 135 6l12 -16q-18 -78 -45 -221l-61 -320l-59 -348q-21 -123 -21 -176q0 -103 66.5 -151t156.5 -48q75 0 144 32.5t142.5 97.5t94 98t35.5 124l102 623q25 144 25 170q0 40 -24 49.5t-160 15.5l-6 9l8 53l10 8q156 -6 315 -6q69 0 324 6l6 -6l-8 -55l-10 -11
q-120 -3 -132.5 -6.5t-27 -17t-31 -86t-37.5 -193.5l-121 -700q-29 -167 -24 -209zM925 1492zM708 -65z" />
    <glyph glyph-name="V" unicode="V" horiz-adv-x="1366" 
d="M512 -15q-4 45 -58 394l-68 433l-74 433q-9 49 -17 64q-4 8 -11.5 14t-19.5 10q-22 7 -114 8l-8 9l8 53l12 9l241 -6l335 6l7 -9l-7 -49l-9 -9q-105 -4 -126 -18t-21 -42q0 -70 24 -225l119 -778l234 430q37 69 101.5 194t117.5 239t58.5 133.5t5.5 27.5q0 19 -24 26
t-137 13l-7 9l7 50l10 8q2 0 57 -2q97 -3 132 -3l236 5l9 -10l-8 -53l-9 -8q-45 0 -66.5 -6.5t-35.5 -24t-70 -120.5l-499 -904q-143 -259 -156 -301h-169z" />
    <glyph glyph-name="W" unicode="W" horiz-adv-x="2048" 
d="M1823 981q92 235 92 303q0 34 -26.5 45.5t-139.5 11.5l-6 9l6 53l10 10q176 -8 244 -8q93 0 182 6l8 -8l-4 -53l-8 -11q-78 0 -94 -18.5t-82 -181.5l-344 -848q-45 -109 -121 -307h-172q-31 137 -68 276l-198 752l-504 -1028h-170l-51 598q-28 306 -49 483.5t-32 217.5
t-32.5 47.5t-111.5 10.5l-9 9l9 55l10 8l301 -6q185 0 274 6l8 -8l-8 -55l-8 -9q-99 0 -127.5 -15.5t-28.5 -70.5q0 -69 19 -278l59 -674l193 395l344 721h65l301 -1145z" />
    <glyph glyph-name="X" unicode="X" horiz-adv-x="1479" 
d="M1062 1412q106 -8 204 -8l312 8l6 -8l-7 -54l-10 -9q-91 -1 -114 -11t-94 -78.5t-245 -254.5l-203 -217l190 -379q146 -292 169 -311.5t139 -27.5l7 -9l-8 -51l-10 -8l-316 6q-25 0 -299 -6l-6 7l8 52l10 8q98 2 125 13t27 35q0 12 -7.5 35.5t-53.5 117.5l-86 175
l-74 143l-183 -205q-45 -49 -110.5 -131t-74.5 -100.5t-9 -28.5q0 -28 35.5 -41t140.5 -14l6 -9l-6 -49l-12 -9l-69 2q-166 5 -241 5q-105 0 -215 -7l-7 8l8 51l9 8q85 2 116 15t87 75l477 518l-202 402q-18 36 -68.5 129.5t-67.5 111t-35 22.5t-134 8l-8 9l9 54l8 8l357 -6
q134 0 286 6l6 -8l-8 -55l-9 -8l-67 -2q-55 -3 -67.5 -12.5t-12.5 -26.5q0 -45 130 -298l70 -138l161 183l76 92q43 50 76 95t37 55t4 17q0 16 -24 24t-144 11l-7 9l8 54z" />
    <glyph glyph-name="Y" unicode="Y" horiz-adv-x="1251" 
d="M297 60q13 1 46 3q76 3 92.5 10.5t29.5 29t30 110.5l34 179q17 89 17 112q0 57 -62.5 270.5t-110.5 309.5t-92 123.5t-94 27.5q-30 0 -63 -17l-9 9v45l8 14q54 39 98 77q68 60 74 63q43 6 60 6q49 0 97.5 -21.5t98 -92.5t94.5 -216t79 -315q29 -140 35 -165
q52 124 86.5 194.5t103.5 185.5t145 209.5t124.5 133.5t84.5 52.5t75 14.5l-12 -186q-58 -11 -107 -42q-64 -41 -144.5 -135.5t-158 -231.5t-114 -230.5t-63.5 -254t-27 -206.5q0 -33 22 -46t59 -15l107 -5l7 -8l-6 -50l-9 -9q-116 7 -329 7q-156 0 -314 -7l-7 8l5 50z
M811 1492zM582 -65z" />
    <glyph glyph-name="Z" unicode="Z" horiz-adv-x="1366" 
d="M676 100q313 0 459 35q11 19 21.5 41t21.5 47.5t21 53.5t28 86l10 10h55l11 -11q-47 -178 -80 -362l-11 -8q-28 -2 -61 -2q-20 0 -74 2l-162 6q-43 2 -227 2h-369q-145 0 -309 -8l-8 10l10 55q19 14 164 195l256 317l578 731h-258q-151 0 -217.5 -4t-124 -11.5
t-64.5 -13.5t-30.5 -65t-43.5 -139l-12 -10h-55l-8 8q49 269 55 334l12 14q314 -8 656 -8q116 0 460 6l9 -8l-9 -55q-153 -177 -295 -357l-698 -889z" />
    <glyph glyph-name="bracketleft" unicode="[" horiz-adv-x="682" 
d="M784 1411q-50 0 -167 -7q-29 -2 -41.5 -9t-19.5 -38l-29 -150q-34 -179 -63 -367l-99 -695q-23 -169 -23 -237q0 -37 33 -46t194 -16l6 -10l-8 -51l-10 -8q-61 6 -278 6q-129 0 -181 -6l-12 12q34 141 121 701t135 978l16 13q111 -6 209 -6q115 0 230 8l6 -10l-8 -56z
" />
    <glyph glyph-name="backslash" unicode="\" horiz-adv-x="1241" 
d="M956 -56l-6 -9h-121l-11 9l-524 1555l7 9h120l11 -9z" />
    <glyph glyph-name="bracketright" unicode="]" horiz-adv-x="682" 
d="M262 373l109 739q26 194 22 238q0 38 -42.5 49.5t-186.5 11.5l-6 10l8 52l12 10q55 -6 277 -6q123 0 180 4l12 -11q-25 -98 -114 -724.5t-131 -959.5l-14 -14q-125 11 -220 11q-93 0 -231 -6l-7 10l9 53l8 6q18 0 106 4.5t102 11.5t24.5 40.5t82.5 470.5z" />
    <glyph glyph-name="asciicircum" unicode="^" horiz-adv-x="1024" 
d="M993 661h-199l-282 551l-282 -551h-199l387 758h188z" />
    <glyph glyph-name="underscore" unicode="_" horiz-adv-x="1022" 
d="M0 -256v103h1022v-103h-1022z" />
    <glyph glyph-name="grave" unicode="`" horiz-adv-x="682" 
d="M682 1119l-57 -28q-48 47 -123 118t-148 134l-154 131l10 23l12 5l222 -27l13 -10q62 -100 221 -333z" />
    <glyph glyph-name="a" unicode="a" 
d="M1042 213l22 -39l-4 -13q-181 -133 -248.5 -170t-112.5 -37q-32 0 -50.5 27t-18.5 68q0 42 16 122t69 291q-168 -288 -302 -398.5t-219 -110.5q-46 0 -79.5 41t-33.5 148q0 94 28 219t79 253q26 64 61.5 103.5t153.5 125.5t167.5 104t111.5 18q44 0 104 -13.5t110 -39.5
l92 54l33 -24q-25 -59 -61 -218l-74 -338q-39 -180 -39 -220q0 -39 26 -39q32 0 157 86h12zM761 810q-89 45 -164 45q-78 0 -126 -62t-104 -276t-56 -317q0 -75 40 -75q42 0 150 126t177.5 279t82.5 280zM690 1038zM431 -65z" />
    <glyph glyph-name="b" unicode="b" horiz-adv-x="1100" 
d="M543 1495l25 -22q-106 -446 -184 -835q121 177 255 256.5t244 79.5q79 0 111 -72.5t32 -179.5q0 -166 -68.5 -345.5t-253.5 -299.5t-342 -120q-80 0 -140 26t-87 79.5t-27 117.5q0 50 9.5 115.5t46.5 265.5q125 686 125 727q0 24 -13 36.5t-46 13.5t-102 2l-9 9l7 43
l10 9q218 27 407 94zM331 234q0 -93 41.5 -136t101.5 -43q52 0 107 40.5t101.5 130t77.5 215.5t31 221q0 85 -23 126.5t-62 41.5q-32 0 -87 -31t-113 -95.5t-94.5 -138.5t-58.5 -163.5t-22 -167.5z" />
    <glyph glyph-name="c" unicode="c" horiz-adv-x="909" 
d="M810 229l23 -42l-3 -12q-171 -123 -281 -172t-208 -49q-78 0 -142 37.5t-91.5 103.5t-27.5 140q0 90 20.5 191t52 175.5t61 111.5t69 66t140.5 91q73 47 100 61t70 24.5t92 10.5q96 0 212 -49l3 -11q-15 -36 -36.5 -126.5t-28.5 -146.5l-11 -9h-51l-7 9q8 54 8 99
q0 9 -1 30q-86 75 -184 75q-71 0 -112 -26.5t-68.5 -78.5t-61 -191.5t-33.5 -248.5q0 -90 41 -145t113 -55q59 0 131.5 26.5t199.5 110.5h11z" />
    <glyph glyph-name="d" unicode="d" 
d="M694 1340l-8 9l6 43l10 9q216 27 407 94l25 -22l-72 -312q-29 -135 -114 -556q-62 -309 -72 -386q-5 -39 -5 -57q0 -34 21 -34q25 0 141 85l12 -1l21 -39l-3 -13q-186 -141 -243.5 -170.5t-96.5 -29.5q-35 0 -54.5 29t-19.5 67q0 56 38 205q19 77 50 212
q-114 -218 -272 -367t-257 -149q-59 0 -93 54t-34 147q0 124 32 259t75.5 224t75 118t137 98t158.5 88.5t113 19.5q56 0 137 -21l32 211q14 93 14 131q0 27 -13.5 39t-44.5 13t-103 2zM784 824q-73 35 -172 35q-77 0 -113.5 -26.5t-82 -148t-73.5 -255.5t-28 -232
q0 -71 37 -71q34 0 86 40t129.5 142.5t128.5 217t70 209.5z" />
    <glyph glyph-name="e" unicode="e" horiz-adv-x="909" 
d="M775 228l23 -41l-3 -12q-176 -125 -284.5 -171.5t-191.5 -46.5q-73 0 -137 31t-91.5 89.5t-27.5 123.5q0 108 41.5 277t105.5 251t207.5 164t246.5 82q87 0 142 -44.5t55 -127.5q0 -102 -61 -184.5t-202.5 -139t-290.5 -81.5q-11 -73 -11 -134q0 -98 46.5 -133.5
t103.5 -35.5q41 0 94 15.5t88.5 35t135.5 83.5zM315 453q208 46 280 142.5t72 180.5q0 48 -28 74.5t-69 26.5q-82 0 -142 -86.5t-113 -337.5zM651 1038zM317 -65z" />
    <glyph glyph-name="f" unicode="f" horiz-adv-x="682" 
d="M101 840l7 36l11 11q23 8 91 28t105 37q3 7 13 55q17 74 30 106.5t45 71.5t117 111t157.5 123.5t109 65.5t80.5 14q47 0 90 -17q-39 -133 -57 -259l-30 -7q-77 118 -154 118q-28 0 -52.5 -17.5t-38 -47t-38.5 -132.5t-42 -201h23q20 0 111.5 5t119.5 11l10 -16
q-21 -57 -29 -95l-11 -10q-35 2 -138 2q-83 0 -107 -2l-78 -347q-48 -214 -94 -378q-61 -220 -119.5 -333.5t-148.5 -204t-162 -124.5q-45 -21 -86 -21q-36 0 -76 18q48 124 66 222l32 6q39 -91 100 -91q21 0 40.5 10.5t36.5 34.5t42.5 123t61.5 289l74 387l78 409
q-57 2 -91 2q-52 0 -92 -2z" />
    <glyph glyph-name="g" unicode="g" horiz-adv-x="1024" 
d="M291 23q-54 48 -54 101q0 12 4 25.5t7 17t16 11.5q133 81 164 107l-38 -1q-116 0 -197 61t-81 195q0 67 20 128.5t54 109.5t69 73.5t107.5 57t128.5 49.5t97 18q33 0 65 -4.5t45.5 -8.5t49.5 -19l30 -11q3 -2 60.5 -5t86.5 -3q26 0 88 4q44 3 57 3l11 -16l-23 -105
q-19 4 -77 7t-66 3q-10 0 -34 -2q23 -52 23 -116q0 -70 -25.5 -139t-59.5 -113.5t-82 -72t-131 -59.5q-56 -22 -83 -36.5t-43.5 -34.5t-16.5 -35q0 -20 18 -44t120 -94q145 -101 193.5 -159.5t48.5 -140.5q0 -157 -152 -252t-367 -95q-130 0 -230 32.5t-148 94.5t-48 133
q0 87 76 170.5t255 143.5zM324 543q0 -102 42.5 -145t108.5 -43q69 0 115 48.5t70 133t24 165.5q0 101 -44 142t-107 41q-100 0 -154.5 -105.5t-54.5 -236.5zM335 -16l-89 -44q-44 -23 -72 -44t-50 -49.5t-33 -61.5t-11 -68q0 -68 36 -114t102 -72.5t146 -26.5
q123 0 195 57.5t72 138.5q0 47 -36 91t-260 193z" />
    <glyph glyph-name="h" unicode="h" 
d="M545 1495l25 -22q-145 -615 -216 -960q137 217 301.5 340.5t267.5 123.5q83 0 83 -87q0 -48 -13.5 -108.5t-77.5 -292.5q-70 -254 -70 -315q0 -44 28 -44q19 0 46 16t94 65l12 -1l21 -35l-3 -14q-170 -128 -245 -166t-120 -38q-29 0 -50.5 24t-21.5 79q0 38 8.5 82.5
t46.5 185.5q97 362 97 412q0 45 -38 45q-30 0 -77 -29q-75 -47 -152 -148t-130 -224q-34 -81 -72 -228q-24 -95 -24 -152q-31 0 -103.5 -15t-108.5 -25l-20 19q66 218 135.5 583t98.5 554l17 105q8 45 8 63q0 23 -13 36t-47 14t-101 2l-9 9l7 43l9 9q216 27 407 94z" />
    <glyph glyph-name="i" unicode="i" horiz-adv-x="682" 
d="M393 1285q0 62 39 106t100 44q52 0 82 -31.5t30 -81.5q0 -61 -36 -110.5t-101 -49.5q-61 0 -87.5 35t-26.5 88zM79 679l-20 35l2 13q176 137 274.5 194t153.5 57q25 0 43 -21.5t18 -54.5q0 -44 -15.5 -111t-65.5 -254q-87 -322 -87 -373q0 -14 8.5 -24.5t19.5 -10.5
q30 0 160 93l12 -1l22 -40l-4 -13q-70 -50 -167 -114.5t-138.5 -80.5t-72.5 -16q-39 0 -58 29t-19 75t11.5 104.5t49.5 202.5q84 321 84 378q0 28 -23 28q-38 0 -174 -96zM215 -65z" />
    <glyph glyph-name="j" unicode="j" horiz-adv-x="682" 
d="M423 1285q0 63 39.5 106.5t100.5 43.5q52 0 81.5 -31t29.5 -82q0 -65 -37 -112.5t-100 -47.5q-58 0 -86 34t-28 89zM-120 -571q17 60 21 165l28 6q34 -48 56 -58.5t41 -10.5q18 0 32 11q22 18 37 66q26 85 108 487l87 445q31 162 31 203q0 32 -22 32q-38 0 -177 -97
l-13 1l-21 35l2 13q212 161 297.5 206t138.5 45t53 -83q0 -53 -48 -264l-68 -296q-60 -253 -104 -407.5t-93 -240t-138 -175.5q-58 -60 -96.5 -77t-84.5 -17q-35 0 -67 11z" />
    <glyph glyph-name="k" unicode="k" 
d="M193 1340l-9 9l7 43l9 9q218 27 407 94l25 -22q-50 -200 -221 -1016q4 4 77 93q94 115 166.5 193t146.5 134.5t130 77.5t117 21q27 0 55 -6l4 -12q-30 -101 -37 -152l-11 -8q-59 19 -91 19q-65 0 -145 -38t-154 -124q11 -32 69.5 -193.5t95.5 -235.5t54.5 -87.5
t32.5 -13.5q38 0 143 72l11 -1l22 -39l-3 -14q-40 -25 -80 -53q-191 -133 -256 -133q-18 0 -33 8t-36.5 38.5t-46 93t-74 196t-65.5 183.5q-56 -58 -78.5 -91.5t-32.5 -61t-27 -111.5t-23 -123.5t-6 -80.5q-101 -5 -227 -40l-17 25q84 293 173 771t89 524q0 24 -13.5 36
t-41.5 13.5t-106 2.5z" />
    <glyph glyph-name="l" unicode="l" horiz-adv-x="682" 
d="M576 221l23 -39l-4 -13q-222 -157 -281 -184.5t-97 -27.5q-43 0 -61 34.5t-18 79.5q0 91 60 365l139 635q12 52 24.5 125.5t12.5 91.5q0 22 -12.5 35.5t-47 14.5t-101.5 2l-8 9l6 43l10 9q218 27 407 94l25 -22q-85 -354 -167 -746l-96 -453q-13 -61 -13 -98
q0 -43 27 -43q39 0 161 89z" />
    <glyph glyph-name="m" unicode="m" horiz-adv-x="1706" 
d="M105 -38l-20 29q1 4 24 77q49 157 96.5 376t47.5 293q0 20 -9 32.5t-21 12.5q-11 0 -30 -12.5t-113 -82.5l-14 1l-20 35l1 14q72 61 168.5 134t142 92t75.5 19q26 0 40.5 -19t14.5 -45q0 -31 -14 -100t-82 -367q131 244 295 387.5t266 143.5q31 0 51 -22.5t20 -58.5
q0 -29 -9 -82t-34 -153l-55 -215q127 253 301 389.5t285 136.5q36 0 54 -28t18 -70q0 -71 -37 -212q-115 -429 -115 -503q0 -34 23 -34q27 0 153 92l12 -1l22 -39l-3 -13q-167 -122 -246 -167t-129 -45q-34 0 -54.5 26t-20.5 63q0 45 17.5 125t62.5 252q41 159 52.5 216.5
t11.5 87.5q0 47 -32 47q-24 0 -71 -29t-117 -107.5t-124.5 -181t-94.5 -260t-40 -205.5q-72 0 -212 -29l-24 29q57 144 116.5 399.5t59.5 343.5q0 21 -9.5 32t-23.5 11q-26 0 -75.5 -32t-121 -126t-123 -193.5t-83 -235t-34.5 -189.5q-65 0 -219 -39z" />
    <glyph glyph-name="n" unicode="n" 
d="M88 -37l-26 25q31 78 80 260.5t71.5 317.5t22.5 172q0 34 -23 34q-31 0 -144 -84l-14 1l-20 35l1 13q52 44 121 97.5t125 89t84 45t51 9.5q55 0 55 -65q0 -47 -18 -136.5t-75 -304.5q113 209 284.5 357t278.5 148q85 0 85 -95q0 -52 -23 -148.5t-74 -283.5
q-34 -124 -46.5 -193.5t-12.5 -89.5q0 -37 24 -37q39 0 147 82l12 -1l22 -39l-3 -13q-171 -129 -245 -165.5t-127 -36.5q-42 0 -56.5 32.5t-14.5 67.5q0 81 70 330q77 270 77 345q0 41 -39 41q-18 0 -49.5 -16t-92 -78.5t-111 -141.5t-88 -171t-62.5 -197.5t-31 -167.5
q-127 -10 -216 -38z" />
    <glyph glyph-name="o" unicode="o" 
d="M101 280q0 93 31.5 233.5t108 235t206.5 162t268 67.5q142 0 231 -81t89 -243q0 -147 -55 -300.5t-146.5 -224.5t-192 -121.5t-228.5 -50.5q-122 0 -190 47t-95 121t-27 155zM337 288q0 -122 46 -177t132 -55q59 0 105.5 33t86 118.5t64 212.5t24.5 231q0 131 -51 183
t-124 52q-77 0 -135.5 -59t-103 -230.5t-44.5 -308.5zM690 1038zM450 -65z" />
    <glyph glyph-name="p" unicode="p" 
d="M54 723l1 14q78 66 163 130t132 90t83 26q63 0 63 -67q0 -36 -18.5 -126t-58.5 -246q83 130 149.5 206.5t180 152t202.5 75.5q37 0 62.5 -24.5t41.5 -90t16 -131.5q0 -123 -49 -274t-100 -221q-44 -62 -148 -133.5t-173.5 -104.5t-163.5 -33q-65 0 -116 13
q-23 -96 -54.5 -239t-36.5 -175t-8 -93q-24 -1 -119 -18.5t-109 -24.5l-21 16l91 344q47 191 115.5 513.5t79.5 399.5q3 21 3 36q0 19 -9 31.5t-21 12.5t-37 -16.5t-106 -78.5l-14 1zM345 121q97 -54 193 -54q46 0 82.5 20.5t72 77.5t67 154t53 188t21.5 187
q0 64 -11.5 90.5t-39.5 26.5t-81.5 -28t-118 -100.5t-114.5 -166t-67.5 -155.5t-56.5 -240z" />
    <glyph glyph-name="q" unicode="q" horiz-adv-x="1100" 
d="M466 -571l-19 38q33 27 39.5 34.5t16 32t20.5 76.5q5 29 22 100l67 298l53 239l35 152q-141 -208 -289 -321.5t-240 -113.5q-52 0 -77 52t-25 124q0 79 22.5 193t66.5 229t81.5 155t147.5 121t163 110t132 29q121 0 234 -56l96 58l35 -21q-13 -29 -22 -55
q-16 -49 -53.5 -212.5t-91.5 -430.5l-92 -432q-44 -210 -54 -278q-3 -25 -3 -48q0 -6 3 -30q-72 0 -268 -43zM779 822q-35 23 -83 34t-82 11q-61 0 -106 -24.5t-94 -151.5t-83 -282t-34 -208q0 -72 45 -72q30 0 89.5 42.5t151.5 162t131.5 222.5t64.5 266z" />
    <glyph glyph-name="r" unicode="r" horiz-adv-x="797" 
d="M119 -38l-21 25q79 267 114.5 462.5t35.5 275.5q0 51 -23 51q-28 0 -136 -81l-15 1l-19 33l1 14q174 144 252 190t115 46q29 0 44 -22.5t15 -53.5q0 -34 -8 -74t-76 -329h14q47 110 100 208t104 160.5t89 82.5t81 20q27 0 52 -7l7 -10q-15 -46 -28 -133t-13 -138l-23 -15
q-47 43 -105 43q-49 0 -92.5 -33t-96.5 -135t-92 -243.5t-57 -294.5q-52 -9 -113.5 -17.5t-105.5 -25.5z" />
    <glyph glyph-name="s" unicode="s" horiz-adv-x="909" 
d="M103 295h45l9 -9l3 -89q39 -48 108.5 -83.5t146.5 -35.5q54 0 98.5 16.5t66.5 56.5t22 82q0 38 -18.5 66t-49.5 44.5t-100 31.5q-101 23 -142.5 35.5t-74 38.5t-54 72t-21.5 100t20.5 103.5t58 85t121.5 87.5t129 66.5t110 14.5q135 0 249 -64q-20 -96 -35 -234l-9 -8
h-44l-9 8l-11 92q-45 44 -107.5 68t-120.5 24q-70 0 -117 -40.5t-47 -104.5q0 -69 47 -99.5t182 -56.5q94 -18 139.5 -39.5t75.5 -71.5t30 -116q0 -69 -29 -122.5t-118 -123t-156 -97.5t-174 -28q-54 0 -110 8t-158 48l-4 10q10 34 23.5 124t15.5 131z" />
    <glyph glyph-name="t" unicode="t" horiz-adv-x="797" 
d="M316 831h-209l-7 10l6 35l12 12q83 19 225 67q2 23 14 97q20 111 20 186q60 13 181 57q55 20 68 24l23 -25q-32 -98 -91 -356h103q120 0 169 8l11 -16q-14 -46 -23 -96l-13 -10q-74 7 -162 7h-107q-17 -84 -40 -191l-42 -196l-31 -152q-12 -64 -14.5 -83t-2.5 -34
q0 -26 13.5 -39t33.5 -13q18 0 39 8.5t57 31t125 84.5l14 -1l20 -39l-2 -12q-230 -168 -302.5 -203t-116.5 -35q-58 0 -87.5 36t-29.5 94q0 37 10 92t56 264q78 360 80 388z" />
    <glyph glyph-name="u" unicode="u" 
d="M69 716l-16 38l2 14q141 103 234 156.5t149 53.5q65 0 65 -79q0 -38 -11.5 -95t-44.5 -183l-84 -336q-15 -70 -15 -99q0 -42 35 -42q22 0 65 28.5t128 137.5q66 84 121 196.5t95 265.5q21 84 27 158q103 6 218 40l17 -18q-61 -196 -123.5 -447t-62.5 -327q0 -37 29 -37
q17 0 36 11.5t47 32.5q31 22 52 37h12l22 -39l-3 -13q-205 -154 -260 -182t-96 -28q-31 0 -48 22.5t-17 61.5q0 60 51 256l39 152q-96 -187 -260.5 -343t-264.5 -156q-43 0 -70 30t-27 89q0 39 8.5 83t44.5 179q86 322 86 410q0 42 -29 42q-12 0 -28.5 -7t-108.5 -65z
M690 1038zM430 -65z" />
    <glyph glyph-name="v" unicode="v" 
d="M57 694l82 261q85 15 113 15q39 0 89 -5q122 -10 181 -10q90 0 128 28l28 -39q-52 -57 -119.5 -172t-104 -240.5t-36.5 -237.5q0 -105 37 -154t98 -49q88 0 168 88.5t133 243.5t53 267q0 119 -88 119q-27 0 -56 -18l-14 4l-12 26l3 13q30 22 72 66t55 67q24 7 45 7
q150 0 150 -206q0 -176 -107.5 -379.5t-246.5 -317.5t-269 -114q-108 0 -177 74t-69 218q0 80 23.5 162t83 171t230.5 261q-42 -9 -69.5 -13.5t-122.5 -4.5l-90 2q-10 0 -66 -5l-65 -129l-11 -8h-42z" />
    <glyph glyph-name="w" unicode="w" horiz-adv-x="1706" 
d="M53 692q68 188 76 265q54 12 100 12q47 0 107 -5q116 -11 171 -11q89 0 147 24l29 -33q-116 -129 -196.5 -303.5t-80.5 -340.5q0 -206 112 -206q27 0 55.5 15.5t84.5 81.5t99 155.5t68.5 179t52.5 220.5t27 164v12q129 22 218 54l26 -18q-137 -474 -137 -701
q0 -92 35 -129.5t82 -37.5q44 0 99.5 41t116.5 131.5t96.5 215t35.5 214.5q0 57 -24 91t-71 34q-28 0 -54 -15l-14 2l-15 29l3 13q84 61 135 117q28 8 50 8q68 0 107.5 -53.5t39.5 -151.5q0 -144 -70.5 -300.5t-176 -275.5t-204.5 -176t-182 -57q-75 0 -133 56.5t-58 177.5
q0 59 18 160l-52 -92q-25 -44 -62.5 -92.5t-86 -93.5t-90.5 -71t-75 -35.5t-68 -9.5q-90 0 -151 72.5t-61 213.5q0 135 64.5 261t279.5 340q-80 -23 -159 -23q-10 0 -40 2q-54 2 -72 2q-39 0 -80 -7q-22 -43 -33 -70q-22 -51 -26 -58l-12 -8h-43z" />
    <glyph glyph-name="x" unicode="x" horiz-adv-x="1024" 
d="M-16 -16q16 44 26 112t10 79.5t-1 22.5l50 5l12 -64q30 -12 53 -12q35 0 76 25.5t116 123.5t97 133q-31 186 -47.5 261.5t-48 99t-61.5 23.5q-38 0 -78 -26t-60 -63l-12 -4l-33 19l-2 11q100 158 116 205q80 41 151 41q95 0 144 -51.5t66 -114t33 -187.5
q144 211 195.5 263t91.5 70t76 18q29 0 69 -16q-35 -85 -47 -225l-43 -8l-19 57q-21 10 -39 10q-54 0 -108 -48.5t-160 -202.5q31 -204 54 -284.5t47 -105.5t49 -25q45 0 153 93l12 -1l23 -37l-2 -12q-175 -153 -228.5 -182.5t-93.5 -29.5q-46 0 -83 36t-53.5 98t-43.5 238
q-117 -170 -166.5 -230.5t-81 -89.5t-61 -40.5t-61.5 -11.5q-20 0 -31.5 3.5t-55.5 23.5z" />
    <glyph glyph-name="y" unicode="y" 
d="M49 -371l126 81l30 -12q-2 -21 -2 -39q0 -55 36 -95t97 -40q34 0 67 14.5t66.5 49t65.5 100t70 189.5t65 237l55 222q-135 -196 -246 -286t-171 -90q-40 0 -70 46t-30 155q0 56 38 395q8 128 8 145q0 53 -8 69.5t-29 16.5q-32 0 -147 -84l-15 2l-19 33l1 16l119 92
q88 69 147 100t99 31q39 0 60 -32.5t21 -93.5q0 -36 -16 -189l-20 -179q-19 -175 -19 -250q0 -65 13.5 -78.5t22.5 -13.5q24 0 74 44t121.5 159t123.5 276t71 302l229 50l23 -19q-7 -14 -48 -148t-92 -332q-65 -254 -112.5 -401.5t-110.5 -262.5t-145 -201t-168 -132.5
t-172 -46.5q-87 0 -148 43.5t-61 134.5v22zM690 1038zM957 -65z" />
    <glyph glyph-name="z" unicode="z" horiz-adv-x="1024" 
d="M54 54l689 726q-75 -38 -155 -38q-54 0 -168 15q-96 13 -129 13q-20 0 -43 -3q-12 -23 -45 -100l-11 -7l-42 4l-5 9l89 282q54 19 105 19q76 0 215 -38q131 -37 216 -37q48 0 80 16.5t58 59.5l40 -16l-28 -106l-666 -694q116 51 189 51q51 0 154 -19q112 -20 156 -20
q16 0 48 5l50 110l12 6l38 -3l7 -8q-37 -102 -74 -287q-48 -26 -118 -26q-52 0 -87.5 6t-161.5 39q-140 36 -228 36q-100 0 -160 -68z" />
    <glyph glyph-name="braceleft" unicode="{" horiz-adv-x="682" 
d="M33 607v40q101 0 142 52q39 49 55 144l63 367q25 146 72 198q56 62 180 62h140v-40q-85 0 -137 -62q-40 -49 -55 -136l-60 -354q-20 -116 -62 -168q-47 -59 -155 -83q135 -41 135 -164q0 -41 -12 -111l-59 -345q-7 -41 -7 -73q0 -51 15 -70q29 -35 106 -35v-40h-142
q-55 0 -90 24q-80 54 -80 161q0 36 9 86l63 347q7 39 7 81q0 52 -27 83q-33 36 -101 36z" />
    <glyph glyph-name="bar" unicode="|" horiz-adv-x="1024" 
d="M434 0v1497h157v-1497h-157z" />
    <glyph glyph-name="braceright" unicode="}" horiz-adv-x="682" 
d="M699 652v-40q-101 0 -141 -50.5t-56 -145.5l-63 -367q-25 -146 -71 -198q-57 -62 -181 -62h-140v40q85 0 137 62q40 49 55 136l60 354q20 116 62 168q47 59 155 83q-135 41 -135 164q0 41 12 111l59 345q7 41 7 73q0 51 -15 70q-29 35 -106 35v40h142q55 0 90 -24
q80 -54 80 -161q0 -36 -9 -86l-63 -347q-7 -39 -7 -81q0 -52 28 -82q32 -37 100 -37z" />
    <glyph glyph-name="asciitilde" unicode="~" horiz-adv-x="1024" 
d="M989 601q-49 -107 -113 -163q-81 -72 -157 -72q-63 0 -159 43q-57 25 -149 71q-61 30 -95 30q-80 0 -181 -182l-101 112q117 253 279 253q63 0 159 -43q57 -25 149 -71q61 -30 95 -30q81 0 174 168z" />
    <glyph glyph-name="exclamdown" unicode="&#xa1;" horiz-adv-x="682" 
d="M527 861q0 -73 -38 -128t-111 -55q-57 0 -88.5 33t-31.5 88q0 70 39.5 125t112.5 55q49 0 83 -29t34 -89zM376 559l26 -18q-8 -58 -30 -293l-39 -403q-16 -167 -21 -263q-168 -27 -283 -59l-23 19l195 632q81 260 95 334z" />
    <glyph glyph-name="cent" unicode="&#xa2;" horiz-adv-x="1024" 
d="M423 -44q-22 -2 -35 -2q-81 0 -145.5 36t-93 103t-28.5 142q0 90 20.5 191t52 175.5t61 111.5t69 66t140.5 91q75 49 101 61.5t67 23.5l34 159l10 9h65l8 -8l-32 -149q105 0 221 -49l3 -11q-15 -36 -36.5 -126.5t-28.5 -146.5l-11 -9h-51l-7 9q8 54 8 99q0 9 -1 30
q-55 46 -126 66l-154 -735q54 5 119.5 30.5t186.5 105.5h11l23 -42l-3 -12q-225 -162 -362 -202l-40 -190l-10 -9h-66l-7 9zM453 103l154 733q-42 -3 -72.5 -18t-63.5 -57t-53.5 -108t-41.5 -171.5t-21 -189.5q0 -66 24.5 -118t73.5 -71z" />
    <glyph glyph-name="sterling" unicode="&#xa3;" horiz-adv-x="1024" 
d="M94 -33v158q7 3 71 22q41 14 48 15q61 130 61 391q0 26 -2 81l-39 2q-54 0 -114 -8l-9 10l8 80l11 9q46 -5 66 -5q40 1 80 3q5 170 12 232.5t30 110.5t75 97.5t196 140.5q90 57 132 73q78 29 145 29q51 0 104.5 -18t74.5 -33l4 -11l-63 -253l-10 -8l-39 10l-6 10l11 109
q-56 58 -154 58q-92 0 -145.5 -55t-77 -162.5t-40.5 -326.5q15 0 54 -2q74 -3 78 -3q116 0 167 9l10 -10l-11 -75l-11 -8q-79 6 -201 6q-31 0 -99 -4q-27 -121 -48.5 -191t-45.5 -120.5t-62 -108.5l-35 -56q197 10 211 10q22 0 119 -7q94 -6 142 -6q36 0 70 11q50 92 71 168
l11 7l43 -4l7 -9q-10 -38 -79 -337l-76 -31q-17 -1 -28 -1q-63 0 -201 43q-141 44 -203.5 58t-108.5 14q-9 0 -26 -1q-49 -60 -116 -114z" />
    <glyph glyph-name="currency" unicode="&#xa4;" horiz-adv-x="1024" 
d="M26 858l76 77l182 -197q100 83 224 83q122 0 224 -83l181 196l76 -76l-199 -184q62 -92 62 -197t-62 -197l199 -184l-76 -76l-181 196q-100 -83 -224 -83q-52 0 -106 15t-118 68l-182 -196l-76 76l199 184q-61 90 -61 197q0 56 14.5 101t46.5 96zM248 477
q0 -67 33.5 -128t95 -96.5t131.5 -35.5q107 0 183.5 76.5t76.5 183.5t-76 183.5t-184 76.5q-70 0 -132 -36t-95 -97.5t-33 -126.5z" />
    <glyph glyph-name="yen" unicode="&#xa5;" horiz-adv-x="1024" 
d="M901 463l-8 -51l-12 -9h-277l-29 -180q-8 -50 -8 -97q0 -57 81 -61l107 -5l7 -8l-6 -50l-9 -9q-116 7 -312 7q-136 0 -294 -7l-7 8l5 50l10 9q8 1 46 3q80 5 93 11q19 9 29 29q22 45 40 166l20 134h-275l-7 9l11 51l11 9h269l8 47l-39 134h-224l-7 10l14 51l11 9h185
q-43 145 -105 310q-88 238 -112 273q-21 31 -54 33l-89 5l-7 8l6 50l9 9q116 -7 301 -7q116 0 274 7l7 -8l-5 -50l-10 -9q-8 -1 -41 -3q-58 -4 -78 -10q-27 -8 -27 -31q0 -37 124 -390l74 -210l145 238l68 117q115 198 116 234q1 47 -65 50l-98 5l-7 8l6 50l9 9
q116 -7 251 -7q80 0 238 7l7 -8l-5 -50l-10 -9q-8 -1 -41 -3q-52 -4 -68 -14q-38 -25 -152 -190q-71 -102 -247 -394l-11 -20h186l10 -9l-11 -51l-12 -10h-214l-74 -137l-8 -44h277z" />
    <glyph glyph-name="brokenbar" unicode="&#xa6;" horiz-adv-x="1024" 
d="M434 906v592h157v-592h-157zM434 0v592h157v-592h-157z" />
    <glyph glyph-name="section" unicode="&#xa7;" 
d="M101 -181l54 264l11 9l52 -3l7 -8l-9 -164q47 -70 117.5 -109t139.5 -39q63 0 122.5 30t92.5 78.5t33 109.5q0 50 -24 89.5t-67.5 71.5t-179.5 104q-109 59 -167.5 103.5t-87 109.5t-28.5 129q0 60 24.5 115t62 94t109.5 94q-82 75 -82 167q0 127 116 250.5t288 123.5
q84 0 174.5 -25.5t151.5 -71.5l3 -12l-52 -249l-10 -9l-52 3l-6 9l4 141q-125 114 -264 114q-87 0 -140 -47t-53 -113q0 -67 63 -125t252 -162q87 -48 132.5 -84.5t75.5 -94.5t30 -124q0 -60 -26 -121t-67 -104.5t-97 -83.5q92 -78 92 -194q0 -101 -72 -198t-171 -152.5
t-222 -55.5q-200 0 -327 128zM728 327q48 22 80 73.5t32 100.5q0 40 -21.5 79.5t-79 80.5t-221.5 134q-60 34 -85 49q-96 -87 -96 -181q0 -30 15 -63t45.5 -65.5t66.5 -55.5t105 -61q49 -27 120 -68z" />
    <glyph glyph-name="dieresis" unicode="&#xa8;" horiz-adv-x="682" 
d="M660 1139q-46 0 -73.5 29t-27.5 69q0 57 43 101.5t102 44.5q44 0 72 -29t28 -70q0 -56 -44 -100.5t-100 -44.5zM241 1139q-50 0 -75.5 30.5t-25.5 67.5q0 59 44 102.5t101 43.5q44 0 72 -29t28 -70q0 -53 -42 -99t-102 -46z" />
    <glyph glyph-name="copyright" unicode="&#xa9;" horiz-adv-x="1530" 
d="M765 1423q183 0 356 -93t273 -267t100 -369t-97.5 -364t-267 -267t-364.5 -98t-364.5 98t-267 267t-97.5 364q0 197 99.5 368.5t270.5 266t359 94.5zM765 1310q-159 0 -303 -80t-228.5 -225t-84.5 -311q0 -165 82.5 -308t225.5 -225.5t308 -82.5q164 0 307.5 82.5
t226 226.5t82.5 307q0 164 -85 311.5t-230.5 226t-300.5 78.5zM1040 497l54 -23q-46 -97 -132.5 -145.5t-200.5 -48.5q-177 0 -280.5 119.5t-103.5 283.5q0 122 55.5 227t150.5 155t210 50q40 0 88.5 -6t101 -21t88.5 -33v-218h-68q-15 59 -25.5 86t-37 56t-62 44.5
t-79.5 15.5q-115 0 -179 -93.5t-64 -226.5q0 -151 74 -254t195 -103q50 0 87 14.5t64.5 40t63.5 80.5z" />
    <glyph glyph-name="ordfeminine" unicode="&#xaa;" horiz-adv-x="682" 
d="M737 938l-4 -14q-177 -125 -226 -125q-51 0 -51 64q0 45 41 199q-77 -125 -157.5 -194t-141.5 -69q-77 0 -77 119q0 77 36 199.5t88 162.5t114.5 85.5t135.5 45.5q70 0 131 -31l61 29l24 -16q-15 -32 -61 -232t-46 -229q0 -16 8 -16q29 0 97 47l13 -1zM535 1312
q-60 30 -88 30q-43 0 -65 -27.5t-63.5 -147t-41.5 -215.5q0 -37 17 -37q26 0 77 51.5t103 148.5t61 197zM684 732l-20 -82h-656l20 82h656z" />
    <glyph glyph-name="guillemotleft" unicode="&#xab;" horiz-adv-x="1024" 
d="M480 496v46l228 202q107 96 195 178l12 1l34 -29l1 -12l-259 -369l171 -380l-3 -14l-35 -21l-14 3l-129 160q-45 55 -115 135zM91 496v46l228 202q107 96 195 178l12 1l34 -29l1 -12l-259 -369l171 -380l-3 -14l-35 -21l-14 3l-129 160q-45 55 -115 135z" />
    <glyph glyph-name="logicalnot" unicode="&#xac;" horiz-adv-x="1024" 
d="M993 242h-177v407h-784v179h961v-586z" />
    <glyph glyph-name="registered" unicode="&#xae;" horiz-adv-x="1530" 
d="M765 1423q183 0 356 -93t273 -267t100 -369t-97.5 -364t-267 -267t-364.5 -98t-364.5 98t-267 267t-97.5 364q0 197 99.5 368.5t270.5 266t359 94.5zM765 1310q-159 0 -303 -80t-228.5 -225t-84.5 -311q0 -165 82.5 -308t225.5 -225.5t308 -82.5q164 0 307.5 82.5
t226 226.5t82.5 307q0 164 -85 311.5t-230.5 226t-300.5 78.5zM428 332v41l14 -1q37 0 52 5.5t20 17.5t5 46v565q0 42 -5.5 56t-18 19t-47.5 5h-20v44h356q109 0 167 -26.5t82.5 -78t24.5 -97.5q0 -41 -20 -83.5t-61 -73.5t-124 -50q35 -12 51 -23t38.5 -37.5t34 -46.5
t38.5 -76q32 -69 54 -106.5t36.5 -48t42.5 -10.5v-41h-119q-54 0 -75 17.5t-87 166.5q-38 87 -56 119t-38.5 45t-62.5 13q-13 0 -48 -3v-239q0 -41 7 -55t19.5 -17.5t62.5 -5.5v-41h-323zM662 747q35 -3 53 -3q123 0 160 54.5t37 121.5q0 76 -43 119.5t-115 43.5
q-18 0 -43.5 -2.5t-32 -6.5t-11.5 -15t-5 -25v-287z" />
    <glyph glyph-name="macron" unicode="&#xaf;" horiz-adv-x="682" 
d="M150 1313h647l-30 -127h-647z" />
    <glyph glyph-name="macron" unicode="&#x2c9;" horiz-adv-x="682" 
d="M150 1313h647l-30 -127h-647z" />
    <glyph glyph-name="degree" unicode="&#xb0;" horiz-adv-x="819" 
d="M270 864q-98 99 -98 238q0 144 99.5 241t236.5 97q141 0 240.5 -99.5t99.5 -236.5q0 -142 -98.5 -240t-237.5 -98q-141 0 -242 98zM506 1319q-89 0 -149 -66t-60 -149q0 -85 63 -148t148 -63q89 0 151 63t62 152q0 84 -62 147.5t-153 63.5z" />
    <glyph glyph-name="plusminus" unicode="&#xb1;" horiz-adv-x="1024" 
d="M993 645h-392v-311h-177v311h-392v172h392v352h177v-352h392v-172zM993 0h-961v172h961v-172z" />
    <glyph glyph-name="uni00B2" unicode="&#xb2;" horiz-adv-x="655" 
d="M88 552l-8 12l5 33q7 8 58 54q145 131 246 266.5t101 238.5q0 56 -29.5 89t-88.5 33q-50 0 -82.5 -21t-74.5 -101l-13 -6l-35 11l-3 13l69 164q50 42 94.5 54t87.5 12q108 0 175.5 -55.5t67.5 -161.5q0 -36 -7.5 -65t-26 -62.5t-60 -82t-106.5 -111.5l-117 -110
q-51 -49 -69 -63l55 -1q268 0 320 13l16 -15q-18 -38 -41 -130l-11 -8q-184 5 -255 5z" />
    <glyph glyph-name="uni00B3" unicode="&#xb3;" horiz-adv-x="655" 
d="M104 598l36 190l11 9l37 -3l8 -12q-3 -34 -3 -58q0 -70 36 -99t89 -29q52 0 90 28t60 86.5t22 120.5q0 139 -130 139q-38 0 -91 -18l-13 13l24 73q22 -6 46 -6q94 0 136.5 47t42.5 111q0 53 -31 77.5t-76 24.5q-52 0 -86.5 -21t-66.5 -79l-13 -6l-33 14l-3 12l69 134
q66 58 185 58q99 0 158.5 -45t59.5 -126q0 -60 -36.5 -110.5t-141.5 -101.5q90 -14 132.5 -64.5t42.5 -121.5q0 -122 -100.5 -211.5t-254.5 -89.5q-45 0 -91.5 9.5t-108.5 41.5z" />
    <glyph glyph-name="acute" unicode="&#xb4;" horiz-adv-x="682" 
d="M845 1474q-349 -240 -533 -382l-52 27l7 13l165 188q53 60 130 145l15 10l132 12l121 15l10 -5z" />
    <glyph glyph-name="uni00B5" unicode="&#xb5;" horiz-adv-x="1160" 
d="M89 732l-15 34l2 13q157 115 248.5 165t144.5 50q29 0 46 -21.5t17 -58.5q0 -44 -14 -98.5t-90 -307.5q-81 -269 -81 -322q0 -36 32 -36q15 0 40.5 12t79.5 64.5t120.5 145t104 180t56.5 153t65 236.5q102 13 221 44l21 -18q-52 -139 -133.5 -432t-81.5 -354
q0 -35 24 -35q14 0 38 12.5t102 65.5l13 -1l14 -35l-3 -15l-164 -121q-74 -54 -118.5 -72.5t-67.5 -18.5q-34 0 -53 23t-19 64q0 38 31 152.5t74 247.5q-105 -172 -261.5 -331t-235.5 -159q-47 0 -73 59q-15 -58 -15 -154q0 -64 8 -140q8 -77 8 -123q0 -80 -32 -126t-94 -46
q-34 0 -58 13.5t-41 40.5t-17 66q0 32 7.5 62t41.5 127q59 168 110 348l108 379q55 199 63 242t8 60q0 14 -9.5 23t-20.5 9q-24 0 -137 -68z" />
    <glyph glyph-name="uni00B5" unicode="&#x3bc;" horiz-adv-x="1160" 
d="M89 732l-15 34l2 13q157 115 248.5 165t144.5 50q29 0 46 -21.5t17 -58.5q0 -44 -14 -98.5t-90 -307.5q-81 -269 -81 -322q0 -36 32 -36q15 0 40.5 12t79.5 64.5t120.5 145t104 180t56.5 153t65 236.5q102 13 221 44l21 -18q-52 -139 -133.5 -432t-81.5 -354
q0 -35 24 -35q14 0 38 12.5t102 65.5l13 -1l14 -35l-3 -15l-164 -121q-74 -54 -118.5 -72.5t-67.5 -18.5q-34 0 -53 23t-19 64q0 38 31 152.5t74 247.5q-105 -172 -261.5 -331t-235.5 -159q-47 0 -73 59q-15 -58 -15 -154q0 -64 8 -140q8 -77 8 -123q0 -80 -32 -126t-94 -46
q-34 0 -58 13.5t-41 40.5t-17 66q0 32 7.5 62t41.5 127q59 168 110 348l108 379q55 199 63 242t8 60q0 14 -9.5 23t-20.5 9q-24 0 -137 -68z" />
    <glyph glyph-name="paragraph" unicode="&#xb6;" 
d="M165 -411l5 71l85 3q38 2 57.5 11.5t33 27.5t22 47.5t22.5 109.5l111 637q-204 19 -337.5 173.5t-133.5 366.5q0 168 89 265.5t268 97.5q39 0 138 -3q156 -4 366 -4q125 1 224 3l173 3l-15 -73l-82 -2q-53 0 -69.5 -6t-25 -23.5t-18.5 -72.5l-251 -1408q-9 -53 -9 -74
q0 -31 14.5 -47.5t41.5 -22.5t79 -7l59 -2l-5 -71h-57l-395 5zM643 1318q-58 10 -104 10q-80 0 -127 -39t-68 -117.5t-21 -175.5q0 -156 48 -271.5t142 -149.5zM513 -318h136l286 1618h-137z" />
    <glyph glyph-name="periodcentered" unicode="&#xb7;" horiz-adv-x="512" 
d="M256 779q63 0 108.5 -45.5t45.5 -110.5t-45.5 -111t-108.5 -46q-64 0 -109 46t-45 111q0 66 46 111t108 45z" />
    <glyph glyph-name="periodcentered" unicode="&#x2219;" horiz-adv-x="512" 
d="M256 779q63 0 108.5 -45.5t45.5 -110.5t-45.5 -111t-108.5 -46q-64 0 -109 46t-45 111q0 66 46 111t108 45z" />
    <glyph glyph-name="cedilla" unicode="&#xb8;" horiz-adv-x="682" 
d="M262 4h78l-98 -145q21 6 49 6q96 0 139 -44.5t43 -96.5q0 -74 -62.5 -128.5t-189.5 -54.5q-110 0 -203 45l-4 13l29 47l16 6q71 -31 136 -31q46 0 77 22.5t31 65.5q0 35 -27 56.5t-67 21.5q-24 0 -68 -10l-22 22z" />
    <glyph glyph-name="uni00B9" unicode="&#xb9;" horiz-adv-x="655" 
d="M149 551l-9 10l10 40l11 8q71 1 98.5 5t33.5 8.5t11 15t22 95t43 232.5l52 295l-218 -96l-19 15l23 90q173 44 264.5 81.5t112.5 53.5l31 -23q-13 -47 -46 -234l-60 -327q-27 -139 -27 -174q0 -18 10.5 -25t59 -10t89.5 -3l8 -11l-9 -38l-11 -8q-92 6 -237 6
q-115 0 -243 -6z" />
    <glyph glyph-name="ordmasculine" unicode="&#xba;" horiz-adv-x="682" 
d="M733 1220q0 -197 -116.5 -308t-270.5 -111q-198 0 -198 198q0 206 116 312.5t266 106.5q82 0 142.5 -46.5t60.5 -151.5zM571 1218q0 135 -99 135q-40 0 -75.5 -34.5t-62.5 -134.5t-27 -180q0 -134 105 -134q76 0 117.5 116.5t41.5 231.5zM684 732l-20 -82h-656l20 82h656
z" />
    <glyph glyph-name="guillemotright" unicode="&#xbb;" horiz-adv-x="1024" 
d="M561 526v-46q-59 -54 -187.5 -166.5t-235.5 -214.5l-12 -1l-34 30l-1 12l259 369l-171 380l3 14l35 20l14 -2l155 -192q21 -27 85.5 -99.5t89.5 -103.5zM950 526v-46q-59 -54 -187.5 -166.5t-235.5 -214.5l-12 -1l-34 30l-1 12l259 369l-171 380l3 14l35 20l14 -2
l155 -192q21 -27 85 -99.5t90 -103.5z" />
    <glyph glyph-name="onequarter" unicode="&#xbc;" horiz-adv-x="1652" 
d="M184 551l-9 10l10 40l11 8q71 1 98.5 5t33.5 8.5t11 15t22 95t43 232.5l52 295l-218 -96l-19 15l23 90q173 44 264.5 81.5t112.5 53.5l31 -23q-13 -47 -46 -234l-60 -327q-27 -139 -27 -174q0 -18 10.5 -25t59 -10t89.5 -3l8 -11l-9 -38l-11 -8q-92 6 -237 6
q-115 0 -243 -6zM1402 1359l-899 -1395h-75l-5 10l898 1394h76zM1085 -4l-8 11l10 37l11 9q114 3 128.5 10.5t37.5 154.5l-294 -3l-9 11l5 45q182 287 390 537q89 17 157 43l23 -19q-18 -84 -35 -178l-60 -329l126 4l12 -9l-24 -96l-11 -8q-74 3 -123 3q-18 -121 -18 -139
q0 -11 5 -15t27 -7.5t100 -6.5l8 -10l-9 -37l-10 -8q-1 0 -66 2q-87 3 -141 3q-51 0 -232 -5zM1286 324l43 245q2 9 5 22l11 62q3 18 10 51q-176 -220 -272 -380q26 -1 65 -1q84 0 138 1z" />
    <glyph glyph-name="onehalf" unicode="&#xbd;" horiz-adv-x="1652" 
d="M149 551l-9 10l10 40l11 8q71 1 98.5 5t33.5 8.5t11 15t22 95t43 232.5l52 295l-218 -96l-19 15l23 90q173 44 264.5 81.5t112.5 53.5l31 -23q-13 -47 -46 -234l-60 -327q-27 -139 -27 -174q0 -18 10.5 -25t59 -10t89.5 -3l8 -11l-9 -38l-11 -8q-92 6 -237 6
q-115 0 -243 -6zM1371 1359l-899 -1395h-75l-5 10l898 1394h76zM977 -4l-8 12l5 33q7 8 58 54q145 131 246 266.5t101 238.5q0 56 -29.5 89t-88.5 33q-50 0 -82.5 -21t-74.5 -101l-13 -6l-35 11l-3 13l69 164q50 42 94.5 54t87.5 12q108 0 175.5 -55.5t67.5 -161.5
q0 -36 -7.5 -65t-26 -62.5t-60 -82t-106.5 -111.5l-117 -110q-51 -49 -69 -63l55 -1q268 0 320 13l16 -15q-18 -38 -41 -130l-11 -8q-184 5 -255 5z" />
    <glyph glyph-name="threequarters" unicode="&#xbe;" horiz-adv-x="1652" 
d="M139 598l36 190l11 9l37 -3l8 -12q-3 -34 -3 -58q0 -70 36 -99t89 -29q52 0 90 28t60 86.5t22 120.5q0 139 -130 139q-38 0 -91 -18l-13 13l24 73q22 -6 46 -6q94 0 136.5 47t42.5 111q0 53 -31 77.5t-76 24.5q-52 0 -86.5 -21t-66.5 -79l-13 -6l-33 14l-3 12l69 134
q66 58 185 58q99 0 158.5 -45t59.5 -126q0 -60 -36.5 -110.5t-141.5 -101.5q90 -14 132.5 -64.5t42.5 -121.5q0 -122 -100.5 -211.5t-254.5 -89.5q-45 0 -91.5 9.5t-108.5 41.5zM1382 1359l-899 -1395h-75l-5 10l898 1394h76zM1085 -4l-8 11l10 37l11 9q114 3 128.5 10.5
t37.5 154.5l-294 -3l-9 11l5 45q182 287 390 537q89 17 157 43l23 -19q-18 -84 -35 -178l-60 -329l126 4l12 -9l-24 -96l-11 -8q-74 3 -123 3q-18 -121 -18 -139q0 -11 5 -15t27 -7.5t100 -6.5l8 -10l-9 -37l-10 -8q-1 0 -66 2q-87 3 -141 3q-51 0 -232 -5zM1286 324l43 245
q2 9 5 22l11 62q3 18 10 51q-176 -220 -272 -380q26 -1 65 -1q84 0 138 1z" />
    <glyph glyph-name="questiondown" unicode="&#xbf;" horiz-adv-x="909" 
d="M700 856q0 -53 -19.5 -92.5t-50.5 -62.5t-79 -23q-57 0 -89 33.5t-32 88.5q0 67 39.5 123t111.5 56q119 0 119 -123zM499 564q53 -52 68 -86t15 -69q0 -36 -16 -74.5t-43.5 -73.5t-82.5 -91q-125 -128 -161.5 -191.5t-36.5 -128.5q0 -76 54 -119t136 -43q57 0 97.5 20.5
t64.5 55t55 110.5l11 6l49 -7l4 -11q-66 -177 -83 -250q-82 -52 -145 -70.5t-131 -18.5q-163 0 -265 81.5t-102 228.5q0 61 18 113t57 98.5t98.5 94.5t142.5 104q78 52 114.5 83t55.5 62.5t19 60.5q0 44 -37 79l1 11l31 25h12z" />
    <glyph glyph-name="Agrave" unicode="&#xc0;" horiz-adv-x="1479" 
d="M-61 -8l-7 9l7 52l10 8q78 6 89.5 8.5t23.5 11.5t24 26.5t77 129.5l117 199l283 487l173 291q76 126 112 197h195l41 -298l47 -330l39 -270l31 -202l20 -121q11 -82 34 -105t143 -24l7 -9l-6 -51l-10 -9q-226 8 -302 8q-66 0 -292 -8l-8 9l8 51l10 9q97 0 124 15t27 48
q0 70 -48 421q-91 1 -119 1l-153 -1h-180q-59 -102 -125 -229.5t-78.5 -162t-12.5 -46.5q0 -18 21 -30.5t148 -15.5l7 -9l-7 -52l-10 -8q-1 0 -73 4q-96 4 -146 4q-29 0 -241 -8zM504 636q48 -1 58 -1q311 0 335 1l-78 541zM958 1492zM598 -65zM1190 1569l-57 -28
q-106 105 -383 335l10 23l12 5l222 -27l13 -10q55 -92 75 -122q26 -39 104 -163z" />
    <glyph glyph-name="Aacute" unicode="&#xc1;" horiz-adv-x="1479" 
d="M-61 -8l-7 9l7 52l10 8q78 6 89.5 8.5t23.5 11.5t24 26.5t77 129.5l117 199l283 487l173 291q76 126 112 197h195l41 -298l47 -330l39 -270l31 -202l20 -121q11 -82 34 -105t143 -24l7 -9l-6 -51l-10 -9q-226 8 -302 8q-66 0 -292 -8l-8 9l8 51l10 9q97 0 124 15t27 48
q0 70 -48 421q-91 1 -119 1l-153 -1h-180q-59 -102 -125 -229.5t-78.5 -162t-12.5 -46.5q0 -18 21 -30.5t148 -15.5l7 -9l-7 -52l-10 -8q-1 0 -73 4q-96 4 -146 4q-29 0 -241 -8zM504 636q48 -1 58 -1q311 0 335 1l-78 541zM958 1492zM598 -65zM1377 1877
q-267 -170 -476 -330l-51 27l7 13l144 169q46 56 93 112l15 10l132 12l121 15l11 -5z" />
    <glyph glyph-name="Acircumflex" unicode="&#xc2;" horiz-adv-x="1479" 
d="M-61 -8l-7 9l7 52l10 8q78 6 89.5 8.5t23.5 11.5t24 26.5t77 129.5l117 199l283 487l173 291q76 126 112 197h195l41 -298l47 -330l39 -270l31 -202l20 -121q11 -82 34 -105t143 -24l7 -9l-6 -51l-10 -9q-226 8 -302 8q-66 0 -292 -8l-8 9l8 51l10 9q97 0 124 15t27 48
q0 70 -48 421q-91 1 -119 1l-153 -1h-180q-59 -102 -125 -229.5t-78.5 -162t-12.5 -46.5q0 -18 21 -30.5t148 -15.5l7 -9l-7 -52l-10 -8q-1 0 -73 4q-96 4 -146 4q-29 0 -241 -8zM504 636q48 -1 58 -1q311 0 335 1l-78 541zM958 1492zM598 -65zM1241 1550l-13 -12h-56
l-193 213l-286 -213h-63l-10 14l315 352h141zM1006 1842zM1382 1646z" />
    <glyph glyph-name="Atilde" unicode="&#xc3;" horiz-adv-x="1479" 
d="M-61 -8l-7 9l7 52l10 8q78 6 89.5 8.5t23.5 11.5t24 26.5t77 129.5l117 199l283 487l173 291q76 126 112 197h195l41 -298l47 -330l39 -270l31 -202l20 -121q11 -82 34 -105t143 -24l7 -9l-6 -51l-10 -9q-226 8 -302 8q-66 0 -292 -8l-8 9l8 51l10 9q97 0 124 15t27 48
q0 70 -48 421q-91 1 -119 1l-153 -1h-180q-59 -102 -125 -229.5t-78.5 -162t-12.5 -46.5q0 -18 21 -30.5t148 -15.5l7 -9l-7 -52l-10 -8q-1 0 -73 4q-96 4 -146 4q-29 0 -241 -8zM504 636q48 -1 58 -1q311 0 335 1l-78 541zM958 1492zM598 -65zM1354 1858
q-26 -123 -87.5 -185.5t-140.5 -62.5q-58 0 -187 51q-122 48 -161 48q-76 0 -110 -101h-56l-12 13q64 246 229 246q67 0 213 -57q100 -39 141 -39q63 0 105 99h54z" />
    <glyph glyph-name="Adieresis" unicode="&#xc4;" horiz-adv-x="1479" 
d="M-61 -8l-7 9l7 52l10 8q78 6 89.5 8.5t23.5 11.5t24 26.5t77 129.5l117 199l283 487l173 291q76 126 112 197h195l41 -298l47 -330l39 -270l31 -202l20 -121q11 -82 34 -105t143 -24l7 -9l-6 -51l-10 -9q-226 8 -302 8q-66 0 -292 -8l-8 9l8 51l10 9q97 0 124 15t27 48
q0 70 -48 421q-91 1 -119 1l-153 -1h-180q-59 -102 -125 -229.5t-78.5 -162t-12.5 -46.5q0 -18 21 -30.5t148 -15.5l7 -9l-7 -52l-10 -8q-1 0 -73 4q-96 4 -146 4q-29 0 -241 -8zM504 636q48 -1 58 -1q311 0 335 1l-78 541zM958 1492zM598 -65zM1194 1589q-55 0 -83.5 34
t-28.5 75q0 64 48 112t111 48q53 0 82 -34t29 -75q0 -57 -45.5 -108.5t-112.5 -51.5zM732 1589q-55 0 -83.5 34t-28.5 75q0 62 46.5 111t112.5 49q53 0 82 -34t29 -75q0 -61 -48 -110.5t-110 -49.5z" />
    <glyph glyph-name="Aring" unicode="&#xc5;" horiz-adv-x="1479" 
d="M-61 -8l-7 9l7 52l10 8q78 6 89.5 8.5t23.5 11.5t24 26.5t77 129.5l117 199l283 487l173 291q76 126 112 197h195l41 -298l47 -330l39 -270l31 -202l20 -121q11 -82 34 -105t143 -24l7 -9l-6 -51l-10 -9q-226 8 -302 8q-66 0 -292 -8l-8 9l8 51l10 9q97 0 124 15t27 48
q0 70 -48 421q-91 1 -119 1l-153 -1h-180q-59 -102 -125 -229.5t-78.5 -162t-12.5 -46.5q0 -18 21 -30.5t148 -15.5l7 -9l-7 -52l-10 -8q-1 0 -73 4q-96 4 -146 4q-29 0 -241 -8zM504 636q48 -1 58 -1q311 0 335 1l-78 541zM958 1492zM598 -65zM1201 1744q0 -87 -69.5 -152
t-163.5 -65q-100 0 -149 58t-49 126q0 103 73.5 160.5t160.5 57.5q94 0 145.5 -53.5t51.5 -131.5zM1105 1745q0 56 -28 93.5t-79 37.5q-59 0 -95 -47.5t-36 -116.5q0 -54 27 -92.5t78 -38.5q62 0 97.5 51t35.5 113z" />
    <glyph glyph-name="AE" unicode="&#xc6;" horiz-adv-x="1933" 
d="M-116 -7l-6 9l8 50l11 8q92 2 110 20.5t73 96.5l652 1018q29 45 41.5 67.5t12.5 38.5q0 22 -39.5 31t-163.5 9l-6 8l9 55l10 8q362 -7 420 -7q431 0 822 7l11 -12q-23 -64 -56 -312l-11 -9h-48l-9 9l-1 116q0 52 -4.5 62t-21.5 20t-95 19t-195 9q-77 0 -143 -4
q-35 -183 -51.5 -291.5t-40.5 -239.5q137 -4 210 -4q164 0 248 11l8 -12l-27 -96l-11 -8q-6 0 -71 4q-126 8 -306 8h-67q-63 -339 -99 -585h148q123 0 212 5t126 15.5t49 22.5t35.5 83.5t36.5 122.5l12 9h52l7 -10q-57 -274 -60 -341l-11 -11q-445 7 -702 7q-166 0 -303 -7
l-7 9l10 49l9 8q76 9 96.5 21t32 38t34.5 160l44 265q-47 2 -108 2h-341q-136 -221 -212 -373q-18 -36 -18 -56q0 -32 27.5 -43.5t134.5 -12.5l6 -9l-8 -49l-11 -9q-159 7 -258 7q-42 0 -207 -7zM898 636l82 487q26 153 26 176q0 29 -31 29q-13 0 -29 -10t-83 -102
t-178 -269l-195 -309q31 -3 78 -3q229 0 330 1z" />
    <glyph glyph-name="Ccedilla" unicode="&#xc7;" horiz-adv-x="1403" 
d="M752 -39l-68 -102q21 6 51 6q94 0 141.5 -43.5t47.5 -110.5q0 -72 -66.5 -129t-200.5 -57q-110 0 -211 47l-4 12l31 49l14 7q77 -31 144 -31q47 0 80.5 24t33.5 68q0 37 -27 59.5t-71 22.5q-12 0 -69 -12l-25 26l113 160q-228 0 -379.5 134.5t-151.5 408.5
q0 431 277 683.5t608 252.5q80 0 191.5 -20.5t193.5 -72.5l4 -12q-60 -182 -76 -325l-8 -9h-53l-10 9l6 165q1 23 -8.5 37.5t-63.5 41t-115 42t-145 15.5q-194 0 -311 -111.5t-164 -313t-47 -368.5q0 -196 102 -308t289 -112q212 0 448 160l23 -18l-23 -82
q-276 -184 -501 -193z" />
    <glyph glyph-name="Egrave" unicode="&#xc8;" horiz-adv-x="1251" 
d="M41 1l7 53l10 9q78 19 94 29q8 5 14 14t16.5 51.5t72.5 397.5l77 446q37 221 37 280q0 25 -12.5 37t-30.5 14t-139 9l-7 8l8 55l9 8q159 -7 428 -7q48 0 608 7l10 -12q-2 -24 -29 -170q-14 -78 -22 -146l-9 -8h-52l-8 8q3 117 3 140q0 30 -7 41t-35 21t-106.5 18
t-148.5 8q-110 0 -182 -12l-62 -312q-14 -70 -37 -205q218 -5 276 -5q90 0 194 5l6 -12l-26 -88l-12 -9q-186 4 -372 9q-35 0 -82 -2l-63 -358q-28 -155 -34 -225h166q126 0 219.5 6t127.5 16t50 30t39 107q5 22 26 86l8 8h59l7 -8l-67 -341l-11 -9q-160 3 -219 3l-441 4
q-152 0 -351 -6zM791 1492zM553 -65zM1070 1569l-57 -28q-106 105 -383 335l10 23l12 5l222 -27l13 -10q55 -92 75 -122q26 -39 104 -163z" />
    <glyph glyph-name="Eacute" unicode="&#xc9;" horiz-adv-x="1251" 
d="M41 1l7 53l10 9q78 19 94 29q8 5 14 14t16.5 51.5t72.5 397.5l77 446q37 221 37 280q0 25 -12.5 37t-30.5 14t-139 9l-7 8l8 55l9 8q159 -7 428 -7q48 0 608 7l10 -12q-2 -24 -29 -170q-14 -78 -22 -146l-9 -8h-52l-8 8q3 117 3 140q0 30 -7 41t-35 21t-106.5 18
t-148.5 8q-110 0 -182 -12l-62 -312q-14 -70 -37 -205q218 -5 276 -5q90 0 194 5l6 -12l-26 -88l-12 -9q-186 4 -372 9q-35 0 -82 -2l-63 -358q-28 -155 -34 -225h166q126 0 219.5 6t127.5 16t50 30t39 107q5 22 26 86l8 8h59l7 -8l-67 -341l-11 -9q-160 3 -219 3l-441 4
q-152 0 -351 -6zM791 1492zM553 -65zM1257 1877q-267 -170 -476 -330l-51 27l7 13l144 169q46 56 93 112l15 10l132 12l121 15l11 -5z" />
    <glyph glyph-name="Ecircumflex" unicode="&#xca;" horiz-adv-x="1251" 
d="M41 1l7 53l10 9q78 19 94 29q8 5 14 14t16.5 51.5t72.5 397.5l77 446q37 221 37 280q0 25 -12.5 37t-30.5 14t-139 9l-7 8l8 55l9 8q159 -7 428 -7q48 0 608 7l10 -12q-2 -24 -29 -170q-14 -78 -22 -146l-9 -8h-52l-8 8q3 117 3 140q0 30 -7 41t-35 21t-106.5 18
t-148.5 8q-110 0 -182 -12l-62 -312q-14 -70 -37 -205q218 -5 276 -5q90 0 194 5l6 -12l-26 -88l-12 -9q-186 4 -372 9q-35 0 -82 -2l-63 -358q-28 -155 -34 -225h166q126 0 219.5 6t127.5 16t50 30t39 107q5 22 26 86l8 8h59l7 -8l-67 -341l-11 -9q-160 3 -219 3l-441 4
q-152 0 -351 -6zM791 1492zM553 -65zM1121 1550l-13 -12h-56l-193 213l-286 -213h-63l-10 14l315 352h141zM886 1842zM1262 1646z" />
    <glyph glyph-name="Edieresis" unicode="&#xcb;" horiz-adv-x="1251" 
d="M41 1l7 53l10 9q78 19 94 29q8 5 14 14t16.5 51.5t72.5 397.5l77 446q37 221 37 280q0 25 -12.5 37t-30.5 14t-139 9l-7 8l8 55l9 8q159 -7 428 -7q48 0 608 7l10 -12q-2 -24 -29 -170q-14 -78 -22 -146l-9 -8h-52l-8 8q3 117 3 140q0 30 -7 41t-35 21t-106.5 18
t-148.5 8q-110 0 -182 -12l-62 -312q-14 -70 -37 -205q218 -5 276 -5q90 0 194 5l6 -12l-26 -88l-12 -9q-186 4 -372 9q-35 0 -82 -2l-63 -358q-28 -155 -34 -225h166q126 0 219.5 6t127.5 16t50 30t39 107q5 22 26 86l8 8h59l7 -8l-67 -341l-11 -9q-160 3 -219 3l-441 4
q-152 0 -351 -6zM791 1492zM553 -65zM1074 1589q-55 0 -83.5 34t-28.5 75q0 64 48 112t111 48q53 0 82 -34t29 -75q0 -57 -45.5 -108.5t-112.5 -51.5zM612 1589q-55 0 -83.5 34t-28.5 75q0 62 46.5 111t112.5 49q53 0 82 -34t29 -75q0 -61 -48 -110.5t-110 -49.5z" />
    <glyph glyph-name="Igrave" unicode="&#xcc;" horiz-adv-x="797" 
d="M8 -7l-7 8l6 50l9 9q9 1 46 3q84 3 100.5 14t29.5 43t53 263l93 532q52 301 52 366q0 18 -6.5 29t-21.5 17t-62 9l-92 5l-7 8l8 54l9 9q136 -7 316 -7q74 0 324 7l6 -8l-9 -55l-9 -8q-114 -4 -128 -8q-16 -5 -26.5 -14t-18.5 -28q-13 -32 -44 -195l-131 -759
q-27 -171 -27 -212q0 -32 21 -45t63 -15l104 -5l7 -8l-6 -50l-9 -9q-116 7 -329 7q-164 0 -314 -7zM561 1492zM302 -65zM800 1569l-57 -28q-106 105 -383 335l10 23l12 5l222 -27l13 -10q55 -92 75 -122q26 -39 104 -163z" />
    <glyph glyph-name="Iacute" unicode="&#xcd;" horiz-adv-x="797" 
d="M8 -7l-7 8l6 50l9 9q9 1 46 3q84 3 100.5 14t29.5 43t53 263l93 532q52 301 52 366q0 18 -6.5 29t-21.5 17t-62 9l-92 5l-7 8l8 54l9 9q136 -7 316 -7q74 0 324 7l6 -8l-9 -55l-9 -8q-114 -4 -128 -8q-16 -5 -26.5 -14t-18.5 -28q-13 -32 -44 -195l-131 -759
q-27 -171 -27 -212q0 -32 21 -45t63 -15l104 -5l7 -8l-6 -50l-9 -9q-116 7 -329 7q-164 0 -314 -7zM561 1492zM302 -65zM987 1877q-267 -170 -476 -330l-51 27l7 13l144 169q46 56 93 112l15 10l132 12l121 15l11 -5z" />
    <glyph glyph-name="Icircumflex" unicode="&#xce;" horiz-adv-x="797" 
d="M8 -7l-7 8l6 50l9 9q9 1 46 3q84 3 100.5 14t29.5 43t53 263l93 532q52 301 52 366q0 18 -6.5 29t-21.5 17t-62 9l-92 5l-7 8l8 54l9 9q136 -7 316 -7q74 0 324 7l6 -8l-9 -55l-9 -8q-114 -4 -128 -8q-16 -5 -26.5 -14t-18.5 -28q-13 -32 -44 -195l-131 -759
q-27 -171 -27 -212q0 -32 21 -45t63 -15l104 -5l7 -8l-6 -50l-9 -9q-116 7 -329 7q-164 0 -314 -7zM561 1492zM302 -65zM851 1550l-13 -12h-56l-193 213l-286 -213h-63l-10 14l315 352h141zM616 1842zM992 1646z" />
    <glyph glyph-name="Idieresis" unicode="&#xcf;" horiz-adv-x="797" 
d="M8 -7l-7 8l6 50l9 9q9 1 46 3q84 3 100.5 14t29.5 43t53 263l93 532q52 301 52 366q0 18 -6.5 29t-21.5 17t-62 9l-92 5l-7 8l8 54l9 9q136 -7 316 -7q74 0 324 7l6 -8l-9 -55l-9 -8q-114 -4 -128 -8q-16 -5 -26.5 -14t-18.5 -28q-13 -32 -44 -195l-131 -759
q-27 -171 -27 -212q0 -32 21 -45t63 -15l104 -5l7 -8l-6 -50l-9 -9q-116 7 -329 7q-164 0 -314 -7zM561 1492zM302 -65zM804 1589q-55 0 -83.5 34t-28.5 75q0 64 48 112t111 48q53 0 82 -34t29 -75q0 -57 -45.5 -108.5t-112.5 -51.5zM342 1589q-55 0 -83.5 34t-28.5 75
q0 62 46.5 111t112.5 49q53 0 82 -34t29 -75q0 -61 -48 -110.5t-110 -49.5z" />
    <glyph glyph-name="Eth" unicode="&#xd0;" horiz-adv-x="1593" 
d="M279 690h-188l-7 9l17 90l11 8h185q72 419 72 484q0 25 -12.5 36.5t-30.5 14t-139 9.5l-7 8l8 55l9 8q144 -7 327 -7l395 7q233 0 366 -65t196.5 -191t63.5 -282q0 -164 -59.5 -330.5t-169.5 -287t-257.5 -192.5t-335.5 -72q-52 0 -183 4q-126 4 -191 4q-174 0 -301 -6
l-7 7l7 53l10 9l29 8q49 11 61.5 18.5t20 20.5t21 80t40.5 222zM530 690q-75 -424 -96 -569l140 -19q96 -14 164 -14q112 0 186 30.5t130 94.5t100 155t77 235.5t33 291.5q0 94 -22 168t-57.5 123t-87.5 80t-112 41.5t-145 10.5q-119 0 -200 -12q-8 -66 -21.5 -131.5
t-27.5 -144.5l-42 -233h346l7 -9l-24 -89l-11 -9h-337z" />
    <glyph glyph-name="Ntilde" unicode="&#xd1;" horiz-adv-x="1593" 
d="M1225 291q161 890 161 983q0 36 -24 49t-60.5 14.5t-89.5 5.5l-8 11l10 49l9 8h53q172 -6 211 -6q32 0 194 6l9 -8l-4 -51l-11 -9q-90 -2 -107.5 -6t-36 -29t-58.5 -226l-138 -709q-31 -161 -61 -389h-176l-635 1124q-162 -854 -162 -977q0 -41 28 -53t60.5 -13.5
t85.5 -5.5l6 -8l-8 -51l-8 -6h-53q-194 6 -222 6q-41 0 -186 -8l-6 8l4 51l8 8q99 4 113 10.5t28 21t27 74.5l42 194q28 134 49 246l114 622q-53 80 -78.5 92t-163.5 24l-6 9l6 51l13 8q86 -5 145 -4l283 4l182 -324zM1354 1858q-26 -123 -87.5 -185.5t-140.5 -62.5
q-58 0 -187 51q-122 48 -161 48q-76 0 -110 -101h-56l-12 13q64 246 229 246q67 0 213 -57q100 -39 141 -39q63 0 105 99h54z" />
    <glyph glyph-name="Ograve" unicode="&#xd2;" horiz-adv-x="1706" 
d="M153 531q0 78 22 209.5t91 267t179 233.5t248 146t302 48q127 0 242.5 -33.5t208 -115.5t131 -194.5t38.5 -252.5q0 -369 -230.5 -626t-617.5 -257q-195 0 -335 68t-209.5 195t-69.5 312zM433 468q0 -129 38.5 -225t133 -145.5t204.5 -49.5q161 0 266 94.5t182 328
t77 444.5q0 231 -102.5 328.5t-265.5 97.5q-152 0 -248.5 -70.5t-164.5 -221.5t-94 -312t-26 -269zM1007 1492zM738 -65zM1250 1569l-57 -28q-106 105 -383 335l10 23l12 5l222 -27l13 -10q55 -92 75 -122q26 -39 104 -163z" />
    <glyph glyph-name="Oacute" unicode="&#xd3;" horiz-adv-x="1706" 
d="M153 531q0 78 22 209.5t91 267t179 233.5t248 146t302 48q127 0 242.5 -33.5t208 -115.5t131 -194.5t38.5 -252.5q0 -369 -230.5 -626t-617.5 -257q-195 0 -335 68t-209.5 195t-69.5 312zM433 468q0 -129 38.5 -225t133 -145.5t204.5 -49.5q161 0 266 94.5t182 328
t77 444.5q0 231 -102.5 328.5t-265.5 97.5q-152 0 -248.5 -70.5t-164.5 -221.5t-94 -312t-26 -269zM1007 1492zM738 -65zM1437 1877q-267 -170 -476 -330l-51 27l7 13l144 169q46 56 93 112l15 10l132 12l121 15l11 -5z" />
    <glyph glyph-name="Ocircumflex" unicode="&#xd4;" horiz-adv-x="1706" 
d="M153 531q0 78 22 209.5t91 267t179 233.5t248 146t302 48q127 0 242.5 -33.5t208 -115.5t131 -194.5t38.5 -252.5q0 -369 -230.5 -626t-617.5 -257q-195 0 -335 68t-209.5 195t-69.5 312zM433 468q0 -129 38.5 -225t133 -145.5t204.5 -49.5q161 0 266 94.5t182 328
t77 444.5q0 231 -102.5 328.5t-265.5 97.5q-152 0 -248.5 -70.5t-164.5 -221.5t-94 -312t-26 -269zM1007 1492zM738 -65zM1301 1550l-13 -12h-56l-193 213l-286 -213h-63l-10 14l315 352h141zM1066 1842zM1442 1646z" />
    <glyph glyph-name="Otilde" unicode="&#xd5;" horiz-adv-x="1706" 
d="M153 531q0 78 22 209.5t91 267t179 233.5t248 146t302 48q127 0 242.5 -33.5t208 -115.5t131 -194.5t38.5 -252.5q0 -369 -230.5 -626t-617.5 -257q-195 0 -335 68t-209.5 195t-69.5 312zM433 468q0 -129 38.5 -225t133 -145.5t204.5 -49.5q161 0 266 94.5t182 328
t77 444.5q0 231 -102.5 328.5t-265.5 97.5q-152 0 -248.5 -70.5t-164.5 -221.5t-94 -312t-26 -269zM1007 1492zM738 -65zM1414 1858q-26 -123 -87.5 -185.5t-140.5 -62.5q-58 0 -187 51q-122 48 -161 48q-76 0 -110 -101h-56l-12 13q64 246 229 246q67 0 213 -57
q100 -39 141 -39q63 0 105 99h54z" />
    <glyph glyph-name="Odieresis" unicode="&#xd6;" horiz-adv-x="1706" 
d="M153 531q0 78 22 209.5t91 267t179 233.5t248 146t302 48q127 0 242.5 -33.5t208 -115.5t131 -194.5t38.5 -252.5q0 -369 -230.5 -626t-617.5 -257q-195 0 -335 68t-209.5 195t-69.5 312zM433 468q0 -129 38.5 -225t133 -145.5t204.5 -49.5q161 0 266 94.5t182 328
t77 444.5q0 231 -102.5 328.5t-265.5 97.5q-152 0 -248.5 -70.5t-164.5 -221.5t-94 -312t-26 -269zM1007 1492zM738 -65zM1254 1589q-55 0 -83.5 34t-28.5 75q0 64 48 112t111 48q53 0 82 -34t29 -75q0 -57 -45.5 -108.5t-112.5 -51.5zM792 1589q-55 0 -83.5 34t-28.5 75
q0 62 46.5 111t112.5 49q53 0 82 -34t29 -75q0 -61 -48 -110.5t-110 -49.5z" />
    <glyph glyph-name="multiply" unicode="&#xd7;" horiz-adv-x="1024" 
d="M927 294l-116 -116l-308 307l-307 -307l-116 116l307 307l-307 308l116 115l307 -307l308 307l116 -115l-308 -308z" />
    <glyph glyph-name="Oslash" unicode="&#xd8;" horiz-adv-x="1706" 
d="M279 139q-126 146 -126 382q0 216 86 429t282 349t474 136q238 0 392 -104l162 173l12 1l61 -59l1 -12l-156 -168q148 -144 148 -429q0 -362 -229 -621.5t-618 -259.5q-253 0 -413 115l-171 -184l-12 -1l-62 58v13zM448 320l819 881q-44 63 -122 101.5t-179 38.5
q-142 0 -235 -61.5t-164 -200.5t-103 -314.5t-32 -296.5q0 -76 16 -148zM1311 1099l-825 -887q45 -81 135 -122.5t187 -41.5q168 0 274 101.5t179 334t73 421.5q0 106 -23 194z" />
    <glyph glyph-name="Ugrave" unicode="&#xd9;" horiz-adv-x="1593" 
d="M1319 127q0 -34 17 -46.5t61 -14.5l108 -7l6 -8l-6 -49l-8 -10q-164 8 -217 8l-240 -4l-10 12q37 163 49 252q-172 -182 -284 -241.5t-232 -59.5q-194 0 -279.5 94.5t-85.5 217.5q0 127 73 530t73 475q0 28 -17.5 43.5t-156.5 21.5l-8 9l8 53l14 8q83 0 164 -2l162 -4
q64 0 135 6l12 -16q-18 -78 -45 -221l-61 -320l-59 -348q-21 -123 -21 -176q0 -103 66.5 -151t156.5 -48q75 0 144 32.5t142.5 97.5t94 98t35.5 124l102 623q25 144 25 170q0 40 -24 49.5t-160 15.5l-6 9l8 53l10 8q156 -6 315 -6q69 0 324 6l6 -6l-8 -55l-10 -11
q-120 -3 -132.5 -6.5t-27 -17t-31 -86t-37.5 -193.5l-121 -700q-29 -167 -24 -209zM925 1492zM708 -65zM1210 1569l-57 -28q-106 105 -383 335l10 23l12 5l222 -27l13 -10q55 -92 75 -122q26 -39 104 -163z" />
    <glyph glyph-name="Uacute" unicode="&#xda;" horiz-adv-x="1593" 
d="M1319 127q0 -34 17 -46.5t61 -14.5l108 -7l6 -8l-6 -49l-8 -10q-164 8 -217 8l-240 -4l-10 12q37 163 49 252q-172 -182 -284 -241.5t-232 -59.5q-194 0 -279.5 94.5t-85.5 217.5q0 127 73 530t73 475q0 28 -17.5 43.5t-156.5 21.5l-8 9l8 53l14 8q83 0 164 -2l162 -4
q64 0 135 6l12 -16q-18 -78 -45 -221l-61 -320l-59 -348q-21 -123 -21 -176q0 -103 66.5 -151t156.5 -48q75 0 144 32.5t142.5 97.5t94 98t35.5 124l102 623q25 144 25 170q0 40 -24 49.5t-160 15.5l-6 9l8 53l10 8q156 -6 315 -6q69 0 324 6l6 -6l-8 -55l-10 -11
q-120 -3 -132.5 -6.5t-27 -17t-31 -86t-37.5 -193.5l-121 -700q-29 -167 -24 -209zM925 1492zM708 -65zM1397 1877q-267 -170 -476 -330l-51 27l7 13l144 169q46 56 93 112l15 10l132 12l121 15l11 -5z" />
    <glyph glyph-name="Ucircumflex" unicode="&#xdb;" horiz-adv-x="1593" 
d="M1319 127q0 -34 17 -46.5t61 -14.5l108 -7l6 -8l-6 -49l-8 -10q-164 8 -217 8l-240 -4l-10 12q37 163 49 252q-172 -182 -284 -241.5t-232 -59.5q-194 0 -279.5 94.5t-85.5 217.5q0 127 73 530t73 475q0 28 -17.5 43.5t-156.5 21.5l-8 9l8 53l14 8q83 0 164 -2l162 -4
q64 0 135 6l12 -16q-18 -78 -45 -221l-61 -320l-59 -348q-21 -123 -21 -176q0 -103 66.5 -151t156.5 -48q75 0 144 32.5t142.5 97.5t94 98t35.5 124l102 623q25 144 25 170q0 40 -24 49.5t-160 15.5l-6 9l8 53l10 8q156 -6 315 -6q69 0 324 6l6 -6l-8 -55l-10 -11
q-120 -3 -132.5 -6.5t-27 -17t-31 -86t-37.5 -193.5l-121 -700q-29 -167 -24 -209zM925 1492zM708 -65zM1261 1550l-13 -12h-56l-193 213l-286 -213h-63l-10 14l315 352h141zM1026 1842zM1402 1646z" />
    <glyph glyph-name="Udieresis" unicode="&#xdc;" horiz-adv-x="1593" 
d="M1319 127q0 -34 17 -46.5t61 -14.5l108 -7l6 -8l-6 -49l-8 -10q-164 8 -217 8l-240 -4l-10 12q37 163 49 252q-172 -182 -284 -241.5t-232 -59.5q-194 0 -279.5 94.5t-85.5 217.5q0 127 73 530t73 475q0 28 -17.5 43.5t-156.5 21.5l-8 9l8 53l14 8q83 0 164 -2l162 -4
q64 0 135 6l12 -16q-18 -78 -45 -221l-61 -320l-59 -348q-21 -123 -21 -176q0 -103 66.5 -151t156.5 -48q75 0 144 32.5t142.5 97.5t94 98t35.5 124l102 623q25 144 25 170q0 40 -24 49.5t-160 15.5l-6 9l8 53l10 8q156 -6 315 -6q69 0 324 6l6 -6l-8 -55l-10 -11
q-120 -3 -132.5 -6.5t-27 -17t-31 -86t-37.5 -193.5l-121 -700q-29 -167 -24 -209zM925 1492zM708 -65zM1214 1589q-55 0 -83.5 34t-28.5 75q0 64 48 112t111 48q53 0 82 -34t29 -75q0 -57 -45.5 -108.5t-112.5 -51.5zM752 1589q-55 0 -83.5 34t-28.5 75q0 62 46.5 111
t112.5 49q53 0 82 -34t29 -75q0 -61 -48 -110.5t-110 -49.5z" />
    <glyph glyph-name="Yacute" unicode="&#xdd;" horiz-adv-x="1251" 
d="M297 60q13 1 46 3q76 3 92.5 10.5t29.5 29t30 110.5l34 179q17 89 17 112q0 57 -62.5 270.5t-110.5 309.5t-92 123.5t-94 27.5q-30 0 -63 -17l-9 9v45l8 14q54 39 98 77q68 60 74 63q43 6 60 6q49 0 97.5 -21.5t98 -92.5t94.5 -216t79 -315q29 -140 35 -165
q52 124 86.5 194.5t103.5 185.5t145 209.5t124.5 133.5t84.5 52.5t75 14.5l-12 -186q-58 -11 -107 -42q-64 -41 -144.5 -135.5t-158 -231.5t-114 -230.5t-63.5 -254t-27 -206.5q0 -33 22 -46t59 -15l107 -5l7 -8l-6 -50l-9 -9q-116 7 -329 7q-156 0 -314 -7l-7 8l5 50z
M811 1492zM582 -65zM1277 1877q-267 -170 -476 -330l-51 27l7 13l144 169q46 56 93 112l15 10l132 12l121 15l11 -5z" />
    <glyph glyph-name="Thorn" unicode="&#xde;" horiz-adv-x="1366" 
d="M886 1412l6 -8l-9 -55l-9 -8l-94 -4q-40 -3 -56 -14.5t-26.5 -41.5t-36.5 -167l245 5q157 0 245 -35.5t128.5 -112t40.5 -168.5q0 -189 -157 -351.5t-349 -162.5q-75 0 -184 37l-7 10v51l10 9q61 -21 115 -21q94 0 157.5 51t103.5 146t40 208q0 94 -33.5 147.5t-91.5 78
t-143 24.5q-35 0 -136 -5l-95 -545q-20 -115 -33 -205l-15 -110q-3 -20 -3 -40q0 -32 21 -45t63 -15l104 -5l7 -8l-6 -50l-9 -9q-116 7 -329 7q-164 0 -314 -7l-7 8l6 50l9 9q9 1 46 3q84 3 100.5 14t29.5 43t53 263l93 532q52 301 52 366q0 18 -6.5 29t-21.5 17t-62 9
l-92 5l-7 8l8 54l9 9q136 -7 316 -7q74 0 324 7z" />
    <glyph glyph-name="germandbls" unicode="&#xdf;" 
d="M287 952q2 4 16 66q14 63 24.5 89.5t46 71t123 117t162 117.5t131 62.5t115.5 17.5q92 0 158 -63.5t66 -158.5q0 -55 -21.5 -112t-58.5 -103t-102 -111q-95 -94 -95 -154q0 -36 19 -72.5t57 -85.5q69 -87 92 -120.5t35.5 -68.5t12.5 -72q0 -101 -66 -189.5t-155.5 -157
t-189.5 -68.5q-94 0 -191 45l56 232l8 8h35l7 -8v-95q64 -71 157 -71q72 0 112.5 43t40.5 97q0 47 -22.5 91.5t-110.5 172.5q-36 52 -60 96.5t-24 84.5t20 78.5t61 88.5q93 114 121.5 155t49 101.5t20.5 124.5q0 81 -47.5 123.5t-115.5 42.5q-56 0 -100.5 -27t-67 -69
t-40 -111t-82.5 -379q-70 -328 -139 -595.5t-130 -392t-153 -218.5t-167 -130q-46 -22 -87 -22q-36 0 -76 18q48 124 66 222l32 6q39 -91 100 -91q21 0 40.5 10.5t36.5 34.5t42.5 123t61.5 289l74 387l78 409q-57 2 -91 2q-52 0 -92 -2l-7 9l7 36l11 11q23 8 91 28t105 37z
" />
    <glyph glyph-name="agrave" unicode="&#xe0;" 
d="M1042 213l22 -39l-4 -13q-181 -133 -248.5 -170t-112.5 -37q-32 0 -50.5 27t-18.5 68q0 42 16 122t69 291q-168 -288 -302 -398.5t-219 -110.5q-46 0 -79.5 41t-33.5 148q0 94 28 219t79 253q26 64 61.5 103.5t153.5 125.5t167.5 104t111.5 18q44 0 104 -13.5t110 -39.5
l92 54l33 -24q-25 -59 -61 -218l-74 -338q-39 -180 -39 -220q0 -39 26 -39q32 0 157 86h12zM761 810q-89 45 -164 45q-78 0 -126 -62t-104 -276t-56 -317q0 -75 40 -75q42 0 150 126t177.5 279t82.5 280zM690 1038zM431 -65zM962 1119l-57 -28q-48 47 -123 118t-148 134
l-154 131l10 23l12 5l222 -27l13 -10q62 -100 221 -333z" />
    <glyph glyph-name="aacute" unicode="&#xe1;" 
d="M1042 213l22 -39l-4 -13q-181 -133 -248.5 -170t-112.5 -37q-32 0 -50.5 27t-18.5 68q0 42 16 122t69 291q-168 -288 -302 -398.5t-219 -110.5q-46 0 -79.5 41t-33.5 148q0 94 28 219t79 253q26 64 61.5 103.5t153.5 125.5t167.5 104t111.5 18q44 0 104 -13.5t110 -39.5
l92 54l33 -24q-25 -59 -61 -218l-74 -338q-39 -180 -39 -220q0 -39 26 -39q32 0 157 86h12zM761 810q-89 45 -164 45q-78 0 -126 -62t-104 -276t-56 -317q0 -75 40 -75q42 0 150 126t177.5 279t82.5 280zM690 1038zM431 -65zM1125 1474q-349 -240 -533 -382l-52 27l7 13
l165 188q53 60 130 145l15 10l132 12l121 15l10 -5z" />
    <glyph glyph-name="acircumflex" unicode="&#xe2;" 
d="M1042 213l22 -39l-4 -13q-181 -133 -248.5 -170t-112.5 -37q-32 0 -50.5 27t-18.5 68q0 42 16 122t69 291q-168 -288 -302 -398.5t-219 -110.5q-46 0 -79.5 41t-33.5 148q0 94 28 219t79 253q26 64 61.5 103.5t153.5 125.5t167.5 104t111.5 18q44 0 104 -13.5t110 -39.5
l92 54l33 -24q-25 -59 -61 -218l-74 -338q-39 -180 -39 -220q0 -39 26 -39q32 0 157 86h12zM761 810q-89 45 -164 45q-78 0 -126 -62t-104 -276t-56 -317q0 -75 40 -75q42 0 150 126t177.5 279t82.5 280zM690 1038zM431 -65zM1024 1121l-9 -11h-55l-198 219l-291 -219h-63
l-8 11l318 361h141zM785 1418zM1160 1222z" />
    <glyph glyph-name="atilde" unicode="&#xe3;" 
d="M1042 213l22 -39l-4 -13q-181 -133 -248.5 -170t-112.5 -37q-32 0 -50.5 27t-18.5 68q0 42 16 122t69 291q-168 -288 -302 -398.5t-219 -110.5q-46 0 -79.5 41t-33.5 148q0 94 28 219t79 253q26 64 61.5 103.5t153.5 125.5t167.5 104t111.5 18q44 0 104 -13.5t110 -39.5
l92 54l33 -24q-25 -59 -61 -218l-74 -338q-39 -180 -39 -220q0 -39 26 -39q32 0 157 86h12zM761 810q-89 45 -164 45q-78 0 -126 -62t-104 -276t-56 -317q0 -75 40 -75q42 0 150 126t177.5 279t82.5 280zM690 1038zM431 -65zM1079 1374q-21 -97 -78.5 -159t-136.5 -62
q-52 0 -169 46q-112 44 -146 44q-69 0 -100 -92h-58l-11 13q23 103 80 162.5t135 59.5q60 0 193 -52q90 -35 128 -35q57 0 95 90h56z" />
    <glyph glyph-name="adieresis" unicode="&#xe4;" 
d="M1042 213l22 -39l-4 -13q-181 -133 -248.5 -170t-112.5 -37q-32 0 -50.5 27t-18.5 68q0 42 16 122t69 291q-168 -288 -302 -398.5t-219 -110.5q-46 0 -79.5 41t-33.5 148q0 94 28 219t79 253q26 64 61.5 103.5t153.5 125.5t167.5 104t111.5 18q44 0 104 -13.5t110 -39.5
l92 54l33 -24q-25 -59 -61 -218l-74 -338q-39 -180 -39 -220q0 -39 26 -39q32 0 157 86h12zM761 810q-89 45 -164 45q-78 0 -126 -62t-104 -276t-56 -317q0 -75 40 -75q42 0 150 126t177.5 279t82.5 280zM690 1038zM431 -65zM940 1139q-46 0 -73.5 29t-27.5 69
q0 57 43 101.5t102 44.5q44 0 72 -29t28 -70q0 -56 -44 -100.5t-100 -44.5zM521 1139q-50 0 -75.5 30.5t-25.5 67.5q0 59 44 102.5t101 43.5q44 0 72 -29t28 -70q0 -53 -42 -99t-102 -46z" />
    <glyph glyph-name="aring" unicode="&#xe5;" 
d="M1042 213l22 -39l-4 -13q-181 -133 -248.5 -170t-112.5 -37q-32 0 -50.5 27t-18.5 68q0 42 16 122t69 291q-168 -288 -302 -398.5t-219 -110.5q-46 0 -79.5 41t-33.5 148q0 94 28 219t79 253q26 64 61.5 103.5t153.5 125.5t167.5 104t111.5 18q44 0 104 -13.5t110 -39.5
l92 54l33 -24q-25 -59 -61 -218l-74 -338q-39 -180 -39 -220q0 -39 26 -39q32 0 157 86h12zM761 810q-89 45 -164 45q-78 0 -126 -62t-104 -276t-56 -317q0 -75 40 -75q42 0 150 126t177.5 279t82.5 280zM690 1038zM431 -65zM951 1291q0 -80 -62.5 -138.5t-148.5 -58.5
q-92 0 -136 52t-44 115q0 81 62.5 139.5t149.5 58.5q83 0 131 -47.5t48 -120.5zM864 1292q0 47 -24 82.5t-72 35.5q-58 0 -89 -46t-31 -102q0 -46 23.5 -82.5t72.5 -36.5q57 0 88.5 46t31.5 103z" />
    <glyph glyph-name="ae" unicode="&#xe6;" horiz-adv-x="1511" 
d="M1350 229l22 -39l-3 -14q-138 -97 -261.5 -159t-226.5 -62q-86 0 -149 45t-93 141q-100 -94 -184.5 -141.5t-176.5 -47.5q-102 0 -153.5 60t-51.5 151q0 95 52.5 184t168.5 131.5t326 42.5q17 0 54 -2q7 57 7 99q0 76 -29 129t-78 79.5t-126 26.5q-64 0 -125 -16
l-49 -131l-12 -6l-28 6l-15 156q90 74 166.5 95.5t146.5 21.5q117 0 189 -55t96 -150q90 82 204.5 144t215.5 62q87 0 143.5 -42.5t56.5 -133.5q0 -94 -55 -166t-205 -122t-294 -63q-20 -94 -20 -172q0 -103 44.5 -142t104.5 -39q65 0 157 37t169 93zM894 511q53 7 112 24
t98 38t71 54.5t50 76t18 79.5q0 40 -24 67.5t-75 27.5q-173 0 -250 -367zM667 456l-67 1q-156 0 -236 -66t-80 -157q0 -52 30 -89.5t92 -37.5q71 0 131 43.5t87.5 107t42.5 198.5z" />
    <glyph glyph-name="ccedilla" unicode="&#xe7;" horiz-adv-x="909" 
d="M234 -200l104 154q-78 0 -142 39t-90 104.5t-26 137.5q0 90 20.5 191t52 175.5t61 111.5t69 66t140.5 91q73 47 100 61t70 24.5t92 10.5q94 0 212 -49l3 -11q-15 -36 -36.5 -126.5t-28.5 -146.5l-11 -9h-51l-7 9q8 54 8 99q0 9 -1 30q-86 75 -184 75q-71 0 -112 -26.5
t-68.5 -78.5t-61 -191.5t-33.5 -248.5q0 -90 41 -145t113 -55q59 0 131.5 26.5t199.5 110.5h11l23 -42l-3 -12q-104 -75 -207 -133.5t-196 -78.5l-68 -103q20 5 47 5q95 0 139 -44.5t44 -96.5q0 -77 -67 -130t-187 -53q-107 0 -202 45l-3 12l29 47l12 6q73 -30 137 -30
q49 0 79 24t30 63q0 36 -26 57t-67 21q-29 0 -68 -10z" />
    <glyph glyph-name="egrave" unicode="&#xe8;" horiz-adv-x="909" 
d="M775 228l23 -41l-3 -12q-176 -125 -284.5 -171.5t-191.5 -46.5q-73 0 -137 31t-91.5 89.5t-27.5 123.5q0 108 41.5 277t105.5 251t207.5 164t246.5 82q87 0 142 -44.5t55 -127.5q0 -102 -61 -184.5t-202.5 -139t-290.5 -81.5q-11 -73 -11 -134q0 -98 46.5 -133.5
t103.5 -35.5q41 0 94 15.5t88.5 35t135.5 83.5zM315 453q208 46 280 142.5t72 180.5q0 48 -28 74.5t-69 26.5q-82 0 -142 -86.5t-113 -337.5zM651 1038zM317 -65zM832 1119l-57 -28q-48 47 -123 118t-148 134l-154 131l10 23l12 5l222 -27l13 -10q62 -100 221 -333z" />
    <glyph glyph-name="eacute" unicode="&#xe9;" horiz-adv-x="909" 
d="M775 228l23 -41l-3 -12q-176 -125 -284.5 -171.5t-191.5 -46.5q-73 0 -137 31t-91.5 89.5t-27.5 123.5q0 108 41.5 277t105.5 251t207.5 164t246.5 82q87 0 142 -44.5t55 -127.5q0 -102 -61 -184.5t-202.5 -139t-290.5 -81.5q-11 -73 -11 -134q0 -98 46.5 -133.5
t103.5 -35.5q41 0 94 15.5t88.5 35t135.5 83.5zM315 453q208 46 280 142.5t72 180.5q0 48 -28 74.5t-69 26.5q-82 0 -142 -86.5t-113 -337.5zM651 1038zM317 -65zM1065 1474q-349 -240 -533 -382l-52 27l7 13l165 188q53 60 130 145l15 10l132 12l121 15l10 -5z" />
    <glyph glyph-name="ecircumflex" unicode="&#xea;" horiz-adv-x="909" 
d="M775 228l23 -41l-3 -12q-176 -125 -284.5 -171.5t-191.5 -46.5q-73 0 -137 31t-91.5 89.5t-27.5 123.5q0 108 41.5 277t105.5 251t207.5 164t246.5 82q87 0 142 -44.5t55 -127.5q0 -102 -61 -184.5t-202.5 -139t-290.5 -81.5q-11 -73 -11 -134q0 -98 46.5 -133.5
t103.5 -35.5q41 0 94 15.5t88.5 35t135.5 83.5zM315 453q208 46 280 142.5t72 180.5q0 48 -28 74.5t-69 26.5q-82 0 -142 -86.5t-113 -337.5zM651 1038zM317 -65zM894 1121l-9 -11h-55l-198 219l-291 -219h-63l-8 11l318 361h141zM655 1418zM1030 1222z" />
    <glyph glyph-name="edieresis" unicode="&#xeb;" horiz-adv-x="909" 
d="M775 228l23 -41l-3 -12q-176 -125 -284.5 -171.5t-191.5 -46.5q-73 0 -137 31t-91.5 89.5t-27.5 123.5q0 108 41.5 277t105.5 251t207.5 164t246.5 82q87 0 142 -44.5t55 -127.5q0 -102 -61 -184.5t-202.5 -139t-290.5 -81.5q-11 -73 -11 -134q0 -98 46.5 -133.5
t103.5 -35.5q41 0 94 15.5t88.5 35t135.5 83.5zM315 453q208 46 280 142.5t72 180.5q0 48 -28 74.5t-69 26.5q-82 0 -142 -86.5t-113 -337.5zM651 1038zM317 -65zM810 1139q-46 0 -73.5 29t-27.5 69q0 57 43 101.5t102 44.5q44 0 72 -29t28 -70q0 -56 -44 -100.5t-100 -44.5
zM391 1139q-50 0 -75.5 30.5t-25.5 67.5q0 59 44 102.5t101 43.5q44 0 72 -29t28 -70q0 -53 -42 -99t-102 -46z" />
    <glyph glyph-name="igrave" unicode="&#xec;" horiz-adv-x="682" 
d="M79 679l-20 35l2 13q176 137 274.5 194t153.5 57q25 0 43 -21.5t18 -54.5q0 -44 -15.5 -111t-65.5 -254q-87 -322 -87 -373q0 -14 8.5 -24.5t19.5 -10.5q30 0 160 93l12 -1l22 -40l-4 -13q-70 -50 -167 -114.5t-138.5 -80.5t-72.5 -16q-39 0 -58 29t-19 75t11.5 104.5
t49.5 202.5q84 321 84 378q0 28 -23 28q-38 0 -174 -96zM471 1038zM712 1119l-57 -28q-48 47 -123 118t-148 134l-154 131l10 23l12 5l222 -27l13 -10q62 -100 221 -333z" />
    <glyph glyph-name="iacute" unicode="&#xed;" horiz-adv-x="682" 
d="M79 679l-20 35l2 13q176 137 274.5 194t153.5 57q25 0 43 -21.5t18 -54.5q0 -44 -15.5 -111t-65.5 -254q-87 -322 -87 -373q0 -14 8.5 -24.5t19.5 -10.5q30 0 160 93l12 -1l22 -40l-4 -13q-70 -50 -167 -114.5t-138.5 -80.5t-72.5 -16q-39 0 -58 29t-19 75t11.5 104.5
t49.5 202.5q84 321 84 378q0 28 -23 28q-38 0 -174 -96zM471 1038zM875 1474q-349 -240 -533 -382l-52 27l7 13l165 188q53 60 130 145l15 10l132 12l121 15l10 -5z" />
    <glyph glyph-name="icircumflex" unicode="&#xee;" horiz-adv-x="682" 
d="M79 679l-20 35l2 13q176 137 274.5 194t153.5 57q25 0 43 -21.5t18 -54.5q0 -44 -15.5 -111t-65.5 -254q-87 -322 -87 -373q0 -14 8.5 -24.5t19.5 -10.5q30 0 160 93l12 -1l22 -40l-4 -13q-70 -50 -167 -114.5t-138.5 -80.5t-72.5 -16q-39 0 -58 29t-19 75t11.5 104.5
t49.5 202.5q84 321 84 378q0 28 -23 28q-38 0 -174 -96zM471 1038zM774 1121l-9 -11h-55l-198 219l-291 -219h-63l-8 11l318 361h141zM535 1418zM910 1222z" />
    <glyph glyph-name="idieresis" unicode="&#xef;" horiz-adv-x="682" 
d="M79 679l-20 35l2 13q176 137 274.5 194t153.5 57q25 0 43 -21.5t18 -54.5q0 -44 -15.5 -111t-65.5 -254q-87 -322 -87 -373q0 -14 8.5 -24.5t19.5 -10.5q30 0 160 93l12 -1l22 -40l-4 -13q-70 -50 -167 -114.5t-138.5 -80.5t-72.5 -16q-39 0 -58 29t-19 75t11.5 104.5
t49.5 202.5q84 321 84 378q0 28 -23 28q-38 0 -174 -96zM471 1038zM690 1139q-46 0 -73.5 29t-27.5 69q0 57 43 101.5t102 44.5q44 0 72 -29t28 -70q0 -56 -44 -100.5t-100 -44.5zM271 1139q-50 0 -75.5 30.5t-25.5 67.5q0 59 44 102.5t101 43.5q44 0 72 -29t28 -70
q0 -53 -42 -99t-102 -46z" />
    <glyph glyph-name="eth" unicode="&#xf0;" 
d="M807 1305l266 132l12 -3l27 -54l-3 -14l-249 -124q178 -226 178 -560q0 -133 -30.5 -255t-92 -205t-160.5 -148t-171.5 -91.5t-172.5 -26.5q-107 0 -173.5 39t-103 113t-36.5 171q0 116 35.5 231t74 179t126 133t183 107t161.5 38q73 0 128 -35q-22 144 -85 240
l-270 -135l-14 4l-30 55l4 13l260 129q-67 78 -177 155v12l89 69q125 -62 224 -169zM517 55q71 0 126 54t103 222.5t48 332.5q0 98 -43.5 154.5t-118.5 56.5q-63 0 -116.5 -39.5t-98 -144.5t-63.5 -215t-19 -201q0 -122 49.5 -171t132.5 -49z" />
    <glyph glyph-name="ntilde" unicode="&#xf1;" 
d="M88 -37l-26 25q31 78 80 260.5t71.5 317.5t22.5 172q0 34 -23 34q-31 0 -144 -84l-14 1l-20 35l1 13q52 44 121 97.5t125 89t84 45t51 9.5q55 0 55 -65q0 -47 -18 -136.5t-75 -304.5q113 209 284.5 357t278.5 148q85 0 85 -95q0 -52 -23 -148.5t-74 -283.5
q-34 -124 -46.5 -193.5t-12.5 -89.5q0 -37 24 -37q39 0 147 82l12 -1l22 -39l-3 -13q-171 -129 -245 -165.5t-127 -36.5q-42 0 -56.5 32.5t-14.5 67.5q0 81 70 330q77 270 77 345q0 41 -39 41q-18 0 -49.5 -16t-92 -78.5t-111 -141.5t-88 -171t-62.5 -197.5t-31 -167.5
q-127 -10 -216 -38zM1049 1374q-21 -97 -78.5 -159t-136.5 -62q-52 0 -169 46q-112 44 -146 44q-69 0 -100 -92h-58l-11 13q23 103 80 162.5t135 59.5q60 0 193 -52q90 -35 128 -35q57 0 95 90h56z" />
    <glyph glyph-name="ograve" unicode="&#xf2;" 
d="M101 280q0 93 31.5 233.5t108 235t206.5 162t268 67.5q142 0 231 -81t89 -243q0 -147 -55 -300.5t-146.5 -224.5t-192 -121.5t-228.5 -50.5q-122 0 -190 47t-95 121t-27 155zM337 288q0 -122 46 -177t132 -55q59 0 105.5 33t86 118.5t64 212.5t24.5 231q0 131 -51 183
t-124 52q-77 0 -135.5 -59t-103 -230.5t-44.5 -308.5zM690 1038zM450 -65zM952 1119l-57 -28q-48 47 -123 118t-148 134l-154 131l10 23l12 5l222 -27l13 -10q62 -100 221 -333z" />
    <glyph glyph-name="oacute" unicode="&#xf3;" 
d="M101 280q0 93 31.5 233.5t108 235t206.5 162t268 67.5q142 0 231 -81t89 -243q0 -147 -55 -300.5t-146.5 -224.5t-192 -121.5t-228.5 -50.5q-122 0 -190 47t-95 121t-27 155zM337 288q0 -122 46 -177t132 -55q59 0 105.5 33t86 118.5t64 212.5t24.5 231q0 131 -51 183
t-124 52q-77 0 -135.5 -59t-103 -230.5t-44.5 -308.5zM690 1038zM450 -65zM1115 1474q-349 -240 -533 -382l-52 27l7 13l165 188q53 60 130 145l15 10l132 12l121 15l10 -5z" />
    <glyph glyph-name="ocircumflex" unicode="&#xf4;" 
d="M101 280q0 93 31.5 233.5t108 235t206.5 162t268 67.5q142 0 231 -81t89 -243q0 -147 -55 -300.5t-146.5 -224.5t-192 -121.5t-228.5 -50.5q-122 0 -190 47t-95 121t-27 155zM337 288q0 -122 46 -177t132 -55q59 0 105.5 33t86 118.5t64 212.5t24.5 231q0 131 -51 183
t-124 52q-77 0 -135.5 -59t-103 -230.5t-44.5 -308.5zM690 1038zM450 -65zM1014 1121l-9 -11h-55l-198 219l-291 -219h-63l-8 11l318 361h141zM775 1418zM1150 1222z" />
    <glyph glyph-name="otilde" unicode="&#xf5;" 
d="M101 280q0 93 31.5 233.5t108 235t206.5 162t268 67.5q142 0 231 -81t89 -243q0 -147 -55 -300.5t-146.5 -224.5t-192 -121.5t-228.5 -50.5q-122 0 -190 47t-95 121t-27 155zM337 288q0 -122 46 -177t132 -55q59 0 105.5 33t86 118.5t64 212.5t24.5 231q0 131 -51 183
t-124 52q-77 0 -135.5 -59t-103 -230.5t-44.5 -308.5zM690 1038zM450 -65zM1069 1374q-21 -97 -78.5 -159t-136.5 -62q-52 0 -169 46q-112 44 -146 44q-69 0 -100 -92h-58l-11 13q23 103 80 162.5t135 59.5q60 0 193 -52q90 -35 128 -35q57 0 95 90h56z" />
    <glyph glyph-name="odieresis" unicode="&#xf6;" 
d="M101 280q0 93 31.5 233.5t108 235t206.5 162t268 67.5q142 0 231 -81t89 -243q0 -147 -55 -300.5t-146.5 -224.5t-192 -121.5t-228.5 -50.5q-122 0 -190 47t-95 121t-27 155zM337 288q0 -122 46 -177t132 -55q59 0 105.5 33t86 118.5t64 212.5t24.5 231q0 131 -51 183
t-124 52q-77 0 -135.5 -59t-103 -230.5t-44.5 -308.5zM690 1038zM450 -65zM930 1139q-46 0 -73.5 29t-27.5 69q0 57 43 101.5t102 44.5q44 0 72 -29t28 -70q0 -56 -44 -100.5t-100 -44.5zM511 1139q-50 0 -75.5 30.5t-25.5 67.5q0 59 44 102.5t101 43.5q44 0 72 -29t28 -70
q0 -53 -42 -99t-102 -46z" />
    <glyph glyph-name="divide" unicode="&#xf7;" horiz-adv-x="1024" 
d="M644 1021q0 -54 -38.5 -92.5t-92.5 -38.5q-55 0 -93.5 39t-38.5 92q0 54 38.5 93t93.5 39q54 0 92.5 -38.5t38.5 -93.5zM993 515h-961v172h961v-172zM644 181q0 -55 -38.5 -93.5t-92.5 -38.5q-55 0 -93.5 39t-38.5 93t38.5 92.5t93.5 38.5q54 0 92.5 -38t38.5 -93z" />
    <glyph glyph-name="oslash" unicode="&#xf8;" 
d="M965 878q70 -83 70 -225q0 -92 -22 -187t-60.5 -178t-86 -128.5t-122.5 -94t-151.5 -78.5t-179.5 -30q-132 0 -203 56l-109 -125l-12 -1l-52 43l-1 13l116 133q-51 83 -51 204q0 125 49.5 296.5t217.5 286.5t341 115q117 0 191 -47l106 122l12 1l49 -46l1 -12zM337 286
l437 501q-19 47 -62 73t-93 26q-69 0 -127.5 -51.5t-106.5 -224t-48 -324.5zM794 682l-444 -508q36 -118 165 -118q55 0 100 29t81 100t67.5 202.5t31.5 250.5q0 16 -1 44z" />
    <glyph glyph-name="ugrave" unicode="&#xf9;" 
d="M69 716l-16 38l2 14q141 103 234 156.5t149 53.5q65 0 65 -79q0 -38 -11.5 -95t-44.5 -183l-84 -336q-15 -70 -15 -99q0 -42 35 -42q22 0 65 28.5t128 137.5q66 84 121 196.5t95 265.5q21 84 27 158q103 6 218 40l17 -18q-61 -196 -123.5 -447t-62.5 -327q0 -37 29 -37
q17 0 36 11.5t47 32.5q31 22 52 37h12l22 -39l-3 -13q-205 -154 -260 -182t-96 -28q-31 0 -48 22.5t-17 61.5q0 60 51 256l39 152q-96 -187 -260.5 -343t-264.5 -156q-43 0 -70 30t-27 89q0 39 8.5 83t44.5 179q86 322 86 410q0 42 -29 42q-12 0 -28.5 -7t-108.5 -65z
M690 1038zM430 -65zM932 1119l-57 -28q-48 47 -123 118t-148 134l-154 131l10 23l12 5l222 -27l13 -10q62 -100 221 -333z" />
    <glyph glyph-name="uacute" unicode="&#xfa;" 
d="M69 716l-16 38l2 14q141 103 234 156.5t149 53.5q65 0 65 -79q0 -38 -11.5 -95t-44.5 -183l-84 -336q-15 -70 -15 -99q0 -42 35 -42q22 0 65 28.5t128 137.5q66 84 121 196.5t95 265.5q21 84 27 158q103 6 218 40l17 -18q-61 -196 -123.5 -447t-62.5 -327q0 -37 29 -37
q17 0 36 11.5t47 32.5q31 22 52 37h12l22 -39l-3 -13q-205 -154 -260 -182t-96 -28q-31 0 -48 22.5t-17 61.5q0 60 51 256l39 152q-96 -187 -260.5 -343t-264.5 -156q-43 0 -70 30t-27 89q0 39 8.5 83t44.5 179q86 322 86 410q0 42 -29 42q-12 0 -28.5 -7t-108.5 -65z
M690 1038zM430 -65zM1095 1474q-349 -240 -533 -382l-52 27l7 13l165 188q53 60 130 145l15 10l132 12l121 15l10 -5z" />
    <glyph glyph-name="ucircumflex" unicode="&#xfb;" 
d="M69 716l-16 38l2 14q141 103 234 156.5t149 53.5q65 0 65 -79q0 -38 -11.5 -95t-44.5 -183l-84 -336q-15 -70 -15 -99q0 -42 35 -42q22 0 65 28.5t128 137.5q66 84 121 196.5t95 265.5q21 84 27 158q103 6 218 40l17 -18q-61 -196 -123.5 -447t-62.5 -327q0 -37 29 -37
q17 0 36 11.5t47 32.5q31 22 52 37h12l22 -39l-3 -13q-205 -154 -260 -182t-96 -28q-31 0 -48 22.5t-17 61.5q0 60 51 256l39 152q-96 -187 -260.5 -343t-264.5 -156q-43 0 -70 30t-27 89q0 39 8.5 83t44.5 179q86 322 86 410q0 42 -29 42q-12 0 -28.5 -7t-108.5 -65z
M690 1038zM430 -65zM994 1121l-9 -11h-55l-198 219l-291 -219h-63l-8 11l318 361h141zM755 1418zM1130 1222z" />
    <glyph glyph-name="udieresis" unicode="&#xfc;" 
d="M69 716l-16 38l2 14q141 103 234 156.5t149 53.5q65 0 65 -79q0 -38 -11.5 -95t-44.5 -183l-84 -336q-15 -70 -15 -99q0 -42 35 -42q22 0 65 28.5t128 137.5q66 84 121 196.5t95 265.5q21 84 27 158q103 6 218 40l17 -18q-61 -196 -123.5 -447t-62.5 -327q0 -37 29 -37
q17 0 36 11.5t47 32.5q31 22 52 37h12l22 -39l-3 -13q-205 -154 -260 -182t-96 -28q-31 0 -48 22.5t-17 61.5q0 60 51 256l39 152q-96 -187 -260.5 -343t-264.5 -156q-43 0 -70 30t-27 89q0 39 8.5 83t44.5 179q86 322 86 410q0 42 -29 42q-12 0 -28.5 -7t-108.5 -65z
M690 1038zM430 -65zM910 1139q-46 0 -73.5 29t-27.5 69q0 57 43 101.5t102 44.5q44 0 72 -29t28 -70q0 -56 -44 -100.5t-100 -44.5zM491 1139q-50 0 -75.5 30.5t-25.5 67.5q0 59 44 102.5t101 43.5q44 0 72 -29t28 -70q0 -53 -42 -99t-102 -46z" />
    <glyph glyph-name="yacute" unicode="&#xfd;" 
d="M49 -371l126 81l30 -12q-2 -21 -2 -39q0 -55 36 -95t97 -40q34 0 67 14.5t66.5 49t65.5 100t70 189.5t65 237l55 222q-135 -196 -246 -286t-171 -90q-40 0 -70 46t-30 155q0 56 38 395q8 128 8 145q0 53 -8 69.5t-29 16.5q-32 0 -147 -84l-15 2l-19 33l1 16l119 92
q88 69 147 100t99 31q39 0 60 -32.5t21 -93.5q0 -36 -16 -189l-20 -179q-19 -175 -19 -250q0 -65 13.5 -78.5t22.5 -13.5q24 0 74 44t121.5 159t123.5 276t71 302l229 50l23 -19q-7 -14 -48 -148t-92 -332q-65 -254 -112.5 -401.5t-110.5 -262.5t-145 -201t-168 -132.5
t-172 -46.5q-87 0 -148 43.5t-61 134.5v22zM690 1038zM957 -65zM1145 1474q-349 -240 -533 -382l-52 27l7 13l165 188q53 60 130 145l15 10l132 12l121 15l10 -5z" />
    <glyph glyph-name="thorn" unicode="&#xfe;" 
d="M419 544q96 150 157 215.5t141.5 122t135 76.5t98.5 20q37 0 62.5 -24.5t41.5 -90t16 -131.5q0 -127 -51.5 -282.5t-101.5 -219.5t-144.5 -127t-163.5 -100t-173 -37q-61 0 -116 13q-23 -96 -54.5 -239t-36.5 -175t-8 -93q-24 -1 -119 -18.5t-109 -24.5l-21 16
q119 432 214.5 894t144.5 781l17 104q8 48 8 64q0 24 -13.5 36t-40 13.5t-107.5 2.5l-9 9l7 43l9 9q218 27 408 94l24 -22l-103 -435zM345 121q97 -54 193 -54q46 0 82.5 20.5t72 77.5t67 154t53 188t21.5 187q0 64 -11.5 90.5t-39.5 26.5q-26 0 -77 -26t-113 -92.5
t-108 -147t-70 -144.5t-50 -187z" />
    <glyph glyph-name="ydieresis" unicode="&#xff;" 
d="M49 -371l126 81l30 -12q-2 -21 -2 -39q0 -55 36 -95t97 -40q34 0 67 14.5t66.5 49t65.5 100t70 189.5t65 237l55 222q-135 -196 -246 -286t-171 -90q-40 0 -70 46t-30 155q0 56 38 395q8 128 8 145q0 53 -8 69.5t-29 16.5q-32 0 -147 -84l-15 2l-19 33l1 16l119 92
q88 69 147 100t99 31q39 0 60 -32.5t21 -93.5q0 -36 -16 -189l-20 -179q-19 -175 -19 -250q0 -65 13.5 -78.5t22.5 -13.5q24 0 74 44t121.5 159t123.5 276t71 302l229 50l23 -19q-7 -14 -48 -148t-92 -332q-65 -254 -112.5 -401.5t-110.5 -262.5t-145 -201t-168 -132.5
t-172 -46.5q-87 0 -148 43.5t-61 134.5v22zM690 1038zM957 -65zM960 1139q-46 0 -73.5 29t-27.5 69q0 57 43 101.5t102 44.5q44 0 72 -29t28 -70q0 -56 -44 -100.5t-100 -44.5zM541 1139q-50 0 -75.5 30.5t-25.5 67.5q0 59 44 102.5t101 43.5q44 0 72 -29t28 -70
q0 -53 -42 -99t-102 -46z" />
    <glyph glyph-name="Amacron" unicode="&#x100;" horiz-adv-x="1479" 
d="M-61 -8l-7 9l7 52l10 8q78 6 89.5 8.5t23.5 11.5t24 26.5t77 129.5l117 199l283 487l173 291q76 126 112 197h195l41 -298l47 -330l39 -270l31 -202l20 -121q11 -82 34 -105t143 -24l7 -9l-6 -51l-10 -9q-226 8 -302 8q-66 0 -292 -8l-8 9l8 51l10 9q97 0 124 15t27 48
q0 70 -48 421q-91 1 -119 1l-153 -1h-180q-59 -102 -125 -229.5t-78.5 -162t-12.5 -46.5q0 -18 21 -30.5t148 -15.5l7 -9l-7 -52l-10 -8q-1 0 -73 4q-96 4 -146 4q-29 0 -241 -8zM504 636q48 -1 58 -1q311 0 335 1l-78 541zM958 1492zM598 -65zM686 1794h645l-39 -145h-647z
" />
    <glyph glyph-name="amacron" unicode="&#x101;" 
d="M1042 213l22 -39l-4 -13q-181 -133 -248.5 -170t-112.5 -37q-32 0 -50.5 27t-18.5 68q0 42 16 122t69 291q-168 -288 -302 -398.5t-219 -110.5q-46 0 -79.5 41t-33.5 148q0 94 28 219t79 253q26 64 61.5 103.5t153.5 125.5t167.5 104t111.5 18q44 0 104 -13.5t110 -39.5
l92 54l33 -24q-25 -59 -61 -218l-74 -338q-39 -180 -39 -220q0 -39 26 -39q32 0 157 86h12zM761 810q-89 45 -164 45q-78 0 -126 -62t-104 -276t-56 -317q0 -75 40 -75q42 0 150 126t177.5 279t82.5 280zM690 1038zM431 -65zM430 1313h647l-30 -127h-647z" />
    <glyph glyph-name="Abreve" unicode="&#x102;" horiz-adv-x="1479" 
d="M-61 -8l-7 9l7 52l10 8q78 6 89.5 8.5t23.5 11.5t24 26.5t77 129.5l117 199l283 487l173 291q76 126 112 197h195l41 -298l47 -330l39 -270l31 -202l20 -121q11 -82 34 -105t143 -24l7 -9l-6 -51l-10 -9q-226 8 -302 8q-66 0 -292 -8l-8 9l8 51l10 9q97 0 124 15t27 48
q0 70 -48 421q-91 1 -119 1l-153 -1h-180q-59 -102 -125 -229.5t-78.5 -162t-12.5 -46.5q0 -18 21 -30.5t148 -15.5l7 -9l-7 -52l-10 -8q-1 0 -73 4q-96 4 -146 4q-29 0 -241 -8zM504 636q48 -1 58 -1q311 0 335 1l-78 541zM958 1492zM598 -65zM1318 1894
q-47 -194 -151 -262t-207 -68q-66 0 -120 21t-90.5 58.5t-55 77t-21.5 64t-3 109.5l18 13h51q19 -187 241 -187q202 0 271 187h53zM1006 1842z" />
    <glyph glyph-name="abreve" unicode="&#x103;" 
d="M1042 213l22 -39l-4 -13q-181 -133 -248.5 -170t-112.5 -37q-32 0 -50.5 27t-18.5 68q0 42 16 122t69 291q-168 -288 -302 -398.5t-219 -110.5q-46 0 -79.5 41t-33.5 148q0 94 28 219t79 253q26 64 61.5 103.5t153.5 125.5t167.5 104t111.5 18q44 0 104 -13.5t110 -39.5
l92 54l33 -24q-25 -59 -61 -218l-74 -338q-39 -180 -39 -220q0 -39 26 -39q32 0 157 86h12zM761 810q-89 45 -164 45q-78 0 -126 -62t-104 -276t-56 -317q0 -75 40 -75q42 0 150 126t177.5 279t82.5 280zM690 1038zM431 -65zM1051 1410q-37 -173 -130.5 -237.5t-195.5 -64.5
q-67 0 -119 21.5t-88.5 63.5t-50.5 97q-7 28 -7 120l13 12h50q17 -172 220 -172q185 0 248 172h49zM770 1383z" />
    <glyph glyph-name="Aogonek" unicode="&#x104;" horiz-adv-x="1479" 
d="M1389 -8q-153 6 -185 6q-153 -123 -153 -209q0 -43 27.5 -71.5t70.5 -28.5q67 0 131 67l16 2l33 -20l2 -12q-152 -160 -293 -160q-65 0 -103 37.5t-38 103.5q0 64 38 125t179 168h-27q-106 0 -292 -8l-9 8l9 51l10 10q100 0 125.5 16.5t25.5 45.5q0 105 -47 422h-452
q-217 -377 -217 -439q0 -19 28.5 -31t141.5 -12l6 -12l-6 -51l-11 -8q-97 8 -221 8q-83 0 -237 -6l-9 6l7 53l10 8q43 3 75.5 8.5t52.5 30t83 130.5l688 1181h194l150 -1042q36 -250 53 -271t38.5 -29.5t115.5 -9.5l6 -8l-6 -51zM504 637l57 -2h107q191 0 229 2l-78 541z
" />
    <glyph glyph-name="aogonek" unicode="&#x105;" 
d="M890 -233l14 2l31 -18l1 -12q-96 -99 -156.5 -126t-119.5 -27q-67 0 -102 37t-35 97q0 67 38 120.5t116 116.5q-24 10 -35.5 37t-11.5 55q0 42 16 122t69 291q-168 -288 -302 -398.5t-219 -110.5q-46 0 -79.5 41t-33.5 148q0 94 28 219t79 253q26 64 61.5 103.5
t153.5 125.5t167.5 104t111.5 18q44 0 104 -13.5t110 -39.5l92 54l33 -24q-25 -59 -61 -218l-74 -338q-39 -180 -39 -220q0 -39 26 -39q32 0 157 86h12l22 -39l-4 -13q-173 -126 -224 -156q-60 -35 -113 -93t-53 -112q0 -42 25.5 -69.5t69.5 -27.5q64 0 125 64zM761 810
q-89 45 -164 45q-78 0 -126 -62t-104 -276t-56 -317q0 -75 40 -75q42 0 150 126t177.5 279t82.5 280z" />
    <glyph glyph-name="Cacute" unicode="&#x106;" horiz-adv-x="1403" 
d="M1276 235l-22 -82q-129 -85 -264.5 -140.5t-300.5 -55.5q-178 0 -304.5 66t-188 184.5t-61.5 292.5q0 215 81.5 409t303.5 360t498 166q63 0 133 -9.5t138.5 -30t116.5 -51.5l2 -12q-59 -190 -74 -327l-8 -8h-55l-9 8q5 157 5 166q0 26 -11 42t-58.5 43.5t-119 44
t-149.5 16.5q-97 0 -179 -26t-152 -94.5t-110.5 -179t-57 -231.5t-16.5 -234q0 -180 50 -275.5t138.5 -138.5t201.5 -43q60 0 121.5 11.5t117 32.5t211.5 114zM1427 1877q-267 -170 -476 -330l-51 27l7 13l144 169q46 56 93 112l15 10l132 12l121 15l11 -5z" />
    <glyph glyph-name="cacute" unicode="&#x107;" horiz-adv-x="909" 
d="M810 229l23 -42l-3 -12q-171 -123 -281 -172t-208 -49q-78 0 -142 37.5t-91.5 103.5t-27.5 140q0 90 20.5 191t52 175.5t61 111.5t69 66t140.5 91q73 47 100 61t70 24.5t92 10.5q96 0 212 -49l3 -11q-15 -36 -36.5 -126.5t-28.5 -146.5l-11 -9h-51l-7 9q8 54 8 99
q0 9 -1 30q-86 75 -184 75q-71 0 -112 -26.5t-68.5 -78.5t-61 -191.5t-33.5 -248.5q0 -90 41 -145t113 -55q59 0 131.5 26.5t199.5 110.5h11zM1125 1474q-349 -240 -533 -382l-52 27l7 13l165 188q53 60 130 145l15 10l132 12l121 15l10 -5z" />
    <glyph glyph-name="Ccircumflex" unicode="&#x108;" horiz-adv-x="1403" 
d="M1276 235l-22 -82q-129 -85 -264.5 -140.5t-300.5 -55.5q-178 0 -304.5 66t-188 184.5t-61.5 292.5q0 215 81.5 409t303.5 360t498 166q63 0 133 -9.5t138.5 -30t116.5 -51.5l2 -12q-59 -190 -74 -327l-8 -8h-55l-9 8q5 157 5 166q0 26 -11 42t-58.5 43.5t-119 44
t-149.5 16.5q-97 0 -179 -26t-152 -94.5t-110.5 -179t-57 -231.5t-16.5 -234q0 -180 50 -275.5t138.5 -138.5t201.5 -43q60 0 121.5 11.5t117 32.5t211.5 114zM1291 1550l-13 -12h-56l-193 213l-286 -213h-63l-10 14l315 352h141zM1056 1842zM1432 1646z" />
    <glyph glyph-name="ccircumflex" unicode="&#x109;" horiz-adv-x="909" 
d="M810 229l23 -42l-3 -12q-171 -123 -281 -172t-208 -49q-78 0 -142 37.5t-91.5 103.5t-27.5 140q0 90 20.5 191t52 175.5t61 111.5t69 66t140.5 91q73 47 100 61t70 24.5t92 10.5q96 0 212 -49l3 -11q-15 -36 -36.5 -126.5t-28.5 -146.5l-11 -9h-51l-7 9q8 54 8 99
q0 9 -1 30q-86 75 -184 75q-71 0 -112 -26.5t-68.5 -78.5t-61 -191.5t-33.5 -248.5q0 -90 41 -145t113 -55q59 0 131.5 26.5t199.5 110.5h11zM944 1121l-9 -11h-55l-198 219l-291 -219h-63l-8 11l318 361h141zM705 1418zM1080 1222z" />
    <glyph glyph-name="Cdotaccent" unicode="&#x10a;" horiz-adv-x="1403" 
d="M1276 235l-22 -82q-129 -85 -264.5 -140.5t-300.5 -55.5q-178 0 -304.5 66t-188 184.5t-61.5 292.5q0 215 81.5 409t303.5 360t498 166q63 0 133 -9.5t138.5 -30t116.5 -51.5l2 -12q-59 -190 -74 -327l-8 -8h-55l-9 8q5 157 5 166q0 26 -11 42t-58.5 43.5t-119 44
t-149.5 16.5q-97 0 -179 -26t-152 -94.5t-110.5 -179t-57 -231.5t-16.5 -234q0 -180 50 -275.5t138.5 -138.5t201.5 -43q60 0 121.5 11.5t117 32.5t211.5 114zM1012 1589q-51 0 -81.5 32.5t-30.5 76.5q0 64 48 112t111 48q53 0 82 -34t29 -75q0 -61 -48 -110.5t-110 -49.5z
" />
    <glyph glyph-name="cdotaccent" unicode="&#x10b;" horiz-adv-x="909" 
d="M810 229l23 -42l-3 -12q-171 -123 -281 -172t-208 -49q-78 0 -142 37.5t-91.5 103.5t-27.5 140q0 90 20.5 191t52 175.5t61 111.5t69 66t140.5 91q73 47 100 61t70 24.5t92 10.5q96 0 212 -49l3 -11q-15 -36 -36.5 -126.5t-28.5 -146.5l-11 -9h-51l-7 9q8 54 8 99
q0 9 -1 30q-86 75 -184 75q-71 0 -112 -26.5t-68.5 -78.5t-61 -191.5t-33.5 -248.5q0 -90 41 -145t113 -55q59 0 131.5 26.5t199.5 110.5h11zM641 1139q-46 0 -73.5 29t-27.5 69q0 59 43.5 102.5t100.5 43.5q44 0 72.5 -29t28.5 -70q0 -53 -42 -99t-102 -46z" />
    <glyph glyph-name="Ccaron" unicode="&#x10c;" horiz-adv-x="1403" 
d="M1276 235l-22 -82q-129 -85 -264.5 -140.5t-300.5 -55.5q-178 0 -304.5 66t-188 184.5t-61.5 292.5q0 215 81.5 409t303.5 360t498 166q63 0 133 -9.5t138.5 -30t116.5 -51.5l2 -12q-59 -190 -74 -327l-8 -8h-55l-9 8q5 157 5 166q0 26 -11 42t-58.5 43.5t-119 44
t-149.5 16.5q-97 0 -179 -26t-152 -94.5t-110.5 -179t-57 -231.5t-16.5 -234q0 -180 50 -275.5t138.5 -138.5t201.5 -43q60 0 121.5 11.5t117 32.5t211.5 114zM1381 1891l-315 -353h-141l-165 355l13 11h56l193 -213l286 213h63z" />
    <glyph glyph-name="ccaron" unicode="&#x10d;" horiz-adv-x="909" 
d="M810 229l23 -42l-3 -12q-171 -123 -281 -172t-208 -49q-78 0 -142 37.5t-91.5 103.5t-27.5 140q0 90 20.5 191t52 175.5t61 111.5t69 66t140.5 91q73 47 100 61t70 24.5t92 10.5q96 0 212 -49l3 -11q-15 -36 -36.5 -126.5t-28.5 -146.5l-11 -9h-51l-7 9q8 54 8 99
q0 9 -1 30q-86 75 -184 75q-71 0 -112 -26.5t-68.5 -78.5t-61 -191.5t-33.5 -248.5q0 -90 41 -145t113 -55q59 0 131.5 26.5t199.5 110.5h11zM1024 1471l-318 -361h-141l-165 361l9 11h55l198 -219l291 219h63z" />
    <glyph glyph-name="Dcaron" unicode="&#x10e;" horiz-adv-x="1593" 
d="M188 1404l9 8q144 -7 327 -7l380 6q256 0 388 -67.5t192.5 -192.5t60.5 -277q0 -196 -85 -395.5t-281 -343t-456 -143.5q-52 0 -183 4q-126 4 -191 4q-174 0 -301 -6l-7 7l7 53l10 9l29 8q62 14 75.5 29.5t41 163.5t96.5 549.5t69 467.5q0 25 -12.5 36.5t-30.5 14
t-139 9.5l-7 8zM434 121l140 -19q96 -14 164 -14q112 0 186 30.5t130 94.5t100 155t77 235.5t33 291.5q0 94 -22 168t-57.5 123t-87.5 80t-112 41.5t-145 10.5q-119 0 -200 -12q-5 -48 -37 -209l-87 -486q-66 -376 -82 -490zM1231 1891l-315 -353h-141l-165 355l13 11h56
l193 -213l286 213h63z" />
    <glyph glyph-name="dcaron" unicode="&#x10f;" 
d="M694 1340l-8 9l6 43l10 9q216 27 407 94l25 -22l-72 -312q-29 -135 -114 -556q-62 -309 -72 -386q-5 -39 -5 -57q0 -34 21 -34q25 0 141 85l12 -1l21 -39l-3 -13q-186 -141 -243.5 -170.5t-96.5 -29.5q-35 0 -54.5 29t-19.5 67q0 56 38 205q19 77 50 212
q-114 -218 -272 -367t-257 -149q-59 0 -93 54t-34 147q0 124 32 259t75.5 224t75 118t137 98t158.5 88.5t113 19.5q56 0 137 -21l32 211q14 93 14 131q0 27 -13.5 39t-44.5 13t-103 2zM784 824q-73 35 -172 35q-77 0 -113.5 -26.5t-82 -148t-73.5 -255.5t-28 -232
q0 -71 37 -71q34 0 86 40t129.5 142.5t128.5 217t70 209.5zM1124 1035l-2 22q119 26 164.5 79.5t45.5 80.5q0 23 -40 27q-107 6 -107 94q0 58 43.5 102.5t108.5 44.5q66 0 100.5 -42t34.5 -99q0 -108 -88.5 -201t-259.5 -108z" />
    <glyph glyph-name="Dcroat" unicode="&#x110;" horiz-adv-x="1593" 
d="M279 690h-188l-7 9l17 90l11 8h185q72 419 72 484q0 25 -12.5 36.5t-30.5 14t-139 9.5l-7 8l8 55l9 8q144 -7 327 -7l395 7q233 0 366 -65t196.5 -191t63.5 -282q0 -164 -59.5 -330.5t-169.5 -287t-257.5 -192.5t-335.5 -72q-52 0 -183 4q-126 4 -191 4q-174 0 -301 -6
l-7 7l7 53l10 9l29 8q49 11 61.5 18.5t20 20.5t21 80t40.5 222zM530 690q-75 -424 -96 -569l140 -19q96 -14 164 -14q112 0 186 30.5t130 94.5t100 155t77 235.5t33 291.5q0 94 -22 168t-57.5 123t-87.5 80t-112 41.5t-145 10.5q-119 0 -200 -12q-8 -66 -21.5 -131.5
t-27.5 -144.5l-42 -233h346l7 -9l-24 -89l-11 -9h-337z" />
    <glyph glyph-name="dcroat" unicode="&#x111;" 
d="M843 1165q12 93 12 121q0 25 -11.5 37t-33.5 14t-116 3l-8 9l6 43l10 9q216 27 407 94l25 -22l-71 -308h179l7 -9l-13 -60l-11 -8h-179q-169 -869 -175 -926q0 -34 21 -34q25 0 141 85l12 -1l21 -39l-3 -13q-186 -141 -243.5 -170.5t-96.5 -29.5q-35 0 -54.5 29t-19.5 67
q0 56 38 205q19 77 50 212q-114 -218 -272 -367t-257 -149q-59 0 -93 54t-34 147q0 124 32 259t75.5 224t75 118t137 98t158.5 88.5t113 19.5q56 0 137 -21l22 144h-239l-6 9l12 60l11 8h234zM784 824q-73 35 -172 35q-77 0 -113.5 -26.5t-82 -148t-73.5 -255.5t-28 -232
q0 -71 37 -71q34 0 86 40t129.5 142.5t128.5 217t70 209.5z" />
    <glyph glyph-name="Emacron" unicode="&#x112;" horiz-adv-x="1251" 
d="M41 1l7 53l10 9q78 19 94 29q8 5 14 14t16.5 51.5t72.5 397.5l77 446q37 221 37 280q0 25 -12.5 37t-30.5 14t-139 9l-7 8l8 55l9 8q159 -7 428 -7q48 0 608 7l10 -12q-2 -24 -29 -170q-14 -78 -22 -146l-9 -8h-52l-8 8q3 117 3 140q0 30 -7 41t-35 21t-106.5 18
t-148.5 8q-110 0 -182 -12l-62 -312q-14 -70 -37 -205q218 -5 276 -5q90 0 194 5l6 -12l-26 -88l-12 -9q-186 4 -372 9q-35 0 -82 -2l-63 -358q-28 -155 -34 -225h166q126 0 219.5 6t127.5 16t50 30t39 107q5 22 26 86l8 8h59l7 -8l-67 -341l-11 -9q-160 3 -219 3l-441 4
q-152 0 -351 -6zM791 1492zM553 -65zM566 1794h645l-39 -145h-647z" />
    <glyph glyph-name="emacron" unicode="&#x113;" horiz-adv-x="909" 
d="M775 228l23 -41l-3 -12q-176 -125 -284.5 -171.5t-191.5 -46.5q-73 0 -137 31t-91.5 89.5t-27.5 123.5q0 108 41.5 277t105.5 251t207.5 164t246.5 82q87 0 142 -44.5t55 -127.5q0 -102 -61 -184.5t-202.5 -139t-290.5 -81.5q-11 -73 -11 -134q0 -98 46.5 -133.5
t103.5 -35.5q41 0 94 15.5t88.5 35t135.5 83.5zM315 453q208 46 280 142.5t72 180.5q0 48 -28 74.5t-69 26.5q-82 0 -142 -86.5t-113 -337.5zM651 1038zM317 -65zM300 1313h647l-30 -127h-647z" />
    <glyph glyph-name="Ebreve" unicode="&#x114;" horiz-adv-x="1251" 
d="M41 1l7 53l10 9q78 19 94 29q8 5 14 14t16.5 51.5t72.5 397.5l77 446q37 221 37 280q0 25 -12.5 37t-30.5 14t-139 9l-7 8l8 55l9 8q159 -7 428 -7q48 0 608 7l10 -12q-2 -24 -29 -170q-14 -78 -22 -146l-9 -8h-52l-8 8q3 117 3 140q0 30 -7 41t-35 21t-106.5 18
t-148.5 8q-110 0 -182 -12l-62 -312q-14 -70 -37 -205q218 -5 276 -5q90 0 194 5l6 -12l-26 -88l-12 -9q-186 4 -372 9q-35 0 -82 -2l-63 -358q-28 -155 -34 -225h166q126 0 219.5 6t127.5 16t50 30t39 107q5 22 26 86l8 8h59l7 -8l-67 -341l-11 -9q-160 3 -219 3l-441 4
q-152 0 -351 -6zM791 1492zM553 -65zM1198 1894q-47 -194 -151 -262t-207 -68q-66 0 -120 21t-90.5 58.5t-55 77t-21.5 64t-3 109.5l18 13h51q19 -187 241 -187q202 0 271 187h53zM886 1842z" />
    <glyph glyph-name="ebreve" unicode="&#x115;" horiz-adv-x="909" 
d="M775 228l23 -41l-3 -12q-176 -125 -284.5 -171.5t-191.5 -46.5q-73 0 -137 31t-91.5 89.5t-27.5 123.5q0 108 41.5 277t105.5 251t207.5 164t246.5 82q87 0 142 -44.5t55 -127.5q0 -102 -61 -184.5t-202.5 -139t-290.5 -81.5q-11 -73 -11 -134q0 -98 46.5 -133.5
t103.5 -35.5q41 0 94 15.5t88.5 35t135.5 83.5zM315 453q208 46 280 142.5t72 180.5q0 48 -28 74.5t-69 26.5q-82 0 -142 -86.5t-113 -337.5zM651 1038zM317 -65zM941 1410q-37 -173 -130.5 -237.5t-195.5 -64.5q-67 0 -119 21.5t-88.5 63.5t-50.5 97q-7 28 -7 120l13 12h50
q17 -172 220 -172q185 0 248 172h49zM660 1383z" />
    <glyph glyph-name="Edotaccent" unicode="&#x116;" horiz-adv-x="1251" 
d="M41 1l7 53l10 9q78 19 94 29q8 5 14 14t16.5 51.5t72.5 397.5l77 446q37 221 37 280q0 25 -12.5 37t-30.5 14t-139 9l-7 8l8 55l9 8q159 -7 428 -7q48 0 608 7l10 -12q-2 -24 -29 -170q-14 -78 -22 -146l-9 -8h-52l-8 8q3 117 3 140q0 30 -7 41t-35 21t-106.5 18
t-148.5 8q-110 0 -182 -12l-62 -312q-14 -70 -37 -205q218 -5 276 -5q90 0 194 5l6 -12l-26 -88l-12 -9q-186 4 -372 9q-35 0 -82 -2l-63 -358q-28 -155 -34 -225h166q126 0 219.5 6t127.5 16t50 30t39 107q5 22 26 86l8 8h59l7 -8l-67 -341l-11 -9q-160 3 -219 3l-441 4
q-152 0 -351 -6zM791 1492zM553 -65zM842 1589q-51 0 -81.5 32.5t-30.5 76.5q0 64 48 112t111 48q53 0 82 -34t29 -75q0 -61 -48 -110.5t-110 -49.5z" />
    <glyph glyph-name="edotaccent" unicode="&#x117;" horiz-adv-x="909" 
d="M775 228l23 -41l-3 -12q-176 -125 -284.5 -171.5t-191.5 -46.5q-73 0 -137 31t-91.5 89.5t-27.5 123.5q0 108 41.5 277t105.5 251t207.5 164t246.5 82q87 0 142 -44.5t55 -127.5q0 -102 -61 -184.5t-202.5 -139t-290.5 -81.5q-11 -73 -11 -134q0 -98 46.5 -133.5
t103.5 -35.5q41 0 94 15.5t88.5 35t135.5 83.5zM315 453q208 46 280 142.5t72 180.5q0 48 -28 74.5t-69 26.5q-82 0 -142 -86.5t-113 -337.5zM651 1038zM317 -65zM621 1139q-46 0 -73.5 29t-27.5 69q0 59 43.5 102.5t100.5 43.5q44 0 72.5 -29t28.5 -70q0 -53 -42 -99
t-102 -46z" />
    <glyph glyph-name="Eogonek" unicode="&#x118;" horiz-adv-x="1251" 
d="M1059 -6h-139q-150 -116 -150 -207q0 -42 28 -70t70 -28q69 0 133 67l15 2l33 -20l2 -12q-149 -160 -291 -160q-67 0 -105.5 37.5t-38.5 103.5q0 60 37 121t178 168l-395 4q-207 2 -389 -6l-6 6l6 53l5 9q94 25 107 36t27 71t50 267l84 496q49 289 49 348q0 30 -17 42.5
t-166 16.5l-6 11l8 55l9 6q144 -6 428 -6l608 6l10 -10q-3 -23 -18 -104t-33 -214l-8 -8h-54l-8 8q3 137 3 155q0 26 -14.5 35t-45.5 17t-102.5 14.5t-124.5 6.5q-120 0 -191 -13l-61 -311q-28 -142 -37 -203l274 -6q95 -2 197 4l4 -12l-27 -88l-12 -8l-211 6q-140 4 -162 4
l-82 -4l-61 -356q-32 -185 -35 -228l166 2q192 3 274.5 10t111.5 30t52 118l25 88l8 6h59l7 -8l-68 -340z" />
    <glyph glyph-name="eogonek" unicode="&#x119;" horiz-adv-x="909" 
d="M367 -40q-55 -49 -78.5 -85.5t-23.5 -75.5q0 -42 26 -69t69 -27q63 0 125 64l13 2l32 -18l1 -12q-96 -99 -156.5 -126t-120.5 -27q-68 0 -102.5 38t-34.5 96q0 63 35 115.5t122 123.5q-113 19 -162 85t-49 156q0 120 42 279.5t92.5 232t142.5 134t176 95.5t148 34
q89 0 143 -45t54 -127q0 -98 -58 -180t-201 -141.5t-295 -83.5q-11 -73 -11 -134q0 -98 46.5 -133.5t103.5 -35.5q41 0 94 15.5t88.5 35t135.5 83.5l11 -1l23 -41l-3 -12q-271 -194 -428 -215zM315 453q208 46 280 142.5t72 180.5q0 48 -28 74.5t-69 26.5q-82 0 -142 -86.5
t-113 -337.5z" />
    <glyph glyph-name="Ecaron" unicode="&#x11a;" horiz-adv-x="1251" 
d="M41 1l7 53l10 9q78 19 94 29q8 5 14 14t16.5 51.5t72.5 397.5l77 446q37 221 37 280q0 25 -12.5 37t-30.5 14t-139 9l-7 8l8 55l9 8q159 -7 428 -7q48 0 608 7l10 -12q-2 -24 -29 -170q-14 -78 -22 -146l-9 -8h-52l-8 8q3 117 3 140q0 30 -7 41t-35 21t-106.5 18
t-148.5 8q-110 0 -182 -12l-62 -312q-14 -70 -37 -205q218 -5 276 -5q90 0 194 5l6 -12l-26 -88l-12 -9q-186 4 -372 9q-35 0 -82 -2l-63 -358q-28 -155 -34 -225h166q126 0 219.5 6t127.5 16t50 30t39 107q5 22 26 86l8 8h59l7 -8l-67 -341l-11 -9q-160 3 -219 3l-441 4
q-152 0 -351 -6zM791 1492zM553 -65zM1211 1891l-315 -353h-141l-165 355l13 11h56l193 -213l286 213h63z" />
    <glyph glyph-name="ecaron" unicode="&#x11b;" horiz-adv-x="909" 
d="M775 228l23 -41l-3 -12q-176 -125 -284.5 -171.5t-191.5 -46.5q-73 0 -137 31t-91.5 89.5t-27.5 123.5q0 108 41.5 277t105.5 251t207.5 164t246.5 82q87 0 142 -44.5t55 -127.5q0 -102 -61 -184.5t-202.5 -139t-290.5 -81.5q-11 -73 -11 -134q0 -98 46.5 -133.5
t103.5 -35.5q41 0 94 15.5t88.5 35t135.5 83.5zM315 453q208 46 280 142.5t72 180.5q0 48 -28 74.5t-69 26.5q-82 0 -142 -86.5t-113 -337.5zM651 1038zM317 -65zM1004 1471l-318 -361h-141l-165 361l9 11h55l198 -219l291 219h63z" />
    <glyph glyph-name="Gcircumflex" unicode="&#x11c;" horiz-adv-x="1593" 
d="M1334 93l-7 -7q-50 -10 -161 -48q-155 -53 -248 -67t-174 -14q-277 0 -434.5 141.5t-157.5 413.5q0 149 43.5 292t120.5 247t222.5 204.5t269 140t257.5 39.5q116 0 234 -27t178 -67l8 -14l-46 -169q-18 -64 -32 -157l-9 -8h-57l-7 8q8 109 8 191q-137 113 -350 113
q-134 0 -237 -43t-174 -151.5t-112 -271t-41 -319.5q0 -224 101 -343t290 -119q137 0 240 59l38 155q11 43 21.5 109t10.5 82t-9 27.5t-21 14.5t-70.5 6t-102.5 4l-7 8l10 54l9 9q192 -7 279 -7q42 0 308 7l7 -9l-8 -54l-10 -8q-54 -1 -78.5 -10t-37 -30.5t-28.5 -102.5
l-19 -87q-16 -78 -19.5 -101t-3.5 -49q0 -20 6 -42zM1341 1550l-13 -12h-56l-193 213l-286 -213h-63l-10 14l315 352h141zM1106 1842zM1482 1646z" />
    <glyph glyph-name="gcircumflex" unicode="&#x11d;" horiz-adv-x="1024" 
d="M291 23q-54 48 -54 101q0 12 4 25.5t7 17t16 11.5q133 81 164 107l-38 -1q-116 0 -197 61t-81 195q0 67 20 128.5t54 109.5t69 73.5t107.5 57t128.5 49.5t97 18q33 0 65 -4.5t45.5 -8.5t49.5 -19l30 -11q3 -2 60.5 -5t86.5 -3q26 0 88 4q44 3 57 3l11 -16l-23 -105
q-19 4 -77 7t-66 3q-10 0 -34 -2q23 -52 23 -116q0 -70 -25.5 -139t-59.5 -113.5t-82 -72t-131 -59.5q-56 -22 -83 -36.5t-43.5 -34.5t-16.5 -35q0 -20 18 -44t120 -94q145 -101 193.5 -159.5t48.5 -140.5q0 -157 -152 -252t-367 -95q-130 0 -230 32.5t-148 94.5t-48 133
q0 87 76 170.5t255 143.5zM324 543q0 -102 42.5 -145t108.5 -43q69 0 115 48.5t70 133t24 165.5q0 101 -44 142t-107 41q-100 0 -154.5 -105.5t-54.5 -236.5zM335 -16l-89 -44q-44 -23 -72 -44t-50 -49.5t-33 -61.5t-11 -68q0 -68 36 -114t102 -72.5t146 -26.5
q123 0 195 57.5t72 138.5q0 47 -36 91t-260 193zM944 1121l-9 -11h-55l-198 219l-291 -219h-63l-8 11l318 361h141zM705 1418zM1080 1222z" />
    <glyph glyph-name="Gbreve" unicode="&#x11e;" horiz-adv-x="1593" 
d="M1334 93l-7 -7q-50 -10 -161 -48q-155 -53 -248 -67t-174 -14q-277 0 -434.5 141.5t-157.5 413.5q0 149 43.5 292t120.5 247t222.5 204.5t269 140t257.5 39.5q116 0 234 -27t178 -67l8 -14l-46 -169q-18 -64 -32 -157l-9 -8h-57l-7 8q8 109 8 191q-137 113 -350 113
q-134 0 -237 -43t-174 -151.5t-112 -271t-41 -319.5q0 -224 101 -343t290 -119q137 0 240 59l38 155q11 43 21.5 109t10.5 82t-9 27.5t-21 14.5t-70.5 6t-102.5 4l-7 8l10 54l9 9q192 -7 279 -7q42 0 308 7l7 -9l-8 -54l-10 -8q-54 -1 -78.5 -10t-37 -30.5t-28.5 -102.5
l-19 -87q-16 -78 -19.5 -101t-3.5 -49q0 -20 6 -42zM1418 1894q-47 -194 -151 -262t-207 -68q-66 0 -120 21t-90.5 58.5t-55 77t-21.5 64t-3 109.5l18 13h51q19 -187 241 -187q202 0 271 187h53zM1106 1842z" />
    <glyph glyph-name="gbreve" unicode="&#x11f;" horiz-adv-x="1024" 
d="M291 23q-54 48 -54 101q0 12 4 25.5t7 17t16 11.5q133 81 164 107l-38 -1q-116 0 -197 61t-81 195q0 67 20 128.5t54 109.5t69 73.5t107.5 57t128.5 49.5t97 18q33 0 65 -4.5t45.5 -8.5t49.5 -19l30 -11q3 -2 60.5 -5t86.5 -3q26 0 88 4q44 3 57 3l11 -16l-23 -105
q-19 4 -77 7t-66 3q-10 0 -34 -2q23 -52 23 -116q0 -70 -25.5 -139t-59.5 -113.5t-82 -72t-131 -59.5q-56 -22 -83 -36.5t-43.5 -34.5t-16.5 -35q0 -20 18 -44t120 -94q145 -101 193.5 -159.5t48.5 -140.5q0 -157 -152 -252t-367 -95q-130 0 -230 32.5t-148 94.5t-48 133
q0 87 76 170.5t255 143.5zM324 543q0 -102 42.5 -145t108.5 -43q69 0 115 48.5t70 133t24 165.5q0 101 -44 142t-107 41q-100 0 -154.5 -105.5t-54.5 -236.5zM335 -16l-89 -44q-44 -23 -72 -44t-50 -49.5t-33 -61.5t-11 -68q0 -68 36 -114t102 -72.5t146 -26.5
q123 0 195 57.5t72 138.5q0 47 -36 91t-260 193zM971 1410q-37 -173 -130.5 -237.5t-195.5 -64.5q-67 0 -119 21.5t-88.5 63.5t-50.5 97q-7 28 -7 120l13 12h50q17 -172 220 -172q185 0 248 172h49zM690 1383z" />
    <glyph glyph-name="Gdotaccent" unicode="&#x120;" horiz-adv-x="1593" 
d="M1334 93l-7 -7q-50 -10 -161 -48q-155 -53 -248 -67t-174 -14q-277 0 -434.5 141.5t-157.5 413.5q0 149 43.5 292t120.5 247t222.5 204.5t269 140t257.5 39.5q116 0 234 -27t178 -67l8 -14l-46 -169q-18 -64 -32 -157l-9 -8h-57l-7 8q8 109 8 191q-137 113 -350 113
q-134 0 -237 -43t-174 -151.5t-112 -271t-41 -319.5q0 -224 101 -343t290 -119q137 0 240 59l38 155q11 43 21.5 109t10.5 82t-9 27.5t-21 14.5t-70.5 6t-102.5 4l-7 8l10 54l9 9q192 -7 279 -7q42 0 308 7l7 -9l-8 -54l-10 -8q-54 -1 -78.5 -10t-37 -30.5t-28.5 -102.5
l-19 -87q-16 -78 -19.5 -101t-3.5 -49q0 -20 6 -42zM1062 1589q-51 0 -81.5 32.5t-30.5 76.5q0 64 48 112t111 48q53 0 82 -34t29 -75q0 -61 -48 -110.5t-110 -49.5z" />
    <glyph glyph-name="gdotaccent" unicode="&#x121;" horiz-adv-x="1024" 
d="M291 23q-54 48 -54 101q0 12 4 25.5t7 17t16 11.5q133 81 164 107l-38 -1q-116 0 -197 61t-81 195q0 67 20 128.5t54 109.5t69 73.5t107.5 57t128.5 49.5t97 18q33 0 65 -4.5t45.5 -8.5t49.5 -19l30 -11q3 -2 60.5 -5t86.5 -3q26 0 88 4q44 3 57 3l11 -16l-23 -105
q-19 4 -77 7t-66 3q-10 0 -34 -2q23 -52 23 -116q0 -70 -25.5 -139t-59.5 -113.5t-82 -72t-131 -59.5q-56 -22 -83 -36.5t-43.5 -34.5t-16.5 -35q0 -20 18 -44t120 -94q145 -101 193.5 -159.5t48.5 -140.5q0 -157 -152 -252t-367 -95q-130 0 -230 32.5t-148 94.5t-48 133
q0 87 76 170.5t255 143.5zM324 543q0 -102 42.5 -145t108.5 -43q69 0 115 48.5t70 133t24 165.5q0 101 -44 142t-107 41q-100 0 -154.5 -105.5t-54.5 -236.5zM335 -16l-89 -44q-44 -23 -72 -44t-50 -49.5t-33 -61.5t-11 -68q0 -68 36 -114t102 -72.5t146 -26.5
q123 0 195 57.5t72 138.5q0 47 -36 91t-260 193zM641 1139q-46 0 -73.5 29t-27.5 69q0 59 43.5 102.5t100.5 43.5q44 0 72.5 -29t28.5 -70q0 -53 -42 -99t-102 -46z" />
    <glyph glyph-name="Gcommaaccent" unicode="&#x122;" horiz-adv-x="1593" 
d="M1334 93l-7 -7q-50 -10 -161 -48q-155 -53 -248 -67t-174 -14q-277 0 -434.5 141.5t-157.5 413.5q0 149 43.5 292t120.5 247t222.5 204.5t269 140t257.5 39.5q116 0 234 -27t178 -67l8 -14l-46 -169q-18 -64 -32 -157l-9 -8h-57l-7 8q8 109 8 191q-137 113 -350 113
q-134 0 -237 -43t-174 -151.5t-112 -271t-41 -319.5q0 -224 101 -343t290 -119q137 0 240 59l38 155q11 43 21.5 109t10.5 82t-9 27.5t-21 14.5t-70.5 6t-102.5 4l-7 8l10 54l9 9q192 -7 279 -7q42 0 308 7l7 -9l-8 -54l-10 -8q-54 -1 -78.5 -10t-37 -30.5t-28.5 -102.5
l-19 -87q-16 -78 -19.5 -101t-3.5 -49q0 -20 6 -42zM482 -596l-2 23q122 25 170.5 78.5t48.5 91.5q0 23 -43 26q-110 7 -110 101q0 58 45.5 104.5t106.5 46.5q147 0 147 -136q0 -133 -96.5 -227t-266.5 -108z" />
    <glyph glyph-name="gcommaaccent" unicode="&#x123;" horiz-adv-x="1024" 
d="M291 23q-54 48 -54 101q0 12 4 25.5t7 17t16 11.5q133 81 164 107l-38 -1q-116 0 -197 61t-81 195q0 67 20 128.5t54 109.5t69 73.5t107.5 57t128.5 49.5t97 18q33 0 65 -4.5t45.5 -8.5t49.5 -19l30 -11q3 -2 60.5 -5t86.5 -3q26 0 88 4q44 3 57 3l11 -16l-23 -105
q-19 4 -77 7t-66 3q-10 0 -34 -2q23 -52 23 -116q0 -70 -25.5 -139t-59.5 -113.5t-82 -72t-131 -59.5q-56 -22 -83 -36.5t-43.5 -34.5t-16.5 -35q0 -20 18 -44t120 -94q145 -101 193.5 -159.5t48.5 -140.5q0 -157 -152 -252t-367 -95q-130 0 -230 32.5t-148 94.5t-48 133
q0 87 76 170.5t255 143.5zM324 543q0 -102 42.5 -145t108.5 -43q69 0 115 48.5t70 133t24 165.5q0 101 -44 142t-107 41q-100 0 -154.5 -105.5t-54.5 -236.5zM335 -16l-89 -44q-44 -23 -72 -44t-50 -49.5t-33 -61.5t-11 -68q0 -68 36 -114t102 -72.5t146 -26.5
q123 0 195 57.5t72 138.5q0 47 -36 91t-260 193zM856 1554v-22q-115 -25 -162 -76t-47 -84q0 -23 39 -26q106 -7 106 -95q0 -58 -43.5 -102.5t-105.5 -44.5t-98.5 38.5t-36.5 102.5q0 108 88 202.5t260 106.5z" />
    <glyph glyph-name="Hcircumflex" unicode="&#x124;" horiz-adv-x="1594" 
d="M1134 793q74 423 74 489q0 19 -8 30t-24.5 16t-60.5 8l-90 5l-7 8l8 55l9 8q116 -7 281 -7q129 0 359 7l6 -8l-9 -55l-9 -8q-113 -4 -128.5 -8t-26 -13.5t-18.5 -27.5q-12 -30 -42 -185l-129 -749q-31 -188 -31 -233q0 -31 20.5 -44.5t65.5 -15.5l102 -5l7 -8l-6 -50
l-9 -9q-116 7 -307 7q-182 0 -336 -7l-7 8l6 50l9 9q9 1 46 3q83 3 100.5 14t30 44t43.5 206l65 369l-281 1l-308 -1q-89 -502 -89 -571q0 -31 21 -44.5t64 -15.5l103 -5l7 -8l-6 -50l-9 -9q-130 7 -307 7q-182 0 -336 -7l-7 8l5 50l10 9q9 1 46 3q84 3 100.5 14t29.5 43.5
t54 264.5l92 531q52 300 52 365q0 20 -7.5 31t-24 16t-60.5 8l-90 5l-7 8l8 55l9 8q120 -7 281 -7q105 0 359 7l6 -8l-9 -55l-9 -8q-110 -4 -126 -7.5t-29 -15t-25 -47t-39 -191.5l-51 -287q198 -7 297 -7zM1241 1550l-13 -12h-56l-193 213l-286 -213h-63l-10 14l315 352
h141zM1006 1842zM1382 1646z" />
    <glyph glyph-name="hcircumflex" unicode="&#x125;" 
d="M545 1495l25 -22q-145 -615 -216 -960q137 217 301.5 340.5t267.5 123.5q83 0 83 -87q0 -48 -13.5 -108.5t-77.5 -292.5q-70 -254 -70 -315q0 -44 28 -44q19 0 46 16t94 65l12 -1l21 -35l-3 -14q-170 -128 -245 -166t-120 -38q-29 0 -50.5 24t-21.5 79q0 38 8.5 82.5
t46.5 185.5q97 362 97 412q0 45 -38 45q-30 0 -77 -29q-75 -47 -152 -148t-130 -224q-34 -81 -72 -228q-24 -95 -24 -152q-31 0 -103.5 -15t-108.5 -25l-20 19q66 218 135.5 583t98.5 554l17 105q8 45 8 63q0 23 -13 36t-47 14t-101 2l-9 9l7 43l9 9q216 27 407 94z
M744 1604l-9 -11h-55l-198 219l-291 -219h-63l-8 11l318 361h141zM505 1901zM880 1705z" />
    <glyph glyph-name="Hbar" unicode="&#x126;" horiz-adv-x="1594" 
d="M178 1404l9 8q120 -7 281 -7q105 0 359 7l6 -8l-9 -55l-9 -8q-108 -3 -122.5 -6t-31.5 -15t-30.5 -67.5t-32.5 -160.5q271 -1 276 -1h311q23 146 23 191q0 26 -18 39.5t-165 19.5l-7 8l8 55l9 8q116 -7 281 -7q129 0 359 7l6 -8l-9 -55l-9 -8l-89 -4q-39 -2 -53.5 -9.5
t-24 -22.5t-21 -63.5t-29.5 -147.5l179 2l8 -7l-13 -80l-8 -8q-154 2 -182 2l-90 -520q-22 -126 -34 -211l-15 -108q-3 -23 -3 -39q0 -31 21 -44.5t64 -15.5l103 -5l7 -8l-6 -50l-9 -9q-116 7 -307 7q-182 0 -336 -7l-7 8l6 50l9 9q9 1 46 3q83 3 100.5 14t30 44.5
t43.5 205.5l65 369l-281 1l-308 -1q-89 -509 -89 -571q0 -31 20.5 -44.5t65.5 -15.5l102 -5l7 -8l-6 -50l-9 -9q-130 7 -307 7q-182 0 -336 -7l-7 8l5 50l10 9q9 1 46 3q82 3 101.5 14.5t34 59t64.5 338.5l91 528l-189 -2l-8 8l13 80l8 7q83 -1 103 -1q4 0 88 -1
q22 158 22 187q0 20 -7.5 31t-24 16t-60.5 8l-90 5l-7 8zM545 793q198 -7 297 -7q43 0 162 4q112 3 130 3l36 212l-304 2l-284 -2z" />
    <glyph glyph-name="hbar" unicode="&#x127;" 
d="M498 1165h198l7 -9l-13 -60l-10 -8h-199l-73 -318q0 -3 -54 -257q137 217 301.5 340.5t267.5 123.5q83 0 83 -87q0 -48 -13.5 -108.5t-77.5 -292.5q-70 -254 -70 -315q0 -44 28 -44q19 0 46 16t94 65l12 -1l21 -35l-3 -14q-170 -128 -245 -166t-120 -38q-29 0 -50.5 24
t-21.5 79q0 38 8.5 82.5t46.5 185.5q97 362 97 412q0 45 -38 45q-30 0 -77 -29q-75 -47 -152 -148t-130 -224q-34 -81 -72 -228q-24 -95 -24 -152q-31 0 -103.5 -15t-108.5 -25l-20 19q40 132 75.5 290.5t90 452.5t63.5 362h-215l-7 9l12 60l12 8h210q18 108 18 123
q0 24 -13.5 36t-40 13.5t-107.5 2.5l-9 9l7 43l9 9q216 27 407 94l25 -22z" />
    <glyph glyph-name="Itilde" unicode="&#x128;" horiz-adv-x="797" 
d="M8 -7l-7 8l6 50l9 9q9 1 46 3q84 3 100.5 14t29.5 43t53 263l93 532q52 301 52 366q0 18 -6.5 29t-21.5 17t-62 9l-92 5l-7 8l8 54l9 9q136 -7 316 -7q74 0 324 7l6 -8l-9 -55l-9 -8q-114 -4 -128 -8q-16 -5 -26.5 -14t-18.5 -28q-13 -32 -44 -195l-131 -759
q-27 -171 -27 -212q0 -32 21 -45t63 -15l104 -5l7 -8l-6 -50l-9 -9q-116 7 -329 7q-164 0 -314 -7zM561 1492zM302 -65zM964 1858q-26 -123 -87.5 -185.5t-140.5 -62.5q-58 0 -187 51q-122 48 -161 48q-76 0 -110 -101h-56l-12 13q64 246 229 246q67 0 213 -57
q100 -39 141 -39q63 0 105 99h54z" />
    <glyph glyph-name="itilde" unicode="&#x129;" horiz-adv-x="682" 
d="M79 679l-20 35l2 13q176 137 274.5 194t153.5 57q25 0 43 -21.5t18 -54.5q0 -44 -15.5 -111t-65.5 -254q-87 -322 -87 -373q0 -14 8.5 -24.5t19.5 -10.5q30 0 160 93l12 -1l22 -40l-4 -13q-70 -50 -167 -114.5t-138.5 -80.5t-72.5 -16q-39 0 -58 29t-19 75t11.5 104.5
t49.5 202.5q84 321 84 378q0 28 -23 28q-38 0 -174 -96zM471 1038zM829 1374q-21 -97 -78.5 -159t-136.5 -62q-52 0 -169 46q-112 44 -146 44q-69 0 -100 -92h-58l-11 13q23 103 80 162.5t135 59.5q60 0 193 -52q90 -35 128 -35q57 0 95 90h56z" />
    <glyph glyph-name="Imacron" unicode="&#x12a;" horiz-adv-x="797" 
d="M8 -7l-7 8l6 50l9 9q9 1 46 3q84 3 100.5 14t29.5 43t53 263l93 532q52 301 52 366q0 18 -6.5 29t-21.5 17t-62 9l-92 5l-7 8l8 54l9 9q136 -7 316 -7q74 0 324 7l6 -8l-9 -55l-9 -8q-114 -4 -128 -8q-16 -5 -26.5 -14t-18.5 -28q-13 -32 -44 -195l-131 -759
q-27 -171 -27 -212q0 -32 21 -45t63 -15l104 -5l7 -8l-6 -50l-9 -9q-116 7 -329 7q-164 0 -314 -7zM561 1492zM302 -65zM296 1794h645l-39 -145h-647z" />
    <glyph glyph-name="imacron" unicode="&#x12b;" horiz-adv-x="682" 
d="M79 679l-20 35l2 13q176 137 274.5 194t153.5 57q25 0 43 -21.5t18 -54.5q0 -44 -15.5 -111t-65.5 -254q-87 -322 -87 -373q0 -14 8.5 -24.5t19.5 -10.5q30 0 160 93l12 -1l22 -40l-4 -13q-70 -50 -167 -114.5t-138.5 -80.5t-72.5 -16q-39 0 -58 29t-19 75t11.5 104.5
t49.5 202.5q84 321 84 378q0 28 -23 28q-38 0 -174 -96zM471 1038zM180 1313h647l-30 -127h-647z" />
    <glyph glyph-name="Iogonek" unicode="&#x12e;" horiz-adv-x="797" 
d="M236 0q-90 0 -228 -6l-8 6l6 51l10 8l47 4q92 4 107.5 19.5t33 88t42.5 212.5l92 530q51 296 51 367q0 34 -17.5 43t-72.5 12l-90 6l-8 9l8 53l10 8q135 -6 316 -6q74 0 323 6l6 -6l-11 -63l-7 -3q-123 -3 -141 -11t-31.5 -33.5t-45.5 -209.5l-69 -385l-61 -362
q-27 -166 -27 -215q0 -27 15 -40.5t69 -16.5l104 -7l7 -8l-7 -49l-10 -8q-110 6 -246 6q-153 -123 -153 -211q0 -43 28 -71.5t70 -28.5q69 0 133 67l15 2l34 -20v-10q-147 -162 -290 -162q-67 0 -105.5 37.5t-38.5 103.5q0 60 38.5 122.5t180.5 170.5h-79z" />
    <glyph glyph-name="iogonek" unicode="&#x12f;" horiz-adv-x="682" 
d="M393 1285q0 63 39 106.5t101 43.5q51 0 81 -31t30 -82q0 -65 -37 -112.5t-100 -47.5q-60 0 -87 35t-27 88zM416 -233l14 2l32 -18l1 -12q-96 -99 -156.5 -126t-120.5 -27q-66 0 -101.5 37t-35.5 97q0 66 37.5 119.5t118.5 118.5q-60 14 -60 104q0 47 11.5 103.5
t49.5 202.5q84 323 84 378q0 28 -23 28q-38 0 -174 -96l-13 1l-21 35l3 13q166 131 268 191t159 60q25 0 43 -21.5t18 -54.5q0 -44 -15.5 -111.5t-65.5 -253.5q-86 -321 -86 -373q0 -15 8 -25t19 -10q12 0 55 23.5t105 69.5l12 -1l22 -40l-4 -13q-172 -120 -228 -153
q-54 -33 -115 -94.5t-61 -121.5q0 -42 26.5 -69t67.5 -27q65 0 126 64z" />
    <glyph glyph-name="Idotaccent" unicode="&#x130;" horiz-adv-x="797" 
d="M8 -7l-7 8l6 50l9 9q9 1 46 3q84 3 100.5 14t29.5 43t53 263l93 532q52 301 52 366q0 18 -6.5 29t-21.5 17t-62 9l-92 5l-7 8l8 54l9 9q136 -7 316 -7q74 0 324 7l6 -8l-9 -55l-9 -8q-114 -4 -128 -8q-16 -5 -26.5 -14t-18.5 -28q-13 -32 -44 -195l-131 -759
q-27 -171 -27 -212q0 -32 21 -45t63 -15l104 -5l7 -8l-6 -50l-9 -9q-116 7 -329 7q-164 0 -314 -7zM561 1492zM302 -65zM572 1589q-51 0 -81.5 32.5t-30.5 76.5q0 64 48 112t111 48q53 0 82 -34t29 -75q0 -61 -48 -110.5t-110 -49.5z" />
    <glyph glyph-name="dotlessi" unicode="&#x131;" horiz-adv-x="682" 
d="M79 679l-20 35l2 13q176 137 274.5 194t153.5 57q25 0 43 -21.5t18 -54.5q0 -44 -15.5 -111t-65.5 -254q-87 -322 -87 -373q0 -14 8.5 -24.5t19.5 -10.5q30 0 160 93l12 -1l22 -40l-4 -13q-70 -50 -167 -114.5t-138.5 -80.5t-72.5 -16q-39 0 -58 29t-19 75t11.5 104.5
t49.5 202.5q84 321 84 378q0 28 -23 28q-38 0 -174 -96zM471 1038z" />
    <glyph glyph-name="IJ" unicode="&#x132;" horiz-adv-x="1515" 
d="M8 -7l-7 8l6 50l9 9q9 1 46 3q84 3 100.5 14t29.5 43t53 263l93 532q52 301 52 366q0 18 -6.5 29t-21.5 17t-62 9l-92 5l-7 8l8 54l9 9q136 -7 316 -7q74 0 324 7l6 -8l-9 -55l-9 -8q-114 -4 -128 -8q-16 -5 -26.5 -14t-18.5 -28q-13 -32 -44 -195l-131 -759
q-27 -171 -27 -212q0 -32 21 -45t63 -15l104 -5l7 -8l-6 -50l-9 -9q-116 7 -329 7q-164 0 -314 -7zM561 1492zM302 -65zM957 1341l-6 8l7 54l10 9q136 -7 315 -7q76 0 324 7l7 -8l-9 -55l-9 -8q-111 -4 -127.5 -8t-27.5 -13.5t-21.5 -34t-35.5 -160.5l-132 -764
q-44 -268 -64 -350q-39 -160 -112 -270t-163 -155.5t-216 -45.5q-46 0 -89 10l-16 46l9 17q34 -4 67 -4q92 0 134.5 26.5t71 88.5t78.5 363l119 712q69 411 69 480q0 26 -12.5 38t-31 14.5t-139.5 9.5z" />
    <glyph glyph-name="ij" unicode="&#x133;" horiz-adv-x="1326" 
d="M393 1285q0 62 39 106t100 44q52 0 82 -31.5t30 -81.5q0 -61 -36 -110.5t-101 -49.5q-61 0 -87.5 35t-26.5 88zM79 679l-20 35l2 13q176 137 274.5 194t153.5 57q25 0 43 -21.5t18 -54.5q0 -44 -15.5 -111t-65.5 -254q-87 -322 -87 -373q0 -14 8.5 -24.5t19.5 -10.5
q30 0 160 93l12 -1l22 -40l-4 -13q-70 -50 -167 -114.5t-138.5 -80.5t-72.5 -16q-39 0 -58 29t-19 75t11.5 104.5t49.5 202.5q84 321 84 378q0 28 -23 28q-38 0 -174 -96zM215 -65zM1098 1285q0 63 39.5 106.5t100.5 43.5q52 0 81.5 -31t29.5 -82q0 -65 -37 -112.5
t-100 -47.5q-58 0 -86 34t-28 89zM555 -571q17 60 21 165l28 6q34 -48 56 -58.5t41 -10.5q18 0 32 11q22 18 37 66q26 85 108 487l87 445q31 162 31 203q0 32 -22 32q-38 0 -177 -97l-13 1l-21 35l2 13q212 161 297.5 206t138.5 45t53 -83q0 -53 -48 -264l-68 -296
q-60 -253 -104 -407.5t-93 -240t-138 -175.5q-58 -60 -96.5 -77t-84.5 -17q-35 0 -67 11z" />
    <glyph glyph-name="Jcircumflex" unicode="&#x134;" horiz-adv-x="797" 
d="M239 1341l-6 8l7 54l10 9q136 -7 315 -7q76 0 324 7l7 -8l-9 -55l-9 -8q-111 -4 -127.5 -8t-27.5 -13.5t-21.5 -34t-35.5 -160.5l-132 -764q-44 -268 -64 -350q-39 -160 -112 -270t-163 -155.5t-216 -45.5q-46 0 -89 10l-16 46l9 17q34 -4 67 -4q92 0 134.5 26.5t71 88.5
t78.5 363l119 712q69 411 69 480q0 26 -12.5 38t-31 14.5t-139.5 9.5zM901 1550l-13 -12h-56l-193 213l-286 -213h-63l-10 14l315 352h141zM666 1842zM1042 1646z" />
    <glyph glyph-name="jcircumflex" unicode="&#x135;" horiz-adv-x="682" 
d="M493 1458h140l176 -353h-89l-178 207l-271 -207h-102zM-120 -571q17 60 21 165l28 6q34 -48 56 -58.5t41 -10.5q18 0 32 11q22 18 37 66q26 85 108 487l87 445q31 162 31 203q0 32 -22 32q-38 0 -177 -97l-13 1l-21 35l2 13q212 161 297.5 206t138.5 45t53 -83
q0 -53 -48 -264l-68 -296q-60 -253 -104 -407.5t-93 -240t-138 -175.5q-58 -60 -96.5 -77t-84.5 -17q-35 0 -67 11z" />
    <glyph glyph-name="Kcommaaccent" unicode="&#x136;" horiz-adv-x="1479" 
d="M560 697q64 44 150 121.5t246 235t206.5 210t53.5 69.5t7 44v25l8 9q45 -6 72 -6q142 0 245 6l8 -9l-9 -56l-9 -8q-67 -2 -89 -8t-51.5 -24t-135.5 -109.5t-221 -200.5l-229 -216l393 -559q82 -117 109.5 -137.5t103.5 -23.5l7 -8l-5 -51l-11 -9l-30 1q-132 7 -209 7
q-52 0 -125 -8q-140 216 -231.5 348.5t-256.5 343.5l-49 -292q-23 -136 -30 -192.5t-7 -74.5q0 -32 21.5 -45t60.5 -15l106 -5l7 -8l-6 -50l-9 -9q-116 7 -329 7q-164 0 -314 -7l-7 8l6 50l9 9q9 1 46 3q84 3 100.5 14t29.5 43t53 263l93 532q52 301 52 366q0 18 -6.5 29
t-21.5 17t-62 9l-92 5l-7 8l8 54l9 9q136 -7 316 -7q74 0 324 7l6 -8l-9 -55l-9 -8q-110 -4 -126 -7.5t-29.5 -15t-25 -49t-43.5 -216.5zM502 -596l-2 23q122 25 170.5 78.5t48.5 91.5q0 23 -43 26q-110 7 -110 101q0 58 45.5 104.5t106.5 46.5q147 0 147 -136
q0 -133 -96.5 -227t-266.5 -108z" />
    <glyph glyph-name="kcommaaccent" unicode="&#x137;" 
d="M193 1340l-9 9l7 43l9 9q218 27 407 94l25 -22q-50 -200 -221 -1016q4 4 77 93q94 115 166.5 193t146.5 134.5t130 77.5t117 21q27 0 55 -6l4 -12q-30 -101 -37 -152l-11 -8q-59 19 -91 19q-65 0 -145 -38t-154 -124q11 -32 69.5 -193.5t95.5 -235.5t54.5 -87.5
t32.5 -13.5q38 0 143 72l11 -1l22 -39l-3 -14q-40 -25 -80 -53q-191 -133 -256 -133q-18 0 -33 8t-36.5 38.5t-46 93t-74 196t-65.5 183.5q-56 -58 -78.5 -91.5t-32.5 -61t-27 -111.5t-23 -123.5t-6 -80.5q-101 -5 -227 -40l-17 25q84 293 173 771t89 524q0 24 -13.5 36
t-41.5 13.5t-106 2.5zM282 -567l-2 22q119 26 164.5 79.5t45.5 80.5q0 23 -40 27q-107 6 -107 94q0 58 43.5 102.5t108.5 44.5q66 0 100.5 -42t34.5 -99q0 -108 -88.5 -201t-259.5 -108z" />
    <glyph glyph-name="Lacute" unicode="&#x139;" horiz-adv-x="1251" 
d="M79 1l7 53l10 9q75 18 90 27q9 5 13.5 10t9.5 17q14 38 40 189l127 746q29 183 29 229q0 25 -13 36.5t-31 14t-139 9.5l-6 8l7 54l10 9q141 -7 316 -7q47 0 323 7l6 -8l-8 -55l-9 -8q-112 -4 -128.5 -8t-29.5 -16.5t-26 -59.5t-47 -238l-126 -716q-26 -137 -31 -205h166
q126 0 219.5 6t127.5 16t50 30t39 107q5 22 26 86l8 8h59l7 -8q-3 -24 -19 -99q-13 -60 -25 -128q-15 -82 -23 -114l-11 -9q-168 3 -245 3l-404 4q-231 0 -362 -6zM1017 1877q-267 -170 -476 -330l-51 27l7 13l144 169q46 56 93 112l15 10l132 12l121 15l11 -5z" />
    <glyph glyph-name="lacute" unicode="&#x13a;" horiz-adv-x="682" 
d="M576 221l23 -39l-4 -13q-222 -157 -281 -184.5t-97 -27.5q-43 0 -61 34.5t-18 79.5q0 91 60 365l139 635q12 52 24.5 125.5t12.5 91.5q0 22 -12.5 35.5t-47 14.5t-101.5 2l-8 9l6 43l10 9q218 27 407 94l25 -22q-85 -354 -167 -746l-96 -453q-13 -61 -13 -98
q0 -43 27 -43q39 0 161 89zM945 1922q-349 -240 -533 -382l-52 27l7 13l165 188q53 60 130 145l15 10l132 12l121 15l10 -5z" />
    <glyph glyph-name="Lcommaaccent" unicode="&#x13b;" horiz-adv-x="1251" 
d="M79 1l7 53l10 9q75 18 90 27q9 5 13.5 10t9.5 17q14 38 40 189l127 746q29 183 29 229q0 25 -13 36.5t-31 14t-139 9.5l-6 8l7 54l10 9q141 -7 316 -7q47 0 323 7l6 -8l-8 -55l-9 -8q-112 -4 -128.5 -8t-29.5 -16.5t-26 -59.5t-47 -238l-126 -716q-26 -137 -31 -205h166
q126 0 219.5 6t127.5 16t50 30t39 107q5 22 26 86l8 8h59l7 -8q-3 -24 -19 -99q-13 -60 -25 -128q-15 -82 -23 -114l-11 -9q-168 3 -245 3l-404 4q-231 0 -362 -6zM402 -596l-2 23q122 25 170.5 78.5t48.5 91.5q0 23 -43 26q-110 7 -110 101q0 58 45.5 104.5t106.5 46.5
q147 0 147 -136q0 -133 -96.5 -227t-266.5 -108z" />
    <glyph glyph-name="lcommaaccent" unicode="&#x13c;" horiz-adv-x="682" 
d="M576 221l23 -39l-4 -13q-222 -157 -281 -184.5t-97 -27.5q-43 0 -61 34.5t-18 79.5q0 91 60 365l139 635q12 52 24.5 125.5t12.5 91.5q0 22 -12.5 35.5t-47 14.5t-101.5 2l-8 9l6 43l10 9q218 27 407 94l25 -22q-85 -354 -167 -746l-96 -453q-13 -61 -13 -98
q0 -43 27 -43q39 0 161 89zM-8 -567l-2 22q119 26 164.5 79.5t45.5 80.5q0 23 -40 27q-107 6 -107 94q0 58 43.5 102.5t108.5 44.5q66 0 100.5 -42t34.5 -99q0 -108 -88.5 -201t-259.5 -108z" />
    <glyph glyph-name="Lcaron" unicode="&#x13d;" horiz-adv-x="1251" 
d="M79 1l7 53l10 9q75 18 90 27q9 5 13.5 10t9.5 17q14 38 40 189l127 746q29 183 29 229q0 25 -13 36.5t-31 14t-139 9.5l-6 8l7 54l10 9q141 -7 316 -7q47 0 323 7l6 -8l-8 -55l-9 -8q-112 -4 -128.5 -8t-29.5 -16.5t-26 -59.5t-47 -238l-126 -716q-26 -137 -31 -205h166
q126 0 219.5 6t127.5 16t50 30t39 107q5 22 26 86l8 8h59l7 -8q-3 -24 -19 -99q-13 -60 -25 -128q-15 -82 -23 -114l-11 -9q-168 3 -245 3l-404 4q-231 0 -362 -6zM868 982l-2 23q122 25 170.5 78.5t48.5 91.5q0 23 -43 26q-110 7 -110 101q0 58 45.5 104.5t106.5 46.5
q147 0 147 -136q0 -133 -96.5 -227t-266.5 -108z" />
    <glyph glyph-name="lcaron" unicode="&#x13e;" horiz-adv-x="682" 
d="M576 221l23 -39l-4 -13q-222 -157 -281 -184.5t-97 -27.5q-43 0 -61 34.5t-18 79.5q0 91 60 365l139 635q12 52 24.5 125.5t12.5 91.5q0 22 -12.5 35.5t-47 14.5t-101.5 2l-8 9l6 43l10 9q218 27 407 94l25 -22q-85 -354 -167 -746l-96 -453q-13 -61 -13 -98
q0 -43 27 -43q39 0 161 89zM641 1035l-2 22q119 26 164.5 79.5t45.5 80.5q0 23 -40 27q-107 6 -107 94q0 58 43.5 102.5t108.5 44.5q66 0 100.5 -42t34.5 -99q0 -108 -88.5 -201t-259.5 -108z" />
    <glyph glyph-name="Ldot" unicode="&#x13f;" horiz-adv-x="1251" 
d="M79 1l7 53l10 9q75 18 90 27q9 5 13.5 10t9.5 17q14 38 40 189l127 746q29 183 29 229q0 25 -13 36.5t-31 14t-139 9.5l-6 8l7 54l10 9q141 -7 316 -7q47 0 323 7l6 -8l-8 -55l-9 -8q-112 -4 -128.5 -8t-29.5 -16.5t-26 -59.5t-47 -238l-126 -716q-26 -137 -31 -205h166
q126 0 219.5 6t127.5 16t50 30t39 107q5 22 26 86l8 8h59l7 -8q-3 -24 -19 -99q-13 -60 -25 -128q-15 -82 -23 -114l-11 -9q-168 3 -245 3l-404 4q-231 0 -362 -6zM827 636q-51 0 -81.5 32.5t-30.5 76.5q0 64 48 112t111 48q53 0 82 -34t29 -75q0 -61 -48 -110.5t-110 -49.5
z" />
    <glyph glyph-name="ldot" unicode="&#x140;" horiz-adv-x="682" 
d="M576 221l23 -39l-4 -13q-222 -157 -281 -184.5t-97 -27.5q-43 0 -61 34.5t-18 79.5q0 91 60 365l139 635q12 52 24.5 125.5t12.5 91.5q0 22 -12.5 35.5t-47 14.5t-101.5 2l-8 9l6 43l10 9q218 27 407 94l25 -22q-85 -354 -167 -746l-96 -453q-13 -61 -13 -98
q0 -43 27 -43q39 0 161 89zM707 681q-46 0 -73.5 29t-27.5 69q0 59 43.5 102.5t100.5 43.5q44 0 72.5 -29t28.5 -70q0 -53 -42 -99t-102 -46z" />
    <glyph glyph-name="Lslash" unicode="&#x141;" horiz-adv-x="1251" 
d="M79 1l8 53l10 9q73 18 87.5 25.5t23.5 24.5t23.5 94t64.5 371l-223 -96l-13 5l-19 66l5 13l267 115l54 311q24 147 31 208t7 81q0 25 -12.5 36.5t-30.5 14t-139 9.5l-7 8l8 54l9 9q142 -7 316 -7q48 0 324 7l6 -8l-9 -55l-9 -8l-89 -4q-38 -2 -51.5 -8.5t-23 -19
t-21 -56.5t-36.5 -184l-47 -269l272 117l11 -5l18 -67l-6 -14l-313 -134l-75 -417q-21 -114 -27 -182h167q126 0 219.5 6t127 16t50 30t38.5 107q5 18 27 86l8 8h58l8 -8q-4 -25 -20 -99q-15 -75 -27 -141t-21 -101l-10 -9q-168 3 -246 3l-403 4q-231 0 -362 -6z" />
    <glyph glyph-name="lslash" unicode="&#x142;" horiz-adv-x="682" 
d="M267 752l70 319q12 52 24.5 124.5t12.5 92.5q0 24 -13 36t-38.5 13.5t-109.5 2.5l-8 9l6 43l10 9q216 27 407 94l25 -22l-48 -201q-7 -24 -85 -386l197 105l11 -4l15 -53l-4 -12l-239 -128l-105 -498q-18 -77 -18 -119q0 -44 27 -44q40 0 161 89l11 -1l23 -39l-4 -13
q-222 -157 -281 -184.5t-97 -27.5q-43 0 -61 34t-18 80q0 91 60 365l49 223l-190 -102l-13 5l-14 53l4 12z" />
    <glyph glyph-name="Nacute" unicode="&#x143;" horiz-adv-x="1593" 
d="M1225 291q161 890 161 983q0 36 -24 49t-60.5 14.5t-89.5 5.5l-8 11l10 49l9 8h53q172 -6 211 -6q32 0 194 6l9 -8l-4 -51l-11 -9q-90 -2 -107.5 -6t-36 -29t-58.5 -226l-138 -709q-31 -161 -61 -389h-176l-635 1124q-162 -854 -162 -977q0 -41 28 -53t60.5 -13.5
t85.5 -5.5l6 -8l-8 -51l-8 -6h-53q-194 6 -222 6q-41 0 -186 -8l-6 8l4 51l8 8q99 4 113 10.5t28 21t27 74.5l42 194q28 134 49 246l114 622q-53 80 -78.5 92t-163.5 24l-6 9l6 51l13 8q86 -5 145 -4l283 4l182 -324zM1377 1877q-267 -170 -476 -330l-51 27l7 13l144 169
q46 56 93 112l15 10l132 12l121 15l11 -5z" />
    <glyph glyph-name="nacute" unicode="&#x144;" 
d="M88 -37l-26 25q31 78 80 260.5t71.5 317.5t22.5 172q0 34 -23 34q-31 0 -144 -84l-14 1l-20 35l1 13q52 44 121 97.5t125 89t84 45t51 9.5q55 0 55 -65q0 -47 -18 -136.5t-75 -304.5q113 209 284.5 357t278.5 148q85 0 85 -95q0 -52 -23 -148.5t-74 -283.5
q-34 -124 -46.5 -193.5t-12.5 -89.5q0 -37 24 -37q39 0 147 82l12 -1l22 -39l-3 -13q-171 -129 -245 -165.5t-127 -36.5q-42 0 -56.5 32.5t-14.5 67.5q0 81 70 330q77 270 77 345q0 41 -39 41q-18 0 -49.5 -16t-92 -78.5t-111 -141.5t-88 -171t-62.5 -197.5t-31 -167.5
q-127 -10 -216 -38zM1165 1474q-349 -240 -533 -382l-52 27l7 13l165 188q53 60 130 145l15 10l132 12l121 15l10 -5z" />
    <glyph glyph-name="Ncommaaccent" unicode="&#x145;" horiz-adv-x="1593" 
d="M1225 291q161 890 161 983q0 36 -24 49t-60.5 14.5t-89.5 5.5l-8 11l10 49l9 8h53q172 -6 211 -6q32 0 194 6l9 -8l-4 -51l-11 -9q-90 -2 -107.5 -6t-36 -29t-58.5 -226l-138 -709q-31 -161 -61 -389h-176l-635 1124q-162 -854 -162 -977q0 -41 28 -53t60.5 -13.5
t85.5 -5.5l6 -8l-8 -51l-8 -6h-53q-194 6 -222 6q-41 0 -186 -8l-6 8l4 51l8 8q99 4 113 10.5t28 21t27 74.5l42 194q28 134 49 246l114 622q-53 80 -78.5 92t-163.5 24l-6 9l6 51l13 8q86 -5 145 -4l283 4l182 -324zM472 -596l-2 23q122 25 170.5 78.5t48.5 91.5
q0 23 -43 26q-110 7 -110 101q0 58 45.5 104.5t106.5 46.5q147 0 147 -136q0 -133 -96.5 -227t-266.5 -108z" />
    <glyph glyph-name="ncommaaccent" unicode="&#x146;" 
d="M88 -37l-26 25q31 78 80 260.5t71.5 317.5t22.5 172q0 34 -23 34q-31 0 -144 -84l-14 1l-20 35l1 13q52 44 121 97.5t125 89t84 45t51 9.5q55 0 55 -65q0 -47 -18 -136.5t-75 -304.5q113 209 284.5 357t278.5 148q85 0 85 -95q0 -52 -23 -148.5t-74 -283.5
q-34 -124 -46.5 -193.5t-12.5 -89.5q0 -37 24 -37q39 0 147 82l12 -1l22 -39l-3 -13q-171 -129 -245 -165.5t-127 -36.5q-42 0 -56.5 32.5t-14.5 67.5q0 81 70 330q77 270 77 345q0 41 -39 41q-18 0 -49.5 -16t-92 -78.5t-111 -141.5t-88 -171t-62.5 -197.5t-31 -167.5
q-127 -10 -216 -38zM232 -596l-2 23q122 25 170.5 78.5t48.5 91.5q0 23 -43 26q-110 7 -110 101q0 58 45.5 104.5t106.5 46.5q147 0 147 -136q0 -133 -96.5 -227t-266.5 -108z" />
    <glyph glyph-name="Ncaron" unicode="&#x147;" horiz-adv-x="1593" 
d="M1225 291q161 890 161 983q0 36 -24 49t-60.5 14.5t-89.5 5.5l-8 11l10 49l9 8h53q172 -6 211 -6q32 0 194 6l9 -8l-4 -51l-11 -9q-90 -2 -107.5 -6t-36 -29t-58.5 -226l-138 -709q-31 -161 -61 -389h-176l-635 1124q-162 -854 -162 -977q0 -41 28 -53t60.5 -13.5
t85.5 -5.5l6 -8l-8 -51l-8 -6h-53q-194 6 -222 6q-41 0 -186 -8l-6 8l4 51l8 8q99 4 113 10.5t28 21t27 74.5l42 194q28 134 49 246l114 622q-53 80 -78.5 92t-163.5 24l-6 9l6 51l13 8q86 -5 145 -4l283 4l182 -324zM1331 1891l-315 -353h-141l-165 355l13 11h56l193 -213
l286 213h63z" />
    <glyph glyph-name="ncaron" unicode="&#x148;" 
d="M88 -37l-26 25q31 78 80 260.5t71.5 317.5t22.5 172q0 34 -23 34q-31 0 -144 -84l-14 1l-20 35l1 13q52 44 121 97.5t125 89t84 45t51 9.5q55 0 55 -65q0 -47 -18 -136.5t-75 -304.5q113 209 284.5 357t278.5 148q85 0 85 -95q0 -52 -23 -148.5t-74 -283.5
q-34 -124 -46.5 -193.5t-12.5 -89.5q0 -37 24 -37q39 0 147 82l12 -1l22 -39l-3 -13q-171 -129 -245 -165.5t-127 -36.5q-42 0 -56.5 32.5t-14.5 67.5q0 81 70 330q77 270 77 345q0 41 -39 41q-18 0 -49.5 -16t-92 -78.5t-111 -141.5t-88 -171t-62.5 -197.5t-31 -167.5
q-127 -10 -216 -38zM1074 1471l-318 -361h-141l-165 361l9 11h55l198 -219l291 219h63z" />
    <glyph glyph-name="napostrophe" unicode="&#x149;" horiz-adv-x="1347" 
d="M298 -37l-26 25q31 78 80 260.5t71.5 317.5t22.5 172q0 34 -23 34q-31 0 -144 -84l-14 1l-20 35l1 13q52 44 121 97.5t125 89t84 45t51 9.5q55 0 55 -65q0 -47 -18 -136.5t-75 -304.5q113 209 284.5 357t278.5 148q85 0 85 -95q0 -52 -23 -148.5t-74 -283.5
q-34 -124 -46.5 -193.5t-12.5 -89.5q0 -37 24 -37q39 0 147 82l12 -1l22 -39l-3 -13q-171 -129 -245 -165.5t-127 -36.5q-42 0 -56.5 32.5t-14.5 67.5q0 81 70 330q77 270 77 345q0 41 -39 41q-18 0 -49.5 -16t-92 -78.5t-111 -141.5t-88 -171t-62.5 -197.5t-31 -167.5
q-127 -10 -216 -38zM124 1006l-2 23q122 25 170.5 78.5t48.5 91.5q0 23 -43 26q-110 7 -110 101q0 58 45.5 104.5t106.5 46.5q147 0 147 -136q0 -133 -96.5 -227t-266.5 -108z" />
    <glyph glyph-name="Omacron" unicode="&#x14c;" horiz-adv-x="1706" 
d="M153 531q0 78 22 209.5t91 267t179 233.5t248 146t302 48q127 0 242.5 -33.5t208 -115.5t131 -194.5t38.5 -252.5q0 -369 -230.5 -626t-617.5 -257q-195 0 -335 68t-209.5 195t-69.5 312zM433 468q0 -129 38.5 -225t133 -145.5t204.5 -49.5q161 0 266 94.5t182 328
t77 444.5q0 231 -102.5 328.5t-265.5 97.5q-152 0 -248.5 -70.5t-164.5 -221.5t-94 -312t-26 -269zM1007 1492zM738 -65zM746 1794h645l-39 -145h-647z" />
    <glyph glyph-name="omacron" unicode="&#x14d;" 
d="M101 280q0 93 31.5 233.5t108 235t206.5 162t268 67.5q142 0 231 -81t89 -243q0 -147 -55 -300.5t-146.5 -224.5t-192 -121.5t-228.5 -50.5q-122 0 -190 47t-95 121t-27 155zM337 288q0 -122 46 -177t132 -55q59 0 105.5 33t86 118.5t64 212.5t24.5 231q0 131 -51 183
t-124 52q-77 0 -135.5 -59t-103 -230.5t-44.5 -308.5zM690 1038zM450 -65zM420 1313h647l-30 -127h-647z" />
    <glyph glyph-name="Obreve" unicode="&#x14e;" horiz-adv-x="1706" 
d="M153 531q0 78 22 209.5t91 267t179 233.5t248 146t302 48q127 0 242.5 -33.5t208 -115.5t131 -194.5t38.5 -252.5q0 -369 -230.5 -626t-617.5 -257q-195 0 -335 68t-209.5 195t-69.5 312zM433 468q0 -129 38.5 -225t133 -145.5t204.5 -49.5q161 0 266 94.5t182 328
t77 444.5q0 231 -102.5 328.5t-265.5 97.5q-152 0 -248.5 -70.5t-164.5 -221.5t-94 -312t-26 -269zM1007 1492zM738 -65zM1378 1894q-47 -194 -151 -262t-207 -68q-66 0 -120 21t-90.5 58.5t-55 77t-21.5 64t-3 109.5l18 13h51q19 -187 241 -187q202 0 271 187h53z
M1066 1842z" />
    <glyph glyph-name="obreve" unicode="&#x14f;" 
d="M101 280q0 93 31.5 233.5t108 235t206.5 162t268 67.5q142 0 231 -81t89 -243q0 -147 -55 -300.5t-146.5 -224.5t-192 -121.5t-228.5 -50.5q-122 0 -190 47t-95 121t-27 155zM337 288q0 -122 46 -177t132 -55q59 0 105.5 33t86 118.5t64 212.5t24.5 231q0 131 -51 183
t-124 52q-77 0 -135.5 -59t-103 -230.5t-44.5 -308.5zM690 1038zM450 -65zM1041 1410q-37 -173 -130.5 -237.5t-195.5 -64.5q-67 0 -119 21.5t-88.5 63.5t-50.5 97q-7 28 -7 120l13 12h50q17 -172 220 -172q185 0 248 172h49zM760 1383z" />
    <glyph glyph-name="Ohungarumlaut" unicode="&#x150;" horiz-adv-x="1706" 
d="M153 531q0 78 22 209.5t91 267t179 233.5t248 146t302 48q127 0 242.5 -33.5t208 -115.5t131 -194.5t38.5 -252.5q0 -369 -230.5 -626t-617.5 -257q-195 0 -335 68t-209.5 195t-69.5 312zM433 468q0 -129 38.5 -225t133 -145.5t204.5 -49.5q161 0 266 94.5t182 328
t77 444.5q0 231 -102.5 328.5t-265.5 97.5q-152 0 -248.5 -70.5t-164.5 -221.5t-94 -312t-26 -269zM1007 1492zM738 -65zM1617 1877q-282 -183 -475 -330l-52 27l7 13l144 169q46 56 93 112l16 10l131 12l122 15l10 -5zM1197 1877q-248 -159 -475 -331l-52 28l7 13l144 169
q46 56 93 112l16 10l131 12l122 15l10 -5z" />
    <glyph glyph-name="ohungarumlaut" unicode="&#x151;" 
d="M101 280q0 93 31.5 233.5t108 235t206.5 162t268 67.5q142 0 231 -81t89 -243q0 -147 -55 -300.5t-146.5 -224.5t-192 -121.5t-228.5 -50.5q-122 0 -190 47t-95 121t-27 155zM337 288q0 -122 46 -177t132 -55q59 0 105.5 33t86 118.5t64 212.5t24.5 231q0 131 -51 183
t-124 52q-77 0 -135.5 -59t-103 -230.5t-44.5 -308.5zM690 1038zM450 -65zM1320 1474q-421 -294 -533 -381l-52 26l7 13l165 188q24 28 130 145l15 10l132 12l121 15l10 -5zM895 1474q-296 -208 -533 -382l-52 27l7 13l165 188q24 28 130 145l15 10l132 12l121 15l10 -5z
" />
    <glyph glyph-name="OE" unicode="&#x152;" horiz-adv-x="2073" 
d="M1838 355h61l7 -10q-13 -44 -42 -170.5t-35 -171.5l-12 -10q-80 2 -267 4l-334 3q-19 0 -220 -7l-12 15q18 52 44 134q-103 -111 -202 -145.5t-214 -34.5q-172 0 -281 62t-171 183.5t-62 288.5q0 128 37.5 278t108 275t170 213t220 132.5t249.5 44.5q95 0 174.5 -23.5
t125 -57.5t85.5 -86q8 56 13 132l14 8q151 -7 180 -7l280 3l195 2l104 2l11 -15q-33 -109 -69 -305l-11 -9h-49l-7 10q6 71 6 130q0 47 -12 59q-20 19 -101 29q-52 6 -279 6h-26l-120 -540q102 -2 141 -2q179 0 282 15l9 -14l-30 -95l-12 -9q-140 14 -409 16l-121 -592h123
q108 0 199.5 4.5t120 12.5t41 19.5t33.5 62t53 151.5zM1162 858q30 139 30 217q0 106 -86 188t-227 82q-253 0 -378.5 -302.5t-125.5 -601.5q0 -201 85.5 -291t211.5 -90q85 0 165 39t130 101t74 133.5t60 240.5z" />
    <glyph glyph-name="oe" unicode="&#x153;" horiz-adv-x="1594" 
d="M999 832q196 143 350 143q88 0 142.5 -45t54.5 -127q0 -98 -58 -180t-201 -141.5t-295 -83.5q-11 -73 -11 -133q0 -95 44 -132.5t106 -37.5q41 0 94 16t88 35t136 83l11 -1l22 -41l-2 -12q-176 -125 -284.5 -171.5t-191.5 -46.5q-58 0 -108 18.5t-77.5 44.5t-46.5 65
q-95 -70 -179.5 -99t-179.5 -29q-114 0 -183 39t-99 113.5t-30 165.5q0 144 53 305q41 122 97 179q112 113 226 166t224 53q93 0 176 -33.5t122 -112.5zM337 288q0 -122 46 -177t132 -55q59 0 105.5 33t86 118.5t64 212.5t24.5 231q0 131 -51 183t-124 52q-77 0 -135.5 -59
t-103 -230.5t-44.5 -308.5zM1000 453q208 46 280 142.5t72 179.5q0 50 -28 76t-69 26q-83 0 -143 -88t-112 -336z" />
    <glyph glyph-name="Racute" unicode="&#x154;" horiz-adv-x="1479" 
d="M1196 279q78 -135 100.5 -165t40 -40t84.5 -15l9 -8l-5 -49l-10 -8q-74 6 -170 6q-94 0 -192 -6q-273 523 -418 739l8 33q29 -2 59 -2q175 0 275 87.5t100 252.5q0 217 -248 217q-105 0 -161 -16l-133 -770q-60 -342 -60 -390v-22q0 -27 15 -40.5t69 -16.5l105 -7l6 -8
l-6 -49l-9 -8q-166 6 -329 6t-314 -6l-8 6l6 51l10 8l48 4q59 3 87.5 7.5t49 86.5t45.5 226l92 530q51 296 51 367q0 34 -17 43t-73 12l-90 6l-8 9l8 53l10 8q127 -6 316 -6l395 8q258 0 336 -90t78 -203q0 -130 -95.5 -235.5t-324.5 -151.5zM1247 1877q-267 -170 -476 -330
l-51 27l7 13l144 169q46 56 93 112l15 10l132 12l121 15l11 -5z" />
    <glyph glyph-name="racute" unicode="&#x155;" horiz-adv-x="797" 
d="M119 -38l-21 25q79 267 114.5 462.5t35.5 275.5q0 51 -23 51q-28 0 -136 -81l-15 1l-19 33l1 14q174 144 252 190t115 46q29 0 44 -22.5t15 -53.5q0 -34 -8 -74t-76 -329h14q47 110 100 208t104 160.5t89 82.5t81 20q27 0 52 -7l7 -10q-15 -46 -28 -133t-13 -138l-23 -15
q-47 43 -105 43q-49 0 -92.5 -33t-96.5 -135t-92 -243.5t-57 -294.5q-52 -9 -113.5 -17.5t-105.5 -25.5zM995 1474q-349 -240 -533 -382l-52 27l7 13l165 188q53 60 130 145l15 10l132 12l121 15l10 -5z" />
    <glyph glyph-name="Rcommaaccent" unicode="&#x156;" horiz-adv-x="1479" 
d="M1196 279q78 -135 100.5 -165t40 -40t84.5 -15l9 -8l-5 -49l-10 -8q-74 6 -170 6q-94 0 -192 -6q-273 523 -418 739l8 33q29 -2 59 -2q175 0 275 87.5t100 252.5q0 217 -248 217q-105 0 -161 -16l-133 -770q-60 -342 -60 -390v-22q0 -27 15 -40.5t69 -16.5l105 -7l6 -8
l-6 -49l-9 -8q-166 6 -329 6t-314 -6l-8 6l6 51l10 8l48 4q59 3 87.5 7.5t49 86.5t45.5 226l92 530q51 296 51 367q0 34 -17 43t-73 12l-90 6l-8 9l8 53l10 8q127 -6 316 -6l395 8q258 0 336 -90t78 -203q0 -130 -95.5 -235.5t-324.5 -151.5zM482 -596l-2 23
q122 25 170.5 78.5t48.5 91.5q0 23 -43 26q-110 7 -110 101q0 58 45.5 104.5t106.5 46.5q147 0 147 -136q0 -133 -96.5 -227t-266.5 -108z" />
    <glyph glyph-name="rcommaaccent" unicode="&#x157;" horiz-adv-x="797" 
d="M119 -38l-21 25q79 267 114.5 462.5t35.5 275.5q0 51 -23 51q-28 0 -136 -81l-15 1l-19 33l1 14q174 144 252 190t115 46q29 0 44 -22.5t15 -53.5q0 -34 -8 -74t-76 -329h14q47 110 100 208t104 160.5t89 82.5t81 20q27 0 52 -7l7 -10q-15 -46 -28 -133t-13 -138l-23 -15
q-47 43 -105 43q-49 0 -92.5 -33t-96.5 -135t-92 -243.5t-57 -294.5q-52 -9 -113.5 -17.5t-105.5 -25.5zM-38 -567l-2 22q119 26 164.5 79.5t45.5 80.5q0 23 -40 27q-107 6 -107 94q0 58 43.5 102.5t108.5 44.5q66 0 100.5 -42t34.5 -99q0 -108 -88.5 -201t-259.5 -108z" />
    <glyph glyph-name="Rcaron" unicode="&#x158;" horiz-adv-x="1479" 
d="M1196 279q78 -135 100.5 -165t40 -40t84.5 -15l9 -8l-5 -49l-10 -8q-74 6 -170 6q-94 0 -192 -6q-273 523 -418 739l8 33q29 -2 59 -2q175 0 275 87.5t100 252.5q0 217 -248 217q-105 0 -161 -16l-133 -770q-60 -342 -60 -390v-22q0 -27 15 -40.5t69 -16.5l105 -7l6 -8
l-6 -49l-9 -8q-166 6 -329 6t-314 -6l-8 6l6 51l10 8l48 4q59 3 87.5 7.5t49 86.5t45.5 226l92 530q51 296 51 367q0 34 -17 43t-73 12l-90 6l-8 9l8 53l10 8q127 -6 316 -6l395 8q258 0 336 -90t78 -203q0 -130 -95.5 -235.5t-324.5 -151.5zM1201 1891l-315 -353h-141
l-165 355l13 11h56l193 -213l286 213h63z" />
    <glyph glyph-name="rcaron" unicode="&#x159;" horiz-adv-x="797" 
d="M119 -38l-21 25q79 267 114.5 462.5t35.5 275.5q0 51 -23 51q-28 0 -136 -81l-15 1l-19 33l1 14q174 144 252 190t115 46q29 0 44 -22.5t15 -53.5q0 -34 -8 -74t-76 -329h14q47 110 100 208t104 160.5t89 82.5t81 20q27 0 52 -7l7 -10q-15 -46 -28 -133t-13 -138l-23 -15
q-47 43 -105 43q-49 0 -92.5 -33t-96.5 -135t-92 -243.5t-57 -294.5q-52 -9 -113.5 -17.5t-105.5 -25.5zM974 1471l-318 -361h-141l-165 361l9 11h55l198 -219l291 219h63z" />
    <glyph glyph-name="Sacute" unicode="&#x15a;" 
d="M1032 1045l-10 -8h-48l-8 9q2 36 2 54l-2 103q-35 53 -108.5 83.5t-157.5 30.5q-81 0 -149 -31.5t-104 -99t-36 -147.5q0 -62 22 -102t57 -63.5t75.5 -37t155.5 -35.5q102 -20 154.5 -40t88.5 -55t57.5 -91.5t21.5 -125.5q0 -135 -83.5 -260t-214 -198.5t-293.5 -73.5
q-101 0 -196.5 29t-158.5 77l-4 12q9 31 28.5 149t21.5 150l11 9h47l8 -8l-2 -112q0 -14 2 -57q28 -47 117.5 -91t190.5 -44q154 0 230.5 86t76.5 195q0 49 -16.5 88t-40.5 60.5t-56 33.5t-100 28q-162 39 -234.5 71t-116.5 105.5t-44 185.5q0 152 83 268t207 179.5
t267 63.5q179 0 308 -89l4 -11q-35 -143 -53 -290zM1227 1877q-267 -170 -476 -330l-51 27l7 13l144 169q46 56 93 112l15 10l132 12l121 15l11 -5z" />
    <glyph glyph-name="sacute" unicode="&#x15b;" horiz-adv-x="909" 
d="M103 295h45l9 -9l3 -89q39 -48 108.5 -83.5t146.5 -35.5q54 0 98.5 16.5t66.5 56.5t22 82q0 38 -18.5 66t-49.5 44.5t-100 31.5q-101 23 -142.5 35.5t-74 38.5t-54 72t-21.5 100t20.5 103.5t58 85t121.5 87.5t129 66.5t110 14.5q135 0 249 -64q-20 -96 -35 -234l-9 -8
h-44l-9 8l-11 92q-45 44 -107.5 68t-120.5 24q-70 0 -117 -40.5t-47 -104.5q0 -69 47 -99.5t182 -56.5q94 -18 139.5 -39.5t75.5 -71.5t30 -116q0 -69 -29 -122.5t-118 -123t-156 -97.5t-174 -28q-54 0 -110 8t-158 48l-4 10q10 34 23.5 124t15.5 131zM995 1474
q-349 -240 -533 -382l-52 27l7 13l165 188q53 60 130 145l15 10l132 12l121 15l10 -5z" />
    <glyph glyph-name="Scircumflex" unicode="&#x15c;" 
d="M1032 1045l-10 -8h-48l-8 9q2 36 2 54l-2 103q-35 53 -108.5 83.5t-157.5 30.5q-81 0 -149 -31.5t-104 -99t-36 -147.5q0 -62 22 -102t57 -63.5t75.5 -37t155.5 -35.5q102 -20 154.5 -40t88.5 -55t57.5 -91.5t21.5 -125.5q0 -135 -83.5 -260t-214 -198.5t-293.5 -73.5
q-101 0 -196.5 29t-158.5 77l-4 12q9 31 28.5 149t21.5 150l11 9h47l8 -8l-2 -112q0 -14 2 -57q28 -47 117.5 -91t190.5 -44q154 0 230.5 86t76.5 195q0 49 -16.5 88t-40.5 60.5t-56 33.5t-100 28q-162 39 -234.5 71t-116.5 105.5t-44 185.5q0 152 83 268t207 179.5
t267 63.5q179 0 308 -89l4 -11q-35 -143 -53 -290zM1091 1550l-13 -12h-56l-193 213l-286 -213h-63l-10 14l315 352h141zM856 1842zM1232 1646z" />
    <glyph glyph-name="scircumflex" unicode="&#x15d;" horiz-adv-x="909" 
d="M103 295h45l9 -9l3 -89q39 -48 108.5 -83.5t146.5 -35.5q54 0 98.5 16.5t66.5 56.5t22 82q0 38 -18.5 66t-49.5 44.5t-100 31.5q-101 23 -142.5 35.5t-74 38.5t-54 72t-21.5 100t20.5 103.5t58 85t121.5 87.5t129 66.5t110 14.5q135 0 249 -64q-20 -96 -35 -234l-9 -8
h-44l-9 8l-11 92q-45 44 -107.5 68t-120.5 24q-70 0 -117 -40.5t-47 -104.5q0 -69 47 -99.5t182 -56.5q94 -18 139.5 -39.5t75.5 -71.5t30 -116q0 -69 -29 -122.5t-118 -123t-156 -97.5t-174 -28q-54 0 -110 8t-158 48l-4 10q10 34 23.5 124t15.5 131zM894 1121l-9 -11h-55
l-198 219l-291 -219h-63l-8 11l318 361h141zM655 1418zM1030 1222z" />
    <glyph glyph-name="Scedilla" unicode="&#x15e;" 
d="M524 -41l-67 -100q21 6 51 6q95 0 142.5 -45t47.5 -103q0 -74 -65 -133t-201 -59q-112 0 -213 47l-2 12l31 49l12 7q77 -31 143 -31q48 0 81.5 24t33.5 68q0 37 -27.5 59.5t-70.5 22.5q-12 0 -70 -12l-24 26l112 160q-119 0 -227.5 44.5t-118.5 74.5q29 107 51 297l11 10
h47l8 -8l-2 -113q-1 -50 7 -64t31.5 -33.5t64 -41.5t94.5 -36.5t114 -14.5q155 0 230 84.5t75 195.5q0 92 -43.5 136.5t-167.5 72.5q-205 50 -267 87.5t-95 108t-33 177.5q0 201 162.5 350.5t404.5 149.5q173 0 297 -86l4 -13q-37 -145 -55 -291l-8 -8h-47l-8 11v155
q-80 115 -267 115q-139 0 -213.5 -77.5t-74.5 -201.5q-3 -116 83 -163.5t179 -64.5q142 -29 216 -57t113 -101.5t39 -159.5q0 -186 -151 -347q-154 -164 -367 -186z" />
    <glyph glyph-name="scedilla" unicode="&#x15f;" horiz-adv-x="909" 
d="M397 -31l-72 -109q21 5 48 5q95 0 138.5 -44.5t43.5 -96.5q0 -76 -66 -129.5t-188 -53.5q-61 0 -106 11t-96 34l-3 12l29 47l13 6q73 -30 137 -30q48 0 78.5 24t30.5 63q0 36 -26.5 57t-67.5 21q-29 0 -67 -10l-23 24l112 165q-116 1 -253 56l-4 10q10 34 23.5 124
t15.5 131l9 9h45l9 -9l3 -89q39 -48 108.5 -83.5t146.5 -35.5q54 0 98.5 16.5t66.5 56.5t22 82q0 38 -18.5 66t-49.5 44.5t-100 31.5q-101 23 -142.5 35.5t-74 38.5t-54 72t-21.5 100t20.5 103.5t58 85t121.5 87.5t129 66.5t110 14.5q135 0 249 -64q-20 -96 -35 -234l-9 -8
h-44l-9 8l-11 92q-45 44 -107.5 68t-120.5 24q-70 0 -117 -39.5t-47 -105.5q0 -69 47 -99.5t182 -56.5q94 -18 139.5 -39.5t75.5 -71.5t30 -116q0 -67 -25.5 -116t-94.5 -107.5t-134.5 -96t-152.5 -47.5z" />
    <glyph glyph-name="Scaron" unicode="&#x160;" 
d="M1032 1045l-10 -8h-48l-8 9q2 36 2 54l-2 103q-35 53 -108.5 83.5t-157.5 30.5q-81 0 -149 -31.5t-104 -99t-36 -147.5q0 -62 22 -102t57 -63.5t75.5 -37t155.5 -35.5q102 -20 154.5 -40t88.5 -55t57.5 -91.5t21.5 -125.5q0 -135 -83.5 -260t-214 -198.5t-293.5 -73.5
q-101 0 -196.5 29t-158.5 77l-4 12q9 31 28.5 149t21.5 150l11 9h47l8 -8l-2 -112q0 -14 2 -57q28 -47 117.5 -91t190.5 -44q154 0 230.5 86t76.5 195q0 49 -16.5 88t-40.5 60.5t-56 33.5t-100 28q-162 39 -234.5 71t-116.5 105.5t-44 185.5q0 152 83 268t207 179.5
t267 63.5q179 0 308 -89l4 -11q-35 -143 -53 -290zM1181 1891l-315 -353h-141l-165 355l13 11h56l193 -213l286 213h63z" />
    <glyph glyph-name="scaron" unicode="&#x161;" horiz-adv-x="909" 
d="M103 295h45l9 -9l3 -89q39 -48 108.5 -83.5t146.5 -35.5q54 0 98.5 16.5t66.5 56.5t22 82q0 38 -18.5 66t-49.5 44.5t-100 31.5q-101 23 -142.5 35.5t-74 38.5t-54 72t-21.5 100t20.5 103.5t58 85t121.5 87.5t129 66.5t110 14.5q135 0 249 -64q-20 -96 -35 -234l-9 -8
h-44l-9 8l-11 92q-45 44 -107.5 68t-120.5 24q-70 0 -117 -40.5t-47 -104.5q0 -69 47 -99.5t182 -56.5q94 -18 139.5 -39.5t75.5 -71.5t30 -116q0 -69 -29 -122.5t-118 -123t-156 -97.5t-174 -28q-54 0 -110 8t-158 48l-4 10q10 34 23.5 124t15.5 131zM974 1471l-318 -361
h-141l-165 361l9 11h55l198 -219l291 219h63z" />
    <glyph glyph-name="Tcommaaccent" unicode="&#x162;" horiz-adv-x="1251" 
d="M237 60q10 1 47 3q82 3 97.5 12.5t29.5 38t60 291.5l84 487l69 406q-136 0 -203.5 -2.5t-106 -11t-46.5 -14.5t-20.5 -29t-28.5 -84t-25 -100l-9 -8h-58l-7 9q25 135 49 342l12 12q22 0 137 -6q217 -10 441 -10q137 0 331.5 4.5t271.5 11.5l15 -17q-58 -286 -61 -338
l-9 -8h-59l-7 8q9 82 9 150q0 53 -12 67.5t-72.5 19.5t-161.5 5l-112 -1l-80 -421l-91 -535q-21 -129 -27 -186q-1 -18 -1 -31q0 -27 16.5 -41.5t65.5 -17.5l106 -6l7 -8l-6 -50l-9 -9q-117 7 -329 7q-156 0 -314 -7l-7 8l5 50zM282 -596l-2 23q122 25 170.5 78.5t48.5 91.5
q0 23 -43 26q-110 7 -110 101q0 58 45.5 104.5t106.5 46.5q147 0 147 -136q0 -133 -96.5 -227t-266.5 -108z" />
    <glyph glyph-name="Tcommaaccent" unicode="&#x21a;" horiz-adv-x="1251" 
d="M237 60q10 1 47 3q82 3 97.5 12.5t29.5 38t60 291.5l84 487l69 406q-136 0 -203.5 -2.5t-106 -11t-46.5 -14.5t-20.5 -29t-28.5 -84t-25 -100l-9 -8h-58l-7 9q25 135 49 342l12 12q22 0 137 -6q217 -10 441 -10q137 0 331.5 4.5t271.5 11.5l15 -17q-58 -286 -61 -338
l-9 -8h-59l-7 8q9 82 9 150q0 53 -12 67.5t-72.5 19.5t-161.5 5l-112 -1l-80 -421l-91 -535q-21 -129 -27 -186q-1 -18 -1 -31q0 -27 16.5 -41.5t65.5 -17.5l106 -6l7 -8l-6 -50l-9 -9q-117 7 -329 7q-156 0 -314 -7l-7 8l5 50zM282 -596l-2 23q122 25 170.5 78.5t48.5 91.5
q0 23 -43 26q-110 7 -110 101q0 58 45.5 104.5t106.5 46.5q147 0 147 -136q0 -133 -96.5 -227t-266.5 -108z" />
    <glyph glyph-name="tcommaaccent" unicode="&#x163;" horiz-adv-x="797" 
d="M316 831h-209l-7 10l6 35l12 12q83 19 225 67q2 23 14 97q20 111 20 186q60 13 181 57q55 20 68 24l23 -25q-32 -98 -91 -356h103q120 0 169 8l11 -16q-14 -46 -23 -96l-13 -10q-74 7 -162 7h-107q-17 -84 -40 -191l-42 -196l-31 -152q-12 -64 -14.5 -83t-2.5 -34
q0 -26 13.5 -39t33.5 -13q18 0 39 8.5t57 31t125 84.5l14 -1l20 -39l-2 -12q-230 -168 -302.5 -203t-116.5 -35q-58 0 -87.5 36t-29.5 94q0 37 10 92t56 264q78 360 80 388zM32 -567l-2 22q119 26 164.5 79.5t45.5 80.5q0 23 -40 27q-107 6 -107 94q0 58 43.5 102.5
t108.5 44.5q66 0 100.5 -42t34.5 -99q0 -108 -88.5 -201t-259.5 -108z" />
    <glyph glyph-name="tcommaaccent" unicode="&#x21b;" horiz-adv-x="797" 
d="M316 831h-209l-7 10l6 35l12 12q83 19 225 67q2 23 14 97q20 111 20 186q60 13 181 57q55 20 68 24l23 -25q-32 -98 -91 -356h103q120 0 169 8l11 -16q-14 -46 -23 -96l-13 -10q-74 7 -162 7h-107q-17 -84 -40 -191l-42 -196l-31 -152q-12 -64 -14.5 -83t-2.5 -34
q0 -26 13.5 -39t33.5 -13q18 0 39 8.5t57 31t125 84.5l14 -1l20 -39l-2 -12q-230 -168 -302.5 -203t-116.5 -35q-58 0 -87.5 36t-29.5 94q0 37 10 92t56 264q78 360 80 388zM32 -567l-2 22q119 26 164.5 79.5t45.5 80.5q0 23 -40 27q-107 6 -107 94q0 58 43.5 102.5
t108.5 44.5q66 0 100.5 -42t34.5 -99q0 -108 -88.5 -201t-259.5 -108z" />
    <glyph glyph-name="Tcaron" unicode="&#x164;" horiz-adv-x="1251" 
d="M237 60q10 1 47 3q82 3 97.5 12.5t29.5 38t60 291.5l84 487l69 406q-136 0 -203.5 -2.5t-106 -11t-46.5 -14.5t-20.5 -29t-28.5 -84t-25 -100l-9 -8h-58l-7 9q25 135 49 342l12 12q22 0 137 -6q217 -10 441 -10q137 0 331.5 4.5t271.5 11.5l15 -17q-58 -286 -61 -338
l-9 -8h-59l-7 8q9 82 9 150q0 53 -12 67.5t-72.5 19.5t-161.5 5l-112 -1l-80 -421l-91 -535q-21 -129 -27 -186q-1 -18 -1 -31q0 -27 16.5 -41.5t65.5 -17.5l106 -6l7 -8l-6 -50l-9 -9q-117 7 -329 7q-156 0 -314 -7l-7 8l5 50zM1181 1891l-315 -353h-141l-165 355l13 11h56
l193 -213l286 213h63z" />
    <glyph glyph-name="tcaron" unicode="&#x165;" horiz-adv-x="797" 
d="M316 831h-209l-7 10l6 35l12 12q83 19 225 67q2 23 14 97q20 111 20 186q60 13 181 57q55 20 68 24l23 -25q-32 -98 -91 -356h103q120 0 169 8l11 -16q-14 -46 -23 -96l-13 -10q-74 7 -162 7h-107q-17 -84 -40 -191l-42 -196l-31 -152q-12 -64 -14.5 -83t-2.5 -34
q0 -26 13.5 -39t33.5 -13q18 0 39 8.5t57 31t125 84.5l14 -1l20 -39l-2 -12q-230 -168 -302.5 -203t-116.5 -35q-58 0 -87.5 36t-29.5 94q0 37 10 92t56 264q78 360 80 388zM678 1035l-2 22q119 26 164.5 79.5t45.5 80.5q0 23 -40 27q-107 6 -107 94q0 58 43.5 102.5
t108.5 44.5q66 0 100.5 -42t34.5 -99q0 -108 -88.5 -201t-259.5 -108z" />
    <glyph glyph-name="Tbar" unicode="&#x166;" horiz-adv-x="1251" 
d="M550 854l-364 -4l-8 7l9 86l8 7q168 -5 370 -5l59 353q-136 0 -203.5 -2.5t-106 -11t-46.5 -14.5t-20.5 -29t-28.5 -84t-25 -100l-9 -8h-58l-7 9q25 135 49 342l12 12q22 0 137 -6q217 -10 441 -10q137 0 331.5 4.5t271.5 11.5l15 -17q-58 -286 -61 -338l-9 -8h-59l-7 8
q9 82 9 150q0 53 -12 67.5t-72.5 19.5t-161.5 5q-93 0 -112 -1l-67 -353q130 0 392 5l8 -7l-10 -86l-7 -8q-102 3 -401 5l-78 -468q-36 -213 -36 -261q0 -27 16.5 -41.5t65.5 -17.5l106 -6l7 -8l-6 -50l-9 -9q-117 7 -329 7q-156 0 -314 -7l-7 8l5 50l9 9q10 1 47 3
q85 3 102.5 15.5t30 49t50.5 255.5z" />
    <glyph glyph-name="tbar" unicode="&#x167;" horiz-adv-x="797" 
d="M270 604h-207l-7 10l6 35l12 12q42 9 223 67q3 12 10 51q8 39 11 52h-211l-7 10l6 35l12 12q57 13 119 34q75 24 103 31q36 207 36 285q61 13 182 57q55 20 68 24l23 -25q-32 -96 -91 -356h103q119 0 169 8l11 -16q-15 -48 -23 -96l-13 -10q-74 7 -163 7h-106
q-7 -36 -25 -119l106 -1q111 0 169 8l11 -15q-14 -46 -23 -97l-13 -10q-74 7 -162 7h-111q-83 -381 -83 -429q0 -25 13.5 -38.5t33.5 -13.5q19 0 40 8.5t57 31t125 84.5l14 -1l20 -39l-2 -12q-231 -169 -303.5 -203.5t-116.5 -34.5q-58 0 -87.5 36.5t-29.5 93.5q0 28 6 69.5
t35 172.5z" />
    <glyph glyph-name="Utilde" unicode="&#x168;" horiz-adv-x="1593" 
d="M1319 127q0 -34 17 -46.5t61 -14.5l108 -7l6 -8l-6 -49l-8 -10q-164 8 -217 8l-240 -4l-10 12q37 163 49 252q-172 -182 -284 -241.5t-232 -59.5q-194 0 -279.5 94.5t-85.5 217.5q0 127 73 530t73 475q0 28 -17.5 43.5t-156.5 21.5l-8 9l8 53l14 8q83 0 164 -2l162 -4
q64 0 135 6l12 -16q-18 -78 -45 -221l-61 -320l-59 -348q-21 -123 -21 -176q0 -103 66.5 -151t156.5 -48q75 0 144 32.5t142.5 97.5t94 98t35.5 124l102 623q25 144 25 170q0 40 -24 49.5t-160 15.5l-6 9l8 53l10 8q156 -6 315 -6q69 0 324 6l6 -6l-8 -55l-10 -11
q-120 -3 -132.5 -6.5t-27 -17t-31 -86t-37.5 -193.5l-121 -700q-29 -167 -24 -209zM925 1492zM708 -65zM1374 1858q-26 -123 -87.5 -185.5t-140.5 -62.5q-58 0 -187 51q-122 48 -161 48q-76 0 -110 -101h-56l-12 13q64 246 229 246q67 0 213 -57q100 -39 141 -39
q63 0 105 99h54z" />
    <glyph glyph-name="utilde" unicode="&#x169;" 
d="M69 716l-16 38l2 14q141 103 234 156.5t149 53.5q65 0 65 -79q0 -38 -11.5 -95t-44.5 -183l-84 -336q-15 -70 -15 -99q0 -42 35 -42q22 0 65 28.5t128 137.5q66 84 121 196.5t95 265.5q21 84 27 158q103 6 218 40l17 -18q-61 -196 -123.5 -447t-62.5 -327q0 -37 29 -37
q17 0 36 11.5t47 32.5q31 22 52 37h12l22 -39l-3 -13q-205 -154 -260 -182t-96 -28q-31 0 -48 22.5t-17 61.5q0 60 51 256l39 152q-96 -187 -260.5 -343t-264.5 -156q-43 0 -70 30t-27 89q0 39 8.5 83t44.5 179q86 322 86 410q0 42 -29 42q-12 0 -28.5 -7t-108.5 -65z
M690 1038zM430 -65zM1049 1374q-21 -97 -78.5 -159t-136.5 -62q-52 0 -169 46q-112 44 -146 44q-69 0 -100 -92h-58l-11 13q23 103 80 162.5t135 59.5q60 0 193 -52q90 -35 128 -35q57 0 95 90h56z" />
    <glyph glyph-name="Umacron" unicode="&#x16a;" horiz-adv-x="1593" 
d="M1319 127q0 -34 17 -46.5t61 -14.5l108 -7l6 -8l-6 -49l-8 -10q-164 8 -217 8l-240 -4l-10 12q37 163 49 252q-172 -182 -284 -241.5t-232 -59.5q-194 0 -279.5 94.5t-85.5 217.5q0 127 73 530t73 475q0 28 -17.5 43.5t-156.5 21.5l-8 9l8 53l14 8q83 0 164 -2l162 -4
q64 0 135 6l12 -16q-18 -78 -45 -221l-61 -320l-59 -348q-21 -123 -21 -176q0 -103 66.5 -151t156.5 -48q75 0 144 32.5t142.5 97.5t94 98t35.5 124l102 623q25 144 25 170q0 40 -24 49.5t-160 15.5l-6 9l8 53l10 8q156 -6 315 -6q69 0 324 6l6 -6l-8 -55l-10 -11
q-120 -3 -132.5 -6.5t-27 -17t-31 -86t-37.5 -193.5l-121 -700q-29 -167 -24 -209zM925 1492zM708 -65zM706 1794h645l-39 -145h-647z" />
    <glyph glyph-name="umacron" unicode="&#x16b;" 
d="M69 716l-16 38l2 14q141 103 234 156.5t149 53.5q65 0 65 -79q0 -38 -11.5 -95t-44.5 -183l-84 -336q-15 -70 -15 -99q0 -42 35 -42q22 0 65 28.5t128 137.5q66 84 121 196.5t95 265.5q21 84 27 158q103 6 218 40l17 -18q-61 -196 -123.5 -447t-62.5 -327q0 -37 29 -37
q17 0 36 11.5t47 32.5q31 22 52 37h12l22 -39l-3 -13q-205 -154 -260 -182t-96 -28q-31 0 -48 22.5t-17 61.5q0 60 51 256l39 152q-96 -187 -260.5 -343t-264.5 -156q-43 0 -70 30t-27 89q0 39 8.5 83t44.5 179q86 322 86 410q0 42 -29 42q-12 0 -28.5 -7t-108.5 -65z
M690 1038zM430 -65zM400 1313h647l-30 -127h-647z" />
    <glyph glyph-name="Ubreve" unicode="&#x16c;" horiz-adv-x="1593" 
d="M1319 127q0 -34 17 -46.5t61 -14.5l108 -7l6 -8l-6 -49l-8 -10q-164 8 -217 8l-240 -4l-10 12q37 163 49 252q-172 -182 -284 -241.5t-232 -59.5q-194 0 -279.5 94.5t-85.5 217.5q0 127 73 530t73 475q0 28 -17.5 43.5t-156.5 21.5l-8 9l8 53l14 8q83 0 164 -2l162 -4
q64 0 135 6l12 -16q-18 -78 -45 -221l-61 -320l-59 -348q-21 -123 -21 -176q0 -103 66.5 -151t156.5 -48q75 0 144 32.5t142.5 97.5t94 98t35.5 124l102 623q25 144 25 170q0 40 -24 49.5t-160 15.5l-6 9l8 53l10 8q156 -6 315 -6q69 0 324 6l6 -6l-8 -55l-10 -11
q-120 -3 -132.5 -6.5t-27 -17t-31 -86t-37.5 -193.5l-121 -700q-29 -167 -24 -209zM925 1492zM708 -65zM1338 1894q-47 -194 -151 -262t-207 -68q-66 0 -120 21t-90.5 58.5t-55 77t-21.5 64t-3 109.5l18 13h51q19 -187 241 -187q202 0 271 187h53zM1026 1842z" />
    <glyph glyph-name="ubreve" unicode="&#x16d;" 
d="M69 716l-16 38l2 14q141 103 234 156.5t149 53.5q65 0 65 -79q0 -38 -11.5 -95t-44.5 -183l-84 -336q-15 -70 -15 -99q0 -42 35 -42q22 0 65 28.5t128 137.5q66 84 121 196.5t95 265.5q21 84 27 158q103 6 218 40l17 -18q-61 -196 -123.5 -447t-62.5 -327q0 -37 29 -37
q17 0 36 11.5t47 32.5q31 22 52 37h12l22 -39l-3 -13q-205 -154 -260 -182t-96 -28q-31 0 -48 22.5t-17 61.5q0 60 51 256l39 152q-96 -187 -260.5 -343t-264.5 -156q-43 0 -70 30t-27 89q0 39 8.5 83t44.5 179q86 322 86 410q0 42 -29 42q-12 0 -28.5 -7t-108.5 -65z
M690 1038zM430 -65zM1021 1410q-37 -173 -130.5 -237.5t-195.5 -64.5q-67 0 -119 21.5t-88.5 63.5t-50.5 97q-7 28 -7 120l13 12h50q17 -172 220 -172q185 0 248 172h49zM740 1383z" />
    <glyph glyph-name="Uring" unicode="&#x16e;" horiz-adv-x="1593" 
d="M1319 127q0 -34 17 -46.5t61 -14.5l108 -7l6 -8l-6 -49l-8 -10q-164 8 -217 8l-240 -4l-10 12q37 163 49 252q-172 -182 -284 -241.5t-232 -59.5q-194 0 -279.5 94.5t-85.5 217.5q0 127 73 530t73 475q0 28 -17.5 43.5t-156.5 21.5l-8 9l8 53l14 8q83 0 164 -2l162 -4
q64 0 135 6l12 -16q-18 -78 -45 -221l-61 -320l-59 -348q-21 -123 -21 -176q0 -103 66.5 -151t156.5 -48q75 0 144 32.5t142.5 97.5t94 98t35.5 124l102 623q25 144 25 170q0 40 -24 49.5t-160 15.5l-6 9l8 53l10 8q156 -6 315 -6q69 0 324 6l6 -6l-8 -55l-10 -11
q-120 -3 -132.5 -6.5t-27 -17t-31 -86t-37.5 -193.5l-121 -700q-29 -167 -24 -209zM925 1492zM708 -65zM1221 1744q0 -87 -69.5 -152t-163.5 -65q-100 0 -149 58t-49 126q0 103 73.5 160.5t160.5 57.5q94 0 145.5 -53.5t51.5 -131.5zM1125 1745q0 56 -28 93.5t-79 37.5
q-59 0 -95 -47.5t-36 -116.5q0 -54 27 -92.5t78 -38.5q62 0 97.5 51t35.5 113z" />
    <glyph glyph-name="uring" unicode="&#x16f;" 
d="M69 716l-16 38l2 14q141 103 234 156.5t149 53.5q65 0 65 -79q0 -38 -11.5 -95t-44.5 -183l-84 -336q-15 -70 -15 -99q0 -42 35 -42q22 0 65 28.5t128 137.5q66 84 121 196.5t95 265.5q21 84 27 158q103 6 218 40l17 -18q-61 -196 -123.5 -447t-62.5 -327q0 -37 29 -37
q17 0 36 11.5t47 32.5q31 22 52 37h12l22 -39l-3 -13q-205 -154 -260 -182t-96 -28q-31 0 -48 22.5t-17 61.5q0 60 51 256l39 152q-96 -187 -260.5 -343t-264.5 -156q-43 0 -70 30t-27 89q0 39 8.5 83t44.5 179q86 322 86 410q0 42 -29 42q-12 0 -28.5 -7t-108.5 -65z
M690 1038zM430 -65zM921 1291q0 -80 -62.5 -138.5t-148.5 -58.5q-92 0 -136 52t-44 115q0 81 62.5 139.5t149.5 58.5q83 0 131 -47.5t48 -120.5zM834 1292q0 47 -24 82.5t-72 35.5q-58 0 -89 -46t-31 -102q0 -46 23.5 -82.5t72.5 -36.5q57 0 88.5 46t31.5 103z" />
    <glyph glyph-name="Uhungarumlaut" unicode="&#x170;" horiz-adv-x="1593" 
d="M1319 127q0 -34 17 -46.5t61 -14.5l108 -7l6 -8l-6 -49l-8 -10q-164 8 -217 8l-240 -4l-10 12q37 163 49 252q-172 -182 -284 -241.5t-232 -59.5q-194 0 -279.5 94.5t-85.5 217.5q0 127 73 530t73 475q0 28 -17.5 43.5t-156.5 21.5l-8 9l8 53l14 8q83 0 164 -2l162 -4
q64 0 135 6l12 -16q-18 -78 -45 -221l-61 -320l-59 -348q-21 -123 -21 -176q0 -103 66.5 -151t156.5 -48q75 0 144 32.5t142.5 97.5t94 98t35.5 124l102 623q25 144 25 170q0 40 -24 49.5t-160 15.5l-6 9l8 53l10 8q156 -6 315 -6q69 0 324 6l6 -6l-8 -55l-10 -11
q-120 -3 -132.5 -6.5t-27 -17t-31 -86t-37.5 -193.5l-121 -700q-29 -167 -24 -209zM925 1492zM708 -65zM1577 1877q-282 -183 -475 -330l-52 27l7 13l144 169q46 56 93 112l16 10l131 12l122 15l10 -5zM1157 1877q-248 -159 -475 -331l-52 28l7 13l144 169q46 56 93 112
l16 10l131 12l122 15l10 -5z" />
    <glyph glyph-name="uhungarumlaut" unicode="&#x171;" 
d="M69 716l-16 38l2 14q141 103 234 156.5t149 53.5q65 0 65 -79q0 -38 -11.5 -95t-44.5 -183l-84 -336q-15 -70 -15 -99q0 -42 35 -42q22 0 65 28.5t128 137.5q66 84 121 196.5t95 265.5q21 84 27 158q103 6 218 40l17 -18q-61 -196 -123.5 -447t-62.5 -327q0 -37 29 -37
q17 0 36 11.5t47 32.5q31 22 52 37h12l22 -39l-3 -13q-205 -154 -260 -182t-96 -28q-31 0 -48 22.5t-17 61.5q0 60 51 256l39 152q-96 -187 -260.5 -343t-264.5 -156q-43 0 -70 30t-27 89q0 39 8.5 83t44.5 179q86 322 86 410q0 42 -29 42q-12 0 -28.5 -7t-108.5 -65z
M690 1038zM430 -65zM1300 1474q-421 -294 -533 -381l-52 26l7 13l165 188q24 28 130 145l15 10l132 12l121 15l10 -5zM875 1474q-296 -208 -533 -382l-52 27l7 13l165 188q24 28 130 145l15 10l132 12l121 15l10 -5z" />
    <glyph glyph-name="Uogonek" unicode="&#x172;" horiz-adv-x="1593" 
d="M1027 0l-10 10q27 133 55 251q-136 -154 -253.5 -228t-259.5 -74q-191 0 -276.5 97.5t-85.5 230.5q0 128 74.5 520t74.5 469q0 29 -20.5 45t-157.5 18l-6 11l8 53l12 8l326 -8q50 0 135 10l14 -14q-49 -205 -106 -547l-57 -342q-23 -126 -23 -176q0 -108 67.5 -155.5
t155.5 -47.5q59 0 124.5 25t146 89.5t103.5 105t38 130.5l94 631q20 141 18 169q-5 37 -28 47.5t-137 12.5l-6 9l8 53l10 8q156 -6 315 -6q69 0 324 6l6 -6l-8 -55l-10 -9q-127 -5 -158.5 -55t-48.5 -168l-128 -779q-21 -144 -21 -196q0 -36 8.5 -53t62.5 -21l98 -10l6 -8
l-6 -49l-8 -10q-177 8 -207 8q-153 -123 -153 -211q0 -43 27.5 -71.5t70.5 -28.5q69 0 133 67l14 2l33 -20v-10q-147 -162 -291 -162q-66 0 -103.5 36t-37.5 100q0 67 39 129t180 169h-175z" />
    <glyph glyph-name="uogonek" unicode="&#x173;" 
d="M817 -4q-70 -57 -107.5 -102t-37.5 -94q0 -43 26 -70t70 -27q61 0 124 64l14 2l31 -18l2 -12q-96 -98 -156.5 -125.5t-120.5 -27.5q-70 0 -103.5 38.5t-33.5 96.5q0 30 8.5 60t35 67t61.5 67l56 48q-44 14 -44 81q0 60 51 256l39 152q-96 -187 -260.5 -343t-264.5 -156
q-43 0 -70 30t-27 89q0 39 8.5 83t44.5 179q86 322 86 410q0 42 -29 42q-12 0 -28.5 -7t-108.5 -65l-14 2l-16 38l2 14q141 103 234 156.5t149 53.5q65 0 65 -79q0 -38 -11.5 -95t-44.5 -183l-84 -336q-15 -70 -15 -99q0 -42 35 -42q22 0 65 28.5t128 137.5q66 84 121 196.5
t95 265.5q21 84 27 158q103 6 218 40l17 -18q-61 -196 -123.5 -447t-62.5 -327q0 -37 29 -37q17 0 36 11.5t47 32.5q31 22 52 37h12l22 -39l-3 -13q-190 -143 -246 -174z" />
    <glyph glyph-name="Wcircumflex" unicode="&#x174;" horiz-adv-x="2048" 
d="M1823 981q92 235 92 303q0 34 -26.5 45.5t-139.5 11.5l-6 9l6 53l10 10q176 -8 244 -8q93 0 182 6l8 -8l-4 -53l-8 -11q-78 0 -94 -18.5t-82 -181.5l-344 -848q-45 -109 -121 -307h-172q-31 137 -68 276l-198 752l-504 -1028h-170l-51 598q-28 306 -49 483.5t-32 217.5
t-32.5 47.5t-111.5 10.5l-9 9l9 55l10 8l301 -6q185 0 274 6l8 -8l-8 -55l-8 -9q-99 0 -127.5 -15.5t-28.5 -70.5q0 -69 19 -278l59 -674l193 395l344 721h65l301 -1145zM1491 1550l-13 -12h-56l-193 213l-286 -213h-63l-10 14l315 352h141zM1256 1842zM1632 1646z" />
    <glyph glyph-name="wcircumflex" unicode="&#x175;" horiz-adv-x="1706" 
d="M53 692q68 188 76 265q54 12 100 12q47 0 107 -5q116 -11 171 -11q89 0 147 24l29 -33q-116 -129 -196.5 -303.5t-80.5 -340.5q0 -206 112 -206q27 0 55.5 15.5t84.5 81.5t99 155.5t68.5 179t52.5 220.5t27 164v12q129 22 218 54l26 -18q-137 -474 -137 -701
q0 -92 35 -129.5t82 -37.5q44 0 99.5 41t116.5 131.5t96.5 215t35.5 214.5q0 57 -24 91t-71 34q-28 0 -54 -15l-14 2l-15 29l3 13q84 61 135 117q28 8 50 8q68 0 107.5 -53.5t39.5 -151.5q0 -144 -70.5 -300.5t-176 -275.5t-204.5 -176t-182 -57q-75 0 -133 56.5t-58 177.5
q0 59 18 160l-52 -92q-25 -44 -62.5 -92.5t-86 -93.5t-90.5 -71t-75 -35.5t-68 -9.5q-90 0 -151 72.5t-61 213.5q0 135 64.5 261t279.5 340q-80 -23 -159 -23q-10 0 -40 2q-54 2 -72 2q-39 0 -80 -7q-22 -43 -33 -70q-22 -51 -26 -58l-12 -8h-43zM1344 1121l-9 -11h-55
l-198 219l-291 -219h-63l-8 11l318 361h141zM1105 1418zM1480 1222z" />
    <glyph glyph-name="Ycircumflex" unicode="&#x176;" horiz-adv-x="1251" 
d="M297 60q13 1 46 3q76 3 92.5 10.5t29.5 29t30 110.5l34 179q17 89 17 112q0 57 -62.5 270.5t-110.5 309.5t-92 123.5t-94 27.5q-30 0 -63 -17l-9 9v45l8 14q54 39 98 77q68 60 74 63q43 6 60 6q49 0 97.5 -21.5t98 -92.5t94.5 -216t79 -315q29 -140 35 -165
q52 124 86.5 194.5t103.5 185.5t145 209.5t124.5 133.5t84.5 52.5t75 14.5l-12 -186q-58 -11 -107 -42q-64 -41 -144.5 -135.5t-158 -231.5t-114 -230.5t-63.5 -254t-27 -206.5q0 -33 22 -46t59 -15l107 -5l7 -8l-6 -50l-9 -9q-116 7 -329 7q-156 0 -314 -7l-7 8l5 50z
M811 1492zM582 -65zM1141 1550l-13 -12h-56l-193 213l-286 -213h-63l-10 14l315 352h141zM906 1842zM1282 1646z" />
    <glyph glyph-name="ycircumflex" unicode="&#x177;" 
d="M49 -371l126 81l30 -12q-2 -21 -2 -39q0 -55 36 -95t97 -40q34 0 67 14.5t66.5 49t65.5 100t70 189.5t65 237l55 222q-135 -196 -246 -286t-171 -90q-40 0 -70 46t-30 155q0 56 38 395q8 128 8 145q0 53 -8 69.5t-29 16.5q-32 0 -147 -84l-15 2l-19 33l1 16l119 92
q88 69 147 100t99 31q39 0 60 -32.5t21 -93.5q0 -36 -16 -189l-20 -179q-19 -175 -19 -250q0 -65 13.5 -78.5t22.5 -13.5q24 0 74 44t121.5 159t123.5 276t71 302l229 50l23 -19q-7 -14 -48 -148t-92 -332q-65 -254 -112.5 -401.5t-110.5 -262.5t-145 -201t-168 -132.5
t-172 -46.5q-87 0 -148 43.5t-61 134.5v22zM690 1038zM957 -65zM1044 1121l-9 -11h-55l-198 219l-291 -219h-63l-8 11l318 361h141zM805 1418zM1180 1222z" />
    <glyph glyph-name="Ydieresis" unicode="&#x178;" horiz-adv-x="1251" 
d="M297 60q13 1 46 3q76 3 92.5 10.5t29.5 29t30 110.5l34 179q17 89 17 112q0 57 -62.5 270.5t-110.5 309.5t-92 123.5t-94 27.5q-30 0 -63 -17l-9 9v45l8 14q54 39 98 77q68 60 74 63q43 6 60 6q49 0 97.5 -21.5t98 -92.5t94.5 -216t79 -315q29 -140 35 -165
q52 124 86.5 194.5t103.5 185.5t145 209.5t124.5 133.5t84.5 52.5t75 14.5l-12 -186q-58 -11 -107 -42q-64 -41 -144.5 -135.5t-158 -231.5t-114 -230.5t-63.5 -254t-27 -206.5q0 -33 22 -46t59 -15l107 -5l7 -8l-6 -50l-9 -9q-116 7 -329 7q-156 0 -314 -7l-7 8l5 50z
M811 1492zM582 -65zM1094 1589q-55 0 -83.5 34t-28.5 75q0 64 48 112t111 48q53 0 82 -34t29 -75q0 -57 -45.5 -108.5t-112.5 -51.5zM632 1589q-55 0 -83.5 34t-28.5 75q0 62 46.5 111t112.5 49q53 0 82 -34t29 -75q0 -61 -48 -110.5t-110 -49.5z" />
    <glyph glyph-name="Zacute" unicode="&#x179;" horiz-adv-x="1366" 
d="M676 100q313 0 459 35q11 19 21.5 41t21.5 47.5t21 53.5t28 86l10 10h55l11 -11q-47 -178 -80 -362l-11 -8q-28 -2 -61 -2q-20 0 -74 2l-162 6q-43 2 -227 2h-369q-145 0 -309 -8l-8 10l10 55q19 14 164 195l256 317l578 731h-258q-151 0 -217.5 -4t-124 -11.5
t-64.5 -13.5t-30.5 -65t-43.5 -139l-12 -10h-55l-8 8q49 269 55 334l12 14q314 -8 656 -8q116 0 460 6l9 -8l-9 -55q-153 -177 -295 -357l-698 -889zM1227 1877q-267 -170 -476 -330l-51 27l7 13l144 169q46 56 93 112l15 10l132 12l121 15l11 -5z" />
    <glyph glyph-name="zacute" unicode="&#x17a;" horiz-adv-x="1024" 
d="M54 54l689 726q-75 -38 -155 -38q-54 0 -168 15q-96 13 -129 13q-20 0 -43 -3q-12 -23 -45 -100l-11 -7l-42 4l-5 9l89 282q54 19 105 19q76 0 215 -38q131 -37 216 -37q48 0 80 16.5t58 59.5l40 -16l-28 -106l-666 -694q116 51 189 51q51 0 154 -19q112 -20 156 -20
q16 0 48 5l50 110l12 6l38 -3l7 -8q-37 -102 -74 -287q-48 -26 -118 -26q-52 0 -87.5 6t-161.5 39q-140 36 -228 36q-100 0 -160 -68zM1045 1474q-349 -240 -533 -382l-52 27l7 13l165 188q53 60 130 145l15 10l132 12l121 15l10 -5z" />
    <glyph glyph-name="Zdotaccent" unicode="&#x17b;" horiz-adv-x="1366" 
d="M676 100q313 0 459 35q11 19 21.5 41t21.5 47.5t21 53.5t28 86l10 10h55l11 -11q-47 -178 -80 -362l-11 -8q-28 -2 -61 -2q-20 0 -74 2l-162 6q-43 2 -227 2h-369q-145 0 -309 -8l-8 10l10 55q19 14 164 195l256 317l578 731h-258q-151 0 -217.5 -4t-124 -11.5
t-64.5 -13.5t-30.5 -65t-43.5 -139l-12 -10h-55l-8 8q49 269 55 334l12 14q314 -8 656 -8q116 0 460 6l9 -8l-9 -55q-153 -177 -295 -357l-698 -889zM812 1589q-51 0 -81.5 32.5t-30.5 76.5q0 64 48 112t111 48q53 0 82 -34t29 -75q0 -61 -48 -110.5t-110 -49.5z" />
    <glyph glyph-name="zdotaccent" unicode="&#x17c;" horiz-adv-x="1024" 
d="M54 54l689 726q-75 -38 -155 -38q-54 0 -168 15q-96 13 -129 13q-20 0 -43 -3q-12 -23 -45 -100l-11 -7l-42 4l-5 9l89 282q54 19 105 19q76 0 215 -38q131 -37 216 -37q48 0 80 16.5t58 59.5l40 -16l-28 -106l-666 -694q116 51 189 51q51 0 154 -19q112 -20 156 -20
q16 0 48 5l50 110l12 6l38 -3l7 -8q-37 -102 -74 -287q-48 -26 -118 -26q-52 0 -87.5 6t-161.5 39q-140 36 -228 36q-100 0 -160 -68zM641 1139q-46 0 -73.5 29t-27.5 69q0 59 43.5 102.5t100.5 43.5q44 0 72.5 -29t28.5 -70q0 -53 -42 -99t-102 -46z" />
    <glyph glyph-name="Zcaron" unicode="&#x17d;" horiz-adv-x="1366" 
d="M676 100q313 0 459 35q11 19 21.5 41t21.5 47.5t21 53.5t28 86l10 10h55l11 -11q-47 -178 -80 -362l-11 -8q-28 -2 -61 -2q-20 0 -74 2l-162 6q-43 2 -227 2h-369q-145 0 -309 -8l-8 10l10 55q19 14 164 195l256 317l578 731h-258q-151 0 -217.5 -4t-124 -11.5
t-64.5 -13.5t-30.5 -65t-43.5 -139l-12 -10h-55l-8 8q49 269 55 334l12 14q314 -8 656 -8q116 0 460 6l9 -8l-9 -55q-153 -177 -295 -357l-698 -889zM1181 1891l-315 -353h-141l-165 355l13 11h56l193 -213l286 213h63z" />
    <glyph glyph-name="zcaron" unicode="&#x17e;" horiz-adv-x="1024" 
d="M54 54l689 726q-75 -38 -155 -38q-54 0 -168 15q-96 13 -129 13q-20 0 -43 -3q-12 -23 -45 -100l-11 -7l-42 4l-5 9l89 282q54 19 105 19q76 0 215 -38q131 -37 216 -37q48 0 80 16.5t58 59.5l40 -16l-28 -106l-666 -694q116 51 189 51q51 0 154 -19q112 -20 156 -20
q16 0 48 5l50 110l12 6l38 -3l7 -8q-37 -102 -74 -287q-48 -26 -118 -26q-52 0 -87.5 6t-161.5 39q-140 36 -228 36q-100 0 -160 -68zM1024 1471l-318 -361h-141l-165 361l9 11h55l198 -219l291 219h63z" />
    <glyph glyph-name="florin" unicode="&#x192;" horiz-adv-x="1024" 
d="M208 745l-8 12l7 52l11 9h215l25 128q23 119 45.5 167t67.5 93t131 103.5t151 87t121 28.5q70 0 160 -28l5 -13q-42 -77 -67 -177h-24q-96 85 -160 88q-43 0 -86 -35.5t-68 -112.5t-36 -140l-39 -189h266l8 -12l-3 -52l-11 -9h-271l-111 -565l-48 -217
q-26 -120 -44.5 -167t-78 -124t-129 -132.5t-136 -80.5t-122.5 -25q-49 0 -92 19l-5 13q34 83 51 176l26 7q50 -52 75 -66.5t54 -14.5q37 0 65 21.5t53.5 71.5t50 166t50.5 268l112 650h-211z" />
    <glyph glyph-name="Scommaaccent" unicode="&#x218;" 
d="M1032 1045l-10 -8h-48l-8 9q2 36 2 54l-2 103q-35 53 -108.5 83.5t-157.5 30.5q-81 0 -149 -31.5t-104 -99t-36 -147.5q0 -62 22 -102t57 -63.5t75.5 -37t155.5 -35.5q102 -20 154.5 -40t88.5 -55t57.5 -91.5t21.5 -125.5q0 -135 -83.5 -260t-214 -198.5t-293.5 -73.5
q-101 0 -196.5 29t-158.5 77l-4 12q9 31 28.5 149t21.5 150l11 9h47l8 -8l-2 -112q0 -14 2 -57q28 -47 117.5 -91t190.5 -44q154 0 230.5 86t76.5 195q0 49 -16.5 88t-40.5 60.5t-56 33.5t-100 28q-162 39 -234.5 71t-116.5 105.5t-44 185.5q0 152 83 268t207 179.5
t267 63.5q179 0 308 -89l4 -11q-35 -143 -53 -290zM252 -596l-2 23q122 25 170.5 78.5t48.5 91.5q0 23 -43 26q-110 7 -110 101q0 58 45.5 104.5t106.5 46.5q147 0 147 -136q0 -133 -96.5 -227t-266.5 -108z" />
    <glyph glyph-name="scommaaccent" unicode="&#x219;" horiz-adv-x="909" 
d="M103 295h45l9 -9l3 -89q39 -48 108.5 -83.5t146.5 -35.5q54 0 98.5 16.5t66.5 56.5t22 82q0 38 -18.5 66t-49.5 44.5t-100 31.5q-101 23 -142.5 35.5t-74 38.5t-54 72t-21.5 100t20.5 103.5t58 85t121.5 87.5t129 66.5t110 14.5q135 0 249 -64q-20 -96 -35 -234l-9 -8
h-44l-9 8l-11 92q-45 44 -107.5 68t-120.5 24q-70 0 -117 -40.5t-47 -104.5q0 -69 47 -99.5t182 -56.5q94 -18 139.5 -39.5t75.5 -71.5t30 -116q0 -69 -29 -122.5t-118 -123t-156 -97.5t-174 -28q-54 0 -110 8t-158 48l-4 10q10 34 23.5 124t15.5 131zM142 -567l-2 22
q119 26 164.5 79.5t45.5 80.5q0 23 -40 27q-107 6 -107 94q0 58 43.5 102.5t108.5 44.5q66 0 100.5 -42t34.5 -99q0 -108 -88.5 -201t-259.5 -108z" />
    <glyph glyph-name="circumflex" unicode="&#x2c6;" horiz-adv-x="682" 
d="M744 1121l-9 -11h-55l-198 219l-291 -219h-63l-8 11l318 361h141zM505 1418zM880 1222z" />
    <glyph glyph-name="caron" unicode="&#x2c7;" horiz-adv-x="682" 
d="M824 1471l-318 -361h-141l-165 361l9 11h55l198 -219l291 219h63z" />
    <glyph glyph-name="breve" unicode="&#x2d8;" horiz-adv-x="682" 
d="M771 1410q-37 -173 -130.5 -237.5t-195.5 -64.5q-67 0 -119 21.5t-88.5 63.5t-50.5 97q-7 28 -7 120l13 12h50q17 -172 220 -172q185 0 248 172h49zM490 1383z" />
    <glyph glyph-name="dotaccent" unicode="&#x2d9;" horiz-adv-x="682" 
d="M441 1139q-46 0 -73.5 29t-27.5 69q0 59 43.5 102.5t100.5 43.5q44 0 72.5 -29t28.5 -70q0 -53 -42 -99t-102 -46z" />
    <glyph glyph-name="ring" unicode="&#x2da;" horiz-adv-x="682" 
d="M671 1291q0 -80 -62.5 -138.5t-148.5 -58.5q-92 0 -136 52t-44 115q0 81 62.5 139.5t149.5 58.5q83 0 131 -47.5t48 -120.5zM584 1292q0 47 -24 82.5t-72 35.5q-58 0 -89 -46t-31 -102q0 -46 23.5 -82.5t72.5 -36.5q57 0 88.5 46t31.5 103z" />
    <glyph glyph-name="ogonek" unicode="&#x2db;" horiz-adv-x="682" 
d="M446 -231l33 -19v-10q-101 -105 -158 -129.5t-118 -24.5q-66 0 -101.5 38t-35.5 95q0 64 37 121.5t178 165.5h88q-82 -67 -119 -114t-37 -93q0 -43 26.5 -69.5t67.5 -26.5q67 0 125 64z" />
    <glyph glyph-name="tilde" unicode="&#x2dc;" horiz-adv-x="682" 
d="M799 1374q-21 -97 -78.5 -159t-136.5 -62q-52 0 -169 46q-112 44 -146 44q-69 0 -100 -92h-58l-11 13q23 103 80 162.5t135 59.5q60 0 193 -52q90 -35 128 -35q57 0 95 90h56z" />
    <glyph glyph-name="hungarumlaut" unicode="&#x2dd;" horiz-adv-x="682" 
d="M1050 1474q-421 -294 -533 -381l-52 26l7 13l165 188q24 28 130 145l15 10l132 12l121 15l10 -5zM625 1474q-296 -208 -533 -382l-52 27l7 13l165 188q24 28 130 145l15 10l132 12l121 15l10 -5z" />
    <glyph glyph-name="uni0312" unicode="&#x312;" horiz-adv-x="512" 
d="M596 1554v-22q-115 -25 -162 -76t-47 -84q0 -23 39 -26q106 -7 106 -95q0 -58 -43.5 -102.5t-105.5 -44.5t-98.5 38.5t-36.5 102.5q0 108 88 202.5t260 106.5z" />
    <glyph glyph-name="uni0326" unicode="&#x326;" horiz-adv-x="0" 
d="M-318 -567l-2 22q119 26 164.5 79.5t45.5 80.5q0 23 -40 27q-107 6 -107 94q0 58 43.5 102.5t108.5 44.5q66 0 100.5 -42t34.5 -99q0 -108 -88.5 -201t-259.5 -108z" />
    <glyph glyph-name="Delta" unicode="&#x394;" horiz-adv-x="1423" 
d="M1054 1411q20 -167 90 -670t113 -740l-9 -9q-460 8 -661 8q-119 0 -590 -7l-7 8l2 31q49 74 56 85l215 347l410 651q159 239 184 297zM820 1188l-114 -190q-95 -156 -180 -300l-189 -326q-104 -181 -150 -256l9 -7q293 -3 396 -3q78 0 366 3l9 7q-19 182 -58 464l-80 608
h-9z" />
    <glyph glyph-name="Omega" unicode="&#x3a9;" horiz-adv-x="1775" 
d="M761 211l-35 -210l-11 -8l-338 7q-170 -3 -339 -7l-8 8q21 260 21 409l8 7h33l8 -7q22 -135 47.5 -153.5t249.5 -18.5h104l1 30q-118 58 -177.5 131t-83.5 157t-24 163q0 178 91 340.5t282.5 269t460.5 106.5q181 0 327.5 -53t222 -164t75.5 -254q0 -204 -128 -400.5
t-329 -295.5v-30h84q188 0 234.5 13.5t103.5 156.5l9 9h40l9 -10q-26 -79 -61 -240q-23 -106 -40 -167l-10 -7l-308 7q-181 -3 -362 -7l-9 8l27 210l9 7q225 44 340 254.5t115 473.5q0 221 -92 321t-249 100q-122 0 -231.5 -59t-187.5 -159.5t-123.5 -248t-45.5 -292.5
q0 -107 35.5 -190.5t92 -125t157.5 -71.5z" />
    <glyph glyph-name="pi" unicode="&#x3c0;" horiz-adv-x="1297" 
d="M192 -33l-19 21q69 153 94 238l79 256q53 172 70 277q-108 -2 -157 -16.5t-72.5 -37.5t-88.5 -116h-13l-31 29v12l59 159l32 86q21 60 47.5 79.5t89.5 19.5h15q266 -10 461 -10q216 0 509 10l9 -8l-30 -147l-8 -8q-86 -20 -123 -37.5t-50.5 -35t-34 -84t-36 -146.5
t-15.5 -174q0 -213 104 -213q22 0 37.5 5t95.5 38l11 -3l3 -44l-4 -12q-200 -133 -309 -133q-48 0 -83.5 25.5t-50 65.5t-14.5 104q0 68 9.5 142.5t29 150t40 128t24 59t18.5 19.5l107 99l-1 9l-492 -12l-33 -227q-15 -97 -46 -264t-53 -267q-83 -16 -180 -37z" />
    <glyph glyph-name="endash" unicode="&#x2013;" horiz-adv-x="1024" 
d="M2 436l38 141h1020l-38 -141h-1020z" />
    <glyph glyph-name="emdash" unicode="&#x2014;" horiz-adv-x="2048" 
d="M268 436l38 141h1511l-38 -141h-1511z" />
    <glyph glyph-name="quoteleft" unicode="&#x2018;" horiz-adv-x="570" 
d="M584 1430l30 -35q-52 -69 -112.5 -238t-69.5 -263q-28 -3 -35 -5.5t-91.5 -25.5t-121.5 -35l-29 33q191 364 315 501z" />
    <glyph glyph-name="quoteright" unicode="&#x2019;" horiz-adv-x="570" 
d="M185 828l-30 35q52 69 113 238.5t69 263.5l18 1.5t74 19.5l97 27q30 8 59 17l29 -33q-194 -369 -315 -501z" />
    <glyph glyph-name="quotesinglbase" unicode="&#x201a;" horiz-adv-x="512" 
d="M-49 -312l-30 35q53 71 113.5 240t68.5 262q26 2 33 4.5t93 26t122 34.5l29 -33q-195 -369 -315 -501z" />
    <glyph glyph-name="quotedblleft" unicode="&#x201c;" horiz-adv-x="1024" 
d="M1015 1429l30 -34q-53 -71 -113 -237t-70 -265q-26 -3 -33 -5t-93 -25.5t-121 -34.5l-29 33q192 366 315 500zM564 1429l30 -34q-52 -70 -112.5 -238.5t-69.5 -263.5q-26 -3 -33 -5t-93 -25.5t-122 -34.5l-29 33q191 363 315 500z" />
    <glyph glyph-name="quotedblright" unicode="&#x201d;" horiz-adv-x="1024" 
d="M165 828l-30 34q52 70 113 239t69 263q37 1 248 65l29 -33q-194 -367 -315 -500zM615 828l-29 34q51 69 112 237.5t70 264.5q27 3 36 6t94.5 26t116.5 33l30 -33q-188 -359 -316 -500z" />
    <glyph glyph-name="quotedblbase" unicode="&#x201e;" horiz-adv-x="1024" 
d="M-10 -307l-30 35q53 70 113.5 239t68.5 263q32 0 248 65l29 -33q-195 -369 -315 -501zM440 -307l-29 35q52 69 112.5 238t69.5 264q22 2 32.5 4.5t100.5 27.5l114 33l30 -33q-190 -362 -316 -501z" />
    <glyph glyph-name="dagger" unicode="&#x2020;" 
d="M359 -6l-7 11q36 107 86.5 355.5t81.5 445.5q-235 -6 -319 -18l-11 10q16 60 22 179l9 8l97 -8q34 -2 91 -4l135 -5l24 144q11 64 19.5 150t11.5 152l8 13q66 -6 120 -6q47 0 95 5l8 -9q-6 -28 -30 -126.5t-39 -177t-24 -147.5q214 1 328 19l8 -7q-14 -67 -31 -175l-7 -8
q-67 5 -325 11l-28 -171q-12 -70 -30 -200l-29 -208l-15 -116q-4 -40 -5 -57t-1 -51l-7 -9q-44 6 -118 6q-78 0 -118 -6z" />
    <glyph glyph-name="daggerdbl" unicode="&#x2021;" 
d="M321 -328l-8 10q23 82 52 215.5t35 192.5q-202 -5 -321 -20l-9 7q19 90 21 182l6 6l184 -17q61 -6 144 -6q42 154 45 304q46 109 74 315l-154 -6q-79 -4 -167 -15l-9 7q19 87 21 183l7 6l168 -16q72 -8 159 -8q36 202 47 404l8 9q46 -12 104 -12q57 0 108 11l7 -9
q-19 -65 -47.5 -194.5t-37.5 -211.5l120 3q23 1 133 13l79 8l9 -7q-24 -56 -30 -175l-8 -7q-17 0 -72 4q-153 10 -230 10q-9 0 -28 -1q-35 -167 -35 -303q-46 -103 -79 -311l119 3q22 1 134 13l79 8l9 -7q-24 -58 -30 -174l-8 -8q-20 0 -72 4q-152 10 -236 10q-5 0 -22 -1
q-20 -149 -34 -234t-14 -175l-6 -10q-39 12 -92 12q-58 0 -123 -12z" />
    <glyph glyph-name="bullet" unicode="&#x2022;" horiz-adv-x="1241" 
d="M621 1074q76 0 144.5 -39t108.5 -108.5t40 -149.5q0 -123 -86 -210t-207 -87t-207 86.5t-86 210.5q0 79 40.5 150t110 109t142.5 38z" />
    <glyph glyph-name="ellipsis" unicode="&#x2026;" horiz-adv-x="2048" 
d="M148 114q0 73 44 123t110 50q61 0 96 -36.5t35 -98.5q0 -74 -41.5 -126t-112.5 -52q-64 0 -97.5 37t-33.5 103zM1513 114q0 45 18 83t53 64t83 26q62 0 97 -37t35 -97q0 -72 -40.5 -125.5t-113.5 -53.5q-64 0 -98 37t-34 103zM831 114q0 75 44.5 124t109.5 49
q59 0 95 -36.5t36 -98.5q0 -71 -41 -124.5t-113 -53.5q-62 0 -96.5 36t-34.5 104z" />
    <glyph glyph-name="perthousand" unicode="&#x2030;" horiz-adv-x="2048" 
d="M155 1065q0 205 156 324q80 61 189 61q122 0 191 -72t69 -199q0 -154 -100 -270q-102 -119 -245 -119q-173 0 -233 143q-27 64 -27 132zM320 969q0 -123 90 -123q67 0 113 97q27 57 49 162.5t22 175.5q0 108 -91 108q-99 0 -152 -211q-31 -124 -31 -209zM1395 237
q0 161 100 274t245 113q121 0 191 -72t70 -200q0 -154 -99 -270q-103 -119 -247 -119q-119 0 -189.5 76t-70.5 198zM1561 141q0 -122 89 -122q66 0 111 92q27 54 50 161t23 182q0 108 -90 108q-83 0 -124 -118q-59 -166 -59 -303zM706 236q0 160 100 273.5t245 113.5
q120 0 190 -72.5t70 -199.5q0 -217 -170 -335q-77 -54 -175 -54q-173 0 -233 143q-27 64 -27 131zM872 140q0 -122 89 -122q67 0 112 93q26 55 49 162t23 180q0 108 -90 108q-100 0 -151 -208q-32 -127 -32 -213zM1270 1487l-1005 -1563h-75l-5 10l1004 1562h76z" />
    <glyph glyph-name="guilsinglleft" unicode="&#x2039;" horiz-adv-x="682" 
d="M91 496v46l228 202q107 96 195 178l12 1l34 -29l1 -12l-259 -369l171 -380l-3 -14l-35 -21l-14 3l-129 160q-45 55 -115 135z" />
    <glyph glyph-name="guilsinglright" unicode="&#x203a;" horiz-adv-x="682" 
d="M561 526v-46q-59 -54 -187.5 -166.5t-235.5 -214.5l-12 -1l-34 30l-1 12l259 369l-171 380l3 14l35 20l14 -2l155 -192q21 -27 85.5 -99.5t89.5 -103.5z" />
    <glyph glyph-name="fraction" unicode="&#x2044;" horiz-adv-x="342" 
d="M662 1359l-899 -1395h-75l-5 10l898 1394h76z" />
    <glyph glyph-name="uni2074" unicode="&#x2074;" horiz-adv-x="655" 
d="M180 552l-8 11l10 37l11 9q114 3 128.5 10.5t37.5 154.5l-294 -3l-9 11l5 45q182 287 390 537q89 17 157 43l23 -19q-18 -84 -35 -178l-60 -329l126 4l12 -9l-24 -96l-11 -8q-74 3 -123 3q-18 -121 -18 -139q0 -11 5 -15t27 -7.5t100 -6.5l8 -10l-9 -37l-10 -8
q-1 0 -66 2q-87 3 -141 3q-51 0 -232 -5zM381 880l43 245q2 9 5 22l11 62q3 18 10 51q-176 -220 -272 -380q26 -1 65 -1q84 0 138 1z" />
    <glyph glyph-name="Euro" unicode="&#x20ac;" horiz-adv-x="1024" 
d="M7 535l-7 9l17 90l11 8h69q7 55 20 108h-110l-7 9l17 90l11 8h121q92 255 288 413q204 165 450 165q142 0 263 -81l2 -12q-47 -135 -74 -287l-8 -8h-55l-9 8l5 116q3 77 -70 116q-57 30 -143 30q-163 0 -259 -108q-99 -110 -144 -352h537l6 -9l-24 -89l-11 -9h-524
q-6 -55 -9 -108h508l6 -9l-24 -89l-11 -9h-482q0 -219 59 -319q71 -121 245 -121q163 0 308 98l22 -18l-22 -82q-184 -136 -402 -136q-262 0 -380 141q-109 131 -109 402q0 18 1 35h-82z" />
    <glyph glyph-name="afii61289" unicode="&#x2113;" horiz-adv-x="875" 
d="M506 802l-85 -388q-42 -192 -42 -224q0 -78 64 -78q85 0 170 193l52 -17q-136 -310 -315 -310q-197 0 -197 207q0 40 50 260l24 109l-103 -83l-28 40l149 122l72 347q70 339 156.5 424t203.5 85q87 0 142 -49t55 -135q0 -69 -48.5 -160t-123.5 -160zM525 891
q126 108 203.5 219t77.5 192q0 46 -21.5 72t-53.5 26q-61 0 -96.5 -68t-75.5 -272z" />
    <glyph glyph-name="trademark" unicode="&#x2122;" horiz-adv-x="2044" 
d="M55 1184v215h768v-215h-62q-3 93 -44 119.5t-109 26.5h-91v-627q0 -47 10.5 -59.5t27 -20.5t86.5 -14v-54h-411v54q83 6 108.5 29.5t25.5 72.5v619h-92q-99 0 -126.5 -38t-27.5 -108h-63zM1214 1399l249 -582l247 582h281v-51h-40q-32 0 -43.5 -6t-15 -17.5t-3.5 -51.5
v-562q0 -69 16.5 -82t85.5 -20v-54h-364v54q60 1 82.5 14.5t22.5 87.5v581l-303 -737h-22l-316 737v-595q0 -44 10 -60.5t25 -20.5t69 -7v-54h-272v54q54 3 78.5 13t24.5 75v595q0 27 -2.5 35.5t-14 14.5t-40.5 6h-30v51h275z" />
    <glyph glyph-name="uni2126" unicode="&#x2126;" horiz-adv-x="1775" 
d="M761 211l-35 -210l-11 -8l-338 7q-170 -3 -339 -7l-8 8q21 260 21 409l8 7h33l8 -7q22 -135 47.5 -153.5t249.5 -18.5h104l1 30q-118 58 -177.5 131t-83.5 157t-24 163q0 178 91 340.5t282.5 269t460.5 106.5q181 0 327.5 -53t222 -164t75.5 -254q0 -204 -128 -400.5
t-329 -295.5v-30h84q188 0 234.5 13.5t103.5 156.5l9 9h40l9 -10q-26 -79 -61 -240q-23 -106 -40 -167l-10 -7l-308 7q-181 -3 -362 -7l-9 8l27 210l9 7q225 44 340 254.5t115 473.5q0 221 -92 321t-249 100q-122 0 -231.5 -59t-187.5 -159.5t-123.5 -248t-45.5 -292.5
q0 -107 35.5 -190.5t92 -125t157.5 -71.5z" />
    <glyph glyph-name="estimated" unicode="&#x212e;" horiz-adv-x="1708" 
d="M367 692v-418q213 -188 477 -188q173 0 274.5 47t231.5 170h184q-45 -65 -92 -112t-131 -90.5t-205.5 -72t-256.5 -28.5q-363 0 -594.5 208.5t-231.5 522.5q0 225 111.5 394t301.5 253t416 84q136 0 254 -27t209 -76t168.5 -128.5t123 -175t60.5 -178.5t19 -185h-1319z
M1354 778v367q-63 101 -197 166t-303 65q-158 0 -274.5 -55.5t-212.5 -147.5v-395h987z" />
    <glyph glyph-name="partialdiff" unicode="&#x2202;" horiz-adv-x="1012" 
d="M146 1395l32 93q142 -12 228 -34q134 -36 248 -110t189 -180t107 -215q46 -158 46 -345q0 -314 -129 -476.5t-379 -162.5q-135 0 -242 48t-168.5 162.5t-61.5 261.5q0 105 30 202t89 164.5t142.5 103.5t178.5 36q78 0 132 -22t108 -67q-23 234 -165.5 375.5t-384.5 165.5
zM296 480q0 -132 22 -225.5t72.5 -141t126.5 -47.5q74 0 117.5 45t62.5 132t19 207q0 118 -19.5 210.5t-69 137t-124.5 44.5q-108 0 -157.5 -98t-49.5 -264z" />
    <glyph glyph-name="uni2206" unicode="&#x2206;" horiz-adv-x="1423" 
d="M1051 1412q23 -168 93 -671t113 -740l-9 -9q-460 8 -661 8q-119 0 -590 -7l-7 8l2 31l48 72q1 2 8 13l215 347l410 651q159 239 184 297h194zM820 1188l-114 -190q-95 -156 -180 -300l-189 -326q-104 -181 -150 -256l9 -7q293 -3 396 -3q78 0 366 3l9 7q-19 182 -58 464
l-80 608h-9z" />
    <glyph glyph-name="product" unicode="&#x220f;" horiz-adv-x="1686" 
d="M533 1311v-1218l4 -204q0 -112 10.5 -136t33.5 -30t128 -9v-88q-162 6 -291 6q-195 0 -313 -6v88q108 3 126 7.5t28 13t15.5 101t5.5 257.5v840l-3 203q0 139 -23.5 157t-148.5 18v88h1557v-88q-126 0 -148.5 -18t-22.5 -157q0 -52 -3 -125q-1 -33 -1 -78v-840
q0 -153 6 -247t11.5 -105t23.5 -17t134 -10v-88q-117 6 -313 6q-127 0 -291 -6v88q104 3 127.5 9t34 29.5t10.5 136.5q0 39 3 126q1 28 1 78v1218h-701z" />
    <glyph glyph-name="summation" unicode="&#x2211;" horiz-adv-x="1460" 
d="M629 531l-521 835v33h1174l28 -328h-76q-6 72 -23 117t-32.5 56.5t-63 17.5t-151.5 6h-543l397 -657l-474 -821h646q102 0 150 7.5t65 21.5t33 56.5t22 114.5h78l-28 -391h-1202v23z" />
    <glyph glyph-name="minus" unicode="&#x2212;" horiz-adv-x="1024" 
d="M993 515h-961v172h961v-172z" />
    <glyph glyph-name="uni2215" unicode="&#x2215;" horiz-adv-x="342" 
d="M662 1359l-899 -1395h-75l-5 10l898 1394h76z" />
    <glyph glyph-name="radical" unicode="&#x221a;" horiz-adv-x="1124" 
d="M944 1862l154 -18l-303 -1922h-120l-485 1002l-172 -89l-46 92l392 199l346 -722z" />
    <glyph glyph-name="infinity" unicode="&#x221e;" horiz-adv-x="1460" 
d="M729 696q108 99 154 135.5t106.5 59t128.5 22.5q144 0 236 -87t92 -216q0 -85 -42.5 -165t-119 -117.5t-165.5 -37.5q-70 0 -122.5 18.5t-120 69t-147.5 135.5q-64 -72 -143.5 -133.5t-136 -75.5t-115.5 -14q-89 0 -165 39.5t-115.5 113.5t-39.5 158q0 85 41.5 157
t116.5 113t172 41q51 0 91 -10t82.5 -34t94.5 -69zM616 601q-111 116 -167 150t-111 34q-67 0 -113 -53.5t-46 -129.5q0 -55 23 -90.5t57.5 -58t89.5 -22.5q64 0 117 33t150 137zM844 601q102 -107 154.5 -138.5t112.5 -31.5q74 0 121.5 47.5t47.5 118.5q0 77 -46 126
t-115 49q-60 0 -122 -39t-153 -132z" />
    <glyph glyph-name="integral" unicode="&#x222b;" horiz-adv-x="561" 
d="M172 345l-15 397q-6 154 -6 261q0 349 127 512.5t307 163.5q78 0 122.5 -41t44.5 -105q0 -51 -31.5 -90t-87.5 -39q-33 0 -58 12.5t-37 28t-24 49.5q-13 34 -20 43t-20 9q-46 0 -69.5 -73t-23.5 -256q0 -77 5 -209l16 -424q5 -117 5 -341q0 -354 -117.5 -534t-309.5 -180
q-87 0 -129 42.5t-42 98.5q0 53 34 88t87 35q36 0 60 -12.5t35 -29t26 -65.5q12 -36 33 -36q20 0 39.5 17t29.5 51.5t17.5 131t7.5 174.5q0 152 -6 321z" />
    <glyph glyph-name="approxequal" unicode="&#x2248;" horiz-adv-x="1024" 
d="M993 511q-56 -93 -130.5 -146.5t-141.5 -53.5q-50 0 -132 38l-145 67q-74 34 -116 34q-48 0 -86 -23q-49 -31 -125 -123l-85 95q159 201 287 201q58 0 136 -36l147 -68q74 -34 104 -34q104 0 209 139zM993 850q-56 -93 -130.5 -146.5t-141.5 -53.5q-50 0 -132 38l-145 67
q-74 34 -116 34q-48 0 -86 -23q-49 -31 -125 -123l-85 95q159 201 287 201q58 0 136 -36l147 -68q74 -34 104 -34q104 0 209 139z" />
    <glyph glyph-name="notequal" unicode="&#x2260;" horiz-adv-x="1024" 
d="M993 352h-555l-158 -323l-146 71l123 252h-225v172h310l93 191h-403v172h488l155 317l145 -71l-120 -246h293v-172h-377l-94 -191h471v-172z" />
    <glyph glyph-name="lessequal" unicode="&#x2264;" horiz-adv-x="1024" 
d="M993 255l-961 435v154l961 437v-176l-728 -337l728 -337v-176zM993 0h-961v172h961v-172z" />
    <glyph glyph-name="greaterequal" unicode="&#x2265;" horiz-adv-x="1024" 
d="M993 690l-961 -435v176l728 337l-728 337v176l961 -437v-154zM993 0h-961v172h961v-172z" />
    <glyph glyph-name="lozenge" unicode="&#x25ca;" horiz-adv-x="1012" 
d="M433 0l-425 754l425 733h149l421 -733l-421 -754h-149zM507 151l324 603l-324 581l-324 -581z" />
    <glyph glyph-name="uniFB01" unicode="&#xfb01;" horiz-adv-x="1251" 
d="M947 1482q-39 -133 -57 -259l-30 -7q-77 118 -154 118q-28 0 -52.5 -17.5t-38 -47.5t-37.5 -129t-43 -204h206q112 0 157.5 5t113.5 26q77 24 99 24q29 0 48 -19t19 -53q0 -24 -8.5 -65.5t-58.5 -207.5l-94 -312q-37 -119 -37 -157q0 -19 10 -28t21 -9q41 0 163 87l12 -1
l21 -37l-4 -14q-203 -144 -277 -180t-113 -36q-36 0 -58 26.5t-22 64.5q0 57 16.5 123t92.5 317l38 129l34 111q19 61 21.5 74.5t2.5 22.5q0 35 -33 35q-14 0 -39 -11q-50 -20 -111 -20h-241l-78 -347q-48 -214 -94 -378q-61 -220 -119.5 -333.5t-148.5 -204t-162 -124.5
q-45 -21 -86 -21q-36 0 -76 18q48 124 66 222l32 6q39 -91 100 -91q21 0 40.5 10.5t36.5 34.5t42.5 123t61.5 289l74 387l78 409q-57 2 -91 2q-52 0 -92 -2l-7 9l7 36l11 11q23 8 91 28t105 37q5 15 12 50q19 91 42 134.5t87.5 103.5t165 138t146.5 99.5t99 21.5
q44 0 90 -17zM1029 1292q0 62 39.5 106t100.5 44q49 0 80 -30.5t31 -82.5q0 -66 -36.5 -113t-100.5 -47q-58 0 -86 34t-28 89z" />
    <glyph glyph-name="uniFB02" unicode="&#xfb02;" horiz-adv-x="1251" 
d="M1300 1500l24 -25q-34 -110 -86 -307l-95 -363l-78 -305q-36 -140 -51 -213.5t-16.5 -87.5t-1.5 -25q0 -20 10.5 -30.5t23.5 -10.5q15 0 42 14.5t103 66.5l13 -1l20 -37l-3 -13q-192 -135 -256 -170.5t-109 -35.5q-41 0 -65.5 29t-24.5 77q0 51 9.5 97t58.5 235
q215 818 215 921q0 40 -59 40q-32 0 -60 -4q-16 -69 -24 -129l-30 -7q-77 118 -154 118q-28 0 -52.5 -17.5t-38 -47t-38.5 -132.5t-42 -201h23q20 0 111.5 5t119.5 11l10 -16q-21 -57 -29 -95l-11 -10q-35 2 -138 2q-83 0 -107 -2l-78 -347q-48 -214 -94 -378
q-61 -220 -119.5 -333.5t-148.5 -204t-162 -124.5q-45 -21 -86 -21q-36 0 -76 18q48 124 66 222l32 6q39 -91 100 -91q21 0 40.5 10.5t36.5 34.5t42.5 123t61.5 289l74 387l78 409q-57 2 -91 2q-52 0 -92 -2l-7 9l18 47q23 8 91 28t105 37q3 7 13 54q16 74 29.5 107t47 73
t117.5 111t156.5 123t109 65.5t81.5 13.5q42 0 88 -17q-12 -42 -18 -66q260 36 371 84z" />
    <glyph glyph-name="glyph368" horiz-adv-x="682" 
d="M740 1569l-57 -28q-106 105 -383 335l10 23l12 5l222 -27l13 -10q55 -92 75 -122q26 -39 104 -163z" />
    <glyph glyph-name="glyph369" horiz-adv-x="682" 
d="M744 1589q-55 0 -83.5 34t-28.5 75q0 64 48 112t111 48q53 0 82 -34t29 -75q0 -57 -45.5 -108.5t-112.5 -51.5zM282 1589q-55 0 -83.5 34t-28.5 75q0 62 46.5 111t112.5 49q53 0 82 -34t29 -75q0 -61 -48 -110.5t-110 -49.5z" />
    <glyph glyph-name="glyph370" horiz-adv-x="682" 
d="M791 1550l-13 -12h-56l-193 213l-286 -213h-63l-10 14l315 352h141zM556 1842zM932 1646z" />
    <glyph glyph-name="glyph371" horiz-adv-x="682" 
d="M236 1794h645l-39 -145h-647z" />
    <glyph glyph-name="glyph372" horiz-adv-x="682" 
d="M1107 1877q-282 -183 -475 -330l-52 27l7 13l144 169q46 56 93 112l16 10l131 12l122 15l10 -5zM687 1877q-248 -159 -475 -331l-52 28l7 13l144 169q46 56 93 112l16 10l131 12l122 15l10 -5z" />
    </font>
</defs>
</svg>
