<?xml version="1.0" standalone="no"?>
<!DOCTYPE svg PUBLIC "-//W3C//DTD SVG 1.1//EN" "http://www.w3.org/Graphics/SVG/1.1/DTD/svg11.dtd" >
<svg xmlns="http://www.w3.org/2000/svg" xmlns:xlink="http://www.w3.org/1999/xlink" version="1.1">
<metadata>
Created by FontForge 20200427 at Wed Jun 16 21:15:24 2010
 By www
Copyright 1981-1983, 1989,1993, 1998 Heidelberger Druckmaschinen AG. All rights reserved. The digitally encoded machine readable outline data for producing the Typefaces licensed are the property of Heidelberger Druckmaschinen AG and/or its subsidiaries, represented by Linotype Library GmbH, Dupont Strasse 1, 61352 Bad Homburg Germany. Portions (c) 1996-1998 Microsoft Corporation. All Rights Reserved.
</metadata>
<defs>
<font id="PalatinoLinotypeW02" horiz-adv-x="1024" >
  <font-face 
    font-family="PalatinoLinotypeW02"
    font-weight="400"
    font-stretch="normal"
    units-per-em="2048"
    panose-1="2 4 5 2 5 5 5 3 3 4"
    ascent="1478"
    descent="-570"
    x-height="932"
    cap-height="1487"
    bbox="-332 -578 2197 1945"
    underline-thickness="120"
    underline-position="-268"
    unicode-range="U+000D-FB02"
  />
<missing-glyph horiz-adv-x="0" 
 />
    <glyph glyph-name=".notdef" horiz-adv-x="0" 
 />
    <glyph glyph-name="glyph1" horiz-adv-x="0" 
 />
    <glyph glyph-name="uni000D" unicode="&#xd;" horiz-adv-x="0" 
 />
    <glyph glyph-name="space" unicode=" " horiz-adv-x="512" 
 />
    <glyph glyph-name="space" unicode="&#xa0;" horiz-adv-x="512" 
 />
    <glyph glyph-name="exclam" unicode="!" horiz-adv-x="569" 
d="M379 1428v-106q0 -6 -22 -234q-33 -336 -56 -650l-55 -50l-19 10q-8 201 -47 593l-20 226q-4 62 -4 131q81 38 156 80h67zM261 221q48 0 83.5 -34t35.5 -86q0 -49 -35 -84t-84 -35q-50 0 -85 35t-35 84q0 50 35 85t85 35z" />
    <glyph glyph-name="quotedbl" unicode="&#x22;" horiz-adv-x="760" 
d="M175 960l-60 355q-9 50 -9 60q0 30 25 53t65 23q41 0 65.5 -23t24.5 -52q0 -11 -8 -61l-61 -355h-42zM544 960l-60 355q-9 50 -9 60q0 30 25 53t65 23q41 0 65.5 -23t24.5 -52q0 -11 -8 -61l-61 -355h-42z" />
    <glyph glyph-name="quotedbl" unicode="&#x2ba;" horiz-adv-x="760" 
d="M175 960l-60 355q-9 50 -9 60q0 30 25 53t65 23q41 0 65.5 -23t24.5 -52q0 -11 -8 -61l-61 -355h-42zM544 960l-60 355q-9 50 -9 60q0 30 25 53t65 23q41 0 65.5 -23t24.5 -52q0 -11 -8 -61l-61 -355h-42z" />
    <glyph glyph-name="numbersign" unicode="#" horiz-adv-x="981" 
d="M172 0l69 381h-148l24 134h148l76 423h-148l24 133h148l60 334h74l-60 -334h227l60 334h75l-60 -334h147l-23 -133h-148l-76 -423h147l-24 -134h-147l-69 -381h-74l68 381h-227l-69 -381h-74zM339 515h227l76 423h-227z" />
    <glyph glyph-name="dollar" unicode="$" 
d="M58 60q17 109 28 285l9 8h45l8 -9q3 -155 6 -178q61 -61 126.5 -93t166.5 -32v566q-104 15 -169.5 32.5t-118 61t-77.5 104t-25 138.5q0 150 95.5 268t294.5 149q-1 96 -4 126l10 9h71l10 -9q-2 -8 -4 -122q242 -19 334 -82l4 -13q-8 -31 -12.5 -58.5t-8.5 -76.5l-8 -104
l-8 -9h-40l-8 8q-4 98 -17 165q-83 94 -236 97v-528q123 -17 195.5 -36.5t126.5 -60t80 -100t26 -135.5q0 -119 -52 -217.5t-137 -156t-239 -88.5q2 -153 6 -198l-9 -9h-74l-10 9q2 33 4 194q-212 4 -381 80zM447 1287q-63 -7 -111.5 -33t-85.5 -89.5t-37 -157.5
q0 -127 69 -175t165 -58v513zM530 46q116 3 191.5 91t75.5 216q0 100 -55.5 160t-211.5 84v-551z" />
    <glyph glyph-name="percent" unicode="%" horiz-adv-x="1720" 
d="M1303 1466l-789 -1531l-12 -6h-72l-6 10l789 1531l10 7h74zM91 1093q0 137 98 238.5t250 101.5q93 0 169 -39t116.5 -117.5t40.5 -167.5q0 -86 -43 -171.5t-126.5 -133t-177.5 -47.5q-138 0 -232.5 95.5t-94.5 240.5zM249 1085q0 -146 48.5 -211t127.5 -65q88 0 136 82
t48 222q0 126 -42 199t-130 73q-89 0 -138.5 -79.5t-49.5 -220.5zM955 308q0 137 97.5 238.5t249.5 101.5q94 0 170 -39t116 -117.5t40 -167.5q0 -84 -41.5 -169t-124.5 -134t-180 -49q-140 0 -233.5 96t-93.5 240zM1113 300q0 -85 18 -146t60 -95.5t98 -34.5
q87 0 135.5 80.5t48.5 223.5q0 123 -40.5 197.5t-131.5 74.5q-84 0 -136 -75.5t-52 -224.5z" />
    <glyph glyph-name="ampersand" unicode="&#x26;" horiz-adv-x="1593" 
d="M1532 100q-81 -57 -168 -129q-32 -7 -70 -7q-89 0 -179 37t-191 120q-132 -98 -222 -128t-192 -30q-203 0 -310.5 121.5t-107.5 278.5q0 268 314 437q-60 144 -60 261q0 48 13.5 91.5t30.5 67.5t59 60.5t81 69t74.5 46t76.5 13.5q92 0 138.5 -52.5t46.5 -135.5
q0 -209 -291 -407q63 -127 190 -286t224 -235q102 112 102 245q0 53 -12.5 90t-32.5 49.5t-71 12.5q-54 1 -107 2l-9 13l65 95q59 -9 171 -9q59 0 179 5q122 4 230 4l9 -9q-15 -59 -20 -121l-10 -8q-115 19 -248 19q-5 0 -30 -1q12 -42 12 -89q0 -176 -167 -345
q183 -131 360 -131q26 0 45 6.5t61 29.5l12 -6l7 -31zM542 882q82 58 135 136t53 149q0 49 -30.5 90.5t-79.5 41.5q-51 0 -90.5 -42.5t-39.5 -127.5q0 -97 52 -247zM859 172q-186 197 -266.5 308.5t-153.5 241.5q-99 -70 -135 -142t-36 -148q0 -137 99.5 -245t240.5 -108
q129 0 251 93z" />
    <glyph glyph-name="quotesingle" unicode="'" horiz-adv-x="426" 
d="M192 960l-60 355q-9 50 -9 60q0 30 25 53t65 23q41 0 65.5 -23t24.5 -52q0 -11 -8 -61l-61 -355h-42z" />
    <glyph glyph-name="quotesingle" unicode="&#x2b9;" horiz-adv-x="426" 
d="M192 960l-60 355q-9 50 -9 60q0 30 25 53t65 23q41 0 65.5 -23t24.5 -52q0 -11 -8 -61l-61 -355h-42z" />
    <glyph glyph-name="parenleft" unicode="(" horiz-adv-x="682" 
d="M558 -473q-209 177 -323 425.5t-114 531.5q0 230 64 409t178.5 329t202.5 213l11 -1l31 -39v-11q-312 -336 -312 -878q0 -300 69.5 -512.5t242.5 -420.5l-1 -12l-37 -33z" />
    <glyph glyph-name="parenright" unicode=")" horiz-adv-x="682" 
d="M124 -473l-12 1l-38 33v12q173 208 242.5 421t69.5 512q0 542 -312 878v11l31 39l11 1q154 -113 299.5 -361.5t145.5 -589.5q0 -276 -110.5 -524.5t-326.5 -432.5z" />
    <glyph glyph-name="asterisk" unicode="*" horiz-adv-x="797" 
d="M112 831q-35 92 -54 123l10 28q20 5 105 39.5t154 66.5l-260 125q-2 0 -8 2l-4 22q21 34 71 124h24l207 -216l59 285l16 11q66 -22 130 -36l5 -20q-23 -39 -67 -112.5t-82 -151.5q82 11 139 22q128 25 141 25l19 -14q3 -51 25 -131l-20 -16q-133 33 -304 53
q47 -89 70 -129q53 -92 62 -115l-3 -26q-26 -12 -75 -42q-32 -19 -47 -27l-25 9l-43 302l-218 -204z" />
    <glyph glyph-name="plus" unicode="+" 
d="M994 576h-424v-424h-116v424h-424v112h424v424h116v-424h424v-112z" />
    <glyph glyph-name="comma" unicode="," horiz-adv-x="512" 
d="M-14 -288q62 103 89 155t47.5 109.5t27 88.5t18.5 128q5 2 56 14q70 17 148 46l25 -28q-127 -295 -301 -499l-85 -39z" />
    <glyph glyph-name="hyphen" unicode="-" horiz-adv-x="682" 
d="M45 430v14l45 134h535v-15l-48 -133h-532z" />
    <glyph glyph-name="hyphen" unicode="&#x2011;" horiz-adv-x="682" 
d="M45 430v14l45 134h535v-15l-48 -133h-532z" />
    <glyph glyph-name="hyphen" unicode="&#x2010;" horiz-adv-x="682" 
d="M45 430v14l45 134h535v-15l-48 -133h-532z" />
    <glyph glyph-name="hyphen" unicode="&#xad;" horiz-adv-x="682" 
d="M45 430v14l45 134h535v-15l-48 -133h-532z" />
    <glyph glyph-name="period" unicode="." horiz-adv-x="512" 
d="M256 221q48 0 83.5 -34t35.5 -86q0 -49 -35 -84t-84 -35q-50 0 -85 34.5t-35 84.5t35 85t85 35z" />
    <glyph glyph-name="slash" unicode="/" horiz-adv-x="656" 
d="M0 -236l540 1717l10 8h100l6 -10l-540 -1716l-11 -9h-98z" />
    <glyph glyph-name="zero" unicode="0" 
d="M62 611q0 178 18 320.5t79.5 254t154 167t210.5 55.5q134 0 235.5 -69t146 -212t44.5 -389q0 -400 -122.5 -589t-339.5 -189q-109 0 -192.5 47t-137 136t-75 210t-21.5 258zM234 669q0 -190 28.5 -346t95 -224.5t158.5 -68.5q89 0 148.5 61t87 209t27.5 366
q0 342 -65 506t-215 164q-131 0 -198 -127t-67 -540z" />
    <glyph glyph-name="one" unicode="1" 
d="M153 1130l-18 6l-10 82l10 10q100 29 253 93t219 98l26 -10q-16 -438 -16 -526v-371q0 -137 3 -257.5t9 -142t20.5 -33.5t40.5 -15.5t155 -10.5l7 -8v-45l-7 -8q-219 8 -309 8q-68 0 -333 -8l-7 8v45l8 8q150 11 171.5 16t33 17.5t18.5 47.5t11.5 207t4.5 176v394
q0 290 -1.5 315t-17.5 25q-4 0 -11 -2t-44 -18l-99 -44q-62 -27 -117 -57z" />
    <glyph glyph-name="two" unicode="2" 
d="M46 -10l-12 10v46l335 355q207 219 268 339t61 224q0 122 -74 203t-200 81q-81 0 -141 -25t-80.5 -56t-59.5 -174l-9 -8h-41l-10 9q23 135 32 267q94 92 175.5 117.5t170.5 25.5q106 0 203 -40t156 -129.5t59 -207.5q0 -88 -34.5 -176.5t-101 -171t-181.5 -197.5
l-312 -318h395q182 0 303 13l7 -8q-6 -34 -6 -89q0 -50 6 -79l-7 -11q-72 4 -221 7t-197 3q-97 0 -261 -2.5t-223 -7.5z" />
    <glyph glyph-name="three" unicode="3" 
d="M104 23q-18 118 -67 284l5 15l37 14l14 -7q35 -92 75 -152t115 -92t162 -32q110 0 174.5 46t99.5 125t35 178q0 133 -69.5 209t-192.5 76q-42 0 -75 -8t-102 -36l-11 10l22 109q81 -5 108 -5q117 0 185.5 83t68.5 196q0 99 -71.5 166t-176.5 67q-69 0 -130.5 -28
t-101.5 -68q-17 -34 -54 -134l-10 -9h-45l-8 9l60 232q125 141 339 141q163 0 263.5 -86.5t100.5 -217.5q0 -100 -59 -183.5t-164 -157.5q173 -21 243.5 -103.5t70.5 -199.5q0 -192 -174 -345.5t-402 -153.5q-68 0 -127 11.5t-138 46.5z" />
    <glyph glyph-name="four" unicode="4" 
d="M329 -8l-8 8v43l8 8q148 4 175.5 9t40.5 21t19.5 78t6.5 132v74h-219q-191 0 -323 -6l-17 54q174 326 581 944l141 57l25 -12q-11 -170 -11 -421l-3 -282v-207q138 1 213 6l9 -10q-2 -38 -2 -55q1 -33 3 -65l-10 -9q-97 6 -162 6h-51v-67q0 -112 6 -159t19 -60.5
t52.5 -20t136.5 -7.5l9 -8v-43l-8 -8q-176 8 -295 8q-194 0 -336 -8zM144 492h427l9 711q-96 -137 -242 -376t-194 -335z" />
    <glyph glyph-name="five" unicode="5" 
d="M131 14q-24 78 -99 258l2 13l35 20l12 -3q83 -151 103.5 -171.5t93.5 -48t154 -27.5q101 0 179 44t116 130t38 195q0 107 -37.5 184.5t-114.5 117.5t-166 40q-56 0 -101.5 -15t-76 -38.5t-72.5 -69.5l-41 12l11 215q4 61 4 123v178q0 80 -5 153q-3 45 -3 57l13 10
q153 -12 349 -12q149 0 357 12l4 -10q-7 -49 -7 -91q0 -21 3 -70l-10 -6q-114 8 -306 8q-261 0 -303 -2q-15 -118 -21 -416q82 60 148 81.5t143 21.5q109 0 209 -50t149.5 -145t49.5 -205q0 -203 -167.5 -373.5t-428.5 -170.5q-70 0 -115.5 12t-98.5 39z" />
    <glyph glyph-name="six" unicode="6" 
d="M864 1383v-12q-109 -23 -248.5 -109t-234.5 -231t-110 -350q34 24 78 58q57 43 83.5 59t71 28t102.5 12q103 0 185 -45.5t123 -134t41 -206.5q0 -167 -81 -279.5t-172 -161t-209 -48.5q-201 0 -312 150.5t-111 391.5q0 160 46.5 307.5t141.5 267t242.5 212.5t290.5 126z
M252 429q0 -99 28.5 -196t91.5 -150t148 -53q73 0 135 41t94.5 128.5t32.5 184.5t-32 173.5t-93 119t-142 42.5q-60 0 -120 -29t-92.5 -66t-41.5 -78.5t-9 -116.5z" />
    <glyph glyph-name="seven" unicode="7" 
d="M135 -8l-21 21q36 54 149 232l183 292l172 281l150 258q48 84 76 136l-10 10h-310q-117 0 -208 -4t-107 -11.5t-22.5 -18.5t-14.5 -76l-18 -141l-9 -8h-42l-9 8l5 274q0 47 -5 145l20 10q55 -6 223.5 -13t225.5 -7q203 0 443 14l8 -8v-52l-144 -255
q-131 -234 -299 -554.5t-245 -524.5l-10 -8q-57 5 -86 5q-46 0 -95 -5z" />
    <glyph glyph-name="eight" unicode="8" 
d="M336 709q-111 59 -168.5 135.5t-57.5 185.5q0 153 113 262.5t308 109.5q99 0 183.5 -34.5t130.5 -103t46 -152.5q0 -88 -54 -168.5t-191 -163.5v-9q117 -56 173.5 -95t92.5 -105.5t36 -153.5q0 -119 -68.5 -228.5t-180.5 -166.5t-232 -57q-175 0 -289 98t-114 261
q0 132 78.5 227.5t193.5 148.5v9zM569 805q107 67 145 134.5t38 145.5q0 115 -66 182t-177 67q-106 0 -176 -59.5t-70 -166.5q0 -81 45.5 -140.5t260.5 -162.5zM417 673q-118 -70 -164 -150.5t-46 -182.5q0 -143 80 -224.5t206 -81.5q86 0 156 40t104.5 109.5t34.5 151.5
q0 118 -82.5 184t-288.5 154z" />
    <glyph glyph-name="nine" unicode="9" 
d="M133 -8v19q278 64 437 244.5t179 441.5q-147 -175 -329 -175q-115 0 -200.5 55t-126.5 143t-41 206q0 217 130.5 348t323.5 131q195 0 315.5 -141t120.5 -406q0 -117 -22 -224.5t-83 -220.5t-161.5 -210t-227 -161.5t-249.5 -81.5zM225 991q0 -87 30.5 -170.5t93.5 -129
t148 -45.5q118 0 190 79.5t72 237.5q0 164 -71 268.5t-195 104.5q-119 0 -193.5 -88t-74.5 -257z" />
    <glyph glyph-name="colon" unicode=":" horiz-adv-x="512" 
d="M256 928q49 0 84 -35t35 -85q0 -49 -35 -84t-84 -35q-50 0 -85 35t-35 84q0 52 35.5 86t84.5 34zM256 221q48 0 83.5 -34t35.5 -86q0 -49 -35 -84t-84 -35q-50 0 -85 34.5t-35 84.5t35 85t85 35z" />
    <glyph glyph-name="semicolon" unicode=";" horiz-adv-x="512" 
d="M292 928q49 0 84 -35.5t35 -84.5t-35 -84t-84 -35q-50 0 -85 35t-35 84q0 51 35.5 85.5t84.5 34.5zM21 -290q61 102 88.5 155t48 110.5t27 88.5t18.5 128q5 1 66.5 16t137.5 45l25 -29q-127 -296 -301 -500l-84 -37z" />
    <glyph glyph-name="less" unicode="&#x3c;" 
d="M994 116l-964 466v100l964 466v-126l-816 -390l816 -390v-126z" />
    <glyph glyph-name="equal" unicode="=" 
d="M994 728h-964v112h964v-112zM994 424h-964v112h964v-112z" />
    <glyph glyph-name="greater" unicode="&#x3e;" 
d="M994 582l-964 -466v126l816 390l-816 390v126l964 -466v-100z" />
    <glyph glyph-name="question" unicode="?" horiz-adv-x="909" 
d="M386 351q-82 63 -82 150q0 59 29 111.5t130 165.5q80 89 118 154t38 129q0 99 -73 164.5t-178 65.5q-59 0 -128 -27q-28 -27 -50 -75l-38 -76l-12 -8l-44 5l-6 14l77 232q117 76 255 76q106 0 194.5 -38.5t139 -114.5t50.5 -171q0 -63 -20.5 -118t-60 -107.5
t-151.5 -152.5q-71 -63 -108.5 -103t-56.5 -77.5t-19 -68.5q0 -52 40 -96l-2 -14l-26 -20h-16zM405 221q50 0 85 -35t35 -85q0 -49 -35 -84t-85 -35q-49 0 -84.5 35t-35.5 84q0 51 36 85.5t84 34.5z" />
    <glyph glyph-name="at" unicode="@" horiz-adv-x="1399" 
d="M1144 183l8 -8q-12 -23 -15 -48q-205 -169 -486 -169q-264 0 -433.5 167t-169.5 426q0 294 212.5 495.5t520.5 201.5q247 0 408.5 -134t161.5 -356q0 -190 -119 -346.5t-264 -156.5q-66 0 -106.5 36.5t-40.5 92.5q0 12 2 33l-11 2q-45 -75 -99.5 -114t-132.5 -39
q-103 0 -154.5 67.5t-51.5 189.5q0 174 106.5 323.5t273.5 149.5q115 0 156 -91l13 70l106 23l11 -11q-26 -97 -71.5 -308t-45.5 -268q0 -48 22.5 -73t61.5 -25q63 0 122.5 55t99 157.5t39.5 230.5q0 227 -140 335.5t-341 108.5q-149 0 -295.5 -74.5t-237.5 -228t-91 -347.5
q0 -152 60.5 -275.5t178 -192.5t279.5 -69q137 0 259.5 48.5t203.5 121.5zM511 524q0 -106 29.5 -151.5t84.5 -45.5q34 0 61.5 15t55.5 48.5t58 99t53.5 167t23.5 158.5q0 60 -29 97t-83 37q-60 0 -114.5 -52.5t-97 -161t-42.5 -211.5z" />
    <glyph glyph-name="A" unicode="A" horiz-adv-x="1593" 
d="M44 -8l-9 8v52l9 8q73 1 94 7.5t37.5 26t66.5 127.5l105 228l272 616q77 181 153 362h65l427 -1004l57 -134q25 -57 57.5 -124t45 -79t31 -18.5t82.5 -7.5l8 -8v-52l-8 -8q-106 9 -191 9q-166 -5 -332 -9l-8 8v52l8 8q112 2 140 9.5t28 34.5q0 22 -14 58l-123 305h-579
l-109 -256q-29 -69 -29 -101q0 -25 27 -37t136 -13l9 -8v-52l-8 -8q-129 8 -226 8q-110 0 -222 -8zM500 553h506l-251 603zM803 1487zM780 -60z" />
    <glyph glyph-name="B" unicode="B" horiz-adv-x="1251" 
d="M36 1349l-8 7v50l8 7q171 -8 264 -8q35 0 277 8q78 2 113 2q135 0 214 -27t127 -95.5t48 -155.5q0 -111 -80 -206t-260 -136q108 -10 178 -29t121 -58.5t80.5 -102.5t29.5 -146q0 -65 -20 -132t-73.5 -133t-129.5 -113t-155.5 -68t-197.5 -21q-24 0 -144 5q-133 3 -144 3
q-68 0 -167 -8l-8 8v33l8 10q58 26 67 36t14.5 177t5.5 255v367l-1 227q0 74 -2 120.5t-5.5 66.5t-11.5 28t-22.5 13.5t-49.5 9.5zM395 824q50 -4 113 -4q207 0 288 74t81 203q0 75 -31 127.5t-97.5 80.5t-180.5 28q-93 0 -164 -15q-9 -90 -9 -314v-180zM397 95
q77 -18 158 -18q143 0 224 46t119.5 127.5t38.5 177.5q0 144 -81.5 230.5t-352.5 86.5q-45 0 -108 -4v-341z" />
    <glyph glyph-name="C" unicode="C" horiz-adv-x="1452" 
d="M1395 169l-38 -93q-222 -113 -474 -113q-361 0 -586.5 205t-225.5 536q0 228 112.5 398.5t297 255t414.5 84.5q133 0 263 -28t217 -67l7 -10q-23 -56 -43 -277l-7 -8h-47l-8 8l-10 170q-73 58 -176.5 90.5t-215.5 32.5q-169 0 -303 -72.5t-208 -210t-74 -336.5
q0 -200 87 -351t237.5 -232t351.5 -81q89 0 171 17t136.5 42t104.5 61z" />
    <glyph glyph-name="D" unicode="D" horiz-adv-x="1585" 
d="M30 1406l8 7q173 -8 236 -8l468 10q200 0 328 -37.5t227.5 -130t151 -215t51.5 -261.5q0 -135 -47 -267t-133.5 -236.5t-197 -168.5t-221.5 -85.5t-227 -21.5q-78 0 -294 6q-71 2 -94 2q-69 0 -167 -8l-8 8v33l8 10q59 30 67.5 37.5t14 175t5.5 255.5v367l-1 227
q0 74 -2 120.5t-7 66.5t-11.5 28t-21 13.5t-49.5 9.5l-76 6l-8 7v50zM400 101q102 -20 235 -20q233 0 372.5 78t208.5 231t69 345q0 283 -151 439t-476 156q-134 0 -258 -20q-8 -164 -8 -370v-314l2 -294q0 -86 6 -231z" />
    <glyph glyph-name="E" unicode="E" horiz-adv-x="1251" 
d="M73 1406l8 7q343 -6 439 -6q328 0 584 6l5 -7q-25 -96 -37 -301l-6 -8h-49l-9 8q1 9 1 16q0 85 -13 162q-63 28 -174.5 36.5t-167.5 8.5q-79 0 -202 -11l-4 -160l-3 -183l-3 -203q108 -6 199 -6q92 0 154 6t72.5 12.5t16 25t9.5 65.5l4 62l8 8h46l8 -8q-2 -109 -5 -219
l5 -225l-8 -8h-46l-8 8l-7 60q-9 70 -13 83.5t-18.5 23.5t-74.5 16t-165 6q-58 0 -177 -5q-5 -84 -5 -280q0 -210 5 -309h184q243 0 304 6t116 29q9 23 29.5 106.5t23.5 104.5l10 7h48l8 -7q-9 -43 -17.5 -150t-8.5 -183l-7 -8q-191 6 -500 6l-272 2q-95 0 -198 -8l-8 8v33
l8 10q59 30 67.5 37.5t14 175t5.5 255.5v367l-1 227q0 74 -2 120.5t-7 66.5t-11.5 28t-21 13.5t-49.5 9.5l-76 6l-8 7v50zM644 1487zM640 -60z" />
    <glyph glyph-name="F" unicode="F" horiz-adv-x="1139" 
d="M436 674v-203l1 -195q1 -109 6 -144.5t14.5 -46t36.5 -18t133 -11.5l8 -6v-50l-8 -8q-254 8 -287 8q-32 0 -286 -8l-8 8v50l8 6q94 4 124.5 10t41 16t17 40t7.5 136l1 213v463l-2 195q-1 114 -5.5 147t-14 44t-36.5 18t-133 11l-8 7v50l8 7q424 -6 495 -6q238 0 488 6
l8 -7q-16 -50 -21 -113.5t-11 -179.5l-8 -8h-47l-7 8q-2 7 -9 77q-5 55 -16 101q-104 35 -287 35q-82 0 -192 -12q-11 -78 -11 -380v-173q127 -2 173 -2q85 0 146 6.5t73 12.5t18.5 22.5t12.5 72.5l6 54l7 8h51l8 -9l-7 -219q0 -38 3 -110q4 -82 4 -127l-9 -8h-50l-7 8
l-4 85q-3 50 -10 73t-23 30t-71 13t-169 6q-101 0 -152 -3z" />
    <glyph glyph-name="G" unicode="G" horiz-adv-x="1563" 
d="M1498 545v-30l-4 -12l-49 -29q-18 -11 -21 -17t-7.5 -59.5t-4.5 -130.5q0 -87 11 -189l-6 -10q-274 -105 -563 -105q-222 0 -401 84t-284 249t-105 392q0 346 236.5 550t617.5 204q280 0 503 -95l7 -11q-18 -67 -42 -281l-8 -7h-46l-8 8l-5 106q-3 52 -6.5 61t-21.5 23.5
t-92.5 46t-149.5 46t-161 14.5q-183 0 -324 -76t-212.5 -221.5t-71.5 -323.5q0 -184 77 -342.5t221 -247.5t335 -89q83 0 169.5 16.5t142.5 46.5q9 32 9 129v111q0 79 -10 98.5t-49.5 27.5t-170.5 10l-9 9v44l9 9l61 -2q157 -5 256 -5q57 0 167 6z" />
    <glyph glyph-name="H" unicode="H" horiz-adv-x="1704" 
d="M59 1413q255 -8 286 -8q33 0 287 8l8 -7v-50l-8 -7q-69 -2 -106.5 -6t-54.5 -15t-22.5 -51.5t-5.5 -112.5l-2 -230v-140q219 -6 415 -6q268 0 408 6v140l-2 195q-1 114 -6 147t-14 44t-36 18t-134 11l-7 7v50l7 7q256 -8 287 -8q34 0 287 8l8 -7v-50l-8 -7
q-70 -2 -107.5 -6t-54.5 -15t-22 -51.5t-6 -112.5l-2 -230v-463l2 -195q1 -113 6 -146t14.5 -44t36 -18.5t133.5 -11.5l8 -6v-50l-8 -8q-256 8 -287 8q-32 0 -287 -8l-7 8v50l7 6q94 4 125 10t41 15.5t17 40.5t7 138l2 211v228q-296 6 -415 6q-122 0 -408 -6v-228l1 -195
q1 -113 6 -146t14.5 -44t36.5 -18.5t133 -11.5l8 -6v-50l-8 -8q-255 8 -287 8q-31 0 -286 -8l-8 8v50l8 6q93 4 124 10t41.5 15.5t17 40.5t7.5 138l1 211v463l-2 195q-1 114 -5.5 147t-14 44t-36.5 18t-133 11l-8 7v50z" />
    <glyph glyph-name="I" unicode="I" horiz-adv-x="690" 
d="M59 1413l125 -4q123 -4 161 -4q34 0 287 8l8 -7v-50l-8 -7q-69 -2 -106.5 -6t-54.5 -15t-22.5 -51.5t-5.5 -112.5l-2 -230v-463l1 -195q1 -113 6 -146t14.5 -44t36.5 -18.5t133 -11.5l8 -6v-50l-8 -8q-5 0 -176 6q-71 2 -111 2q-31 0 -286 -8l-8 8v50l8 6q93 4 124 10
t41.5 15.5t17 40.5t7.5 138l1 211v463l-2 195q-1 114 -5.5 147t-14 44t-36.5 18t-133 11l-8 7v50zM359 1487zM345 -60z" />
    <glyph glyph-name="J" unicode="J" horiz-adv-x="682" 
d="M635 1406v-50l-7 -7q-70 -2 -107.5 -6t-54.5 -15t-22.5 -51.5t-5.5 -112.5l-2 -230v-718q0 -158 -28 -258.5t-98 -186t-144.5 -127t-147.5 -41.5q-21 0 -42 5q2 40 3 80q0 25 -3 74l19 13q51 -38 107 -38q49 0 80.5 18.5t44.5 50t16 115.5t3 144v869l-2 195
q-1 114 -6 147t-14.5 44t-36 18t-133.5 11l-7 7v50l7 7q253 -8 287 -8q35 0 287 8z" />
    <glyph glyph-name="K" unicode="K" horiz-adv-x="1487" 
d="M441 724q251 227 362.5 338.5l184 184t86.5 93.5v65l10 8q76 -4 166 -4q20 0 158 3l10 -9v-47l-8 -8q-93 0 -127 -10.5t-99.5 -64t-150.5 -131.5l-405 -370l602 -557q145 -135 162.5 -147t72.5 -14l7 -8v-42l-7 -8q-58 4 -120 4q-37 0 -162 -4q-91 86 -159.5 152
t-582.5 536v-213l1 -195q1 -113 6 -146t14.5 -44t36.5 -18.5t133 -11.5l8 -6v-50l-8 -8q-5 0 -176 6q-71 2 -111 2q-31 0 -286 -8l-8 8v50l8 6q93 4 124 10t41.5 15.5t17 40.5t7.5 138l1 211v463l-2 195q-1 114 -5.5 147t-14 44t-36.5 18t-133 11l-8 7v50l8 7l125 -4
q123 -4 161 -4q34 0 287 8l8 -7v-50l-8 -7q-69 -2 -106.5 -6t-54.5 -15t-22.5 -51.5t-5.5 -112.5l-2 -230v-210z" />
    <glyph glyph-name="L" unicode="L" horiz-adv-x="1251" 
d="M37 1406l8 7q248 -8 286 -8q34 0 287 8l8 -7v-50l-8 -7q-69 -2 -106.5 -6t-54.5 -15t-22.5 -51.5t-5.5 -112.5l-2 -230v-442q0 -166 2 -232l5 -173h204q244 0 304.5 6t116.5 29q11 25 31.5 115t21.5 104l9 8h49l7 -8q-8 -40 -16.5 -155t-8.5 -186l-8 -8q-190 6 -499 6
l-292 2q-100 0 -204 -8l-8 8v33l8 10q62 32 68 39t12.5 129t6.5 294v429l-2 195q-1 114 -5.5 147t-14 44t-36.5 18t-133 11l-8 7v50z" />
    <glyph glyph-name="M" unicode="M" horiz-adv-x="1937" 
d="M1881 1410l9 -8v-49l-8 -7q-110 -3 -136.5 -11t-37.5 -26.5t-12.5 -72.5t-5.5 -305v-461q0 -100 3 -226t12.5 -146.5t34.5 -30t142 -12.5l8 -7v-49l-9 -8q-163 9 -284 9q-82 0 -279 -9l-9 8v48l8 8q110 3 136.5 11t37.5 26.5t13 73.5t5 304v734l-345 -722
q-130 -271 -227 -510h-39q-56 129 -92 206l-478 993v-699q0 -98 2.5 -225.5t12.5 -147.5t35 -30t142 -12l8 -8v-48l-9 -9l-64 3q-99 5 -170 5q-32 0 -239 -8l-8 8v48l8 9q110 2 136 10t37.5 27t13 71t4.5 307v458q0 91 -2.5 221.5t-12 151t-34.5 30.5t-142 12l-8 8v48l9 9
q69 -5 186 -5q110 0 192 5q84 -194 161 -351l379 -778l342 713q139 289 187 416q96 -5 189 -5q84 0 198 5z" />
    <glyph glyph-name="N" unicode="N" horiz-adv-x="1702" 
d="M66 -7l-9 9v46l9 8q61 1 97.5 7t47 20t14 45t7 140t3.5 156v808q0 51 -18.5 75.5t-50.5 31t-109 7.5l-8 8v47l8 9q138 -5 181 -5q101 0 166 5l319 -414l469 -588q85 -107 173 -203v774q0 36 -3.5 153.5t-8.5 149t-17.5 42.5t-47 16.5t-93.5 6.5l-8 8v46l8 9q81 -5 231 -5
q137 0 199 5l9 -9v-46l-8 -8q-66 -1 -102 -7.5t-45 -21.5t-12.5 -44t-7 -138t-3.5 -157v-475l1 -275q2 -135 4 -271q-50 17 -173 42l-71 84l-213 260l-678 847v-767q0 -46 3.5 -164t8.5 -143t13 -34.5t34.5 -17.5t109.5 -9l8 -8v-47l-8 -8q-52 7 -168 7q-149 0 -261 -7z" />
    <glyph glyph-name="O" unicode="O" horiz-adv-x="1610" 
d="M48 689q0 150 43 280t146.5 240.5t249.5 171t330 60.5q341 0 543 -185.5t202 -506.5q0 -226 -99 -406t-283.5 -280t-414.5 -100q-163 0 -300 54.5t-233.5 162.5t-140 250t-43.5 259zM256 755q0 -122 39.5 -262.5t118 -241t181 -149.5t233.5 -49q155 0 276 71t184 220.5
t63 335.5q0 202 -72 365t-205 237t-295 74q-243 0 -383 -152t-140 -449zM790 1487zM795 -60z" />
    <glyph glyph-name="P" unicode="P" horiz-adv-x="1237" 
d="M59 1413q252 -8 321 -8q94 0 211 5q124 4 153 4q140 0 231.5 -29t151.5 -106t60 -186q0 -90 -42 -174t-117 -143t-152 -84.5t-160 -25.5q-62 0 -138 14l-17 61l9 10q75 -17 122 -17q131 0 210.5 86.5t79.5 221.5q0 136 -82.5 217t-249.5 81q-91 0 -200 -34
q-9 -77 -9 -372v-463l1 -195q1 -113 6 -146t14.5 -44t36.5 -18.5t133 -11.5l8 -6v-50l-8 -8q-255 8 -287 8q-34 0 -286 -8l-8 8v50l8 6q93 4 124 10t41.5 15.5t17 40.5t7.5 138l1 211v463l-2 195q-1 114 -5.5 147t-14 44t-36.5 18t-133 11l-8 7v50z" />
    <glyph glyph-name="Q" unicode="Q" horiz-adv-x="1610" 
d="M541 -252v46l6 12q159 123 254 157q-263 0 -418.5 88.5t-245 264.5t-89.5 388q0 324 214.5 530.5t554.5 206.5q221 0 390 -81t262 -238t93 -372q0 -92 -20.5 -194t-78.5 -209t-150.5 -188t-220 -134t-269.5 -62q84 -12 221 -67q173 -69 258.5 -92.5t147.5 -23.5
q41 0 99 18l10 -7v-34l-4 -10q-14 -11 -44 -27q-86 -49 -114 -78q-17 0 -72 8t-111 24.5t-175 57.5q-254 87 -313 87q-26 0 -52.5 -10.5t-73.5 -38.5l-49 -28zM256 755q0 -122 39.5 -262.5t118 -241t181 -149.5t233.5 -49q155 0 276 71t184 220.5t63 335.5q0 202 -72 365
t-205 237t-295 74q-243 0 -383 -152t-140 -449z" />
    <glyph glyph-name="R" unicode="R" horiz-adv-x="1368" 
d="M42 1406l8 7q183 -8 285 -8q113 0 305 7q71 2 103 2q253 0 343 -92t90 -218q0 -84 -44 -165t-130 -138.5t-237 -86.5q28 -39 101 -135l142 -188q69 -93 148 -196.5t102 -117t39.5 -16.5t52.5 -3l8 -8v-47l-9 -9q-48 6 -114 6q-71 0 -155 -6q-69 84 -217 291
q-172 240 -352 445l10 31q52 -3 81 -3q173 0 271 83t98 230q0 132 -88 199.5t-238 67.5q-105 0 -198 -29q-15 -22 -15 -375v-463l1 -195q1 -113 6 -146t14.5 -44t36.5 -18.5t133 -11.5l8 -6v-50l-8 -8q-5 0 -176 6q-71 2 -111 2q-31 0 -286 -8l-8 8v50l8 6q93 4 124 10
t41.5 15.5t17 40.5t7.5 138l1 211v463l-2 195q-1 114 -5.5 147t-14 44t-36.5 18t-133 11l-8 7v50z" />
    <glyph glyph-name="S" unicode="S" horiz-adv-x="1075" 
d="M79 344l8 8h49l8 -8q5 -128 13.5 -156.5t54 -60t121 -51.5t152.5 -20q106 0 190.5 39t131.5 114.5t47 169.5q0 66 -22.5 115t-63 78.5t-92.5 44t-155 31.5q-100 16 -156.5 29t-112.5 40t-93.5 68.5t-60 102t-22.5 129.5q0 187 130 306.5t349 119.5q87 0 189.5 -21.5
t186.5 -63.5l7 -12q-22 -92 -27 -262l-9 -8h-52l-8 7q-2 120 -6 151t-91 77t-189 46q-85 0 -159 -34t-112 -107t-38 -149q0 -59 23 -104.5t59.5 -72t85 -39.5t177.5 -32q177 -25 257.5 -60.5t129 -112.5t48.5 -186q0 -213 -173.5 -355t-420.5 -142q-207 0 -363 74l-6 13
q10 63 15 294z" />
    <glyph glyph-name="T" unicode="T" horiz-adv-x="1255" 
d="M1207 1413l9 -9q-9 -90 -9 -314l-8 -8h-47l-8 9l-11 92q-8 74 -12.5 90.5t-14.5 24t-65 12.5t-123 5h-189q-8 -226 -8 -261v-583l2 -195q1 -113 5.5 -146.5t14 -44t36.5 -18t134 -11.5l7 -6v-50l-7 -8q-256 8 -286 8q-32 0 -285 -8l-8 8v50l8 6q94 4 124.5 10t41 15.5
t17.5 40.5t7 138l2 211v583q0 16 -8 261h-149q-92 0 -159 -4t-77.5 -20.5t-19.5 -107.5l-10 -92l-9 -9h-46l-8 8q-2 241 -9 314l9 9q174 -8 579 -8q413 0 580 8z" />
    <glyph glyph-name="U" unicode="U" horiz-adv-x="1593" 
d="M30 1406l8 7q248 -8 286 -8q34 0 287 8l8 -7v-50l-8 -7q-69 -2 -106.5 -6t-54.5 -15t-22.5 -51.5t-5.5 -112.5l-2 -230v-318q0 -157 6.5 -230.5t28 -124t65.5 -87t126 -59.5t186 -23q110 0 205.5 30.5t145.5 88.5t65.5 152.5t15.5 262.5v308q0 78 -2.5 214.5t-12 157
t-35 31t-141.5 12.5l-8 8v47l8 9q148 -8 237 -8q76 0 236 8l9 -8v-48l-9 -8q-94 -2 -122.5 -7.5t-40 -16.5t-17 -34t-7.5 -132l-3 -225v-304q0 -182 -14 -287t-62.5 -172.5t-115 -113t-170.5 -70t-216 -24.5q-140 0 -247.5 31t-169.5 82t-89 107.5t-35 133t-8 233.5v384
l-2 195q-1 114 -5.5 147t-14 44t-36.5 18t-133 11l-8 7v50zM811 1487zM805 -60z" />
    <glyph glyph-name="V" unicode="V" horiz-adv-x="1479" 
d="M688 -18q-15 44 -125 336l-340 841q-58 144 -73 163.5t-120 26.5l-9 9v46l9 9q153 -8 260 -8q100 0 265 8l8 -8v-55l-8 -8q-121 0 -144.5 -7.5t-23.5 -28.5q0 -12 32 -106.5t57 -159.5l313 -791l261 656q27 67 79 216t52 179q0 25 -24.5 32t-146.5 17l-9 8v48l9 8
q175 -8 223 -8q39 0 202 8l8 -8v-48l-8 -8q-72 -3 -87 -11t-26.5 -31t-71.5 -158l-312 -768q-105 -257 -149 -399h-101z" />
    <glyph glyph-name="W" unicode="W" horiz-adv-x="2048" 
d="M471 -19l-91 417l-193 823q-23 98 -48 109.5t-108 21.5l-8 8v44l8 9q144 -8 255 -8q83 0 242 8l9 -9v-44l-8 -8q-111 -4 -133.5 -11t-22.5 -33q0 -21 20 -132.5t36 -181.5l157 -693l247 615q97 244 191 511h64q80 -251 165 -487l235 -652l170 597q26 94 64 247t38 177
q0 27 -25 33.5t-144 9.5l-8 9v44l8 8q170 -8 205 -8q32 0 208 8l8 -8v-45l-8 -7q-57 -2 -76 -10.5t-33 -26t-40 -102.5l-58 -186l-103 -337q-22 -73 -81 -296l-111 -414h-102q-104 310 -172 496l-228 617l-199 -494l-107 -280q-42 -111 -67 -181l-55 -158h-101z" />
    <glyph glyph-name="X" unicode="X" horiz-adv-x="1366" 
d="M31 5v48l8 8q67 1 90 12.5t59 57t141 191.5l273 379l-177 301q-20 34 -87.5 131.5t-106 135.5t-57.5 44t-105 6l-9 9v42l9 9l283 47q37 -24 79.5 -79.5t123.5 -195.5l168 -292l382 558q85 -3 103 -3q8 0 93 3l8 -9v-45l-8 -8q-63 -3 -83.5 -11.5t-53 -42.5t-132.5 -169
l-186 -252l-75 -100l339 -548q48 -78 77.5 -116.5t47.5 -46t82 -8.5l8 -8v-49l-8 -8q-95 4 -134 4q-51 0 -154 -4q-60 89 -111 177l-263 449l-73 -101q-144 -198 -339 -525q-65 4 -102 4q-38 0 -101 -4z" />
    <glyph glyph-name="Y" unicode="Y" horiz-adv-x="1366" 
d="M15 1319l-9 9v42l9 9l283 47q30 -21 58.5 -53t83 -119.5t140.5 -244t165 -313.5l102 162l115 192l212 363q39 -4 76 -4q23 0 70 4l8 -8v-19q-50 -55 -155 -199.5t-156.5 -226t-126.5 -205t-82 -148.5t-7 -59v-147l1 -150q1 -87 6.5 -121.5t15 -45t36 -17.5t132.5 -11
l8 -6v-50l-8 -8q-5 0 -176 6q-71 2 -111 2q-32 0 -286 -8l-8 8v50l8 6q95 4 125 10t40.5 15.5t16.5 37t7 112.5l2 171v190q-22 54 -147 259l-88 143q-42 68 -105.5 158.5t-98.5 123t-54 38t-102 5.5zM732 1487zM700 -60z" />
    <glyph glyph-name="Z" unicode="Z" horiz-adv-x="1366" 
d="M36 1v48l241 298l571 735q130 166 175 238h-41l-161 1q-212 0 -341.5 -6.5t-171 -13.5t-51 -19.5t-15.5 -59.5l-14 -132l-9 -9h-47l-9 9q5 76 5 121q0 122 -5 193l9 9q357 -8 499 -8q236 0 620 8l9 -9v-51q-110 -130 -154 -186l-833 -1073l405 -7q121 0 244 6t162 12
t53.5 17.5t19.5 23t16 68.5l22 134l9 8h47l8 -8q-7 -64 -14 -348l-9 -8q-422 8 -666 8q-171 0 -565 -8z" />
    <glyph glyph-name="bracketleft" unicode="[" horiz-adv-x="682" 
d="M587 -366v-52l-9 -10q-1 0 -42 1q-106 4 -144 4q-84 0 -203 -5l-21 18q12 187 12 487q0 885 -1.5 1037.5t-10.5 275.5l18 23q116 -5 190 -5q69 0 202 5l9 -7v-57l-5 -7q-21 -2 -58 -4q-113 -6 -130.5 -13t-27 -22.5t-15 -98t-7 -308t-1.5 -370.5v-415l3 -236
q3 -149 16 -188q4 -13 14.5 -22t38.5 -15q14 -3 163 -6z" />
    <glyph glyph-name="backslash" unicode="\" horiz-adv-x="1241" 
d="M926 -236l-7 -10h-98l-11 9l-540 1716l7 10h99l10 -8z" />
    <glyph glyph-name="bracketright" unicode="]" horiz-adv-x="682" 
d="M85 -418v52l9 10l131 3q34 1 57 10.5t29 31t9.5 68t6 226.5t2.5 342l-1 346l-2 340q-2 174 -8.5 229t-14.5 66.5t-24.5 18.5t-130.5 13q-38 2 -58 4l-5 7v57l9 7q134 -5 202 -5q75 0 190 5l18 -23q-11 -107 -12 -864q0 -548 1.5 -670.5t10.5 -265.5l-21 -18
q-120 5 -203 5q-38 0 -186 -5z" />
    <glyph glyph-name="asciicircum" unicode="^" 
d="M969 671h-127l-330 624l-330 -624h-127l395 749h124z" />
    <glyph glyph-name="underscore" unicode="_" 
d="M0 -328v120h1024v-120h-1024z" />
    <glyph glyph-name="grave" unicode="`" horiz-adv-x="682" 
d="M510 1117l-3 -13l-29 -15l-13 4l-294 374l17 25l13 3l72 -14q23 -5 84 -15z" />
    <glyph glyph-name="a" unicode="a" 
d="M212 678l-39 10l-8 10v124q178 132 346 132q115 0 191 -43t110 -107.5t34 -150.5l-5 -201v-298q0 -61 8.5 -74t19.5 -17.5t41 -7.5l57 -5l8 -9v-40l-8 -8q-73 6 -136 6q-60 0 -144 -6l-15 14l4 161l-218 -170q-55 -23 -120 -23q-80 0 -137.5 29t-88 81t-30.5 126
q0 147 92 229.5t502 140.5q0 148 -66 208.5t-177 60.5q-58 0 -105.5 -17t-54.5 -27.5t-54 -122.5zM676 520q-280 -47 -349 -101t-69 -167q0 -156 155 -156q133 0 263 154v270zM506 1016zM485 -60z" />
    <glyph glyph-name="b" unicode="b" horiz-adv-x="1133" 
d="M-13 1347l-9 9v42l8 9q191 22 322 74l19 -12q-11 -115 -11 -461v-255q19 25 71 76.5t84.5 72.5t89 37t118.5 16q113 0 198.5 -56t127 -149.5t41.5 -199.5q0 -101 -34.5 -192t-81.5 -150q-28 -34 -99 -86q-139 -101 -195.5 -126.5t-146.5 -25.5q-70 0 -127 19.5t-118 61.5
l-81 -76l-33 13q19 182 19 414v530l-4 192q-3 110 -6.5 154.5t-9.5 52.5t-20.5 12t-121.5 4zM316 633v-375q0 -47 4.5 -61.5t40 -44t91.5 -51t116 -21.5q142 0 222.5 110t80.5 279q0 106 -33.5 187.5t-100.5 124.5t-151 43q-99 0 -174.5 -58.5t-95.5 -132.5z" />
    <glyph glyph-name="c" unicode="c" horiz-adv-x="909" 
d="M868 107l-40 -67q-129 -71 -288 -71q-220 0 -340 131t-120 338q0 94 20.5 167.5t52 121.5t69.5 76t128.5 78t136.5 65.5t127 15.5q155 0 254 -59q-19 -113 -29 -252l-9 -8h-41l-9 9q-4 84 -11 113t-79.5 62t-154.5 33t-146 -34.5t-96.5 -113t-32.5 -187.5
q0 -92 26 -179.5t68.5 -145t112.5 -92.5t156 -35q54 0 105.5 14t118.5 46z" />
    <glyph glyph-name="d" unicode="d" horiz-adv-x="1251" 
d="M673 1356v42l8 9q191 22 322 74l19 -12q-11 -115 -11 -461v-655q0 -101 3.5 -176.5t12.5 -89.5t29.5 -23t116.5 -17l9 -8v-38l-9 -9q-108 7 -168 7q-54 0 -154 -7l-11 11q3 98 3 137q0 5 1 38q-55 -40 -110 -89q-81 -72 -106 -90q-46 -23 -131 -23q-138 0 -234.5 68
t-137.5 173.5t-41 216.5q0 113 42.5 217.5t121 152.5t171 99.5t183.5 51.5q127 0 242 -63l-4 223q-2 116 -6 161.5t-10 54t-20.5 12.5t-121.5 4zM844 721q-62 70 -137.5 107t-151.5 37q-84 0 -156.5 -45.5t-104.5 -135t-32 -194.5q0 -175 88.5 -281t222.5 -106
q73 0 129.5 33.5t93 90.5t42.5 114t6 209v171z" />
    <glyph glyph-name="e" unicode="e" horiz-adv-x="981" 
d="M884 147l-32 -72q-104 -67 -185.5 -87t-145.5 -20q-120 0 -227.5 47t-175 159t-67.5 270q0 105 26 189.5t54.5 125.5t96.5 91t144 80t164 30q120 0 211.5 -56.5t128.5 -144.5t37 -187q0 -31 -3 -60l-11 -11q-68 -15 -183 -20t-152 -5h-321q2 -207 104 -305t250 -98
q70 0 134.5 24t136.5 67zM243 556q18 -3 138.5 -7t178.5 -4q139 0 169 5q1 24 1 37q0 155 -63 230.5t-172 75.5q-119 0 -185.5 -85t-66.5 -252zM522 1016zM510 -60z" />
    <glyph glyph-name="f" unicode="f" horiz-adv-x="682" 
d="M576 51l8 -8v-42l-8 -9q-31 0 -117 4q-78 4 -161 4q-108 0 -241 -8l-8 9v42l8 8q97 6 110 9t22 12.5t12.5 29t8 129t4.5 165.5v386l-129 -7l-9 8v25l7 10l131 67v60q0 100 9 151.5t33.5 95t85.5 110t107 109t80 57t80 14.5q38 0 82 -15l-1 -164l-23 -9q-56 50 -130 50
q-52 0 -90 -21.5t-52 -70t-14 -160.5v-207h107q83 0 157 6l9 -11l-18 -88l-9 -10q-30 1 -39 1l-130 1h-77v-403q0 -32 4.5 -146.5t8.5 -134.5t13.5 -29t31 -13t137.5 -7z" />
    <glyph glyph-name="g" unicode="g" horiz-adv-x="1139" 
d="M1103 884l8 -18q-41 -63 -51 -82h-186q28 -55 28 -115q0 -71 -32.5 -138t-90.5 -114t-131.5 -75t-167.5 -28h-46q-59 -47 -76 -70t-17 -47q0 -44 40.5 -62t167.5 -18l224 3q106 0 162.5 -25t91.5 -89.5t35 -136.5q0 -110 -71.5 -219.5t-206.5 -166.5t-288 -57
q-87 0 -163.5 19t-134 57.5t-92.5 100.5t-35 129q0 37 11 77.5t42 87.5l181 101q-87 27 -109.5 53.5t-22.5 63.5q0 38 25 90l161 116q-142 37 -191.5 111t-49.5 162q0 81 35 154.5t105.5 117.5t158 69.5t159.5 25.5q125 0 238 -81q181 0 289 4zM290 652q0 -61 24 -131
t77.5 -106t120.5 -36q89 0 153.5 58t64.5 181q0 104 -59 187t-167 83q-91 0 -152.5 -59.5t-61.5 -176.5zM583 -19q-161 0 -185.5 -4t-69.5 -34t-73.5 -81.5t-28.5 -115.5q0 -113 84 -184t224 -71q105 0 194 44t131.5 118t42.5 142t-35.5 116.5t-92 59t-191.5 10.5z" />
    <glyph glyph-name="h" unicode="h" horiz-adv-x="1192" 
d="M340 1481l19 -12q-11 -115 -11 -461v-247q84 69 156 137q21 19 40 28t61.5 19t87.5 10q76 0 147.5 -31t108 -73.5t50.5 -100.5t14 -143v-176q0 -17 5 -249q3 -95 21.5 -113t123.5 -18l8 -8v-43l-8 -8q-127 8 -172 8q-23 0 -146 -8l-12 11q13 130 13 339v131
q0 118 -5.5 170t-33.5 94.5t-74.5 66t-112.5 23.5q-68 0 -113.5 -18.5t-92.5 -62.5t-56.5 -73.5t-9.5 -113.5v-178q0 -22 4 -141.5t8.5 -139.5t13.5 -29t22 -11.5t108 -8.5l9 -8v-42l-8 -9q-125 8 -241 8q-115 0 -240 -8l-9 9v42l9 8q97 6 109.5 9t22 12.5t13 29t8 129
t4.5 165.5v518l-4 212q-3 111 -6.5 154t-9.5 51t-21 12t-121 4l-9 9v42l8 9q191 22 322 74z" />
    <glyph glyph-name="i" unicode="i" horiz-adv-x="596" 
d="M288 1400q47 0 80 -33t33 -80q0 -46 -33 -79t-80 -33q-46 0 -79.5 32.5t-33.5 79.5t33.5 80t79.5 33zM373 953l19 -13q-11 -131 -11 -333v-226q0 -22 4 -141.5t8.5 -139.5t13.5 -29t22 -11.5t108 -8.5l9 -8v-42l-8 -9q-125 8 -241 8q-115 0 -240 -8l-9 9v42l9 8
q97 6 109.5 9t22 12.5t13 29t8 129t4.5 165.5v197q0 40 -4 109t-6.5 85t-15.5 23.5t-52 7.5l-84 1l-9 8v43l8 8q191 23 322 75zM295 -60z" />
    <glyph glyph-name="j" unicode="j" horiz-adv-x="479" 
d="M242 1400q46 0 79 -32.5t33 -80.5q0 -46 -33 -79t-79 -33q-47 0 -80 33t-33 79q0 47 33 80t80 33zM-9 870l9 8q190 23 322 75l18 -13q-11 -131 -11 -367v-184l3 -319q0 -165 -27 -305t-121 -239.5t-217 -99.5q-7 0 -21 1l-10 57l9 13q22 -2 35 -2q33 0 65 18.5t58 57.5
t38 96.5t16.5 180t4.5 163.5v582q0 40 -3.5 108.5t-6.5 85.5t-16.5 24t-50.5 7l-85 1l-9 8v43z" />
    <glyph glyph-name="k" unicode="k" horiz-adv-x="1139" 
d="M364 1481l19 -12q-11 -115 -11 -461v-469q34 20 134 100.5t211.5 184t114.5 112.5q85 -3 102 -3q23 0 93 3l9 -9v-39l-8 -9q-50 -3 -76.5 -13t-108 -66t-192.5 -147l-97 -79q53 -62 185.5 -194.5t214.5 -205.5t107 -83.5t53 -10.5v-43q-37 -7 -191 -61q-104 90 -132 119
l-74 76l-88 89q-41 41 -110 104l-147 136v-119q0 -22 4 -141.5t8.5 -139.5t13.5 -29t22 -11.5t108 -8.5l9 -8v-42l-8 -9q-125 8 -241 8q-115 0 -240 -8l-9 9v42l9 8q97 6 109.5 9t22 12.5t13 29t8 129t4.5 165.5v518l-4 212q-3 111 -6.5 154t-9.5 51t-21 12t-121 4l-9 9v42
l8 9q191 22 322 74z" />
    <glyph glyph-name="l" unicode="l" horiz-adv-x="596" 
d="M374 1481l19 -12q-11 -115 -11 -461v-627q0 -22 4 -141.5t8.5 -139.5t13.5 -29t22 -11.5t108 -8.5l9 -8v-42l-8 -9q-125 8 -241 8q-115 0 -240 -8l-9 9v42l9 8q97 6 109.5 9t22 12.5t13 29t8 129t4.5 165.5v518l-4 212q-3 111 -6.5 154t-9.5 51t-21 12t-121 4l-9 9v42
l8 9q191 22 322 74z" />
    <glyph glyph-name="m" unicode="m" horiz-adv-x="1808" 
d="M368 953l19 -13q-6 -66 -8 -158l95 87q40 37 53 47.5t61 24.5t101 14q100 0 175 -49.5t111 -136.5q135 128 157.5 142t71.5 28.5t98 14.5q79 0 145 -34t105 -89t45.5 -119t6.5 -176v-105q0 -17 6 -249q2 -95 21 -113t123 -18l8 -8v-43l-8 -8q-127 8 -172 8q-25 0 -145 -8
l-13 11q13 130 13 339v120q0 159 -15 222.5t-70 104t-131 40.5q-54 0 -101 -21.5t-84.5 -64t-41.5 -79t-4 -134.5v-125q0 -44 4 -165t8.5 -141t14 -28.5t22 -11t107.5 -8.5l9 -8v-42l-8 -9q-125 8 -241 8q-107 0 -240 -8l-9 9v42l9 8q97 6 109.5 9t22 12.5t13 29t8 129
t4.5 165.5v114q0 113 -15.5 174t-66.5 103t-128 42q-60 0 -109.5 -23.5t-81 -58t-39 -64.5t-7.5 -130v-148q0 -44 4 -165t8.5 -141t14 -28.5t22 -11t107.5 -8.5l9 -8v-42l-8 -9q-125 8 -241 8q-115 0 -240 -8l-9 9v42l9 8q97 6 109.5 9t22 12.5t13 29t8 129t4.5 165.5v197
q0 40 -4 109t-6.5 85t-15.5 23.5t-52 7.5l-84 1l-9 8v43l8 8q191 23 322 75z" />
    <glyph glyph-name="n" unicode="n" horiz-adv-x="1192" 
d="M342 953l19 -13q-6 -67 -8 -176q80 66 152 134q21 19 39.5 28t61.5 19t88 10q76 0 147.5 -31t108 -73.5t50.5 -100.5t14 -143v-176q0 -17 5 -249q2 -95 21 -113t124 -18l8 -8v-43l-8 -8q-127 8 -172 8q-26 0 -146 -8l-12 11q13 130 13 339v131q0 118 -5.5 170t-33.5 94.5
t-75 66t-112 23.5q-52 0 -89 -10.5t-83 -43t-68 -61t-26.5 -53t-4.5 -104.5v-174q0 -22 4 -141.5t8.5 -139.5t13.5 -29t22 -11.5t108 -8.5l9 -8v-42l-8 -9q-125 8 -241 8q-115 0 -240 -8l-9 9v42l9 8q97 6 109.5 9t22 12.5t13 29t8 129t4.5 165.5v197q0 40 -4 109t-6.5 85
t-15.5 23.5t-52 7.5l-84 1l-9 8v43l8 8q191 23 322 75z" />
    <glyph glyph-name="o" unicode="o" horiz-adv-x="1118" 
d="M68 458q0 119 49 229.5t170.5 191t288.5 80.5q210 0 342 -132.5t132 -340.5q0 -229 -151.5 -377t-365.5 -148q-140 0 -250 75.5t-162.5 184.5t-52.5 237zM257 527q0 -140 36 -250.5t114 -177.5t178 -67q118 0 195 93.5t77 281.5q0 213 -83.5 349t-240.5 136
q-130 0 -203 -94t-73 -271zM560 1016zM545 -60z" />
    <glyph glyph-name="p" unicode="p" horiz-adv-x="1231" 
d="M370 965l19 -12q-10 -114 -11 -202q136 124 189.5 164t184.5 40q82 0 149 -22.5t124 -74t90 -129t33 -179.5q0 -72 -23 -146t-60.5 -137t-60 -83.5t-92.5 -61.5q-63 -38 -125 -82q-43 -31 -60 -40t-57 -18t-85 -9q-104 0 -207 53v-213q0 -22 4 -141.5t8.5 -139.5
t13.5 -29t22 -11.5t108 -8.5l9 -8v-42l-8 -9q-125 8 -240 8t-240 -8l-9 9v42l9 8q96 6 109 9t22.5 12.5t13 30.5t8 134t4.5 170v766q0 52 -4.5 120.5t-7.5 79.5t-14.5 18t-51.5 7l-84 1l-9 8v43l8 8q191 23 321 75zM378 198q46 -47 114 -81.5t150 -34.5q97 0 171.5 49
t115.5 143.5t41 209.5q0 93 -36.5 173t-113 126t-162.5 46q-53 0 -103 -18.5t-93.5 -54.5t-62.5 -68.5t-20 -54t-1 -47.5v-388z" />
    <glyph glyph-name="q" unicode="q" horiz-adv-x="1147" 
d="M992 950l37 -22q-29 -79 -36.5 -123t-11.5 -139.5t-4 -220.5v-632q0 -22 4 -141.5t8.5 -139.5t14 -29t22 -11.5t107.5 -8.5l9 -8v-42l-8 -9q-125 8 -241 8q-107 0 -240 -8l-8 9v42l8 8q97 6 109.5 9t22 12.5t13 30.5t8 134t4.5 170v297l-214 -134q-24 -15 -28.5 -17
t-31.5 -5t-61 -3q-183 0 -289.5 134.5t-106.5 317.5q0 122 47 232q36 82 116 140q24 17 177 102q96 52 207 52q127 0 263 -70zM810 769q-34 34 -104 69t-148 35q-133 0 -216 -104t-83 -272q0 -111 41.5 -212.5t113 -146.5t155.5 -45q134 0 241 132q3 250 3 286q0 166 -3 258
z" />
    <glyph glyph-name="r" unicode="r" horiz-adv-x="809" 
d="M384 953l19 -13q-6 -58 -9 -206l75 95q37 47 65.5 72.5t66.5 39.5t78 14q44 0 83 -18l7 -14q-16 -133 -18 -234h-45q-40 92 -129 92q-62 0 -108 -39.5t-61.5 -99t-15.5 -150.5v-111q0 -30 4 -147t8.5 -135t14 -26.5t25 -11.5t142.5 -10l9 -8v-42l-9 -9q-133 8 -278 8
q-115 0 -240 -8l-9 9v42l9 8q97 6 109.5 9t22 12.5t13 29t8 129t4.5 165.5v197q0 40 -4 109t-6.5 85t-15.5 23.5t-52 7.5l-84 1l-9 8v43l8 8q191 23 322 75z" />
    <glyph glyph-name="s" unicode="s" horiz-adv-x="868" 
d="M101 294h43l9 -9q2 -84 10 -144q31 -47 107 -76.5t150 -29.5q106 0 169.5 57t63.5 136q0 43 -23 74.5t-69.5 52t-166.5 48.5q-103 24 -144 37.5t-79 45.5t-58 78.5t-20 102.5q0 134 106.5 214.5t265.5 80.5q67 0 146 -18.5t120 -35.5l9 -14q-8 -40 -10 -210l-9 -9h-40
l-9 9q-4 61 -11 85.5t-36 53t-82 48t-112 19.5q-61 0 -102.5 -18t-67 -54.5t-25.5 -88.5q0 -38 15.5 -68t47.5 -48.5t67 -26.5l109 -28q140 -34 200.5 -59t93.5 -75.5t33 -122.5q0 -138 -114 -237t-293 -99q-63 0 -156.5 14t-159.5 31l-5 13l10 67q5 31 6 62.5t2 132.5z" />
    <glyph glyph-name="t" unicode="t" horiz-adv-x="668" 
d="M46 785v26l7 10q94 35 152 65q0 261 -6 304q103 36 169 77l24 -20q-10 -63 -24 -366q50 -1 108 -1q118 0 169 6l7 -7l-19 -84l-8 -9q-51 1 -113 1q-56 0 -144 -1l-6 -407q0 -141 6.5 -184.5t36 -68t87.5 -24.5q67 0 124 35l24 -36q-24 -17 -115 -100q-52 -24 -106 -24
q-225 0 -225 218q0 80 4 136q1 17 1 35v415h-41q-45 0 -103 -4z" />
    <glyph glyph-name="u" unicode="u" horiz-adv-x="1235" 
d="M346 953l19 -13q-11 -131 -11 -333v-233q0 -128 19.5 -178t67.5 -76.5t114 -26.5q73 0 133 28.5t100.5 80.5t46.5 70t8 101l3 112v108q0 40 -4 109t-6.5 85t-15.5 23.5t-52 7.5l-84 1l-9 8v43l8 8q191 23 322 75l19 -13q-11 -131 -11 -333v-176q0 -15 5 -245
q2 -85 10.5 -103.5t23.5 -26t89 -7.5h28l9 -8v-40l-8 -9q-141 8 -189 8q-61 0 -141 -7l-9 8q6 102 9 173q-63 -49 -144 -131q-31 -31 -89 -52t-132 -21q-112 0 -174.5 35.5t-88.5 98t-26 215.5l1 79v195q0 40 -4 109t-6.5 85t-15.5 23.5t-52 7.5l-84 1l-9 8v43l8 8
q191 23 322 75zM585 1016zM595 -60z" />
    <glyph glyph-name="v" unicode="v" horiz-adv-x="1157" 
d="M510 -18l-62 157l-74 171l-205 477q-20 47 -35.5 62t-31.5 18t-64 5l-8 8v43l9 9q140 -7 222 -7q116 0 233 7l8 -8v-44l-8 -8q-104 -3 -121 -14.5t-17 -29.5q0 -30 40 -129l122 -304l96 -227l100 227l83 206q48 117 62 166t14 65q0 19 -22 27.5t-111 12.5l-8 8v43l9 9
q124 -7 186 -7q52 0 178 7l9 -9v-43l-8 -8q-59 -5 -78.5 -17t-38 -46.5t-106.5 -214.5l-96 -205q-24 -52 -173 -407h-104z" />
    <glyph glyph-name="w" unicode="w" horiz-adv-x="1708" 
d="M429 -19l-135 448q-38 126 -73.5 234t-47 137.5t-24.5 42.5t-28 18t-85 13l-7 8v41l9 9q72 -7 223 -7q163 0 245 7l9 -9v-41l-7 -8q-109 -1 -129.5 -12t-20.5 -34t29 -123l93 -322q22 -75 56 -175q27 65 76 174l147 329q53 117 98 236h49l90 -242l115 -290l89 -220
l75 197q65 169 101 282t36 145t-22 42t-118 13l-9 8v42l9 8q116 -7 195 -7q100 0 188 7l8 -8v-41l-8 -9q-54 -2 -73.5 -12t-44 -48.5t-74.5 -156.5l-99 -235l-45 -112l-71 -186q-33 -87 -48 -143h-94l-48 125l-228 573l-96 -207l-111 -248l-98 -243h-96z" />
    <glyph glyph-name="x" unicode="x" horiz-adv-x="1057" 
d="M44 -7l-8 9v40l9 8q37 1 60.5 11.5t57 44t118.5 137.5l161 199l-85 127q-19 28 -78.5 110t-99.5 123.5t-59.5 51.5t-39.5 10q-9 0 -24 -1l-10 7l-8 40l8 10q102 12 225 38q69 -57 204 -267l74 -117l63 80q73 95 205 285q47 -7 75 -7q26 0 70 7l8 -8v-40l-8 -8
q-33 -3 -48 -10t-55 -46t-107 -120l-60 -72q-18 -21 -35 -43l-62 -80l37 -57q25 -36 120.5 -168.5t134 -177t55 -52t54.5 -7.5l8 -8v-41l-8 -8q-74 7 -114 7q-12 0 -128 -7q-82 103 -165 231l-102 154q-103 -117 -276 -385q-68 7 -81 7q-20 0 -86 -7z" />
    <glyph glyph-name="y" unicode="y" horiz-adv-x="1139" 
d="M45 -543q34 84 51 154h24q49 -53 106 -53q71 0 123.5 70.5t148.5 311.5q-38 107 -77 202l-159 394q-25 61 -74 174.5t-58.5 125t-24.5 21.5t-81 19l-8 8v40l9 8q115 -7 236 -7q142 0 219 7l8 -8v-40l-7 -8q-11 -1 -61.5 -4.5t-63 -16t-12.5 -28.5q0 -17 31 -110.5
t60 -165.5l63 -156q62 -154 96 -227l53 117q28 64 80 194l83 212q32 82 36.5 102t4.5 29q0 22 -16 30t-71 14l-42 6l-7 8v44l8 8q84 -7 199 -7q105 0 168 7l8 -8v-44l-8 -8q-37 -1 -59 -10t-42 -32t-72 -129.5t-104 -220.5l-98 -215l-231 -540q-30 -70 -74.5 -150
t-109 -115.5t-136.5 -35.5q-63 0 -119 33zM580 1016zM815 -60z" />
    <glyph glyph-name="z" unicode="z" 
d="M54 -8l-9 8l-9 38q129 137 247 285l221 274q104 126 194 260h-236q-28 0 -129 -4.5t-112 -16t-30 -130.5l-6 -32l-8 -8h-40l-9 9q10 158 10 183q0 24 -2 68l8 7q372 -8 593 -8q118 0 186 8l8 -8v-48q-69 -76 -215 -262l-262 -333q-116 -147 -163 -213h70l200 3
q110 1 185 9t87.5 13.5t15.5 10t17.5 62.5t22.5 108l9 8h45l9 -9q-24 -178 -27 -274l-8 -8q-300 9 -455 9q-137 0 -408 -9z" />
    <glyph glyph-name="braceleft" unicode="{" horiz-adv-x="682" 
d="M592 -356q-194 0 -257 67q-58 62 -58 255v345q0 88 -12.5 130t-47.5 73q-41 36 -98 36v25q93 0 130 76q28 57 28 155v379q0 87 17 146q28 98 116 133q61 24 182 24v-25q-86 0 -126 -57t-40 -188v-378q0 -118 -30 -176q-38 -72 -140 -102q105 -31 141 -102q29 -56 29 -179
v-371q0 -189 87 -229q27 -12 79 -12v-25z" />
    <glyph glyph-name="bar" unicode="|" 
d="M454 0v1497h115v-1497h-115z" />
    <glyph glyph-name="braceright" unicode="}" horiz-adv-x="682" 
d="M564 550q-57 0 -98 -36q-35 -31 -47.5 -73t-12.5 -130v-345q0 -193 -58 -255q-63 -67 -257 -67v25q91 0 126 56q40 64 40 185v371q0 123 29 179q36 71 141 102q-102 30 -140 102q-30 58 -30 176v378q0 131 -40 188t-126 57v25q121 0 182 -24q88 -35 116 -133
q17 -59 17 -146v-379q0 -98 28 -155q37 -76 130 -76v-25z" />
    <glyph glyph-name="asciitilde" unicode="~" 
d="M968 710q-103 -199 -249 -199q-58 0 -273 88q-93 38 -130 38q-43 0 -83.5 -25.5t-112.5 -140.5l-64 73q83 134 139.5 171.5t115.5 37.5q67 0 216 -64q144 -62 188 -62q108 0 190 153z" />
    <glyph glyph-name="exclamdown" unicode="&#xa1;" horiz-adv-x="569" 
d="M275 690q-49 0 -84.5 34.5t-35.5 85.5q0 49 35 84.5t85 35.5q49 0 84 -35t35 -85q0 -52 -35.5 -86t-83.5 -34zM157 -516v105q0 6 22 234q32 337 56 650l55 50l19 -9q8 -201 46 -594l20 -225q4 -62 4 -132q-81 -37 -156 -79h-66z" />
    <glyph glyph-name="cent" unicode="&#xa2;" 
d="M616 -29v-23q0 -85 5 -153l-9 -7h-74l-9 7q1 31 1 65q0 28 2 64v48q-189 14 -298 134.5t-109 310.5q0 88 20.5 157.5t52 115.5t72.5 75t132 75.5t130 58.5v88q0 66 -3 111l9 7h71l10 -7q-3 -33 -3 -106v-79q23 1 50 1q148 0 247 -56q-19 -108 -29 -239l-9 -8h-41l-9 9
q-4 91 -13 112.5t-69.5 50t-126.5 33.5v-743q39 -4 58 -4q93 0 218 58l21 -25l-40 -64q-119 -62 -257 -67zM532 814q-228 -31 -228 -311q0 -130 55 -247t173 -162v720z" />
    <glyph glyph-name="sterling" unicode="&#xa3;" 
d="M24 -40v103q40 36 101 69q44 65 71.5 160.5t27.5 276.5l-1 68q-138 0 -189 -7l-10 10l14 73l9 8q61 -5 176 -5v68q0 23 5 127t25.5 166.5t63.5 104.5t142 109.5t167 90t146 22.5q127 0 199 -49l6 -15q-16 -107 -20 -256l-9 -9h-41l-9 9q-1 5 -3 44q-7 104 -69.5 142.5
t-141.5 38.5q-103 0 -172.5 -61.5t-89 -179.5t-26.5 -352h119q142 0 251 5l7 -5l-17 -76l-10 -8q-146 5 -256 5h-102q-10 -167 -69 -291t-121 -214q124 29 206 29q78 0 217 -16q144 -16 202 -16q33 0 48 11t21 55l15 108l8 9h44l8 -8q-8 -144 -10 -300q-44 -24 -67.5 -30
t-53.5 -6q-100 0 -229 32q-165 41 -226 50t-118 9q-46 0 -102 -10q-10 -9 -27 -28q-30 -35 -62 -61h-48z" />
    <glyph glyph-name="currency" unicode="&#xa4;" 
d="M30 858l76 77l182 -197q100 83 224 83q64 0 114.5 -19t109.5 -64l181 196l76 -76l-199 -184q62 -92 62 -197t-62 -197l199 -184l-76 -76l-181 196q-100 -83 -224 -83q-52 0 -106 15.5t-118 67.5l-182 -196l-76 76l199 184q-61 90 -61 197q0 106 61 197zM252 477
q0 -107 76 -183.5t184 -76.5q106 0 182.5 76.5t76.5 183.5t-75.5 183.5t-183.5 76.5q-109 0 -184.5 -77t-75.5 -183z" />
    <glyph glyph-name="yen" unicode="&#xa5;" 
d="M612 420v-79l1 -21q1 -25 1 -78q0 -140 23 -161.5t167 -25.5l7 -6v-50l-7 -8q-290 9 -295 9q-37 0 -265 -9l-8 8v50l8 6q143 4 167 26.5t24 162.5l1 100v76h-312l-8 8v64l9 8h311v32q0 22 -4 39.5t-52 125.5h-255l-9 8v65l8 8h220l-155 328q-68 143 -104.5 179t-95.5 40
l-9 8v44l7 9q44 6 133 27q66 15 84 15q27 0 45.5 -14t35 -46.5t59.5 -141.5l211 -529l143 331l81 189q40 93 77 196q7 0 30 -1q44 -4 50 -4q2 0 78 5v-28q-118 -164 -265 -469l-67 -138h240l8 -8v-65l-8 -8h-274q-22 -55 -29 -80.5t-7 -60.5v-56h309l9 -8v-64l-9 -8h-309z
" />
    <glyph glyph-name="brokenbar" unicode="&#xa6;" 
d="M454 1497h115v-591h-115v591zM454 0v591h115v-591h-115z" />
    <glyph glyph-name="section" unicode="&#xa7;" 
d="M92 -351q21 122 25 295l8 9h48l9 -9q4 -78 16 -174q64 -73 144.5 -98t148.5 -25q84 0 154.5 33.5t105.5 95.5t35 126q0 60 -31.5 109t-110.5 83t-246 91q-163 56 -224.5 92.5t-89.5 93t-28 118.5q0 57 21.5 110.5t58 93.5t89.5 80q-118 85 -118 210q0 153 129 304
t350 151q143 0 258 -68l5 -14q-20 -154 -25 -294l-7 -7h-49l-8 7q-6 141 -10 167q-93 99 -243 99q-129 0 -205.5 -68t-76.5 -168q0 -55 23 -98t81.5 -76.5t245.5 -92.5q67 -22 136 -45t108.5 -45.5t69.5 -56.5t46.5 -77.5t16.5 -91.5q0 -88 -42.5 -156.5t-118.5 -131.5
q72 -48 97 -96t25 -114q0 -166 -144 -315t-364 -149q-181 0 -308 90zM745 246q41 60 56 99t15 80q0 72 -47 122.5t-202 100.5t-289 98q-36 -31 -61.5 -78t-25.5 -98q0 -38 17 -72.5t53 -63t95 -49.5l213 -76q155 -54 176 -63z" />
    <glyph glyph-name="dieresis" unicode="&#xa8;" horiz-adv-x="682" 
d="M552 1163q-45 0 -77 32t-32 77q0 46 31.5 77.5t77.5 31.5t77.5 -31.5t31.5 -77.5q0 -45 -32 -77t-77 -32zM129 1163q-45 0 -77 32t-32 77t32 77t77 32q46 0 77.5 -31.5t31.5 -77.5q0 -45 -32 -77t-77 -32z" />
    <glyph glyph-name="copyright" unicode="&#xa9;" horiz-adv-x="1530" 
d="M22 705q0 187 95 362.5t272.5 278t375.5 102.5q197 0 370 -99.5t272.5 -273t99.5 -370.5q0 -199 -99.5 -371.5t-271.5 -271.5t-371 -99q-198 0 -375.5 102t-272.5 278t-95 362zM113 705q0 -168 84.5 -321t238 -242t329.5 -89q173 0 325 87t239.5 239.5t87.5 325.5
q0 175 -87.5 326t-239 238.5t-325.5 87.5t-330 -89.5t-239 -244t-83 -318.5zM1058 501l41 -18q-45 -88 -94 -129t-110.5 -59t-123.5 -18q-179 0 -292 118.5t-113 303.5q0 186 114.5 305.5t309.5 119.5q151 0 289 -53v-219h-53q-10 129 -69 174t-151 45q-94 0 -158.5 -44.5
t-103.5 -120.5t-39 -182q0 -120 45 -205t105 -130.5t154 -45.5q61 0 109 19.5t77.5 51t62.5 87.5z" />
    <glyph glyph-name="ordfeminine" unicode="&#xaa;" horiz-adv-x="682" 
d="M631 843l-10 -9q-46 4 -85 4t-91 -4l-14 13q1 12 2 82l-122 -101q-35 -14 -76 -14q-71 0 -117.5 42.5t-46.5 114.5q0 86 53 132q40 36 132 60q80 21 178 32q0 104 -48 138q-33 23 -92 23q-41 0 -77 -18q-19 -10 -22 -21l-26 -73l-10 -6l-29 7l-9 10q1 14 1 36v44
q112 82 218 82q92 0 151 -47q63 -51 61 -139l-3 -118v-176q0 -31 4 -38q5 -10 31 -13l38 -4l9 -9v-30zM612 648h-542v76h542v-76zM434 996v148q-125 -21 -156 -34q-85 -34 -85 -116q0 -92 87 -92q70 0 154 94z" />
    <glyph glyph-name="guillemotleft" unicode="&#xab;" 
d="M102 448v24q15 16 95 94l114 110l139 143l12 2l37 -26l2 -11q-188 -245 -232 -324q25 -41 100.5 -147t131.5 -177l-2 -11l-37 -26l-12 2q-137 141 -250 251zM512 448v24q15 16 95 94l113 110l140 143l12 2l37 -26l1 -11q-187 -245 -231 -324q24 -41 100 -147t131 -177
l-1 -11l-37 -26l-12 2q-138 141 -251 251z" />
    <glyph glyph-name="logicalnot" unicode="&#xac;" 
d="M994 280h-116v432h-848v112h964v-544z" />
    <glyph glyph-name="registered" unicode="&#xae;" horiz-adv-x="1530" 
d="M22 705q0 187 95 362.5t272.5 278t375.5 102.5q197 0 370 -99.5t272.5 -273t99.5 -370.5q0 -199 -99.5 -371.5t-271.5 -271.5t-371 -99q-198 0 -375.5 102t-272.5 278t-95 362zM113 705q0 -168 84.5 -321t238 -242t329.5 -89q173 0 325 87t239.5 239.5t87.5 325.5
q0 175 -87.5 326t-239 238.5t-325.5 87.5t-330 -89.5t-239 -244t-83 -318.5zM423 327v31q22 1 27 1q39 0 51 6t16.5 20.5t4.5 59.5v573q0 51 -6.5 65t-20.5 17.5t-72 4.5v32h335q72 0 133 -13t92.5 -35.5t52.5 -62.5t21 -90q0 -78 -56.5 -137.5t-171.5 -77.5q40 -11 66 -31
t51 -59.5t63 -125.5q40 -91 63.5 -118t80.5 -29v-31h-80q-53 0 -82 12t-53 52.5t-74 165.5q-27 69 -46.5 94.5t-41.5 37t-86 11.5h-56v-255q0 -47 4.5 -60.5t17.5 -19.5t50 -6q8 0 27 -1v-31h-310zM634 741h56q129 0 190 43t61 137q0 177 -192 177h-59q-30 0 -39 -8
t-13 -15.5t-4 -51.5v-282z" />
    <glyph glyph-name="macron" unicode="&#xaf;" horiz-adv-x="682" 
d="M656 1215h-630v105h630v-105z" />
    <glyph glyph-name="macron" unicode="&#x2c9;" horiz-adv-x="682" 
d="M656 1215h-630v105h630v-105z" />
    <glyph glyph-name="degree" unicode="&#xb0;" horiz-adv-x="819" 
d="M410 1411q79 0 151.5 -40t114.5 -112.5t42 -155.5q0 -127 -90 -217.5t-218 -90.5t-218 90.5t-90 217.5q0 82 42.5 155.5t115 113t150.5 39.5zM410 1330q-93 0 -160 -66.5t-67 -160.5q0 -93 67 -159.5t160 -66.5q94 0 160 66t66 160q0 60 -31 114.5t-84.5 83.5t-110.5 29z
" />
    <glyph glyph-name="plusminus" unicode="&#xb1;" 
d="M994 606h-424v-369h-116v369h-424v112h424v369h116v-369h424v-112zM994 0h-964v112h964v-112z" />
    <glyph glyph-name="uni00B2" unicode="&#xb2;" horiz-adv-x="655" 
d="M40 554l-12 10v34l206 211q123 126 161 196t38 134q0 65 -42.5 111.5t-117.5 46.5q-45 0 -84 -15t-49 -36.5t-31 -96.5l-10 -8h-30l-12 10q15 83 20 164q60 56 111.5 72t107.5 16q115 0 189 -62t74 -167q0 -53 -21.5 -107t-62.5 -103t-112 -118l-177 -174h222
q106 0 188 8l10 -10q-4 -22 -4 -55q0 -28 4 -48l-9 -13q-115 6 -258 6q-214 0 -299 -6z" />
    <glyph glyph-name="uni00B3" unicode="&#xb3;" horiz-adv-x="655" 
d="M72 576q-11 72 -42 173l5 15l29 10l14 -7q16 -42 40.5 -82t70 -59.5t98.5 -19.5q64 0 102 26t58.5 71t20.5 102q0 76 -40.5 118t-111.5 42q-26 0 -45.5 -4.5t-64.5 -22.5l-14 12l16 75q54 -3 72 -3q70 0 109 47.5t39 109.5q0 57 -42.5 93.5t-101.5 36.5q-78 0 -136 -54
q-10 -20 -32 -79l-10 -8h-33l-10 11l38 142q79 88 213 88q101 0 165.5 -53.5t64.5 -134.5q0 -47 -24 -91.5t-100 -104.5q99 -16 139 -66.5t40 -117.5q0 -116 -108 -208.5t-250 -92.5q-87 0 -169 36z" />
    <glyph glyph-name="acute" unicode="&#xb4;" horiz-adv-x="682" 
d="M510 1467l-294 -374l-13 -4l-29 15l-3 13l153 349l156 29l13 -3z" />
    <glyph glyph-name="uni00B5" unicode="&#xb5;" horiz-adv-x="1325" 
d="M1287 98l-8 -46q-124 -70 -221 -70q-55 0 -86.5 24.5t-43 64t-13.5 119.5l-15 9q-82 -114 -169.5 -170t-199.5 -56q-146 0 -216 92l-20 -4q6 -395 51 -594l-15 -22q-56 -9 -123 -12l-18 14q10 419 19 837q0 448 -22 651l174 18l21 -20q-15 -138 -15 -330
q0 -336 61.5 -426t179.5 -90q94 0 166 51t106 138t34 251q0 247 -8 408l170 18l21 -20q-7 -66 -15.5 -241t-8.5 -259q0 -149 7.5 -220t36.5 -104.5t80 -33.5q40 0 90 23z" />
    <glyph glyph-name="uni00B5" unicode="&#x3bc;" horiz-adv-x="1325" 
d="M1287 98l-8 -46q-124 -70 -221 -70q-55 0 -86.5 24.5t-43 64t-13.5 119.5l-15 9q-82 -114 -169.5 -170t-199.5 -56q-146 0 -216 92l-20 -4q6 -395 51 -594l-15 -22q-56 -9 -123 -12l-18 14q10 419 19 837q0 448 -22 651l174 18l21 -20q-15 -138 -15 -330
q0 -336 61.5 -426t179.5 -90q94 0 166 51t106 138t34 251q0 247 -8 408l170 18l21 -20q-7 -66 -15.5 -241t-8.5 -259q0 -149 7.5 -220t36.5 -104.5t80 -33.5q40 0 90 23z" />
    <glyph glyph-name="paragraph" unicode="&#xb6;" horiz-adv-x="1286" 
d="M372 -304v65q114 1 142 9.5t39.5 27t13 75.5t4.5 303v535q-194 5 -344 118.5t-150 280.5q0 132 91 222.5t271 90.5q25 0 157 -5q117 -5 281 -5q81 0 331 8v-64q-116 -2 -143 -10t-38.5 -27t-13 -73.5t-4.5 -304.5v-766q0 -105 2.5 -229t12.5 -144.5t36 -30.5t148 -11v-65
l-421 7q-96 0 -415 -7zM571 1350q-139 -8 -202.5 -82.5t-63.5 -189.5t75 -191.5t191 -99.5v563zM720 -232h140v1582h-140v-1582z" />
    <glyph glyph-name="periodcentered" unicode="&#xb7;" horiz-adv-x="512" 
d="M256 733q48 0 83.5 -34.5t35.5 -85.5q0 -49 -35 -84t-84 -35q-50 0 -85 35t-35 84q0 52 35.5 86t84.5 34z" />
    <glyph glyph-name="periodcentered" unicode="&#x2219;" horiz-adv-x="512" 
d="M256 733q48 0 83.5 -34.5t35.5 -85.5q0 -49 -35 -84t-84 -35q-50 0 -85 35t-35 84q0 52 35.5 86t84.5 34z" />
    <glyph glyph-name="cedilla" unicode="&#xb8;" horiz-adv-x="682" 
d="M139 -416l-4 11l23 49l10 5q58 -21 119 -21q106 0 106 81q0 32 -27.5 53.5t-70.5 21.5q-27 0 -60 -10l-16 14l98 212h77l-66 -150q41 6 58 6q75 0 118 -39t43 -96q0 -78 -67 -121.5t-167 -43.5q-96 0 -174 28z" />
    <glyph glyph-name="uni00B9" unicode="&#xb9;" horiz-adv-x="655" 
d="M110 1227l-19 5l-7 57l10 10q63 18 156.5 55.5t134.5 58.5l24 -9q-10 -268 -10 -316v-218q0 -190 4.5 -218t18 -34t112.5 -11l9 -10v-32l-9 -10q-135 5 -191 5q-46 0 -206 -5l-10 10v32l10 10q98 6 109.5 9.5t17.5 14t10.5 99t4.5 143.5v232q0 149 -5 194q-3 0 -26 -10
q-117 -51 -138 -62z" />
    <glyph glyph-name="ordmasculine" unicode="&#xba;" horiz-adv-x="682" 
d="M648 1131q0 -137 -93 -227t-230 -90q-125 0 -208 87.5t-83 212.5q0 135 92 220q89 83 226 83q129 0 212.5 -79t83.5 -207zM612 648h-542v76h542v-76zM515 1084q0 112 -39 190q-51 99 -151 99q-161 0 -161 -218q0 -112 40 -193q51 -103 153 -103q83 0 124 74q34 60 34 151
z" />
    <glyph glyph-name="guillemotright" unicode="&#xbb;" 
d="M910 472v-24q-15 -17 -95 -94l-113 -110l-140 -143l-12 -2l-37 26l-1 11q187 245 231 324q-24 41 -100 147t-131 177l1 11l37 26l12 -2q138 -141 251 -251zM501 472v-24q-16 -17 -96 -94l-113 -110l-139 -143l-13 -2l-37 26l-1 11q188 245 231 324q-24 41 -99.5 147
t-131.5 177l1 11l37 26l13 -2q137 -141 250 -251z" />
    <glyph glyph-name="onequarter" unicode="&#xbc;" horiz-adv-x="1652" 
d="M110 1227l-19 5l-7 57l10 10q63 18 156.5 55.5t134.5 58.5l24 -9q-10 -268 -10 -316v-218q0 -190 4.5 -218t18 -34t112.5 -11l9 -10v-32l-9 -10q-135 5 -191 5q-46 0 -206 -5l-10 10v32l10 10q98 6 109.5 9.5t17.5 14t10.5 99t4.5 143.5v232q0 149 -5 194q-3 0 -26 -10
q-117 -51 -138 -62zM324 -24l909 1425l11 8h80l5 -10l-910 -1427l-11 -7h-78zM1211 -4l-10 9v32l9 9q91 3 107 5.5t22.5 10t10.5 44t4 75.5v36h-126q-114 0 -203 -4l-13 40q108 197 357 562q53 23 92 36l23 -10q-9 -130 -9 -420v-114q65 0 125 3l11 -10q-2 -25 -2 -36l2 -42
l-11 -9q-68 4 -101 4h-24v-33q0 -108 11 -122.5t115 -15.5l10 -9v-31l-10 -10q-111 5 -183 5q-114 0 -207 -5zM1114 307h240l5 387q-84 -120 -157 -238.5t-88 -148.5z" />
    <glyph glyph-name="onehalf" unicode="&#xbd;" horiz-adv-x="1652" 
d="M110 1227l-19 5l-7 57l10 10q63 18 156.5 55.5t134.5 58.5l24 -9q-10 -268 -10 -316v-218q0 -190 4.5 -218t18 -34t112.5 -11l9 -10v-32l-9 -10q-135 5 -191 5q-46 0 -206 -5l-10 10v32l10 10q98 6 109.5 9.5t17.5 14t10.5 99t4.5 143.5v232q0 149 -5 194q-3 0 -26 -10
q-117 -51 -138 -62zM324 -24l909 1425l11 8h80l5 -10l-910 -1427l-11 -7h-78zM1038 -5l-12 10v34l206 211q123 126 161 196t38 134q0 65 -42.5 111.5t-117.5 46.5q-45 0 -84 -15t-49 -36.5t-31 -96.5l-10 -8h-30l-12 10q15 83 20 164q60 56 111.5 72t107.5 16q115 0 189 -62
t74 -167q0 -53 -21.5 -107t-62.5 -103t-112 -118l-177 -174h222q106 0 188 8l10 -10q-4 -22 -4 -55q0 -28 4 -48l-9 -13q-115 6 -258 6q-214 0 -299 -6z" />
    <glyph glyph-name="threequarters" unicode="&#xbe;" horiz-adv-x="1652" 
d="M72 576q-11 72 -42 173l5 15l29 10l14 -7q16 -42 40.5 -82t70 -59.5t98.5 -19.5q64 0 102 26t58.5 71t20.5 102q0 76 -40.5 118t-111.5 42q-26 0 -45.5 -4.5t-64.5 -22.5l-14 12l16 75q54 -3 72 -3q70 0 109 47.5t39 109.5q0 57 -42.5 93.5t-101.5 36.5q-78 0 -136 -54
q-10 -20 -32 -79l-10 -8h-33l-10 11l38 142q79 88 213 88q101 0 165.5 -53.5t64.5 -134.5q0 -47 -24 -91.5t-100 -104.5q99 -16 139 -66.5t40 -117.5q0 -116 -108 -208.5t-250 -92.5q-87 0 -169 36zM324 -24l909 1425l11 8h80l5 -10l-910 -1427l-11 -7h-78zM1211 -4l-10 9
v32l9 9q91 3 107 5.5t22.5 10t10.5 44t4 75.5v36h-126q-114 0 -203 -4l-13 40q108 197 357 562q53 23 92 36l23 -10q-9 -130 -9 -420v-114q65 0 125 3l11 -10q-2 -25 -2 -36l2 -42l-11 -9q-68 4 -101 4h-24v-33q0 -108 11 -122.5t115 -15.5l10 -9v-31l-10 -10q-111 5 -183 5
q-114 0 -207 -5zM1114 307h240l5 387q-84 -120 -157 -238.5t-88 -148.5z" />
    <glyph glyph-name="questiondown" unicode="&#xbf;" horiz-adv-x="909" 
d="M505 690q-49 0 -84.5 34.5t-35.5 85.5q0 49 35 84.5t85 35.5q49 0 84 -35.5t35 -84.5t-35 -84.5t-84 -35.5zM524 560q82 -63 82 -150q0 -58 -29 -110.5t-131 -166.5q-79 -89 -117 -153.5t-38 -128.5q0 -100 73 -165.5t177 -65.5q57 0 129 27q27 28 50 75l38 76l12 8
l44 -5l6 -14l-78 -232q-116 -76 -255 -76q-100 0 -189 36t-141.5 113t-52.5 175q0 64 20.5 118.5t60 107t151.5 152.5q71 64 108.5 103.5t56 77.5t18.5 69q0 51 -39 95l1 15l27 19h16z" />
    <glyph glyph-name="Agrave" unicode="&#xc0;" horiz-adv-x="1593" 
d="M44 -8l-9 8v52l9 8q73 1 94 7.5t37.5 26t66.5 127.5l105 228l272 616q77 181 153 362h65l427 -1004l57 -134q25 -57 57.5 -124t45 -79t31 -18.5t82.5 -7.5l8 -8v-52l-8 -8q-106 9 -191 9q-166 -5 -332 -9l-8 8v52l8 8q112 2 140 9.5t28 34.5q0 22 -14 58l-123 305h-579
l-109 -256q-29 -69 -29 -101q0 -25 27 -37t136 -13l9 -8v-52l-8 -8q-129 8 -226 8q-110 0 -222 -8zM500 553h506l-251 603zM803 1487zM780 -60zM916 1563l-25 -24l-15 4l-200 156l-210 157l12 31l10 7l187 -26l97 -120q16 -20 142 -171z" />
    <glyph glyph-name="Aacute" unicode="&#xc1;" horiz-adv-x="1593" 
d="M44 -8l-9 8v52l9 8q73 1 94 7.5t37.5 26t66.5 127.5l105 228l272 616q77 181 153 362h65l427 -1004l57 -134q25 -57 57.5 -124t45 -79t31 -18.5t82.5 -7.5l8 -8v-52l-8 -8q-106 9 -191 9q-166 -5 -332 -9l-8 8v52l8 8q112 2 140 9.5t28 34.5q0 22 -14 58l-123 305h-579
l-109 -256q-29 -69 -29 -101q0 -25 27 -37t136 -13l9 -8v-52l-8 -8q-129 8 -226 8q-110 0 -222 -8zM500 553h506l-251 603zM803 1487zM780 -60zM1103 1856l-210 -157l-200 -156l-15 -4l-25 24l2 14l144 174q3 3 95 117l187 26l10 -7z" />
    <glyph glyph-name="Acircumflex" unicode="&#xc2;" horiz-adv-x="1593" 
d="M44 -8l-9 8v52l9 8q73 1 94 7.5t37.5 26t66.5 127.5l105 228l272 616q77 181 153 362h65l427 -1004l57 -134q25 -57 57.5 -124t45 -79t31 -18.5t82.5 -7.5l8 -8v-52l-8 -8q-106 9 -191 9q-166 -5 -332 -9l-8 8v52l8 8q112 2 140 9.5t28 34.5q0 22 -14 58l-123 305h-579
l-109 -256q-29 -69 -29 -101q0 -25 27 -37t136 -13l9 -8v-52l-8 -8q-129 8 -226 8q-110 0 -222 -8zM500 553h506l-251 603zM803 1487zM780 -60zM1124 1550l-7 -11h-62l-264 234l-264 -234h-62l-7 10l288 356h96zM1258 1593zM794 1905z" />
    <glyph glyph-name="Atilde" unicode="&#xc3;" horiz-adv-x="1593" 
d="M44 -8l-9 8v52l9 8q73 1 94 7.5t37.5 26t66.5 127.5l105 228l272 616q77 181 153 362h65l427 -1004l57 -134q25 -57 57.5 -124t45 -79t31 -18.5t82.5 -7.5l8 -8v-52l-8 -8q-106 9 -191 9q-166 -5 -332 -9l-8 8v52l8 8q112 2 140 9.5t28 34.5q0 22 -14 58l-123 305h-579
l-109 -256q-29 -69 -29 -101q0 -25 27 -37t136 -13l9 -8v-52l-8 -8q-129 8 -226 8q-110 0 -222 -8zM500 553h506l-251 603zM803 1487zM780 -60zM1145 1822q-19 -88 -80 -153.5t-138 -65.5q-67 0 -168 49q-101 50 -137 50q-89 0 -123 -99h-45l-7 8q17 88 79.5 153t137.5 65
q67 0 167 -50q100 -49 141 -49q81 0 121 99h45z" />
    <glyph glyph-name="Adieresis" unicode="&#xc4;" horiz-adv-x="1593" 
d="M44 -8l-9 8v52l9 8q73 1 94 7.5t37.5 26t66.5 127.5l105 228l272 616q77 181 153 362h65l427 -1004l57 -134q25 -57 57.5 -124t45 -79t31 -18.5t82.5 -7.5l8 -8v-52l-8 -8q-106 9 -191 9q-166 -5 -332 -9l-8 8v52l8 8q112 2 140 9.5t28 34.5q0 22 -14 58l-123 305h-579
l-109 -256q-29 -69 -29 -101q0 -25 27 -37t136 -13l9 -8v-52l-8 -8q-129 8 -226 8q-110 0 -222 -8zM500 553h506l-251 603zM803 1487zM780 -60zM1038 1595q-47 0 -80 32.5t-33 79.5t33 80t80 33t79.5 -33t32.5 -80t-32.5 -79.5t-79.5 -32.5zM545 1595q-47 0 -80 32.5
t-33 79.5t33 80t80 33t79.5 -33t32.5 -80t-32.5 -79.5t-79.5 -32.5z" />
    <glyph glyph-name="Aring" unicode="&#xc5;" horiz-adv-x="1593" 
d="M44 -8l-9 8v52l9 8q73 1 94 7.5t37.5 26t66.5 127.5l105 228l272 616q77 181 153 362h65l427 -1004l57 -134q25 -57 57.5 -124t45 -79t31 -18.5t82.5 -7.5l8 -8v-52l-8 -8q-106 9 -191 9q-166 -5 -332 -9l-8 8v52l8 8q112 2 140 9.5t28 34.5q0 22 -14 58l-123 305h-579
l-109 -256q-29 -69 -29 -101q0 -25 27 -37t136 -13l9 -8v-52l-8 -8q-129 8 -226 8q-110 0 -222 -8zM500 553h506l-251 603zM803 1487zM780 -60zM999 1717q0 -57 -27.5 -100.5t-74.5 -69.5t-106 -26q-60 0 -107 26t-74 69.5t-27 100.5q0 84 60 140t148 56t148 -55.5
t60 -140.5zM912 1717q0 60 -34.5 105.5t-86.5 45.5t-86.5 -45.5t-34.5 -105.5q0 -54 32.5 -102.5t88.5 -48.5q52 0 86.5 45.5t34.5 105.5z" />
    <glyph glyph-name="AE" unicode="&#xc6;" horiz-adv-x="1933" 
d="M604 1406l8 7q442 -9 587 -9q192 0 579 9l9 -9q-1 -9 -12 -72q-11 -66 -14 -94.5t-10 -133.5l-9 -9h-46l-9 8q-1 111 -12 180q-129 42 -332 42q-68 0 -187 -8q-11 -131 -11 -243v-304q86 -6 148 -6q120 0 179.5 6t69.5 14t14.5 32t11.5 85q2 24 4 35l9 8h48l9 -7
q-7 -116 -7 -213q0 -80 7 -233l-8 -8h-49l-9 8l-7 95q-4 43 -11 55.5t-21 20t-88 13.5t-123 6q-88 -3 -177 -6v-358q0 -114 4 -229h186q207 0 269 4t126 30q15 40 50 208l9 8h49l8 -8q-16 -137 -18 -179.5t-9 -149.5l-10 -9q-420 8 -555 8q-292 0 -394 -8l-8 8v32l6 9
q58 25 88 49q9 42 12 140l6 187v77q-103 6 -250 6q-155 0 -246 -6q-37 -60 -100 -178.5t-75 -150.5t-12 -46q0 -30 35.5 -43t134.5 -16l9 -8v-53l-8 -7q-122 8 -235 8q-89 0 -209 -8l-8 7v54l9 7q56 0 80 11t49.5 46t51.5 88l536 944q45 79 61.5 113.5t16.5 48.5
q0 22 -22 27t-169 15l-9 9v44zM516 578h448l4 454q0 117 -4 300h-25q-19 -29 -45 -74l-92 -164l-144 -258z" />
    <glyph glyph-name="Ccedilla" unicode="&#xc7;" horiz-adv-x="1452" 
d="M875 -37l-46 -105q33 6 61 6q84 0 129.5 -40.5t45.5 -100.5q0 -70 -62 -121t-183 -51q-99 0 -180 29l-5 12l24 51l11 5q62 -22 125 -22q55 0 81.5 26t26.5 58q0 35 -28.5 56.5t-73.5 21.5q-29 0 -61 -10l-18 14l78 175q-331 24 -530 227t-199 510q0 228 113 398.5
t297 255t414 84.5q133 0 263 -28t217 -67l7 -10q-23 -56 -43 -277l-7 -8h-47l-8 8l-10 170q-73 58 -176.5 90.5t-215.5 32.5q-169 0 -303 -72.5t-208 -210t-74 -336.5q0 -200 87 -351t237.5 -232t351.5 -81q89 0 171 17t136.5 42t104.5 61l17 -21l-38 -93
q-225 -113 -482 -113z" />
    <glyph glyph-name="Egrave" unicode="&#xc8;" horiz-adv-x="1251" 
d="M73 1406l8 7q343 -6 439 -6q328 0 584 6l5 -7q-25 -96 -37 -301l-6 -8h-49l-9 8q1 9 1 16q0 85 -13 162q-63 28 -174.5 36.5t-167.5 8.5q-79 0 -202 -11l-4 -160l-3 -183l-3 -203q108 -6 199 -6q92 0 154 6t72.5 12.5t16 25t9.5 65.5l4 62l8 8h46l8 -8q-2 -109 -5 -219
l5 -225l-8 -8h-46l-8 8l-7 60q-9 70 -13 83.5t-18.5 23.5t-74.5 16t-165 6q-58 0 -177 -5q-5 -84 -5 -280q0 -210 5 -309h184q243 0 304 6t116 29q9 23 29.5 106.5t23.5 104.5l10 7h48l8 -7q-9 -43 -17.5 -150t-8.5 -183l-7 -8q-191 6 -500 6l-272 2q-95 0 -198 -8l-8 8v33
l8 10q59 30 67.5 37.5t14 175t5.5 255.5v367l-1 227q0 74 -2 120.5t-7 66.5t-11.5 28t-21 13.5t-49.5 9.5l-76 6l-8 7v50zM644 1487zM640 -60zM756 1563l-25 -24l-15 4l-200 156l-210 157l12 31l10 7l187 -26l97 -120q16 -20 142 -171z" />
    <glyph glyph-name="Eacute" unicode="&#xc9;" horiz-adv-x="1251" 
d="M73 1406l8 7q343 -6 439 -6q328 0 584 6l5 -7q-25 -96 -37 -301l-6 -8h-49l-9 8q1 9 1 16q0 85 -13 162q-63 28 -174.5 36.5t-167.5 8.5q-79 0 -202 -11l-4 -160l-3 -183l-3 -203q108 -6 199 -6q92 0 154 6t72.5 12.5t16 25t9.5 65.5l4 62l8 8h46l8 -8q-2 -109 -5 -219
l5 -225l-8 -8h-46l-8 8l-7 60q-9 70 -13 83.5t-18.5 23.5t-74.5 16t-165 6q-58 0 -177 -5q-5 -84 -5 -280q0 -210 5 -309h184q243 0 304 6t116 29q9 23 29.5 106.5t23.5 104.5l10 7h48l8 -7q-9 -43 -17.5 -150t-8.5 -183l-7 -8q-191 6 -500 6l-272 2q-95 0 -198 -8l-8 8v33
l8 10q59 30 67.5 37.5t14 175t5.5 255.5v367l-1 227q0 74 -2 120.5t-7 66.5t-11.5 28t-21 13.5t-49.5 9.5l-76 6l-8 7v50zM644 1487zM640 -60zM1036 1856l-210 -157l-200 -156l-15 -4l-25 24l2 14l144 174q3 3 95 117l187 26l10 -7z" />
    <glyph glyph-name="Ecircumflex" unicode="&#xca;" horiz-adv-x="1251" 
d="M73 1406l8 7q343 -6 439 -6q328 0 584 6l5 -7q-25 -96 -37 -301l-6 -8h-49l-9 8q1 9 1 16q0 85 -13 162q-63 28 -174.5 36.5t-167.5 8.5q-79 0 -202 -11l-4 -160l-3 -183l-3 -203q108 -6 199 -6q92 0 154 6t72.5 12.5t16 25t9.5 65.5l4 62l8 8h46l8 -8q-2 -109 -5 -219
l5 -225l-8 -8h-46l-8 8l-7 60q-9 70 -13 83.5t-18.5 23.5t-74.5 16t-165 6q-58 0 -177 -5q-5 -84 -5 -280q0 -210 5 -309h184q243 0 304 6t116 29q9 23 29.5 106.5t23.5 104.5l10 7h48l8 -7q-9 -43 -17.5 -150t-8.5 -183l-7 -8q-191 6 -500 6l-272 2q-95 0 -198 -8l-8 8v33
l8 10q59 30 67.5 37.5t14 175t5.5 255.5v367l-1 227q0 74 -2 120.5t-7 66.5t-11.5 28t-21 13.5t-49.5 9.5l-76 6l-8 7v50zM644 1487zM640 -60zM969 1550l-7 -11h-62l-264 234l-264 -234h-62l-7 10l288 356h96zM1103 1593zM639 1905z" />
    <glyph glyph-name="Edieresis" unicode="&#xcb;" horiz-adv-x="1251" 
d="M73 1406l8 7q343 -6 439 -6q328 0 584 6l5 -7q-25 -96 -37 -301l-6 -8h-49l-9 8q1 9 1 16q0 85 -13 162q-63 28 -174.5 36.5t-167.5 8.5q-79 0 -202 -11l-4 -160l-3 -183l-3 -203q108 -6 199 -6q92 0 154 6t72.5 12.5t16 25t9.5 65.5l4 62l8 8h46l8 -8q-2 -109 -5 -219
l5 -225l-8 -8h-46l-8 8l-7 60q-9 70 -13 83.5t-18.5 23.5t-74.5 16t-165 6q-58 0 -177 -5q-5 -84 -5 -280q0 -210 5 -309h184q243 0 304 6t116 29q9 23 29.5 106.5t23.5 104.5l10 7h48l8 -7q-9 -43 -17.5 -150t-8.5 -183l-7 -8q-191 6 -500 6l-272 2q-95 0 -198 -8l-8 8v33
l8 10q59 30 67.5 37.5t14 175t5.5 255.5v367l-1 227q0 74 -2 120.5t-7 66.5t-11.5 28t-21 13.5t-49.5 9.5l-76 6l-8 7v50zM644 1487zM640 -60zM883 1604q-47 0 -80 32.5t-33 79.5t33 80t80 33t79.5 -33t32.5 -80t-32.5 -79.5t-79.5 -32.5zM390 1604q-47 0 -80 32.5t-33 79.5
t33 80t80 33t79.5 -33t32.5 -80t-32.5 -79.5t-79.5 -32.5z" />
    <glyph glyph-name="Igrave" unicode="&#xcc;" horiz-adv-x="690" 
d="M59 1413l125 -4q123 -4 161 -4q34 0 287 8l8 -7v-50l-8 -7q-69 -2 -106.5 -6t-54.5 -15t-22.5 -51.5t-5.5 -112.5l-2 -230v-463l1 -195q1 -113 6 -146t14.5 -44t36.5 -18.5t133 -11.5l8 -6v-50l-8 -8q-5 0 -176 6q-71 2 -111 2q-31 0 -286 -8l-8 8v50l8 6q93 4 124 10
t41.5 15.5t17 40.5t7.5 138l1 211v463l-2 195q-1 114 -5.5 147t-14 44t-36.5 18t-133 11l-8 7v50zM359 1487zM345 -60zM417 1563l-25 -24l-15 4l-200 156l-210 157l12 31l10 7l187 -26l97 -120q16 -20 142 -171z" />
    <glyph glyph-name="Iacute" unicode="&#xcd;" horiz-adv-x="690" 
d="M59 1413l125 -4q123 -4 161 -4q34 0 287 8l8 -7v-50l-8 -7q-69 -2 -106.5 -6t-54.5 -15t-22.5 -51.5t-5.5 -112.5l-2 -230v-463l1 -195q1 -113 6 -146t14.5 -44t36.5 -18.5t133 -11.5l8 -6v-50l-8 -8q-5 0 -176 6q-71 2 -111 2q-31 0 -286 -8l-8 8v50l8 6q93 4 124 10
t41.5 15.5t17 40.5t7.5 138l1 211v463l-2 195q-1 114 -5.5 147t-14 44t-36.5 18t-133 11l-8 7v50zM359 1487zM345 -60zM706 1856l-210 -157l-200 -156l-15 -4l-25 24l2 14l144 174q3 3 95 117l187 26l10 -7z" />
    <glyph glyph-name="Icircumflex" unicode="&#xce;" horiz-adv-x="690" 
d="M59 1413l125 -4q123 -4 161 -4q34 0 287 8l8 -7v-50l-8 -7q-69 -2 -106.5 -6t-54.5 -15t-22.5 -51.5t-5.5 -112.5l-2 -230v-463l1 -195q1 -113 6 -146t14.5 -44t36.5 -18.5t133 -11.5l8 -6v-50l-8 -8q-5 0 -176 6q-71 2 -111 2q-31 0 -286 -8l-8 8v50l8 6q93 4 124 10
t41.5 15.5t17 40.5t7.5 138l1 211v463l-2 195q-1 114 -5.5 147t-14 44t-36.5 18t-133 11l-8 7v50zM359 1487zM345 -60zM684 1550l-7 -11h-62l-264 234l-264 -234h-62l-7 10l288 356h96zM818 1593zM354 1905z" />
    <glyph glyph-name="Idieresis" unicode="&#xcf;" horiz-adv-x="690" 
d="M59 1413l125 -4q123 -4 161 -4q34 0 287 8l8 -7v-50l-8 -7q-69 -2 -106.5 -6t-54.5 -15t-22.5 -51.5t-5.5 -112.5l-2 -230v-463l1 -195q1 -113 6 -146t14.5 -44t36.5 -18.5t133 -11.5l8 -6v-50l-8 -8q-5 0 -176 6q-71 2 -111 2q-31 0 -286 -8l-8 8v50l8 6q93 4 124 10
t41.5 15.5t17 40.5t7.5 138l1 211v463l-2 195q-1 114 -5.5 147t-14 44t-36.5 18t-133 11l-8 7v50zM359 1487zM345 -60zM598 1604q-47 0 -80 32.5t-33 79.5t33 80t80 33t79.5 -33t32.5 -80t-32.5 -79.5t-79.5 -32.5zM105 1604q-47 0 -80 32.5t-33 79.5t33 80t80 33t79.5 -33
t32.5 -80t-32.5 -79.5t-79.5 -32.5z" />
    <glyph glyph-name="Eth" unicode="&#xd0;" horiz-adv-x="1585" 
d="M26 694v56l11 11h170v117l-2 227q0 74 -2 120.5t-7 66.5t-11.5 28t-21 13.5t-48.5 9.5l-77 6l-8 7v50l8 7q173 -8 236 -8l468 10q193 0 321 -35.5t226 -122.5t154.5 -208t56.5 -276q0 -136 -46.5 -267.5t-133 -236.5t-197 -169.5t-222 -86t-226.5 -21.5q-79 0 -294 6
q-72 2 -95 2q-69 0 -167 -8l-7 8v33l8 10q59 30 67 37.5t14 175t6 255.5v173h-171zM723 761l10 -10v-57l-10 -10h-331v-58l2 -294q0 -86 6 -231q103 -20 235 -20q233 0 372.5 78t208.5 231t69 345q0 283 -151 439t-475 156q-135 0 -259 -20q-8 -164 -8 -370v-179h331z" />
    <glyph glyph-name="Ntilde" unicode="&#xd1;" horiz-adv-x="1702" 
d="M66 -7l-9 9v46l9 8q61 1 97.5 7t47 20t14 45t7 140t3.5 156v808q0 51 -18.5 75.5t-50.5 31t-109 7.5l-8 8v47l8 9q138 -5 181 -5q101 0 166 5l319 -414l469 -588q85 -107 173 -203v774q0 36 -3.5 153.5t-8.5 149t-17.5 42.5t-47 16.5t-93.5 6.5l-8 8v46l8 9q81 -5 231 -5
q137 0 199 5l9 -9v-46l-8 -8q-66 -1 -102 -7.5t-45 -21.5t-12.5 -44t-7 -138t-3.5 -157v-475l1 -275q2 -135 4 -271q-50 17 -173 42l-71 84l-213 260l-678 847v-767q0 -46 3.5 -164t8.5 -143t13 -34.5t34.5 -17.5t109.5 -9l8 -8v-47l-8 -8q-52 7 -168 7q-149 0 -261 -7z
M1220 1822q-19 -88 -80 -153.5t-138 -65.5q-67 0 -168 49q-101 50 -137 50q-89 0 -123 -99h-45l-7 8q17 88 79.5 153t137.5 65q67 0 167 -50q100 -49 141 -49q81 0 121 99h45z" />
    <glyph glyph-name="Ograve" unicode="&#xd2;" horiz-adv-x="1610" 
d="M48 689q0 150 43 280t146.5 240.5t249.5 171t330 60.5q341 0 543 -185.5t202 -506.5q0 -226 -99 -406t-283.5 -280t-414.5 -100q-163 0 -300 54.5t-233.5 162.5t-140 250t-43.5 259zM256 755q0 -122 39.5 -262.5t118 -241t181 -149.5t233.5 -49q155 0 276 71t184 220.5
t63 335.5q0 202 -72 365t-205 237t-295 74q-243 0 -383 -152t-140 -449zM790 1487zM795 -60zM916 1563l-25 -24l-15 4l-200 156l-210 157l12 31l10 7l187 -26l97 -120q16 -20 142 -171z" />
    <glyph glyph-name="Oacute" unicode="&#xd3;" horiz-adv-x="1610" 
d="M48 689q0 150 43 280t146.5 240.5t249.5 171t330 60.5q341 0 543 -185.5t202 -506.5q0 -226 -99 -406t-283.5 -280t-414.5 -100q-163 0 -300 54.5t-233.5 162.5t-140 250t-43.5 259zM256 755q0 -122 39.5 -262.5t118 -241t181 -149.5t233.5 -49q155 0 276 71t184 220.5
t63 335.5q0 202 -72 365t-205 237t-295 74q-243 0 -383 -152t-140 -449zM790 1487zM795 -60zM1166 1856l-210 -157l-200 -156l-15 -4l-25 24l2 14l144 174q3 3 95 117l187 26l10 -7z" />
    <glyph glyph-name="Ocircumflex" unicode="&#xd4;" horiz-adv-x="1610" 
d="M48 689q0 150 43 280t146.5 240.5t249.5 171t330 60.5q341 0 543 -185.5t202 -506.5q0 -226 -99 -406t-283.5 -280t-414.5 -100q-163 0 -300 54.5t-233.5 162.5t-140 250t-43.5 259zM256 755q0 -122 39.5 -262.5t118 -241t181 -149.5t233.5 -49q155 0 276 71t184 220.5
t63 335.5q0 202 -72 365t-205 237t-295 74q-243 0 -383 -152t-140 -449zM790 1487zM795 -60zM1149 1550l-7 -11h-62l-264 234l-264 -234h-62l-7 10l288 356h96zM1283 1593zM819 1905z" />
    <glyph glyph-name="Otilde" unicode="&#xd5;" horiz-adv-x="1610" 
d="M48 689q0 150 43 280t146.5 240.5t249.5 171t330 60.5q341 0 543 -185.5t202 -506.5q0 -226 -99 -406t-283.5 -280t-414.5 -100q-163 0 -300 54.5t-233.5 162.5t-140 250t-43.5 259zM256 755q0 -122 39.5 -262.5t118 -241t181 -149.5t233.5 -49q155 0 276 71t184 220.5
t63 335.5q0 202 -72 365t-205 237t-295 74q-243 0 -383 -152t-140 -449zM790 1487zM795 -60zM1160 1822q-19 -88 -80 -153.5t-138 -65.5q-67 0 -168 49q-101 50 -137 50q-89 0 -123 -99h-45l-7 8q17 88 79.5 153t137.5 65q67 0 167 -50q100 -49 141 -49q81 0 121 99h45z" />
    <glyph glyph-name="Odieresis" unicode="&#xd6;" horiz-adv-x="1610" 
d="M48 689q0 150 43 280t146.5 240.5t249.5 171t330 60.5q341 0 543 -185.5t202 -506.5q0 -226 -99 -406t-283.5 -280t-414.5 -100q-163 0 -300 54.5t-233.5 162.5t-140 250t-43.5 259zM256 755q0 -122 39.5 -262.5t118 -241t181 -149.5t233.5 -49q155 0 276 71t184 220.5
t63 335.5q0 202 -72 365t-205 237t-295 74q-243 0 -383 -152t-140 -449zM790 1487zM795 -60zM1058 1604q-47 0 -80 32.5t-33 79.5t33 80t80 33t79.5 -33t32.5 -80t-32.5 -79.5t-79.5 -32.5zM565 1604q-47 0 -80 32.5t-33 79.5t33 80t80 33t79.5 -33t32.5 -80t-32.5 -79.5
t-79.5 -32.5z" />
    <glyph glyph-name="multiply" unicode="&#xd7;" 
d="M901 335l-80 -78l-309 296l-308 -296l-81 78l307 297l-307 297l81 78l308 -296l309 296l80 -78l-307 -297z" />
    <glyph glyph-name="Oslash" unicode="&#xd8;" horiz-adv-x="1706" 
d="M79 32l179 173q-160 214 -160 497q0 333 217 536t565 203q156 0 276 -42t236 -129l173 160h12l47 -46l1 -12l-172 -163q89 -105 122 -221t33 -242q0 -240 -111 -416.5t-289.5 -272t-391.5 -95.5q-87 0 -175.5 17.5t-170.5 55t-152 102.5l-178 -168h-12l-49 51v12z
M1265 1152q-41 53 -73 81.5t-87 57.5t-128.5 47t-150.5 18q-157 0 -279 -71.5t-182.5 -206.5t-60.5 -305q0 -223 101 -430zM453 264q64 -77 116.5 -116.5t133 -67t177.5 -27.5q167 0 288 83.5t175 225t54 315.5q0 253 -84 399z" />
    <glyph glyph-name="Ugrave" unicode="&#xd9;" horiz-adv-x="1593" 
d="M30 1406l8 7q248 -8 286 -8q34 0 287 8l8 -7v-50l-8 -7q-69 -2 -106.5 -6t-54.5 -15t-22.5 -51.5t-5.5 -112.5l-2 -230v-318q0 -157 6.5 -230.5t28 -124t65.5 -87t126 -59.5t186 -23q110 0 205.5 30.5t145.5 88.5t65.5 152.5t15.5 262.5v308q0 78 -2.5 214.5t-12 157
t-35 31t-141.5 12.5l-8 8v47l8 9q148 -8 237 -8q76 0 236 8l9 -8v-48l-9 -8q-94 -2 -122.5 -7.5t-40 -16.5t-17 -34t-7.5 -132l-3 -225v-304q0 -182 -14 -287t-62.5 -172.5t-115 -113t-170.5 -70t-216 -24.5q-140 0 -247.5 31t-169.5 82t-89 107.5t-35 133t-8 233.5v384
l-2 195q-1 114 -5.5 147t-14 44t-36.5 18t-133 11l-8 7v50zM811 1487zM805 -60zM901 1563l-25 -24l-15 4l-200 156l-210 157l12 31l10 7l187 -26l97 -120q16 -20 142 -171z" />
    <glyph glyph-name="Uacute" unicode="&#xda;" horiz-adv-x="1593" 
d="M30 1406l8 7q248 -8 286 -8q34 0 287 8l8 -7v-50l-8 -7q-69 -2 -106.5 -6t-54.5 -15t-22.5 -51.5t-5.5 -112.5l-2 -230v-318q0 -157 6.5 -230.5t28 -124t65.5 -87t126 -59.5t186 -23q110 0 205.5 30.5t145.5 88.5t65.5 152.5t15.5 262.5v308q0 78 -2.5 214.5t-12 157
t-35 31t-141.5 12.5l-8 8v47l8 9q148 -8 237 -8q76 0 236 8l9 -8v-48l-9 -8q-94 -2 -122.5 -7.5t-40 -16.5t-17 -34t-7.5 -132l-3 -225v-304q0 -182 -14 -287t-62.5 -172.5t-115 -113t-170.5 -70t-216 -24.5q-140 0 -247.5 31t-169.5 82t-89 107.5t-35 133t-8 233.5v384
l-2 195q-1 114 -5.5 147t-14 44t-36.5 18t-133 11l-8 7v50zM811 1487zM805 -60zM1161 1856l-210 -157l-200 -156l-15 -4l-25 24l2 14l144 174q3 3 95 117l187 26l10 -7z" />
    <glyph glyph-name="Ucircumflex" unicode="&#xdb;" horiz-adv-x="1593" 
d="M30 1406l8 7q248 -8 286 -8q34 0 287 8l8 -7v-50l-8 -7q-69 -2 -106.5 -6t-54.5 -15t-22.5 -51.5t-5.5 -112.5l-2 -230v-318q0 -157 6.5 -230.5t28 -124t65.5 -87t126 -59.5t186 -23q110 0 205.5 30.5t145.5 88.5t65.5 152.5t15.5 262.5v308q0 78 -2.5 214.5t-12 157
t-35 31t-141.5 12.5l-8 8v47l8 9q148 -8 237 -8q76 0 236 8l9 -8v-48l-9 -8q-94 -2 -122.5 -7.5t-40 -16.5t-17 -34t-7.5 -132l-3 -225v-304q0 -182 -14 -287t-62.5 -172.5t-115 -113t-170.5 -70t-216 -24.5q-140 0 -247.5 31t-169.5 82t-89 107.5t-35 133t-8 233.5v384
l-2 195q-1 114 -5.5 147t-14 44t-36.5 18t-133 11l-8 7v50zM811 1487zM805 -60zM1159 1550l-7 -11h-62l-264 234l-264 -234h-62l-7 10l288 356h96zM1293 1593zM829 1905z" />
    <glyph glyph-name="Udieresis" unicode="&#xdc;" horiz-adv-x="1593" 
d="M30 1406l8 7q248 -8 286 -8q34 0 287 8l8 -7v-50l-8 -7q-69 -2 -106.5 -6t-54.5 -15t-22.5 -51.5t-5.5 -112.5l-2 -230v-318q0 -157 6.5 -230.5t28 -124t65.5 -87t126 -59.5t186 -23q110 0 205.5 30.5t145.5 88.5t65.5 152.5t15.5 262.5v308q0 78 -2.5 214.5t-12 157
t-35 31t-141.5 12.5l-8 8v47l8 9q148 -8 237 -8q76 0 236 8l9 -8v-48l-9 -8q-94 -2 -122.5 -7.5t-40 -16.5t-17 -34t-7.5 -132l-3 -225v-304q0 -182 -14 -287t-62.5 -172.5t-115 -113t-170.5 -70t-216 -24.5q-140 0 -247.5 31t-169.5 82t-89 107.5t-35 133t-8 233.5v384
l-2 195q-1 114 -5.5 147t-14 44t-36.5 18t-133 11l-8 7v50zM811 1487zM805 -60zM1078 1604q-47 0 -80 32.5t-33 79.5t33 80t80 33t79.5 -33t32.5 -80t-32.5 -79.5t-79.5 -32.5zM585 1604q-47 0 -80 32.5t-33 79.5t33 80t80 33t79.5 -33t32.5 -80t-32.5 -79.5t-79.5 -32.5z
" />
    <glyph glyph-name="Yacute" unicode="&#xdd;" horiz-adv-x="1366" 
d="M15 1319l-9 9v42l9 9l283 47q30 -21 58.5 -53t83 -119.5t140.5 -244t165 -313.5l102 162l115 192l212 363q39 -4 76 -4q23 0 70 4l8 -8v-19q-50 -55 -155 -199.5t-156.5 -226t-126.5 -205t-82 -148.5t-7 -59v-147l1 -150q1 -87 6.5 -121.5t15 -45t36 -17.5t132.5 -11
l8 -6v-50l-8 -8q-5 0 -176 6q-71 2 -111 2q-32 0 -286 -8l-8 8v50l8 6q95 4 125 10t40.5 15.5t16.5 37t7 112.5l2 171v190q-22 54 -147 259l-88 143q-42 68 -105.5 158.5t-98.5 123t-54 38t-102 5.5zM732 1487zM700 -60zM1066 1856l-210 -157l-200 -156l-15 -4l-25 24l2 14
l144 174q3 3 95 117l187 26l10 -7z" />
    <glyph glyph-name="Thorn" unicode="&#xde;" horiz-adv-x="1237" 
d="M76 1406l8 7q248 -8 286 -8q34 0 287 8l8 -7v-50l-8 -7q-100 -4 -130.5 -10.5t-41 -20t-14.5 -54.5t-5 -158q53 -3 98 -3l213 2q131 0 228.5 -50.5t134.5 -119.5t37 -148q0 -102 -57.5 -206t-163.5 -164t-241 -60q-52 0 -106 13l-18 66l11 6q54 -15 98 -15q78 0 141 40.5
t97.5 107.5t34.5 153q0 292 -336 292q-73 0 -171 -15v-534l1 -195q1 -113 6 -146t14.5 -44t36.5 -18.5t133 -11.5l8 -6v-50l-8 -8q-247 8 -287 8q-31 0 -286 -8l-8 8v50l8 6q93 4 124 10t41.5 15.5t17 40.5t7.5 138l1 211v463l-2 195q-1 114 -5.5 147t-14 44t-36.5 18
t-133 11l-8 7v50z" />
    <glyph glyph-name="germandbls" unicode="&#xdf;" horiz-adv-x="1139" 
d="M63 786v23l8 10l120 63v73q0 105 20.5 165.5t71 122.5t122 123t136 89t146.5 28q97 0 173 -38t111.5 -109.5t35.5 -159.5q0 -80 -25.5 -197t-48.5 -182l-15 -7q-86 47 -147 47q-48 0 -76.5 -28.5t-28.5 -67.5q0 -41 28.5 -68.5t145.5 -93.5q94 -53 132 -81t60 -70.5
t22 -102.5q0 -69 -24.5 -127.5t-68.5 -96.5q-105 -92 -135 -105q-60 -25 -130 -25q-95 0 -173 46v-16l-8 -9q-124 8 -240 8q-115 0 -241 -8l-8 9v42l8 8l74 4q33 2 44 7.5t17.5 14.5t10.5 31.5t7.5 145t3.5 142.5v382h-119zM602 221l9 -8v-86q71 -65 149 -65q65 0 114 44.5
t49 115.5q0 44 -19.5 77t-58.5 63t-172 116q-63 41 -85 65.5t-35.5 52.5t-13.5 65q0 34 7.5 54t25.5 42l108 134q12 15 32.5 23.5t60.5 14t65 5.5q8 0 33 -1q23 92 23 169q0 132 -74 210.5t-192 78.5q-87 0 -152 -49t-91.5 -130t-26.5 -244v-587l7 -222q2 -62 13 -79
t27 -20.5t101 -7.5q28 53 50 161l9 8h37z" />
    <glyph glyph-name="agrave" unicode="&#xe0;" 
d="M212 678l-39 10l-8 10v124q178 132 346 132q115 0 191 -43t110 -107.5t34 -150.5l-5 -201v-298q0 -61 8.5 -74t19.5 -17.5t41 -7.5l57 -5l8 -9v-40l-8 -8q-73 6 -136 6q-60 0 -144 -6l-15 14l4 161l-218 -170q-55 -23 -120 -23q-80 0 -137.5 29t-88 81t-30.5 126
q0 147 92 229.5t502 140.5q0 148 -66 208.5t-177 60.5q-58 0 -105.5 -17t-54.5 -27.5t-54 -122.5zM676 520q-280 -47 -349 -101t-69 -167q0 -156 155 -156q133 0 263 154v270zM506 1016zM485 -60zM540 1117l-3 -13l-29 -15l-13 4l-294 374l17 25l13 3l72 -14q23 -5 84 -15z
" />
    <glyph glyph-name="aacute" unicode="&#xe1;" 
d="M212 678l-39 10l-8 10v124q178 132 346 132q115 0 191 -43t110 -107.5t34 -150.5l-5 -201v-298q0 -61 8.5 -74t19.5 -17.5t41 -7.5l57 -5l8 -9v-40l-8 -8q-73 6 -136 6q-60 0 -144 -6l-15 14l4 161l-218 -170q-55 -23 -120 -23q-80 0 -137.5 29t-88 81t-30.5 126
q0 147 92 229.5t502 140.5q0 148 -66 208.5t-177 60.5q-58 0 -105.5 -17t-54.5 -27.5t-54 -122.5zM676 520q-280 -47 -349 -101t-69 -167q0 -156 155 -156q133 0 263 154v270zM506 1016zM485 -60zM780 1467l-294 -374l-13 -4l-29 15l-3 13l153 349l156 29l13 -3z" />
    <glyph glyph-name="acircumflex" unicode="&#xe2;" 
d="M212 678l-39 10l-8 10v124q178 132 346 132q115 0 191 -43t110 -107.5t34 -150.5l-5 -201v-298q0 -61 8.5 -74t19.5 -17.5t41 -7.5l57 -5l8 -9v-40l-8 -8q-73 6 -136 6q-60 0 -144 -6l-15 14l4 161l-218 -170q-55 -23 -120 -23q-80 0 -137.5 29t-88 81t-30.5 126
q0 147 92 229.5t502 140.5q0 148 -66 208.5t-177 60.5q-58 0 -105.5 -17t-54.5 -27.5t-54 -122.5zM676 520q-280 -47 -349 -101t-69 -167q0 -156 155 -156q133 0 263 154v270zM506 1016zM485 -60zM811 1120l-7 -10h-58l-255 248l-255 -248h-58l-7 10l261 362h118zM937 1150z
M491 1482z" />
    <glyph glyph-name="atilde" unicode="&#xe3;" 
d="M212 678l-39 10l-8 10v124q178 132 346 132q115 0 191 -43t110 -107.5t34 -150.5l-5 -201v-298q0 -61 8.5 -74t19.5 -17.5t41 -7.5l57 -5l8 -9v-40l-8 -8q-73 6 -136 6q-60 0 -144 -6l-15 14l4 161l-218 -170q-55 -23 -120 -23q-80 0 -137.5 29t-88 81t-30.5 126
q0 147 92 229.5t502 140.5q0 148 -66 208.5t-177 60.5q-58 0 -105.5 -17t-54.5 -27.5t-54 -122.5zM676 520q-280 -47 -349 -101t-69 -167q0 -156 155 -156q133 0 263 154v270zM506 1016zM485 -60zM841 1390q-21 -93 -80.5 -156.5t-136.5 -63.5q-64 0 -164 51t-141 51
q-78 0 -117 -101h-50l-6 7q18 87 79 151t136 64q63 0 165 -51q103 -51 143 -51q75 0 114 106h52z" />
    <glyph glyph-name="adieresis" unicode="&#xe4;" 
d="M212 678l-39 10l-8 10v124q178 132 346 132q115 0 191 -43t110 -107.5t34 -150.5l-5 -201v-298q0 -61 8.5 -74t19.5 -17.5t41 -7.5l57 -5l8 -9v-40l-8 -8q-73 6 -136 6q-60 0 -144 -6l-15 14l4 161l-218 -170q-55 -23 -120 -23q-80 0 -137.5 29t-88 81t-30.5 126
q0 147 92 229.5t502 140.5q0 148 -66 208.5t-177 60.5q-58 0 -105.5 -17t-54.5 -27.5t-54 -122.5zM676 520q-280 -47 -349 -101t-69 -167q0 -156 155 -156q133 0 263 154v270zM506 1016zM485 -60zM717 1163q-45 0 -77 32t-32 77q0 46 31.5 77.5t77.5 31.5t77.5 -31.5
t31.5 -77.5q0 -45 -32 -77t-77 -32zM294 1163q-45 0 -77 32t-32 77t32 77t77 32q46 0 77.5 -31.5t31.5 -77.5q0 -45 -32 -77t-77 -32z" />
    <glyph glyph-name="aring" unicode="&#xe5;" 
d="M212 678l-39 10l-8 10v124q178 132 346 132q115 0 191 -43t110 -107.5t34 -150.5l-5 -201v-298q0 -61 8.5 -74t19.5 -17.5t41 -7.5l57 -5l8 -9v-40l-8 -8q-73 6 -136 6q-60 0 -144 -6l-15 14l4 161l-218 -170q-55 -23 -120 -23q-80 0 -137.5 29t-88 81t-30.5 126
q0 147 92 229.5t502 140.5q0 148 -66 208.5t-177 60.5q-58 0 -105.5 -17t-54.5 -27.5t-54 -122.5zM676 520q-280 -47 -349 -101t-69 -167q0 -156 155 -156q133 0 263 154v270zM506 1016zM485 -60zM691 1282q0 -80 -59.5 -133t-140.5 -53q-58 0 -103.5 25.5t-71 66.5
t-25.5 94q0 78 59 132t141 54q58 0 104 -26.5t71 -67t25 -92.5zM607 1282q0 53 -30 97t-86 44q-55 0 -85.5 -43t-30.5 -98q0 -59 32.5 -100t83.5 -41q55 0 85.5 43t30.5 98z" />
    <glyph glyph-name="ae" unicode="&#xe6;" horiz-adv-x="1552" 
d="M1436 164l16 -17l-32 -72q-104 -67 -185.5 -87t-145.5 -20q-135 0 -241.5 54t-167.5 163q-165 -144 -233 -194q-69 -21 -136 -21q-131 0 -198.5 73.5t-67.5 170.5q0 48 19.5 98.5t51.5 86.5t67.5 54.5t115 39.5t176.5 35t168 18q0 154 -61 228t-175 74q-86 0 -177 -43
q-15 -26 -28 -61l-23 -56l-12 -5l-35 8l-8 11v117q14 8 62 35.5t87 49.5l58 30q18 9 34 13t51 8t64 4q64 0 118.5 -17t89 -43t74.5 -75q78 63 161.5 99.5t180.5 36.5q120 0 211 -56.5t128.5 -144.5t37.5 -187q0 -29 -4 -60l-10 -11q-68 -15 -183 -20t-152 -5h-321
q2 -207 104 -305t250 -98q67 0 130 22.5t141 68.5zM811 556q18 -3 138.5 -7t178.5 -4q139 0 169 5q1 24 1 37q0 151 -61.5 228.5t-173.5 77.5q-119 0 -185.5 -85t-66.5 -252zM643 480q-62 -2 -111.5 -9.5t-115.5 -25.5t-102 -34t-51 -31.5t-27.5 -49.5t-12.5 -73
q0 -60 41 -109.5t124 -49.5t151.5 46.5t103.5 98.5v237z" />
    <glyph glyph-name="ccedilla" unicode="&#xe7;" horiz-adv-x="909" 
d="M552 -31l-48 -111q33 6 62 6q81 0 127.5 -39t46.5 -102q0 -51 -34.5 -93.5t-87 -60.5t-122.5 -18q-97 0 -181 29l-4 12l24 51l11 5q61 -22 124 -22q56 0 82.5 26t26.5 58q0 35 -28 56.5t-74 21.5q-29 0 -62 -10l-18 14l81 180q-184 16 -291 142.5t-107 323.5
q0 94 20.5 167.5t52 121.5t69.5 76t128.5 78t136.5 65.5t127 15.5q155 0 254 -59q-19 -113 -29 -252l-9 -8h-41l-9 9q-4 84 -11 113t-79.5 62t-154.5 33t-146 -34.5t-96.5 -113t-32.5 -187.5q0 -92 26 -179.5t68.5 -145t112.5 -92.5t156 -35q54 0 105.5 14t118.5 46l21 -26
l-40 -67q-126 -69 -276 -71z" />
    <glyph glyph-name="egrave" unicode="&#xe8;" horiz-adv-x="981" 
d="M884 147l-32 -72q-104 -67 -185.5 -87t-145.5 -20q-120 0 -227.5 47t-175 159t-67.5 270q0 105 26 189.5t54.5 125.5t96.5 91t144 80t164 30q120 0 211.5 -56.5t128.5 -144.5t37 -187q0 -31 -3 -60l-11 -11q-68 -15 -183 -20t-152 -5h-321q2 -207 104 -305t250 -98
q70 0 134.5 24t136.5 67zM243 556q18 -3 138.5 -7t178.5 -4q139 0 169 5q1 24 1 37q0 155 -63 230.5t-172 75.5q-119 0 -185.5 -85t-66.5 -252zM522 1016zM510 -60zM560 1117l-3 -13l-29 -15l-13 4l-294 374l17 25l13 3l72 -14q23 -5 84 -15z" />
    <glyph glyph-name="eacute" unicode="&#xe9;" horiz-adv-x="981" 
d="M884 147l-32 -72q-104 -67 -185.5 -87t-145.5 -20q-120 0 -227.5 47t-175 159t-67.5 270q0 105 26 189.5t54.5 125.5t96.5 91t144 80t164 30q120 0 211.5 -56.5t128.5 -144.5t37 -187q0 -31 -3 -60l-11 -11q-68 -15 -183 -20t-152 -5h-321q2 -207 104 -305t250 -98
q70 0 134.5 24t136.5 67zM243 556q18 -3 138.5 -7t178.5 -4q139 0 169 5q1 24 1 37q0 155 -63 230.5t-172 75.5q-119 0 -185.5 -85t-66.5 -252zM522 1016zM510 -60zM810 1467l-294 -374l-13 -4l-29 15l-3 13l153 349l156 29l13 -3z" />
    <glyph glyph-name="ecircumflex" unicode="&#xea;" horiz-adv-x="981" 
d="M884 147l-32 -72q-104 -67 -185.5 -87t-145.5 -20q-120 0 -227.5 47t-175 159t-67.5 270q0 105 26 189.5t54.5 125.5t96.5 91t144 80t164 30q120 0 211.5 -56.5t128.5 -144.5t37 -187q0 -31 -3 -60l-11 -11q-68 -15 -183 -20t-152 -5h-321q2 -207 104 -305t250 -98
q70 0 134.5 24t136.5 67zM243 556q18 -3 138.5 -7t178.5 -4q139 0 169 5q1 24 1 37q0 155 -63 230.5t-172 75.5q-119 0 -185.5 -85t-66.5 -252zM522 1016zM510 -60zM831 1120l-7 -10h-58l-255 248l-255 -248h-58l-7 10l261 362h118zM957 1150zM511 1482z" />
    <glyph glyph-name="edieresis" unicode="&#xeb;" horiz-adv-x="981" 
d="M884 147l-32 -72q-104 -67 -185.5 -87t-145.5 -20q-120 0 -227.5 47t-175 159t-67.5 270q0 105 26 189.5t54.5 125.5t96.5 91t144 80t164 30q120 0 211.5 -56.5t128.5 -144.5t37 -187q0 -31 -3 -60l-11 -11q-68 -15 -183 -20t-152 -5h-321q2 -207 104 -305t250 -98
q70 0 134.5 24t136.5 67zM243 556q18 -3 138.5 -7t178.5 -4q139 0 169 5q1 24 1 37q0 155 -63 230.5t-172 75.5q-119 0 -185.5 -85t-66.5 -252zM522 1016zM510 -60zM717 1163q-45 0 -77 32t-32 77q0 46 31.5 77.5t77.5 31.5t77.5 -31.5t31.5 -77.5q0 -45 -32 -77t-77 -32z
M294 1163q-45 0 -77 32t-32 77t32 77t77 32q46 0 77.5 -31.5t31.5 -77.5q0 -45 -32 -77t-77 -32z" />
    <glyph glyph-name="igrave" unicode="&#xec;" horiz-adv-x="596" 
d="M373 953l19 -13q-11 -131 -11 -333v-226q0 -22 4 -141.5t8.5 -139.5t13.5 -29t22 -11.5t108 -8.5l9 -8v-42l-8 -9q-125 8 -241 8q-115 0 -240 -8l-9 9v42l9 8q97 6 109.5 9t22 12.5t13 29t8 129t4.5 165.5v197q0 40 -4 109t-6.5 85t-15.5 23.5t-52 7.5l-84 1l-9 8v43l8 8
q191 23 322 75zM300 1016zM295 -60zM331 1117l-3 -13l-29 -15l-13 4l-294 374l17 25l13 3l72 -14q23 -5 84 -15z" />
    <glyph glyph-name="iacute" unicode="&#xed;" horiz-adv-x="596" 
d="M373 953l19 -13q-11 -131 -11 -333v-226q0 -22 4 -141.5t8.5 -139.5t13.5 -29t22 -11.5t108 -8.5l9 -8v-42l-8 -9q-125 8 -241 8q-115 0 -240 -8l-9 9v42l9 8q97 6 109.5 9t22 12.5t13 29t8 129t4.5 165.5v197q0 40 -4 109t-6.5 85t-15.5 23.5t-52 7.5l-84 1l-9 8v43l8 8
q191 23 322 75zM300 1016zM295 -60zM550 1467l-294 -374l-13 -4l-29 15l-3 13l153 349l156 29l13 -3z" />
    <glyph glyph-name="icircumflex" unicode="&#xee;" horiz-adv-x="596" 
d="M373 953l19 -13q-11 -131 -11 -333v-226q0 -22 4 -141.5t8.5 -139.5t13.5 -29t22 -11.5t108 -8.5l9 -8v-42l-8 -9q-125 8 -241 8q-115 0 -240 -8l-9 9v42l9 8q97 6 109.5 9t22 12.5t13 29t8 129t4.5 165.5v197q0 40 -4 109t-6.5 85t-15.5 23.5t-52 7.5l-84 1l-9 8v43l8 8
q191 23 322 75zM300 1016zM295 -60zM592 1120l-7 -10h-58l-255 248l-255 -248h-58l-7 10l261 362h118zM718 1150zM272 1482z" />
    <glyph glyph-name="idieresis" unicode="&#xef;" horiz-adv-x="596" 
d="M373 953l19 -13q-11 -131 -11 -333v-226q0 -22 4 -141.5t8.5 -139.5t13.5 -29t22 -11.5t108 -8.5l9 -8v-42l-8 -9q-125 8 -241 8q-115 0 -240 -8l-9 9v42l9 8q97 6 109.5 9t22 12.5t13 29t8 129t4.5 165.5v197q0 40 -4 109t-6.5 85t-15.5 23.5t-52 7.5l-84 1l-9 8v43l8 8
q191 23 322 75zM300 1016zM295 -60zM473 1163q-45 0 -77 32t-32 77q0 46 31.5 77.5t77.5 31.5t77.5 -31.5t31.5 -77.5q0 -45 -32 -77t-77 -32zM50 1163q-45 0 -77 32t-32 77t32 77t77 32q46 0 77.5 -31.5t31.5 -77.5q0 -45 -32 -77t-77 -32z" />
    <glyph glyph-name="eth" unicode="&#xf0;" horiz-adv-x="1118" 
d="M588 1204l-279 -131l-12 3l-28 44l4 13l269 127q-87 81 -238 161l-1 13l52 51l15 1q176 -102 265 -176l284 136l12 -3l27 -43l-3 -12l-257 -128q201 -201 272.5 -376.5t71.5 -346.5q0 -157 -60.5 -289.5t-180.5 -209.5t-273 -77q-196 0 -324 132t-128 351
q0 146 57.5 265.5t175 186.5t257.5 67q64 0 111 -12t110 -39q-72 173 -199 292zM266 533q0 -127 34 -246t104 -188.5t167 -69.5q139 0 215 139t76 322q0 197 -88.5 301t-220.5 104q-96 0 -165.5 -51.5t-95.5 -136.5t-26 -174z" />
    <glyph glyph-name="ntilde" unicode="&#xf1;" horiz-adv-x="1192" 
d="M342 953l19 -13q-6 -67 -8 -176q80 66 152 134q21 19 39.5 28t61.5 19t88 10q76 0 147.5 -31t108 -73.5t50.5 -100.5t14 -143v-176q0 -17 5 -249q2 -95 21 -113t124 -18l8 -8v-43l-8 -8q-127 8 -172 8q-26 0 -146 -8l-12 11q13 130 13 339v131q0 118 -5.5 170t-33.5 94.5
t-75 66t-112 23.5q-52 0 -89 -10.5t-83 -43t-68 -61t-26.5 -53t-4.5 -104.5v-174q0 -22 4 -141.5t8.5 -139.5t13.5 -29t22 -11.5t108 -8.5l9 -8v-42l-8 -9q-125 8 -241 8q-115 0 -240 -8l-9 9v42l9 8q97 6 109.5 9t22 12.5t13 29t8 129t4.5 165.5v197q0 40 -4 109t-6.5 85
t-15.5 23.5t-52 7.5l-84 1l-9 8v43l8 8q191 23 322 75zM969 1390q-21 -93 -80.5 -156.5t-136.5 -63.5q-64 0 -164 51t-141 51q-78 0 -117 -101h-50l-6 7q18 87 79 151t136 64q63 0 165 -51q103 -51 143 -51q75 0 114 106h52z" />
    <glyph glyph-name="ograve" unicode="&#xf2;" horiz-adv-x="1118" 
d="M68 458q0 119 49 229.5t170.5 191t288.5 80.5q210 0 342 -132.5t132 -340.5q0 -229 -151.5 -377t-365.5 -148q-140 0 -250 75.5t-162.5 184.5t-52.5 237zM257 527q0 -140 36 -250.5t114 -177.5t178 -67q118 0 195 93.5t77 281.5q0 213 -83.5 349t-240.5 136
q-130 0 -203 -94t-73 -271zM560 1016zM545 -60zM580 1117l-3 -13l-29 -15l-13 4l-294 374l17 25l13 3l72 -14q23 -5 84 -15z" />
    <glyph glyph-name="oacute" unicode="&#xf3;" horiz-adv-x="1118" 
d="M68 458q0 119 49 229.5t170.5 191t288.5 80.5q210 0 342 -132.5t132 -340.5q0 -229 -151.5 -377t-365.5 -148q-140 0 -250 75.5t-162.5 184.5t-52.5 237zM257 527q0 -140 36 -250.5t114 -177.5t178 -67q118 0 195 93.5t77 281.5q0 213 -83.5 349t-240.5 136
q-130 0 -203 -94t-73 -271zM560 1016zM545 -60zM820 1467l-294 -374l-13 -4l-29 15l-3 13l153 349l156 29l13 -3z" />
    <glyph glyph-name="ocircumflex" unicode="&#xf4;" horiz-adv-x="1118" 
d="M68 458q0 119 49 229.5t170.5 191t288.5 80.5q210 0 342 -132.5t132 -340.5q0 -229 -151.5 -377t-365.5 -148q-140 0 -250 75.5t-162.5 184.5t-52.5 237zM257 527q0 -140 36 -250.5t114 -177.5t178 -67q118 0 195 93.5t77 281.5q0 213 -83.5 349t-240.5 136
q-130 0 -203 -94t-73 -271zM560 1016zM545 -60zM871 1120l-7 -10h-58l-255 248l-255 -248h-58l-7 10l261 362h118zM997 1150zM551 1482z" />
    <glyph glyph-name="otilde" unicode="&#xf5;" horiz-adv-x="1118" 
d="M68 458q0 119 49 229.5t170.5 191t288.5 80.5q210 0 342 -132.5t132 -340.5q0 -229 -151.5 -377t-365.5 -148q-140 0 -250 75.5t-162.5 184.5t-52.5 237zM257 527q0 -140 36 -250.5t114 -177.5t178 -67q118 0 195 93.5t77 281.5q0 213 -83.5 349t-240.5 136
q-130 0 -203 -94t-73 -271zM560 1016zM545 -60zM889 1390q-21 -93 -80.5 -156.5t-136.5 -63.5q-64 0 -164 51t-141 51q-78 0 -117 -101h-50l-6 7q18 87 79 151t136 64q63 0 165 -51q103 -51 143 -51q75 0 114 106h52z" />
    <glyph glyph-name="odieresis" unicode="&#xf6;" horiz-adv-x="1118" 
d="M68 458q0 119 49 229.5t170.5 191t288.5 80.5q210 0 342 -132.5t132 -340.5q0 -229 -151.5 -377t-365.5 -148q-140 0 -250 75.5t-162.5 184.5t-52.5 237zM257 527q0 -140 36 -250.5t114 -177.5t178 -67q118 0 195 93.5t77 281.5q0 213 -83.5 349t-240.5 136
q-130 0 -203 -94t-73 -271zM560 1016zM545 -60zM762 1163q-45 0 -77 32t-32 77q0 46 31.5 77.5t77.5 31.5t77.5 -31.5t31.5 -77.5q0 -45 -32 -77t-77 -32zM339 1163q-45 0 -77 32t-32 77t32 77t77 32q46 0 77.5 -31.5t31.5 -77.5q0 -45 -32 -77t-77 -32z" />
    <glyph glyph-name="divide" unicode="&#xf7;" 
d="M512 831q-41 0 -70 29t-29 70t29 69.5t70 28.5t70 -28.5t29 -69.5t-29 -70t-70 -29zM994 576h-964v112h964v-112zM512 234q-41 0 -70 29t-29 70t29 69.5t70 28.5t70 -28.5t29 -69.5t-29 -70t-70 -29z" />
    <glyph glyph-name="oslash" unicode="&#xf8;" horiz-adv-x="1118" 
d="M175 137q-107 135 -107 321q0 219 144 360t364 141q190 0 322 -113l123 121h12l44 -42v-12l-126 -123q99 -126 99 -304q0 -229 -151.5 -377t-364.5 -148q-178 0 -307 119l-125 -122h-12l-44 40v12zM299 259l486 477q-85 156 -252 156q-130 0 -203 -94t-73 -271
q0 -156 42 -268zM819 660l-484 -474q96 -154 250 -154q118 0 195 93t77 282q0 138 -38 253z" />
    <glyph glyph-name="ugrave" unicode="&#xf9;" horiz-adv-x="1235" 
d="M346 953l19 -13q-11 -131 -11 -333v-233q0 -128 19.5 -178t67.5 -76.5t114 -26.5q73 0 133 28.5t100.5 80.5t46.5 70t8 101l3 112v108q0 40 -4 109t-6.5 85t-15.5 23.5t-52 7.5l-84 1l-9 8v43l8 8q191 23 322 75l19 -13q-11 -131 -11 -333v-176q0 -15 5 -245
q2 -85 10.5 -103.5t23.5 -26t89 -7.5h28l9 -8v-40l-8 -9q-141 8 -189 8q-61 0 -141 -7l-9 8q6 102 9 173q-63 -49 -144 -131q-31 -31 -89 -52t-132 -21q-112 0 -174.5 35.5t-88.5 98t-26 215.5l1 79v195q0 40 -4 109t-6.5 85t-15.5 23.5t-52 7.5l-84 1l-9 8v43l8 8
q191 23 322 75zM585 1016zM595 -60zM620 1117l-3 -13l-29 -15l-13 4l-294 374l17 25l13 3l72 -14q23 -5 84 -15z" />
    <glyph glyph-name="uacute" unicode="&#xfa;" horiz-adv-x="1235" 
d="M346 953l19 -13q-11 -131 -11 -333v-233q0 -128 19.5 -178t67.5 -76.5t114 -26.5q73 0 133 28.5t100.5 80.5t46.5 70t8 101l3 112v108q0 40 -4 109t-6.5 85t-15.5 23.5t-52 7.5l-84 1l-9 8v43l8 8q191 23 322 75l19 -13q-11 -131 -11 -333v-176q0 -15 5 -245
q2 -85 10.5 -103.5t23.5 -26t89 -7.5h28l9 -8v-40l-8 -9q-141 8 -189 8q-61 0 -141 -7l-9 8q6 102 9 173q-63 -49 -144 -131q-31 -31 -89 -52t-132 -21q-112 0 -174.5 35.5t-88.5 98t-26 215.5l1 79v195q0 40 -4 109t-6.5 85t-15.5 23.5t-52 7.5l-84 1l-9 8v43l8 8
q191 23 322 75zM585 1016zM595 -60zM840 1467l-294 -374l-13 -4l-29 15l-3 13l153 349l156 29l13 -3z" />
    <glyph glyph-name="ucircumflex" unicode="&#xfb;" horiz-adv-x="1235" 
d="M346 953l19 -13q-11 -131 -11 -333v-233q0 -128 19.5 -178t67.5 -76.5t114 -26.5q73 0 133 28.5t100.5 80.5t46.5 70t8 101l3 112v108q0 40 -4 109t-6.5 85t-15.5 23.5t-52 7.5l-84 1l-9 8v43l8 8q191 23 322 75l19 -13q-11 -131 -11 -333v-176q0 -15 5 -245
q2 -85 10.5 -103.5t23.5 -26t89 -7.5h28l9 -8v-40l-8 -9q-141 8 -189 8q-61 0 -141 -7l-9 8q6 102 9 173q-63 -49 -144 -131q-31 -31 -89 -52t-132 -21q-112 0 -174.5 35.5t-88.5 98t-26 215.5l1 79v195q0 40 -4 109t-6.5 85t-15.5 23.5t-52 7.5l-84 1l-9 8v43l8 8
q191 23 322 75zM585 1016zM595 -60zM911 1120l-7 -10h-58l-255 248l-255 -248h-58l-7 10l261 362h118zM1037 1150zM591 1482z" />
    <glyph glyph-name="udieresis" unicode="&#xfc;" horiz-adv-x="1235" 
d="M346 953l19 -13q-11 -131 -11 -333v-233q0 -128 19.5 -178t67.5 -76.5t114 -26.5q73 0 133 28.5t100.5 80.5t46.5 70t8 101l3 112v108q0 40 -4 109t-6.5 85t-15.5 23.5t-52 7.5l-84 1l-9 8v43l8 8q191 23 322 75l19 -13q-11 -131 -11 -333v-176q0 -15 5 -245
q2 -85 10.5 -103.5t23.5 -26t89 -7.5h28l9 -8v-40l-8 -9q-141 8 -189 8q-61 0 -141 -7l-9 8q6 102 9 173q-63 -49 -144 -131q-31 -31 -89 -52t-132 -21q-112 0 -174.5 35.5t-88.5 98t-26 215.5l1 79v195q0 40 -4 109t-6.5 85t-15.5 23.5t-52 7.5l-84 1l-9 8v43l8 8
q191 23 322 75zM585 1016zM595 -60zM792 1163q-45 0 -77 32t-32 77q0 46 31.5 77.5t77.5 31.5t77.5 -31.5t31.5 -77.5q0 -45 -32 -77t-77 -32zM369 1163q-45 0 -77 32t-32 77t32 77t77 32q46 0 77.5 -31.5t31.5 -77.5q0 -45 -32 -77t-77 -32z" />
    <glyph glyph-name="yacute" unicode="&#xfd;" horiz-adv-x="1139" 
d="M45 -543q34 84 51 154h24q49 -53 106 -53q71 0 123.5 70.5t148.5 311.5q-38 107 -77 202l-159 394q-25 61 -74 174.5t-58.5 125t-24.5 21.5t-81 19l-8 8v40l9 8q115 -7 236 -7q142 0 219 7l8 -8v-40l-7 -8q-11 -1 -61.5 -4.5t-63 -16t-12.5 -28.5q0 -17 31 -110.5
t60 -165.5l63 -156q62 -154 96 -227l53 117q28 64 80 194l83 212q32 82 36.5 102t4.5 29q0 22 -16 30t-71 14l-42 6l-7 8v44l8 8q84 -7 199 -7q105 0 168 7l8 -8v-44l-8 -8q-37 -1 -59 -10t-42 -32t-72 -129.5t-104 -220.5l-98 -215l-231 -540q-30 -70 -74.5 -150
t-109 -115.5t-136.5 -35.5q-63 0 -119 33zM580 1016zM815 -60zM870 1467l-294 -374l-13 -4l-29 15l-3 13l153 349l156 29l13 -3z" />
    <glyph glyph-name="thorn" unicode="&#xfe;" horiz-adv-x="1231" 
d="M370 1481l19 -12q-12 -114 -11 -718q136 124 189.5 164t184.5 40q82 0 149 -22.5t124 -74t90 -129t33 -179.5q0 -72 -23 -146t-60.5 -137t-60 -83.5t-92.5 -61.5q-63 -38 -125 -82q-43 -31 -60 -40t-57 -18t-85 -9q-104 0 -207 53v-213q0 -22 4 -141.5t8.5 -139.5
t13.5 -29t22 -11.5t108 -8.5l9 -8v-42l-8 -9q-125 8 -240 8t-240 -8l-9 9v42l9 8q96 6 109 9t22.5 12.5t13 30.5t8 134t4.5 170v1075q-6 261 -9.5 334t-9.5 83t-22 13t-62 3h-59l-9 8v43l8 8q191 23 321 75zM378 198q46 -47 114 -81.5t150 -34.5q97 0 171.5 49t115.5 143.5
t41 209.5q0 93 -36.5 173t-113 126t-162.5 46q-53 0 -103 -18.5t-93.5 -54.5t-62.5 -68.5t-20 -54t-1 -47.5v-388z" />
    <glyph glyph-name="ydieresis" unicode="&#xff;" horiz-adv-x="1139" 
d="M45 -543q34 84 51 154h24q49 -53 106 -53q71 0 123.5 70.5t148.5 311.5q-38 107 -77 202l-159 394q-25 61 -74 174.5t-58.5 125t-24.5 21.5t-81 19l-8 8v40l9 8q115 -7 236 -7q142 0 219 7l8 -8v-40l-7 -8q-11 -1 -61.5 -4.5t-63 -16t-12.5 -28.5q0 -17 31 -110.5
t60 -165.5l63 -156q62 -154 96 -227l53 117q28 64 80 194l83 212q32 82 36.5 102t4.5 29q0 22 -16 30t-71 14l-42 6l-7 8v44l8 8q84 -7 199 -7q105 0 168 7l8 -8v-44l-8 -8q-37 -1 -59 -10t-42 -32t-72 -129.5t-104 -220.5l-98 -215l-231 -540q-30 -70 -74.5 -150
t-109 -115.5t-136.5 -35.5q-63 0 -119 33zM580 1016zM815 -60zM802 1163q-45 0 -77 32t-32 77q0 46 31.5 77.5t77.5 31.5t77.5 -31.5t31.5 -77.5q0 -45 -32 -77t-77 -32zM379 1163q-45 0 -77 32t-32 77t32 77t77 32q46 0 77.5 -31.5t31.5 -77.5q0 -45 -32 -77t-77 -32z" />
    <glyph glyph-name="Amacron" unicode="&#x100;" horiz-adv-x="1593" 
d="M44 -8l-9 8v52l9 8q73 1 94 7.5t37.5 26t66.5 127.5l105 228l272 616q77 181 153 362h65l427 -1004l57 -134q25 -57 57.5 -124t45 -79t31 -18.5t82.5 -7.5l8 -8v-52l-8 -8q-106 9 -191 9q-166 -5 -332 -9l-8 8v52l8 8q112 2 140 9.5t28 34.5q0 22 -14 58l-123 305h-579
l-109 -256q-29 -69 -29 -101q0 -25 27 -37t136 -13l9 -8v-52l-8 -8q-129 8 -226 8q-110 0 -222 -8zM500 553h506l-251 603zM803 1487zM780 -60zM1120 1665h-648v102h648v-102z" />
    <glyph glyph-name="amacron" unicode="&#x101;" 
d="M212 678l-39 10l-8 10v124q178 132 346 132q115 0 191 -43t110 -107.5t34 -150.5l-5 -201v-298q0 -61 8.5 -74t19.5 -17.5t41 -7.5l57 -5l8 -9v-40l-8 -8q-73 6 -136 6q-60 0 -144 -6l-15 14l4 161l-218 -170q-55 -23 -120 -23q-80 0 -137.5 29t-88 81t-30.5 126
q0 147 92 229.5t502 140.5q0 148 -66 208.5t-177 60.5q-58 0 -105.5 -17t-54.5 -27.5t-54 -122.5zM676 520q-280 -47 -349 -101t-69 -167q0 -156 155 -156q133 0 263 154v270zM506 1016zM485 -60zM816 1215h-630v105h630v-105z" />
    <glyph glyph-name="Abreve" unicode="&#x102;" horiz-adv-x="1593" 
d="M44 -8l-9 8v52l9 8q73 1 94 7.5t37.5 26t66.5 127.5l105 228l272 616q77 181 153 362h65l427 -1004l57 -134q25 -57 57.5 -124t45 -79t31 -18.5t82.5 -7.5l8 -8v-52l-8 -8q-106 9 -191 9q-166 -5 -332 -9l-8 8v52l8 8q112 2 140 9.5t28 34.5q0 22 -14 58l-123 305h-579
l-109 -256q-29 -69 -29 -101q0 -25 27 -37t136 -13l9 -8v-52l-8 -8q-129 8 -226 8q-110 0 -222 -8zM500 553h506l-251 603zM803 1487zM780 -60zM1099 1871q0 -109 -60 -197q-80 -119 -237 -119q-164 0 -246 112q-63 86 -63 204l5 7h53q39 -193 254 -193q199 0 236 193h53z
M804 1881z" />
    <glyph glyph-name="abreve" unicode="&#x103;" 
d="M212 678l-39 10l-8 10v124q178 132 346 132q115 0 191 -43t110 -107.5t34 -150.5l-5 -201v-298q0 -61 8.5 -74t19.5 -17.5t41 -7.5l57 -5l8 -9v-40l-8 -8q-73 6 -136 6q-60 0 -144 -6l-15 14l4 161l-218 -170q-55 -23 -120 -23q-80 0 -137.5 29t-88 81t-30.5 126
q0 147 92 229.5t502 140.5q0 148 -66 208.5t-177 60.5q-58 0 -105.5 -17t-54.5 -27.5t-54 -122.5zM676 520q-280 -47 -349 -101t-69 -167q0 -156 155 -156q133 0 263 154v270zM506 1016zM485 -60zM785 1424q-7 -151 -81.5 -240.5t-202.5 -89.5q-85 0 -146 39t-97.5 113
t-40.5 178l8 8h54q15 -93 74.5 -152.5t147.5 -59.5t147.5 59.5t74.5 152.5h54zM500 1423z" />
    <glyph glyph-name="Aogonek" unicode="&#x104;" horiz-adv-x="1593" 
d="M1576 -265q-146 -130 -275 -130q-71 0 -119 44.5t-48 122.5q0 122 172 228l-292 -8l-8 8v52l8 8l80 2q41 0 64.5 11t23.5 31q0 23 -14 58l-123 305h-579l-109 -256q-29 -68 -29 -101q0 -18 17 -30t41 -15.5t105 -4.5l9 -8v-52l-8 -8q-129 8 -226 8q-110 0 -222 -8l-9 8
v52l9 8q54 0 87.5 9.5t49.5 31.5t60 118l106 230l272 616q14 31 153 362h65l484 -1138q75 -177 102.5 -202.5t113.5 -26.5l8 -8v-52l-8 -8q-45 5 -155 8q-125 -115 -125 -193q0 -43 28 -72.5t75 -29.5q81 0 181 74l13 -1l22 -29v-14zM1006 553l-251 603l-255 -603h506z" />
    <glyph glyph-name="aogonek" unicode="&#x105;" 
d="M872 -2q-73 -66 -102 -106.5t-29 -81.5q0 -42 29.5 -73.5t73.5 -31.5q80 0 178 85l16 -1l27 -37v-14q-101 -89 -163.5 -113.5t-116.5 -24.5q-71 0 -119 49.5t-48 119.5q0 61 39 113.5t130 115.5q-62 -2 -100 -5l-15 14l4 161l-128 -100q-67 -53 -90 -70q-55 -23 -120 -23
q-119 0 -187.5 63.5t-68.5 172.5q0 88 37 155.5t83.5 96t180 64t293.5 54.5q0 62 -8.5 106t-41 83.5t-82 59.5t-111.5 20q-36 0 -67.5 -6.5t-58.5 -18.5t-31 -16t-57 -126l-7 -5l-39 10l-8 10v124q114 73 186.5 102.5t159.5 29.5q155 0 245 -81t90 -220l-5 -201v-298
q0 -49 7.5 -67t19 -24t42.5 -8l57 -5l8 -9v-40l-8 -8q-59 5 -95 5zM676 520q-83 -14 -164.5 -34t-130 -40t-70.5 -42t-37.5 -62.5t-15.5 -89.5q0 -69 39 -112.5t116 -43.5q133 0 263 154v270z" />
    <glyph glyph-name="Cacute" unicode="&#x106;" horiz-adv-x="1452" 
d="M1395 169l-38 -93q-222 -113 -474 -113q-361 0 -586.5 205t-225.5 536q0 228 112.5 398.5t297 255t414.5 84.5q133 0 263 -28t217 -67l7 -10q-23 -56 -43 -277l-7 -8h-47l-8 8l-10 170q-73 58 -176.5 90.5t-215.5 32.5q-169 0 -303 -72.5t-208 -210t-74 -336.5
q0 -200 87 -351t237.5 -232t351.5 -81q89 0 171 17t136.5 42t104.5 61zM1186 1856l-210 -157l-200 -156l-15 -4l-25 24l2 14l144 174q3 3 95 117l187 26l10 -7z" />
    <glyph glyph-name="cacute" unicode="&#x107;" horiz-adv-x="909" 
d="M868 107l-40 -67q-129 -71 -288 -71q-220 0 -340 131t-120 338q0 94 20.5 167.5t52 121.5t69.5 76t128.5 78t136.5 65.5t127 15.5q155 0 254 -59q-19 -113 -29 -252l-9 -8h-41l-9 9q-4 84 -11 113t-79.5 62t-154.5 33t-146 -34.5t-96.5 -113t-32.5 -187.5
q0 -92 26 -179.5t68.5 -145t112.5 -92.5t156 -35q54 0 105.5 14t118.5 46zM820 1467l-294 -374l-13 -4l-29 15l-3 13l153 349l156 29l13 -3z" />
    <glyph glyph-name="Ccircumflex" unicode="&#x108;" horiz-adv-x="1452" 
d="M1395 169l-38 -93q-222 -113 -474 -113q-361 0 -586.5 205t-225.5 536q0 228 112.5 398.5t297 255t414.5 84.5q133 0 263 -28t217 -67l7 -10q-23 -56 -43 -277l-7 -8h-47l-8 8l-10 170q-73 58 -176.5 90.5t-215.5 32.5q-169 0 -303 -72.5t-208 -210t-74 -336.5
q0 -200 87 -351t237.5 -232t351.5 -81q89 0 171 17t136.5 42t104.5 61zM1194 1550l-7 -11h-62l-264 234l-264 -234h-62l-7 10l288 356h96zM1328 1593zM864 1905z" />
    <glyph glyph-name="ccircumflex" unicode="&#x109;" horiz-adv-x="909" 
d="M868 107l-40 -67q-129 -71 -288 -71q-220 0 -340 131t-120 338q0 94 20.5 167.5t52 121.5t69.5 76t128.5 78t136.5 65.5t127 15.5q155 0 254 -59q-19 -113 -29 -252l-9 -8h-41l-9 9q-4 84 -11 113t-79.5 62t-154.5 33t-146 -34.5t-96.5 -113t-32.5 -187.5
q0 -92 26 -179.5t68.5 -145t112.5 -92.5t156 -35q54 0 105.5 14t118.5 46zM851 1120l-7 -10h-58l-255 248l-255 -248h-58l-7 10l261 362h118zM977 1150zM531 1482z" />
    <glyph glyph-name="Cdotaccent" unicode="&#x10a;" horiz-adv-x="1452" 
d="M1395 169l-38 -93q-222 -113 -474 -113q-361 0 -586.5 205t-225.5 536q0 228 112.5 398.5t297 255t414.5 84.5q133 0 263 -28t217 -67l7 -10q-23 -56 -43 -277l-7 -8h-47l-8 8l-10 170q-73 58 -176.5 90.5t-215.5 32.5q-169 0 -303 -72.5t-208 -210t-74 -336.5
q0 -200 87 -351t237.5 -232t351.5 -81q89 0 171 17t136.5 42t104.5 61zM862 1604q-47 0 -80 32.5t-33 79.5t33 80t80 33t79.5 -33t32.5 -80t-32.5 -79.5t-79.5 -32.5z" />
    <glyph glyph-name="cdotaccent" unicode="&#x10b;" horiz-adv-x="909" 
d="M868 107l-40 -67q-129 -71 -288 -71q-220 0 -340 131t-120 338q0 94 20.5 167.5t52 121.5t69.5 76t128.5 78t136.5 65.5t127 15.5q155 0 254 -59q-19 -113 -29 -252l-9 -8h-41l-9 9q-4 84 -11 113t-79.5 62t-154.5 33t-146 -34.5t-96.5 -113t-32.5 -187.5
q0 -92 26 -179.5t68.5 -145t112.5 -92.5t156 -35q54 0 105.5 14t118.5 46zM560 1163q-46 0 -78 32t-32 78t32 78.5t78 32.5q48 0 79.5 -32.5t31.5 -78.5t-32.5 -78t-78.5 -32z" />
    <glyph glyph-name="Ccaron" unicode="&#x10c;" horiz-adv-x="1452" 
d="M1395 169l-38 -93q-222 -113 -474 -113q-361 0 -586.5 205t-225.5 536q0 228 112.5 398.5t297 255t414.5 84.5q133 0 263 -28t217 -67l7 -10q-23 -56 -43 -277l-7 -8h-47l-8 8l-10 170q-73 58 -176.5 90.5t-215.5 32.5q-169 0 -303 -72.5t-208 -210t-74 -336.5
q0 -200 87 -351t237.5 -232t351.5 -81q89 0 171 17t136.5 42t104.5 61zM1222 1894l-280 -355h-126l-286 355l6 11h63l277 -253l274 253h65z" />
    <glyph glyph-name="ccaron" unicode="&#x10d;" horiz-adv-x="909" 
d="M868 107l-40 -67q-129 -71 -288 -71q-220 0 -340 131t-120 338q0 94 20.5 167.5t52 121.5t69.5 76t128.5 78t136.5 65.5t127 15.5q155 0 254 -59q-19 -113 -29 -252l-9 -8h-41l-9 9q-4 84 -11 113t-79.5 62t-154.5 33t-146 -34.5t-96.5 -113t-32.5 -187.5
q0 -92 26 -179.5t68.5 -145t112.5 -92.5t156 -35q54 0 105.5 14t118.5 46zM871 1472l-261 -362h-128l-251 362l7 10h58l250 -246l250 246h68z" />
    <glyph glyph-name="Dcaron" unicode="&#x10e;" horiz-adv-x="1585" 
d="M30 1406l8 7q173 -8 236 -8l468 10q200 0 328 -37.5t227.5 -130t151 -215t51.5 -261.5q0 -135 -47 -267t-133.5 -236.5t-197 -168.5t-221.5 -85.5t-227 -21.5q-78 0 -294 6q-71 2 -94 2q-69 0 -167 -8l-8 8v33l8 10q59 30 67.5 37.5t14 175t5.5 255.5v367l-1 227
q0 74 -2 120.5t-7 66.5t-11.5 28t-21 13.5t-49.5 9.5l-76 6l-8 7v50zM400 101q102 -20 235 -20q233 0 372.5 78t208.5 231t69 345q0 283 -151 439t-476 156q-134 0 -258 -20q-8 -164 -8 -370v-314l2 -294q0 -86 6 -231zM1082 1894l-280 -355h-126l-286 355l6 11h63l277 -253
l274 253h65z" />
    <glyph glyph-name="dcaron" unicode="&#x10f;" horiz-adv-x="1379" 
d="M673 1356v42l8 9q191 22 322 74l19 -12q-11 -115 -11 -461v-655q0 -101 3.5 -176.5t12.5 -89.5t29.5 -23t116.5 -17l9 -8v-38l-9 -9q-108 7 -168 7q-54 0 -154 -7l-11 11q3 98 3 137q0 5 1 38q-55 -40 -110 -89q-81 -72 -106 -90q-46 -23 -131 -23q-138 0 -234.5 68
t-137.5 173.5t-41 216.5q0 113 42.5 217.5t121 152.5t171 99.5t183.5 51.5q127 0 242 -63l-4 223q-2 116 -6 161.5t-10 54t-20.5 12.5t-121.5 4zM844 721q-62 70 -137.5 107t-151.5 37q-84 0 -156.5 -45.5t-104.5 -135t-32 -194.5q0 -175 88.5 -281t222.5 -106
q73 0 129.5 33.5t93 90.5t42.5 114t6 209v171zM1127 1087l-9 35q157 39 157 118q0 29 -34 30q-121 4 -121 109q0 46 32.5 74.5t79.5 28.5q58 0 92 -40.5t34 -106.5q0 -227 -231 -248z" />
    <glyph glyph-name="Dcroat" unicode="&#x110;" horiz-adv-x="1585" 
d="M26 694v56l11 11h170v117l-2 227q0 74 -2 120.5t-7 66.5t-11.5 28t-21 13.5t-48.5 9.5l-77 6l-8 7v50l8 7q173 -8 236 -8l468 10q193 0 321 -35.5t226 -122.5t154.5 -208t56.5 -276q0 -136 -46.5 -267.5t-133 -236.5t-197 -169.5t-222 -86t-226.5 -21.5q-79 0 -294 6
q-72 2 -95 2q-69 0 -167 -8l-7 8v33l8 10q59 30 67 37.5t14 175t6 255.5v173h-171zM723 761l10 -10v-57l-10 -10h-331v-58l2 -294q0 -86 6 -231q103 -20 235 -20q233 0 372.5 78t208.5 231t69 345q0 283 -151 439t-475 156q-135 0 -259 -20q-8 -164 -8 -370v-179h331z" />
    <glyph glyph-name="dcroat" unicode="&#x111;" horiz-adv-x="1251" 
d="M1188 1165v-63l-10 -10h-167v-739q0 -101 3.5 -176.5t12.5 -89.5t29.5 -23t116.5 -17l9 -8v-38l-9 -9q-108 7 -168 7q-54 0 -154 -7l-11 11q3 98 3 137q0 5 1 38q-55 -40 -110 -89q-81 -72 -106 -90q-46 -23 -131 -23q-138 0 -234.5 68t-137.5 173.5t-41 216.5
q0 113 42.5 217.5t121 152.5t171 99.5t183.5 51.5q127 0 242 -63q-1 39 -4 200h-289l-12 10v63l11 11h288q-2 117 -7.5 138.5t-22 27t-126.5 5.5l-9 9v42l8 9q191 22 322 74l19 -12q-11 -123 -11 -293h167zM844 721q-62 70 -137.5 107t-151.5 37q-84 0 -156.5 -45.5
t-104.5 -135t-32 -194.5q0 -175 88.5 -281t222.5 -106q73 0 129.5 33.5t93 90.5t42.5 114t6 209v171z" />
    <glyph glyph-name="Emacron" unicode="&#x112;" horiz-adv-x="1251" 
d="M73 1406l8 7q343 -6 439 -6q328 0 584 6l5 -7q-25 -96 -37 -301l-6 -8h-49l-9 8q1 9 1 16q0 85 -13 162q-63 28 -174.5 36.5t-167.5 8.5q-79 0 -202 -11l-4 -160l-3 -183l-3 -203q108 -6 199 -6q92 0 154 6t72.5 12.5t16 25t9.5 65.5l4 62l8 8h46l8 -8q-2 -109 -5 -219
l5 -225l-8 -8h-46l-8 8l-7 60q-9 70 -13 83.5t-18.5 23.5t-74.5 16t-165 6q-58 0 -177 -5q-5 -84 -5 -280q0 -210 5 -309h184q243 0 304 6t116 29q9 23 29.5 106.5t23.5 104.5l10 7h48l8 -7q-9 -43 -17.5 -150t-8.5 -183l-7 -8q-191 6 -500 6l-272 2q-95 0 -198 -8l-8 8v33
l8 10q59 30 67.5 37.5t14 175t5.5 255.5v367l-1 227q0 74 -2 120.5t-7 66.5t-11.5 28t-21 13.5t-49.5 9.5l-76 6l-8 7v50zM644 1487zM640 -60zM960 1665h-648v102h648v-102z" />
    <glyph glyph-name="emacron" unicode="&#x113;" horiz-adv-x="981" 
d="M884 147l-32 -72q-104 -67 -185.5 -87t-145.5 -20q-120 0 -227.5 47t-175 159t-67.5 270q0 105 26 189.5t54.5 125.5t96.5 91t144 80t164 30q120 0 211.5 -56.5t128.5 -144.5t37 -187q0 -31 -3 -60l-11 -11q-68 -15 -183 -20t-152 -5h-321q2 -207 104 -305t250 -98
q70 0 134.5 24t136.5 67zM243 556q18 -3 138.5 -7t178.5 -4q139 0 169 5q1 24 1 37q0 155 -63 230.5t-172 75.5q-119 0 -185.5 -85t-66.5 -252zM522 1016zM510 -60zM811 1215h-630v105h630v-105z" />
    <glyph glyph-name="Ebreve" unicode="&#x114;" horiz-adv-x="1251" 
d="M73 1406l8 7q343 -6 439 -6q328 0 584 6l5 -7q-25 -96 -37 -301l-6 -8h-49l-9 8q1 9 1 16q0 85 -13 162q-63 28 -174.5 36.5t-167.5 8.5q-79 0 -202 -11l-4 -160l-3 -183l-3 -203q108 -6 199 -6q92 0 154 6t72.5 12.5t16 25t9.5 65.5l4 62l8 8h46l8 -8q-2 -109 -5 -219
l5 -225l-8 -8h-46l-8 8l-7 60q-9 70 -13 83.5t-18.5 23.5t-74.5 16t-165 6q-58 0 -177 -5q-5 -84 -5 -280q0 -210 5 -309h184q243 0 304 6t116 29q9 23 29.5 106.5t23.5 104.5l10 7h48l8 -7q-9 -43 -17.5 -150t-8.5 -183l-7 -8q-191 6 -500 6l-272 2q-95 0 -198 -8l-8 8v33
l8 10q59 30 67.5 37.5t14 175t5.5 255.5v367l-1 227q0 74 -2 120.5t-7 66.5t-11.5 28t-21 13.5t-49.5 9.5l-76 6l-8 7v50zM644 1487zM640 -60zM949 1871q0 -109 -60 -197q-80 -119 -237 -119q-164 0 -246 112q-63 86 -63 204l5 7h53q39 -193 254 -193q199 0 236 193h53z
M654 1881z" />
    <glyph glyph-name="ebreve" unicode="&#x115;" horiz-adv-x="981" 
d="M884 147l-32 -72q-104 -67 -185.5 -87t-145.5 -20q-120 0 -227.5 47t-175 159t-67.5 270q0 105 26 189.5t54.5 125.5t96.5 91t144 80t164 30q120 0 211.5 -56.5t128.5 -144.5t37 -187q0 -31 -3 -60l-11 -11q-68 -15 -183 -20t-152 -5h-321q2 -207 104 -305t250 -98
q70 0 134.5 24t136.5 67zM243 556q18 -3 138.5 -7t178.5 -4q139 0 169 5q1 24 1 37q0 155 -63 230.5t-172 75.5q-119 0 -185.5 -85t-66.5 -252zM522 1016zM510 -60zM795 1424q-7 -151 -81.5 -240.5t-202.5 -89.5q-85 0 -146 39t-97.5 113t-40.5 178l8 8h54
q15 -93 74.5 -152.5t147.5 -59.5t147.5 59.5t74.5 152.5h54zM510 1423z" />
    <glyph glyph-name="Edotaccent" unicode="&#x116;" horiz-adv-x="1251" 
d="M73 1406l8 7q343 -6 439 -6q328 0 584 6l5 -7q-25 -96 -37 -301l-6 -8h-49l-9 8q1 9 1 16q0 85 -13 162q-63 28 -174.5 36.5t-167.5 8.5q-79 0 -202 -11l-4 -160l-3 -183l-3 -203q108 -6 199 -6q92 0 154 6t72.5 12.5t16 25t9.5 65.5l4 62l8 8h46l8 -8q-2 -109 -5 -219
l5 -225l-8 -8h-46l-8 8l-7 60q-9 70 -13 83.5t-18.5 23.5t-74.5 16t-165 6q-58 0 -177 -5q-5 -84 -5 -280q0 -210 5 -309h184q243 0 304 6t116 29q9 23 29.5 106.5t23.5 104.5l10 7h48l8 -7q-9 -43 -17.5 -150t-8.5 -183l-7 -8q-191 6 -500 6l-272 2q-95 0 -198 -8l-8 8v33
l8 10q59 30 67.5 37.5t14 175t5.5 255.5v367l-1 227q0 74 -2 120.5t-7 66.5t-11.5 28t-21 13.5t-49.5 9.5l-76 6l-8 7v50zM644 1487zM640 -60zM637 1604q-47 0 -80 32.5t-33 79.5t33 80t80 33t79.5 -33t32.5 -80t-32.5 -79.5t-79.5 -32.5z" />
    <glyph glyph-name="edotaccent" unicode="&#x117;" horiz-adv-x="981" 
d="M884 147l-32 -72q-104 -67 -185.5 -87t-145.5 -20q-120 0 -227.5 47t-175 159t-67.5 270q0 105 26 189.5t54.5 125.5t96.5 91t144 80t164 30q120 0 211.5 -56.5t128.5 -144.5t37 -187q0 -31 -3 -60l-11 -11q-68 -15 -183 -20t-152 -5h-321q2 -207 104 -305t250 -98
q70 0 134.5 24t136.5 67zM243 556q18 -3 138.5 -7t178.5 -4q139 0 169 5q1 24 1 37q0 155 -63 230.5t-172 75.5q-119 0 -185.5 -85t-66.5 -252zM522 1016zM510 -60zM510 1163q-46 0 -78 32t-32 78t32 78.5t78 32.5q48 0 79.5 -32.5t31.5 -78.5t-32.5 -78t-78.5 -32z" />
    <glyph glyph-name="Eogonek" unicode="&#x118;" horiz-adv-x="1251" 
d="M1165 333q-26 -218 -26 -333l-9 -8l-169 3q-119 -110 -119 -188q0 -102 103 -102q81 0 181 74l13 -1l22 -29v-14q-146 -130 -275 -130q-49 0 -87.5 21.5t-59 58.5t-20.5 87q0 124 168 224l-527 4q-95 0 -198 -8l-8 8v33l8 10q72 37 81 77l6 391v367q0 356 -7 407.5
t-85 57.5l-76 6l-8 7v50l8 7l438 -6q331 0 585 6l5 -7q-25 -96 -37 -301l-6 -8h-49l-9 8q1 9 1 16q0 85 -13 162q-101 45 -342 45q-79 0 -202 -11l-10 -546q108 -6 199 -6q219 0 233.5 24.5t18.5 84.5l4 62l8 8h46l8 -8l-5 -211q0 -29 5 -233l-8 -8h-46l-8 8l-9 82
q-7 65 -25.5 81t-94 21t-149.5 5q-58 0 -177 -5q-5 -84 -5 -280q0 -210 5 -309h184q276 0 328.5 9t91.5 26q27 93 53 211l10 7h48z" />
    <glyph glyph-name="eogonek" unicode="&#x119;" horiz-adv-x="981" 
d="M884 147l-32 -72q-61 -40 -147 -76q-71 -29 -108 -51.5t-58 -55.5t-21 -72q0 -42 26 -73.5t81 -31.5q73 0 175 75l16 -1l27 -37v-14q-78 -72 -142.5 -105t-131.5 -33q-54 0 -89 20.5t-59.5 58.5t-24.5 90q0 112 131 199q-225 0 -350.5 130t-125.5 346q0 105 26 189.5
t54.5 125.5t96.5 91t144 80t164 30q120 0 211.5 -56.5t128.5 -144.5t37 -187q0 -29 -3 -60l-11 -11q-68 -15 -183 -20t-152 -5h-321q2 -207 104 -305t250 -98q70 0 134.5 24t136.5 67zM243 556q18 -3 138.5 -7t178.5 -4q139 0 169 5q1 24 1 37q0 155 -63 230.5t-172 75.5
q-119 0 -185.5 -85t-66.5 -252z" />
    <glyph glyph-name="Ecaron" unicode="&#x11a;" horiz-adv-x="1251" 
d="M73 1406l8 7q343 -6 439 -6q328 0 584 6l5 -7q-25 -96 -37 -301l-6 -8h-49l-9 8q1 9 1 16q0 85 -13 162q-63 28 -174.5 36.5t-167.5 8.5q-79 0 -202 -11l-4 -160l-3 -183l-3 -203q108 -6 199 -6q92 0 154 6t72.5 12.5t16 25t9.5 65.5l4 62l8 8h46l8 -8q-2 -109 -5 -219
l5 -225l-8 -8h-46l-8 8l-7 60q-9 70 -13 83.5t-18.5 23.5t-74.5 16t-165 6q-58 0 -177 -5q-5 -84 -5 -280q0 -210 5 -309h184q243 0 304 6t116 29q9 23 29.5 106.5t23.5 104.5l10 7h48l8 -7q-9 -43 -17.5 -150t-8.5 -183l-7 -8q-191 6 -500 6l-272 2q-95 0 -198 -8l-8 8v33
l8 10q59 30 67.5 37.5t14 175t5.5 255.5v367l-1 227q0 74 -2 120.5t-7 66.5t-11.5 28t-21 13.5t-49.5 9.5l-76 6l-8 7v50zM644 1487zM640 -60zM1007 1894l-280 -355h-126l-286 355l6 11h63l277 -253l274 253h65z" />
    <glyph glyph-name="ecaron" unicode="&#x11b;" horiz-adv-x="981" 
d="M884 147l-32 -72q-104 -67 -185.5 -87t-145.5 -20q-120 0 -227.5 47t-175 159t-67.5 270q0 105 26 189.5t54.5 125.5t96.5 91t144 80t164 30q120 0 211.5 -56.5t128.5 -144.5t37 -187q0 -31 -3 -60l-11 -11q-68 -15 -183 -20t-152 -5h-321q2 -207 104 -305t250 -98
q70 0 134.5 24t136.5 67zM243 556q18 -3 138.5 -7t178.5 -4q139 0 169 5q1 24 1 37q0 155 -63 230.5t-172 75.5q-119 0 -185.5 -85t-66.5 -252zM522 1016zM510 -60zM821 1472l-261 -362h-128l-251 362l7 10h58l250 -246l250 246h68z" />
    <glyph glyph-name="Gcircumflex" unicode="&#x11c;" horiz-adv-x="1563" 
d="M1498 545v-30l-4 -12l-49 -29q-18 -11 -21 -17t-7.5 -59.5t-4.5 -130.5q0 -87 11 -189l-6 -10q-274 -105 -563 -105q-222 0 -401 84t-284 249t-105 392q0 346 236.5 550t617.5 204q280 0 503 -95l7 -11q-18 -67 -42 -281l-8 -7h-46l-8 8l-5 106q-3 52 -6.5 61t-21.5 23.5
t-92.5 46t-149.5 46t-161 14.5q-183 0 -324 -76t-212.5 -221.5t-71.5 -323.5q0 -184 77 -342.5t221 -247.5t335 -89q83 0 169.5 16.5t142.5 46.5q9 32 9 129v111q0 79 -10 98.5t-49.5 27.5t-170.5 10l-9 9v44l9 9l61 -2q157 -5 256 -5q57 0 167 6zM1199 1550l-7 -11h-62
l-264 234l-264 -234h-62l-7 10l288 356h96zM1333 1593zM869 1905z" />
    <glyph glyph-name="gcircumflex" unicode="&#x11d;" horiz-adv-x="1139" 
d="M1103 884l8 -18q-41 -63 -51 -82h-186q28 -55 28 -115q0 -71 -32.5 -138t-90.5 -114t-131.5 -75t-167.5 -28h-46q-59 -47 -76 -70t-17 -47q0 -44 40.5 -62t167.5 -18l224 3q106 0 162.5 -25t91.5 -89.5t35 -136.5q0 -110 -71.5 -219.5t-206.5 -166.5t-288 -57
q-87 0 -163.5 19t-134 57.5t-92.5 100.5t-35 129q0 37 11 77.5t42 87.5l181 101q-87 27 -109.5 53.5t-22.5 63.5q0 38 25 90l161 116q-142 37 -191.5 111t-49.5 162q0 81 35 154.5t105.5 117.5t158 69.5t159.5 25.5q125 0 238 -81q181 0 289 4zM290 652q0 -61 24 -131
t77.5 -106t120.5 -36q89 0 153.5 58t64.5 181q0 104 -59 187t-167 83q-91 0 -152.5 -59.5t-61.5 -176.5zM583 -19q-161 0 -185.5 -4t-69.5 -34t-73.5 -81.5t-28.5 -115.5q0 -113 84 -184t224 -71q105 0 194 44t131.5 118t42.5 142t-35.5 116.5t-92 59t-191.5 10.5zM846 1120
l-7 -10h-58l-255 248l-255 -248h-58l-7 10l261 362h118zM972 1150zM526 1482z" />
    <glyph glyph-name="Gbreve" unicode="&#x11e;" horiz-adv-x="1563" 
d="M1498 545v-30l-4 -12l-49 -29q-18 -11 -21 -17t-7.5 -59.5t-4.5 -130.5q0 -87 11 -189l-6 -10q-274 -105 -563 -105q-222 0 -401 84t-284 249t-105 392q0 346 236.5 550t617.5 204q280 0 503 -95l7 -11q-18 -67 -42 -281l-8 -7h-46l-8 8l-5 106q-3 52 -6.5 61t-21.5 23.5
t-92.5 46t-149.5 46t-161 14.5q-183 0 -324 -76t-212.5 -221.5t-71.5 -323.5q0 -184 77 -342.5t221 -247.5t335 -89q83 0 169.5 16.5t142.5 46.5q9 32 9 129v111q0 79 -10 98.5t-49.5 27.5t-170.5 10l-9 9v44l9 9l61 -2q157 -5 256 -5q57 0 167 6zM1179 1871
q0 -109 -60 -197q-80 -119 -237 -119q-164 0 -246 112q-63 86 -63 204l5 7h53q39 -193 254 -193q199 0 236 193h53zM884 1881z" />
    <glyph glyph-name="gbreve" unicode="&#x11f;" horiz-adv-x="1139" 
d="M1103 884l8 -18q-41 -63 -51 -82h-186q28 -55 28 -115q0 -71 -32.5 -138t-90.5 -114t-131.5 -75t-167.5 -28h-46q-59 -47 -76 -70t-17 -47q0 -44 40.5 -62t167.5 -18l224 3q106 0 162.5 -25t91.5 -89.5t35 -136.5q0 -110 -71.5 -219.5t-206.5 -166.5t-288 -57
q-87 0 -163.5 19t-134 57.5t-92.5 100.5t-35 129q0 37 11 77.5t42 87.5l181 101q-87 27 -109.5 53.5t-22.5 63.5q0 38 25 90l161 116q-142 37 -191.5 111t-49.5 162q0 81 35 154.5t105.5 117.5t158 69.5t159.5 25.5q125 0 238 -81q181 0 289 4zM290 652q0 -61 24 -131
t77.5 -106t120.5 -36q89 0 153.5 58t64.5 181q0 104 -59 187t-167 83q-91 0 -152.5 -59.5t-61.5 -176.5zM583 -19q-161 0 -185.5 -4t-69.5 -34t-73.5 -81.5t-28.5 -115.5q0 -113 84 -184t224 -71q105 0 194 44t131.5 118t42.5 142t-35.5 116.5t-92 59t-191.5 10.5zM815 1424
q-7 -151 -81.5 -240.5t-202.5 -89.5q-85 0 -146 39t-97.5 113t-40.5 178l8 8h54q15 -93 74.5 -152.5t147.5 -59.5t147.5 59.5t74.5 152.5h54zM530 1423z" />
    <glyph glyph-name="Gdotaccent" unicode="&#x120;" horiz-adv-x="1563" 
d="M1498 545v-30l-4 -12l-49 -29q-18 -11 -21 -17t-7.5 -59.5t-4.5 -130.5q0 -87 11 -189l-6 -10q-274 -105 -563 -105q-222 0 -401 84t-284 249t-105 392q0 346 236.5 550t617.5 204q280 0 503 -95l7 -11q-18 -67 -42 -281l-8 -7h-46l-8 8l-5 106q-3 52 -6.5 61t-21.5 23.5
t-92.5 46t-149.5 46t-161 14.5q-183 0 -324 -76t-212.5 -221.5t-71.5 -323.5q0 -184 77 -342.5t221 -247.5t335 -89q83 0 169.5 16.5t142.5 46.5q9 32 9 129v111q0 79 -10 98.5t-49.5 27.5t-170.5 10l-9 9v44l9 9l61 -2q157 -5 256 -5q57 0 167 6zM867 1604q-47 0 -80 32.5
t-33 79.5t33 80t80 33t79.5 -33t32.5 -80t-32.5 -79.5t-79.5 -32.5z" />
    <glyph glyph-name="gdotaccent" unicode="&#x121;" horiz-adv-x="1139" 
d="M1103 884l8 -18q-41 -63 -51 -82h-186q28 -55 28 -115q0 -71 -32.5 -138t-90.5 -114t-131.5 -75t-167.5 -28h-46q-59 -47 -76 -70t-17 -47q0 -44 40.5 -62t167.5 -18l224 3q106 0 162.5 -25t91.5 -89.5t35 -136.5q0 -110 -71.5 -219.5t-206.5 -166.5t-288 -57
q-87 0 -163.5 19t-134 57.5t-92.5 100.5t-35 129q0 37 11 77.5t42 87.5l181 101q-87 27 -109.5 53.5t-22.5 63.5q0 38 25 90l161 116q-142 37 -191.5 111t-49.5 162q0 81 35 154.5t105.5 117.5t158 69.5t159.5 25.5q125 0 238 -81q181 0 289 4zM290 652q0 -61 24 -131
t77.5 -106t120.5 -36q89 0 153.5 58t64.5 181q0 104 -59 187t-167 83q-91 0 -152.5 -59.5t-61.5 -176.5zM583 -19q-161 0 -185.5 -4t-69.5 -34t-73.5 -81.5t-28.5 -115.5q0 -113 84 -184t224 -71q105 0 194 44t131.5 118t42.5 142t-35.5 116.5t-92 59t-191.5 10.5zM520 1163
q-46 0 -78 32t-32 78t32 78.5t78 32.5q48 0 79.5 -32.5t31.5 -78.5t-32.5 -78t-78.5 -32z" />
    <glyph glyph-name="Gcommaaccent" unicode="&#x122;" horiz-adv-x="1563" 
d="M1498 545v-30l-4 -12l-49 -29q-18 -11 -21 -17t-7.5 -59.5t-4.5 -130.5q0 -87 11 -189l-6 -10q-274 -105 -563 -105q-222 0 -401 84t-284 249t-105 392q0 346 236.5 550t617.5 204q280 0 503 -95l7 -11q-18 -67 -42 -281l-8 -7h-46l-8 8l-5 106q-3 52 -6.5 61t-21.5 23.5
t-92.5 46t-149.5 46t-161 14.5q-183 0 -324 -76t-212.5 -221.5t-71.5 -323.5q0 -184 77 -342.5t221 -247.5t335 -89q83 0 169.5 16.5t142.5 46.5q9 32 9 129v111q0 79 -10 98.5t-49.5 27.5t-170.5 10l-9 9v44l9 9l61 -2q157 -5 256 -5q57 0 167 6zM735 -561l-8 41
q175 28 175 129q0 32 -40 33q-134 5 -134 124q0 52 36 83.5t89 31.5q66 0 103 -45t37 -120q0 -254 -258 -277z" />
    <glyph glyph-name="gcommaaccent" unicode="&#x123;" horiz-adv-x="1139" 
d="M1103 884l8 -18q-41 -63 -51 -82h-186q28 -55 28 -115q0 -71 -32.5 -138t-90.5 -114t-131.5 -75t-167.5 -28h-46q-59 -47 -76 -70t-17 -47q0 -44 40.5 -62t167.5 -18l224 3q106 0 162.5 -25t91.5 -89.5t35 -136.5q0 -110 -71.5 -219.5t-206.5 -166.5t-288 -57
q-87 0 -163.5 19t-134 57.5t-92.5 100.5t-35 129q0 37 11 77.5t42 87.5l181 101q-87 27 -109.5 53.5t-22.5 63.5q0 38 25 90l161 116q-142 37 -191.5 111t-49.5 162q0 81 35 154.5t105.5 117.5t158 69.5t159.5 25.5q125 0 238 -81q181 0 289 4zM290 652q0 -61 24 -131
t77.5 -106t120.5 -36q89 0 153.5 58t64.5 181q0 104 -59 187t-167 83q-91 0 -152.5 -59.5t-61.5 -176.5zM583 -19q-161 0 -185.5 -4t-69.5 -34t-73.5 -81.5t-28.5 -115.5q0 -113 84 -184t224 -71q105 0 194 44t131.5 118t42.5 142t-35.5 116.5t-92 59t-191.5 10.5zM640 1456
q-156 -27 -156 -118q0 -29 34 -30q121 -4 121 -109q0 -46 -32.5 -74.5t-79.5 -28.5q-58 0 -92 40.5t-34 106.5q0 227 231 248z" />
    <glyph glyph-name="Hcircumflex" unicode="&#x124;" horiz-adv-x="1704" 
d="M59 1413q255 -8 286 -8q33 0 287 8l8 -7v-50l-8 -7q-69 -2 -106.5 -6t-54.5 -15t-22.5 -51.5t-5.5 -112.5l-2 -230v-140q219 -6 415 -6q268 0 408 6v140l-2 195q-1 114 -6 147t-14 44t-36 18t-134 11l-7 7v50l7 7q256 -8 287 -8q34 0 287 8l8 -7v-50l-8 -7
q-70 -2 -107.5 -6t-54.5 -15t-22 -51.5t-6 -112.5l-2 -230v-463l2 -195q1 -113 6 -146t14.5 -44t36 -18.5t133.5 -11.5l8 -6v-50l-8 -8q-256 8 -287 8q-32 0 -287 -8l-7 8v50l7 6q94 4 125 10t41 15.5t17 40.5t7 138l2 211v228q-296 6 -415 6q-122 0 -408 -6v-228l1 -195
q1 -113 6 -146t14.5 -44t36.5 -18.5t133 -11.5l8 -6v-50l-8 -8q-255 8 -287 8q-31 0 -286 -8l-8 8v50l8 6q93 4 124 10t41.5 15.5t17 40.5t7.5 138l1 211v463l-2 195q-1 114 -5.5 147t-14 44t-36.5 18t-133 11l-8 7v50zM1194 1550l-7 -11h-62l-264 234l-264 -234h-62l-7 10
l288 356h96zM1328 1593zM864 1905z" />
    <glyph glyph-name="hcircumflex" unicode="&#x125;" horiz-adv-x="1192" 
d="M340 1481l19 -12q-11 -115 -11 -461v-247q84 69 156 137q21 19 40 28t61.5 19t87.5 10q76 0 147.5 -31t108 -73.5t50.5 -100.5t14 -143v-176q0 -17 5 -249q3 -95 21.5 -113t123.5 -18l8 -8v-43l-8 -8q-127 8 -172 8q-23 0 -146 -8l-12 11q13 130 13 339v131
q0 118 -5.5 170t-33.5 94.5t-74.5 66t-112.5 23.5q-68 0 -113.5 -18.5t-92.5 -62.5t-56.5 -73.5t-9.5 -113.5v-178q0 -22 4 -141.5t8.5 -139.5t13.5 -29t22 -11.5t108 -8.5l9 -8v-42l-8 -9q-125 8 -241 8q-115 0 -240 -8l-9 9v42l9 8q97 6 109.5 9t22 12.5t13 29t8 129
t4.5 165.5v518l-4 212q-3 111 -6.5 154t-9.5 51t-21 12t-121 4l-9 9v42l8 9q191 22 322 74zM562 1553l-7 -10h-58l-255 248l-255 -248h-58l-7 10l261 362h118zM688 1583zM242 1915z" />
    <glyph glyph-name="Hbar" unicode="&#x126;" horiz-adv-x="1704" 
d="M51 0v50l8 6q93 4 124 10t41.5 15.5t17 40.5t7.5 138l1 211v533q-183 -2 -191 -2l-8 7v81l8 7l106 -1q9 0 85 -1q-1 117 -5 162t-14.5 59.5t-40 21.5t-131.5 11l-8 7v50l8 7q255 -8 286 -8q33 0 287 8l8 -7v-50l-8 -7q-102 -4 -132 -11t-40.5 -21t-14 -57t-4.5 -167
l415 -2l408 1q0 116 -3.5 162t-14 61t-39.5 22.5t-135 11.5l-7 7v50l7 7q256 -8 287 -8q34 0 287 8l8 -7v-50l-8 -7q-101 -4 -131 -11t-40.5 -21t-14.5 -56.5t-4 -166.5l190 3l8 -7v-81l-8 -7l-191 2l-1 -85v-448l2 -195q1 -113 6 -146t14.5 -44t36 -18.5t133.5 -11.5l8 -6
v-50l-8 -8q-256 8 -287 8q-32 0 -287 -8l-7 8v50l7 6q94 4 125 10t41 15.5t17 40.5t7 138l2 211v228q-296 6 -415 6q-122 0 -408 -6v-228l1 -195q1 -113 6 -146t14.5 -44t36.5 -18.5t133 -11.5l8 -6v-50l-8 -8q-255 8 -287 8q-31 0 -286 -8zM441 794q221 -6 415 -6
q281 0 408 6v125v86l-415 3l-408 -2v-212z" />
    <glyph glyph-name="hbar" unicode="&#x127;" horiz-adv-x="1192" 
d="M5 1102v63l11 11h160q-4 130 -10 146t-24.5 20.5t-122.5 4.5l-8 9v42l8 9q191 22 322 74l18 -12q-10 -124 -10 -293h294l11 -11v-63l-11 -10h-294v-331q84 69 156 137q21 19 39.5 28t61.5 19t88 10q76 0 147.5 -31t108 -73.5t50.5 -100.5t14 -143v-176q0 -17 5 -249
q2 -95 21 -113t124 -18l8 -8v-43l-8 -8q-127 8 -172 8q-26 0 -146 -8l-12 11q13 130 13 339v131q0 118 -5.5 170t-33.5 94.5t-75 66t-112 23.5q-68 0 -113.5 -18.5t-93 -62.5t-56.5 -73.5t-9 -113.5v-178q0 -22 4 -141.5t8.5 -139.5t13.5 -29t21.5 -11.5t108.5 -8.5l9 -8
v-42l-9 -9q-124 8 -240 8q-115 0 -241 -8l-8 9v42l9 8q96 6 109 9t22.5 12.5t12.5 29t7.5 129t4.5 165.5v518q-1 89 -3 178h-161z" />
    <glyph glyph-name="Itilde" unicode="&#x128;" horiz-adv-x="690" 
d="M59 1413l125 -4q123 -4 161 -4q34 0 287 8l8 -7v-50l-8 -7q-69 -2 -106.5 -6t-54.5 -15t-22.5 -51.5t-5.5 -112.5l-2 -230v-463l1 -195q1 -113 6 -146t14.5 -44t36.5 -18.5t133 -11.5l8 -6v-50l-8 -8q-5 0 -176 6q-71 2 -111 2q-31 0 -286 -8l-8 8v50l8 6q93 4 124 10
t41.5 15.5t17 40.5t7.5 138l1 211v463l-2 195q-1 114 -5.5 147t-14 44t-36.5 18t-133 11l-8 7v50zM359 1487zM345 -60zM700 1822q-19 -88 -80 -153.5t-138 -65.5q-67 0 -168 49q-101 50 -137 50q-89 0 -123 -99h-45l-7 8q17 88 79.5 153t137.5 65q67 0 167 -50
q100 -49 141 -49q81 0 121 99h45z" />
    <glyph glyph-name="itilde" unicode="&#x129;" horiz-adv-x="596" 
d="M373 953l19 -13q-11 -131 -11 -333v-226q0 -22 4 -141.5t8.5 -139.5t13.5 -29t22 -11.5t108 -8.5l9 -8v-42l-8 -9q-125 8 -241 8q-115 0 -240 -8l-9 9v42l9 8q97 6 109.5 9t22 12.5t13 29t8 129t4.5 165.5v197q0 40 -4 109t-6.5 85t-15.5 23.5t-52 7.5l-84 1l-9 8v43l8 8
q191 23 322 75zM300 1016zM295 -60zM612 1390q-21 -93 -80.5 -156.5t-136.5 -63.5q-64 0 -164 51t-141 51q-78 0 -117 -101h-50l-6 7q18 87 79 151t136 64q63 0 165 -51q103 -51 143 -51q75 0 114 106h52z" />
    <glyph glyph-name="Imacron" unicode="&#x12a;" horiz-adv-x="690" 
d="M59 1413l125 -4q123 -4 161 -4q34 0 287 8l8 -7v-50l-8 -7q-69 -2 -106.5 -6t-54.5 -15t-22.5 -51.5t-5.5 -112.5l-2 -230v-463l1 -195q1 -113 6 -146t14.5 -44t36.5 -18.5t133 -11.5l8 -6v-50l-8 -8q-5 0 -176 6q-71 2 -111 2q-31 0 -286 -8l-8 8v50l8 6q93 4 124 10
t41.5 15.5t17 40.5t7.5 138l1 211v463l-2 195q-1 114 -5.5 147t-14 44t-36.5 18t-133 11l-8 7v50zM359 1487zM345 -60zM675 1665h-648v102h648v-102z" />
    <glyph glyph-name="imacron" unicode="&#x12b;" horiz-adv-x="596" 
d="M373 953l19 -13q-11 -131 -11 -333v-226q0 -22 4 -141.5t8.5 -139.5t13.5 -29t22 -11.5t108 -8.5l9 -8v-42l-8 -9q-125 8 -241 8q-115 0 -240 -8l-9 9v42l9 8q97 6 109.5 9t22 12.5t13 29t8 129t4.5 165.5v197q0 40 -4 109t-6.5 85t-15.5 23.5t-52 7.5l-84 1l-9 8v43l8 8
q191 23 322 75zM300 1016zM295 -60zM567 1215h-630v105h630v-105z" />
    <glyph glyph-name="Iogonek" unicode="&#x12e;" horiz-adv-x="690" 
d="M640 0l-8 -8l-209 6q-124 -111 -124 -192q0 -101 104 -101q81 0 181 74l13 -1l22 -29v-14q-146 -130 -275 -130q-70 0 -119 45.5t-49 121.5q0 115 172 228q-42 0 -289 -8l-8 8v50l8 6q112 5 137.5 13.5t39 31t13.5 159.5l1 98v576l-2 195q0 124 -8.5 160.5t-36.5 45.5
t-144 14l-8 7v50l8 7l286 -8q34 0 287 8l8 -7v-50l-8 -7q-131 -3 -159.5 -19.5t-29.5 -165.5l-2 -230v-658q0 -154 17 -181.5t53 -31.5t121 -7l8 -6v-50z" />
    <glyph glyph-name="iogonek" unicode="&#x12f;" horiz-adv-x="596" 
d="M288 1400q47 0 80 -33t33 -80q0 -46 -33 -79t-80 -33q-46 0 -79.5 32.5t-33.5 79.5t33.5 80t79.5 33zM335 0l-9 -9q-76 -69 -99.5 -106.5t-23.5 -74.5q0 -42 29 -73.5t74 -31.5q78 0 178 85l15 -1l28 -37l-1 -14q-101 -89 -163.5 -113.5t-115.5 -24.5q-72 0 -119.5 49.5
t-47.5 119.5q0 59 37.5 111t132.5 120q-66 0 -193 -8l-9 9v42l9 8q97 6 109.5 9t22 12.5t13 29t8 129t4.5 165.5v197q0 40 -4 109t-6.5 85t-15.5 23.5t-52 7.5l-84 1l-9 8v43l8 8q191 23 322 75l19 -13q-11 -131 -11 -333v-226q0 -22 4 -141.5t8.5 -139.5t13.5 -29t22 -11.5
t108 -8.5l9 -8v-42l-8 -9q-128 8 -203 8z" />
    <glyph glyph-name="Idotaccent" unicode="&#x130;" horiz-adv-x="690" 
d="M59 1413l125 -4q123 -4 161 -4q34 0 287 8l8 -7v-50l-8 -7q-69 -2 -106.5 -6t-54.5 -15t-22.5 -51.5t-5.5 -112.5l-2 -230v-463l1 -195q1 -113 6 -146t14.5 -44t36.5 -18.5t133 -11.5l8 -6v-50l-8 -8q-5 0 -176 6q-71 2 -111 2q-31 0 -286 -8l-8 8v50l8 6q93 4 124 10
t41.5 15.5t17 40.5t7.5 138l1 211v463l-2 195q-1 114 -5.5 147t-14 44t-36.5 18t-133 11l-8 7v50zM359 1487zM345 -60zM352 1604q-47 0 -80 32.5t-33 79.5t33 80t80 33t79.5 -33t32.5 -80t-32.5 -79.5t-79.5 -32.5z" />
    <glyph glyph-name="dotlessi" unicode="&#x131;" horiz-adv-x="596" 
d="M373 953l19 -13q-11 -131 -11 -333v-226q0 -22 4 -141.5t8.5 -139.5t13.5 -29t22 -11.5t108 -8.5l9 -8v-42l-8 -9q-125 8 -241 8q-115 0 -240 -8l-9 9v42l9 8q97 6 109.5 9t22 12.5t13 29t8 129t4.5 165.5v197q0 40 -4 109t-6.5 85t-15.5 23.5t-52 7.5l-84 1l-9 8v43l8 8
q191 23 322 75zM300 1016zM295 -60z" />
    <glyph glyph-name="IJ" unicode="&#x132;" horiz-adv-x="1372" 
d="M59 1413l125 -4q123 -4 161 -4q34 0 287 8l8 -7v-50l-8 -7q-69 -2 -106.5 -6t-54.5 -15t-22.5 -51.5t-5.5 -112.5l-2 -230v-463l1 -195q1 -113 6 -146t14.5 -44t36.5 -18.5t133 -11.5l8 -6v-50l-8 -8q-5 0 -176 6q-71 2 -111 2q-31 0 -286 -8l-8 8v50l8 6q93 4 124 10
t41.5 15.5t17 40.5t7.5 138l1 211v463l-2 195q-1 114 -5.5 147t-14 44t-36.5 18t-133 11l-8 7v50zM359 1487zM345 -60zM1325 1406v-50l-7 -7q-70 -2 -107.5 -6t-54.5 -15t-22.5 -51.5t-5.5 -112.5l-2 -230v-718q0 -158 -28 -258.5t-98 -186t-144.5 -127t-147.5 -41.5
q-21 0 -42 5q2 40 3 80q0 25 -3 74l19 13q51 -38 107 -38q49 0 80.5 18.5t44.5 50t16 115.5t3 144v869l-2 195q-1 114 -6 147t-14.5 44t-36 18t-133.5 11l-7 7v50l7 7q253 -8 287 -8q35 0 287 8z" />
    <glyph glyph-name="ij" unicode="&#x133;" horiz-adv-x="1037" 
d="M288 1400q47 0 80 -33t33 -80q0 -46 -33 -79t-80 -33q-46 0 -79.5 32.5t-33.5 79.5t33.5 80t79.5 33zM373 953l19 -13q-11 -131 -11 -333v-226q0 -22 4 -141.5t8.5 -139.5t13.5 -29t22 -11.5t108 -8.5l9 -8v-42l-8 -9q-125 8 -241 8q-115 0 -240 -8l-9 9v42l9 8
q97 6 109.5 9t22 12.5t13 29t8 129t4.5 165.5v197q0 40 -4 109t-6.5 85t-15.5 23.5t-52 7.5l-84 1l-9 8v43l8 8q191 23 322 75zM295 -60zM800 1400q46 0 79 -32.5t33 -80.5q0 -46 -33 -79t-79 -33q-47 0 -80 33t-33 79q0 47 33 80t80 33zM549 870l9 8q190 23 322 75l18 -13
q-11 -131 -11 -367v-184l3 -319q0 -165 -27 -305t-121 -239.5t-217 -99.5q-7 0 -21 1l-10 57l9 13q22 -2 35 -2q33 0 65 18.5t58 57.5t38 96.5t16.5 180t4.5 163.5v582q0 40 -3.5 108.5t-6.5 85.5t-16.5 24t-50.5 7l-85 1l-9 8v43z" />
    <glyph glyph-name="Jcircumflex" unicode="&#x134;" horiz-adv-x="682" 
d="M635 1406v-50l-7 -7q-70 -2 -107.5 -6t-54.5 -15t-22.5 -51.5t-5.5 -112.5l-2 -230v-718q0 -158 -28 -258.5t-98 -186t-144.5 -127t-147.5 -41.5q-21 0 -42 5q2 40 3 80q0 25 -3 74l19 13q51 -38 107 -38q49 0 80.5 18.5t44.5 50t16 115.5t3 144v869l-2 195
q-1 114 -6 147t-14.5 44t-36 18t-133.5 11l-7 7v50l7 7q253 -8 287 -8q35 0 287 8zM674 1550l-7 -11h-62l-264 234l-264 -234h-62l-7 10l288 356h96zM808 1593zM344 1905z" />
    <glyph glyph-name="jcircumflex" unicode="&#x135;" horiz-adv-x="479" 
d="M543 1120l-7 -10h-58l-255 248l-255 -248h-58l-7 10l261 362h118zM340 940q-11 -131 -11 -367v-184l3 -319q0 -340 -106.5 -492t-258.5 -152q-7 0 -22 1l-9 57l9 13q21 -2 34 -2q78 0 130.5 86.5t52.5 429.5v582q0 75 -3 124.5t-7.5 68t-20.5 25t-47 7.5l-84 1l-9 8v43
l8 8q191 23 322 75z" />
    <glyph glyph-name="Kcommaaccent" unicode="&#x136;" horiz-adv-x="1487" 
d="M441 724q251 227 362.5 338.5l184 184t86.5 93.5v65l10 8q76 -4 166 -4q20 0 158 3l10 -9v-47l-8 -8q-93 0 -127 -10.5t-99.5 -64t-150.5 -131.5l-405 -370l602 -557q145 -135 162.5 -147t72.5 -14l7 -8v-42l-7 -8q-58 4 -120 4q-37 0 -162 -4q-91 86 -159.5 152
t-582.5 536v-213l1 -195q1 -113 6 -146t14.5 -44t36.5 -18.5t133 -11.5l8 -6v-50l-8 -8q-5 0 -176 6q-71 2 -111 2q-31 0 -286 -8l-8 8v50l8 6q93 4 124 10t41.5 15.5t17 40.5t7.5 138l1 211v463l-2 195q-1 114 -5.5 147t-14 44t-36.5 18t-133 11l-8 7v50l8 7l125 -4
q123 -4 161 -4q34 0 287 8l8 -7v-50l-8 -7q-69 -2 -106.5 -6t-54.5 -15t-22.5 -51.5t-5.5 -112.5l-2 -230v-210zM665 -561l-8 41q175 28 175 129q0 32 -40 33q-134 5 -134 124q0 52 36 83.5t89 31.5q66 0 103 -45t37 -120q0 -254 -258 -277z" />
    <glyph glyph-name="kcommaaccent" unicode="&#x137;" horiz-adv-x="1139" 
d="M364 1481l19 -12q-11 -115 -11 -461v-469q34 20 134 100.5t211.5 184t114.5 112.5q85 -3 102 -3q23 0 93 3l9 -9v-39l-8 -9q-50 -3 -76.5 -13t-108 -66t-192.5 -147l-97 -79q53 -62 185.5 -194.5t214.5 -205.5t107 -83.5t53 -10.5v-43q-37 -7 -191 -61q-104 90 -132 119
l-74 76l-88 89q-41 41 -110 104l-147 136v-119q0 -22 4 -141.5t8.5 -139.5t13.5 -29t22 -11.5t108 -8.5l9 -8v-42l-8 -9q-125 8 -241 8q-115 0 -240 -8l-9 9v42l9 8q97 6 109.5 9t22 12.5t13 29t8 129t4.5 165.5v518l-4 212q-3 111 -6.5 154t-9.5 51t-21 12t-121 4l-9 9v42
l8 9q191 22 322 74zM487 -511l-9 35q157 39 157 118q0 29 -34 30q-121 4 -121 109q0 46 32.5 74.5t79.5 28.5q58 0 92 -40.5t34 -106.5q0 -227 -231 -248z" />
    <glyph glyph-name="Lacute" unicode="&#x139;" horiz-adv-x="1251" 
d="M37 1406l8 7q248 -8 286 -8q34 0 287 8l8 -7v-50l-8 -7q-69 -2 -106.5 -6t-54.5 -15t-22.5 -51.5t-5.5 -112.5l-2 -230v-442q0 -166 2 -232l5 -173h204q244 0 304.5 6t116.5 29q11 25 31.5 115t21.5 104l9 8h49l7 -8q-8 -40 -16.5 -155t-8.5 -186l-8 -8q-190 6 -499 6
l-292 2q-100 0 -204 -8l-8 8v33l8 10q62 32 68 39t12.5 129t6.5 294v429l-2 195q-1 114 -5.5 147t-14 44t-36.5 18t-133 11l-8 7v50zM736 1856l-210 -157l-200 -156l-15 -4l-25 24l2 14l144 174q3 3 95 117l187 26l10 -7z" />
    <glyph glyph-name="lacute" unicode="&#x13a;" horiz-adv-x="596" 
d="M374 1481l19 -12q-11 -115 -11 -461v-627q0 -22 4 -141.5t8.5 -139.5t13.5 -29t22 -11.5t108 -8.5l9 -8v-42l-8 -9q-125 8 -241 8q-115 0 -240 -8l-9 9v42l9 8q97 6 109.5 9t22 12.5t13 29t8 129t4.5 165.5v518l-4 212q-3 111 -6.5 154t-9.5 51t-21 12t-121 4l-9 9v42
l8 9q191 22 322 74zM540 1917l-294 -374l-13 -4l-29 15l-3 13l153 349l156 29l13 -3z" />
    <glyph glyph-name="Lcommaaccent" unicode="&#x13b;" horiz-adv-x="1251" 
d="M37 1406l8 7q248 -8 286 -8q34 0 287 8l8 -7v-50l-8 -7q-69 -2 -106.5 -6t-54.5 -15t-22.5 -51.5t-5.5 -112.5l-2 -230v-442q0 -166 2 -232l5 -173h204q244 0 304.5 6t116.5 29q11 25 31.5 115t21.5 104l9 8h49l7 -8q-8 -40 -16.5 -155t-8.5 -186l-8 -8q-190 6 -499 6
l-292 2q-100 0 -204 -8l-8 8v33l8 10q62 32 68 39t12.5 129t6.5 294v429l-2 195q-1 114 -5.5 147t-14 44t-36.5 18t-133 11l-8 7v50zM535 -561l-8 41q175 28 175 129q0 32 -40 33q-134 5 -134 124q0 52 36 83.5t89 31.5q66 0 103 -45t37 -120q0 -254 -258 -277z" />
    <glyph glyph-name="lcommaaccent" unicode="&#x13c;" horiz-adv-x="596" 
d="M374 1481l19 -12q-11 -115 -11 -461v-627q0 -22 4 -141.5t8.5 -139.5t13.5 -29t22 -11.5t108 -8.5l9 -8v-42l-8 -9q-125 8 -241 8q-115 0 -240 -8l-9 9v42l9 8q97 6 109.5 9t22 12.5t13 29t8 129t4.5 165.5v518l-4 212q-3 111 -6.5 154t-9.5 51t-21 12t-121 4l-9 9v42
l8 9q191 22 322 74zM197 -511l-9 35q157 39 157 118q0 29 -34 30q-121 4 -121 109q0 46 32.5 74.5t79.5 28.5q58 0 92 -40.5t34 -106.5q0 -227 -231 -248z" />
    <glyph glyph-name="Lcaron" unicode="&#x13d;" horiz-adv-x="1251" 
d="M37 1406l8 7q248 -8 286 -8q34 0 287 8l8 -7v-50l-8 -7q-69 -2 -106.5 -6t-54.5 -15t-22.5 -51.5t-5.5 -112.5l-2 -230v-442q0 -166 2 -232l5 -173h204q244 0 304.5 6t116.5 29q11 25 31.5 115t21.5 104l9 8h49l7 -8q-8 -40 -16.5 -155t-8.5 -186l-8 -8q-190 6 -499 6
l-292 2q-100 0 -204 -8l-8 8v33l8 10q62 32 68 39t12.5 129t6.5 294v429l-2 195q-1 114 -5.5 147t-14 44t-36.5 18t-133 11l-8 7v50zM715 970l-8 41q175 28 175 129q0 32 -40 33q-134 5 -134 124q0 52 36 83.5t89 31.5q66 0 103 -45t37 -120q0 -254 -258 -277z" />
    <glyph glyph-name="lcaron" unicode="&#x13e;" horiz-adv-x="752" 
d="M374 1481l19 -12q-11 -115 -11 -461v-627q0 -22 4 -141.5t8.5 -139.5t13.5 -29t22 -11.5t108 -8.5l9 -8v-42l-8 -9q-125 8 -241 8q-115 0 -240 -8l-9 9v42l9 8q97 6 109.5 9t22 12.5t13 29t8 129t4.5 165.5v518l-4 212q-3 111 -6.5 154t-9.5 51t-21 12t-121 4l-9 9v42
l8 9q191 22 322 74zM497 1087l-9 35q157 39 157 118q0 29 -34 30q-121 4 -121 109q0 46 32.5 74.5t79.5 28.5q58 0 92 -40.5t34 -106.5q0 -227 -231 -248z" />
    <glyph glyph-name="Ldot" unicode="&#x13f;" horiz-adv-x="1251" 
d="M37 1406l8 7q248 -8 286 -8q34 0 287 8l8 -7v-50l-8 -7q-69 -2 -106.5 -6t-54.5 -15t-22.5 -51.5t-5.5 -112.5l-2 -230v-442q0 -166 2 -232l5 -173h204q244 0 304.5 6t116.5 29q11 25 31.5 115t21.5 104l9 8h49l7 -8q-8 -40 -16.5 -155t-8.5 -186l-8 -8q-190 6 -499 6
l-292 2q-100 0 -204 -8l-8 8v33l8 10q62 32 68 39t12.5 129t6.5 294v429l-2 195q-1 114 -5.5 147t-14 44t-36.5 18t-133 11l-8 7v50zM688 649q-47 0 -80 32.5t-33 79.5t33 80t80 33t79.5 -33t32.5 -80t-32.5 -79.5t-79.5 -32.5z" />
    <glyph glyph-name="ldot" unicode="&#x140;" horiz-adv-x="697" 
d="M374 1481l19 -12q-11 -115 -11 -461v-627q0 -22 4 -141.5t8.5 -139.5t13.5 -29t22 -11.5t108 -8.5l9 -8v-42l-8 -9q-125 8 -241 8q-115 0 -240 -8l-9 9v42l9 8q97 6 109.5 9t22 12.5t13 29t8 129t4.5 165.5v518l-4 212q-3 111 -6.5 154t-9.5 51t-21 12t-121 4l-9 9v42
l8 9q191 22 322 74zM580 703q-46 0 -78 32t-32 78t32 78.5t78 32.5q48 0 79.5 -32.5t31.5 -78.5t-32.5 -78t-78.5 -32z" />
    <glyph glyph-name="Lslash" unicode="&#x141;" horiz-adv-x="1251" 
d="M427 702v-210q0 -214 7 -405h205q242 0 302.5 6t116.5 29q11 25 31.5 115t21.5 104l9 8h49l8 -8q-9 -40 -17.5 -155t-8.5 -186l-7 -8q-191 6 -499 6l-292 2q-99 0 -204 -8l-8 8v33l8 10q62 32 68 39t12.5 129t6.5 294v87l-182 -105l-11 3l-36 61l2 12l227 130v241l-1 195
q-1 114 -6 147t-14.5 44t-36.5 18t-133 11l-8 7v50l8 7q249 -8 287 -8q33 0 287 8l7 -7v-50l-7 -7q-70 -2 -107.5 -6t-54.5 -15t-22.5 -51.5t-5.5 -112.5l-2 -230v-132l282 162l12 -2l34 -60l-3 -12z" />
    <glyph glyph-name="lslash" unicode="&#x142;" horiz-adv-x="596" 
d="M214 787v127l-4 212q-2 111 -5.5 154t-10 51t-21 12t-121.5 4l-8 9v42l8 9q191 22 322 74l18 -12q-11 -115 -11 -461v-124l207 120l12 -3l29 -50l-3 -11l-245 -141v-418q0 -22 4.5 -141.5t9 -139.5t13.5 -29t21.5 -11.5t108.5 -8.5l8 -8v-42l-8 -9q-124 8 -240 8
q-108 0 -241 -8l-8 9v42l9 8q96 6 109 9t22 12.5t12.5 29t8 129t4.5 165.5v307l-196 -113l-12 3l-25 48l3 12z" />
    <glyph glyph-name="Nacute" unicode="&#x143;" horiz-adv-x="1702" 
d="M66 -7l-9 9v46l9 8q61 1 97.5 7t47 20t14 45t7 140t3.5 156v808q0 51 -18.5 75.5t-50.5 31t-109 7.5l-8 8v47l8 9q138 -5 181 -5q101 0 166 5l319 -414l469 -588q85 -107 173 -203v774q0 36 -3.5 153.5t-8.5 149t-17.5 42.5t-47 16.5t-93.5 6.5l-8 8v46l8 9q81 -5 231 -5
q137 0 199 5l9 -9v-46l-8 -8q-66 -1 -102 -7.5t-45 -21.5t-12.5 -44t-7 -138t-3.5 -157v-475l1 -275q2 -135 4 -271q-50 17 -173 42l-71 84l-213 260l-678 847v-767q0 -46 3.5 -164t8.5 -143t13 -34.5t34.5 -17.5t109.5 -9l8 -8v-47l-8 -8q-52 7 -168 7q-149 0 -261 -7z
M1186 1856l-210 -157l-200 -156l-15 -4l-25 24l2 14l144 174q3 3 95 117l187 26l10 -7z" />
    <glyph glyph-name="nacute" unicode="&#x144;" horiz-adv-x="1192" 
d="M342 953l19 -13q-6 -67 -8 -176q80 66 152 134q21 19 39.5 28t61.5 19t88 10q76 0 147.5 -31t108 -73.5t50.5 -100.5t14 -143v-176q0 -17 5 -249q2 -95 21 -113t124 -18l8 -8v-43l-8 -8q-127 8 -172 8q-26 0 -146 -8l-12 11q13 130 13 339v131q0 118 -5.5 170t-33.5 94.5
t-75 66t-112 23.5q-52 0 -89 -10.5t-83 -43t-68 -61t-26.5 -53t-4.5 -104.5v-174q0 -22 4 -141.5t8.5 -139.5t13.5 -29t22 -11.5t108 -8.5l9 -8v-42l-8 -9q-125 8 -241 8q-115 0 -240 -8l-9 9v42l9 8q97 6 109.5 9t22 12.5t13 29t8 129t4.5 165.5v197q0 40 -4 109t-6.5 85
t-15.5 23.5t-52 7.5l-84 1l-9 8v43l8 8q191 23 322 75zM890 1467l-294 -374l-13 -4l-29 15l-3 13l153 349l156 29l13 -3z" />
    <glyph glyph-name="Ncommaaccent" unicode="&#x145;" horiz-adv-x="1702" 
d="M66 -7l-9 9v46l9 8q61 1 97.5 7t47 20t14 45t7 140t3.5 156v808q0 51 -18.5 75.5t-50.5 31t-109 7.5l-8 8v47l8 9q138 -5 181 -5q101 0 166 5l319 -414l469 -588q85 -107 173 -203v774q0 36 -3.5 153.5t-8.5 149t-17.5 42.5t-47 16.5t-93.5 6.5l-8 8v46l8 9q81 -5 231 -5
q137 0 199 5l9 -9v-46l-8 -8q-66 -1 -102 -7.5t-45 -21.5t-12.5 -44t-7 -138t-3.5 -157v-475l1 -275q2 -135 4 -271q-50 17 -173 42l-71 84l-213 260l-678 847v-767q0 -46 3.5 -164t8.5 -143t13 -34.5t34.5 -17.5t109.5 -9l8 -8v-47l-8 -8q-52 7 -168 7q-149 0 -261 -7z
M725 -561l-8 41q175 28 175 129q0 32 -40 33q-134 5 -134 124q0 52 36 83.5t89 31.5q66 0 103 -45t37 -120q0 -254 -258 -277z" />
    <glyph glyph-name="ncommaaccent" unicode="&#x146;" horiz-adv-x="1192" 
d="M342 953l19 -13q-6 -67 -8 -176q80 66 152 134q21 19 39.5 28t61.5 19t88 10q76 0 147.5 -31t108 -73.5t50.5 -100.5t14 -143v-176q0 -17 5 -249q2 -95 21 -113t124 -18l8 -8v-43l-8 -8q-127 8 -172 8q-26 0 -146 -8l-12 11q13 130 13 339v131q0 118 -5.5 170t-33.5 94.5
t-75 66t-112 23.5q-52 0 -89 -10.5t-83 -43t-68 -61t-26.5 -53t-4.5 -104.5v-174q0 -22 4 -141.5t8.5 -139.5t13.5 -29t22 -11.5t108 -8.5l9 -8v-42l-8 -9q-125 8 -241 8q-115 0 -240 -8l-9 9v42l9 8q97 6 109.5 9t22 12.5t13 29t8 129t4.5 165.5v197q0 40 -4 109t-6.5 85
t-15.5 23.5t-52 7.5l-84 1l-9 8v43l8 8q191 23 322 75zM517 -511l-9 35q157 39 157 118q0 29 -34 30q-121 4 -121 109q0 46 32.5 74.5t79.5 28.5q58 0 92 -40.5t34 -106.5q0 -227 -231 -248z" />
    <glyph glyph-name="Ncaron" unicode="&#x147;" horiz-adv-x="1702" 
d="M66 -7l-9 9v46l9 8q61 1 97.5 7t47 20t14 45t7 140t3.5 156v808q0 51 -18.5 75.5t-50.5 31t-109 7.5l-8 8v47l8 9q138 -5 181 -5q101 0 166 5l319 -414l469 -588q85 -107 173 -203v774q0 36 -3.5 153.5t-8.5 149t-17.5 42.5t-47 16.5t-93.5 6.5l-8 8v46l8 9q81 -5 231 -5
q137 0 199 5l9 -9v-46l-8 -8q-66 -1 -102 -7.5t-45 -21.5t-12.5 -44t-7 -138t-3.5 -157v-475l1 -275q2 -135 4 -271q-50 17 -173 42l-71 84l-213 260l-678 847v-767q0 -46 3.5 -164t8.5 -143t13 -34.5t34.5 -17.5t109.5 -9l8 -8v-47l-8 -8q-52 7 -168 7q-149 0 -261 -7z
M1202 1894l-280 -355h-126l-286 355l6 11h63l277 -253l274 253h65z" />
    <glyph glyph-name="ncaron" unicode="&#x148;" horiz-adv-x="1192" 
d="M342 953l19 -13q-6 -67 -8 -176q80 66 152 134q21 19 39.5 28t61.5 19t88 10q76 0 147.5 -31t108 -73.5t50.5 -100.5t14 -143v-176q0 -17 5 -249q2 -95 21 -113t124 -18l8 -8v-43l-8 -8q-127 8 -172 8q-26 0 -146 -8l-12 11q13 130 13 339v131q0 118 -5.5 170t-33.5 94.5
t-75 66t-112 23.5q-52 0 -89 -10.5t-83 -43t-68 -61t-26.5 -53t-4.5 -104.5v-174q0 -22 4 -141.5t8.5 -139.5t13.5 -29t22 -11.5t108 -8.5l9 -8v-42l-8 -9q-125 8 -241 8q-115 0 -240 -8l-9 9v42l9 8q97 6 109.5 9t22 12.5t13 29t8 129t4.5 165.5v197q0 40 -4 109t-6.5 85
t-15.5 23.5t-52 7.5l-84 1l-9 8v43l8 8q191 23 322 75zM931 1472l-261 -362h-128l-251 362l7 10h58l250 -246l250 246h68z" />
    <glyph glyph-name="napostrophe" unicode="&#x149;" horiz-adv-x="1477" 
d="M627 953l19 -13q-6 -67 -8 -176q80 66 152 134q21 19 39.5 28t61.5 19t88 10q76 0 147.5 -31t108 -73.5t50.5 -100.5t14 -143v-176q0 -17 5 -249q2 -95 21 -113t124 -18l8 -8v-43l-8 -8q-127 8 -172 8q-26 0 -146 -8l-12 11q13 130 13 339v131q0 118 -5.5 170t-33.5 94.5
t-75 66t-112 23.5q-52 0 -89 -10.5t-83 -43t-68 -61t-26.5 -53t-4.5 -104.5v-174q0 -22 4 -141.5t8.5 -139.5t13.5 -29t22 -11.5t108 -8.5l9 -8v-42l-8 -9q-125 8 -241 8q-115 0 -240 -8l-9 9v42l9 8q97 6 109.5 9t22 12.5t13 29t8 129t4.5 165.5v197q0 40 -4 109t-6.5 85
t-15.5 23.5t-52 7.5l-84 1l-9 8v43l8 8q191 23 322 75zM77 1086l-9 35q157 39 157 118q0 29 -34 30q-121 4 -121 109q0 46 32.5 74.5t79.5 28.5q58 0 92 -40.5t34 -106.5q0 -227 -231 -248z" />
    <glyph glyph-name="Omacron" unicode="&#x14c;" horiz-adv-x="1610" 
d="M48 689q0 150 43 280t146.5 240.5t249.5 171t330 60.5q341 0 543 -185.5t202 -506.5q0 -226 -99 -406t-283.5 -280t-414.5 -100q-163 0 -300 54.5t-233.5 162.5t-140 250t-43.5 259zM256 755q0 -122 39.5 -262.5t118 -241t181 -149.5t233.5 -49q155 0 276 71t184 220.5
t63 335.5q0 202 -72 365t-205 237t-295 74q-243 0 -383 -152t-140 -449zM790 1487zM795 -60zM1125 1665h-648v102h648v-102z" />
    <glyph glyph-name="omacron" unicode="&#x14d;" horiz-adv-x="1118" 
d="M68 458q0 119 49 229.5t170.5 191t288.5 80.5q210 0 342 -132.5t132 -340.5q0 -229 -151.5 -377t-365.5 -148q-140 0 -250 75.5t-162.5 184.5t-52.5 237zM257 527q0 -140 36 -250.5t114 -177.5t178 -67q118 0 195 93.5t77 281.5q0 213 -83.5 349t-240.5 136
q-130 0 -203 -94t-73 -271zM560 1016zM545 -60zM866 1215h-630v105h630v-105z" />
    <glyph glyph-name="Obreve" unicode="&#x14e;" horiz-adv-x="1610" 
d="M48 689q0 150 43 280t146.5 240.5t249.5 171t330 60.5q341 0 543 -185.5t202 -506.5q0 -226 -99 -406t-283.5 -280t-414.5 -100q-163 0 -300 54.5t-233.5 162.5t-140 250t-43.5 259zM256 755q0 -122 39.5 -262.5t118 -241t181 -149.5t233.5 -49q155 0 276 71t184 220.5
t63 335.5q0 202 -72 365t-205 237t-295 74q-243 0 -383 -152t-140 -449zM790 1487zM795 -60zM1104 1871q0 -109 -60 -197q-80 -119 -237 -119q-164 0 -246 112q-63 86 -63 204l5 7h53q39 -193 254 -193q199 0 236 193h53zM809 1881z" />
    <glyph glyph-name="obreve" unicode="&#x14f;" horiz-adv-x="1118" 
d="M68 458q0 119 49 229.5t170.5 191t288.5 80.5q210 0 342 -132.5t132 -340.5q0 -229 -151.5 -377t-365.5 -148q-140 0 -250 75.5t-162.5 184.5t-52.5 237zM257 527q0 -140 36 -250.5t114 -177.5t178 -67q118 0 195 93.5t77 281.5q0 213 -83.5 349t-240.5 136
q-130 0 -203 -94t-73 -271zM560 1016zM545 -60zM835 1424q-7 -151 -81.5 -240.5t-202.5 -89.5q-85 0 -146 39t-97.5 113t-40.5 178l8 8h54q15 -93 74.5 -152.5t147.5 -59.5t147.5 59.5t74.5 152.5h54zM550 1423z" />
    <glyph glyph-name="Ohungarumlaut" unicode="&#x150;" horiz-adv-x="1610" 
d="M48 689q0 150 43 280t146.5 240.5t249.5 171t330 60.5q341 0 543 -185.5t202 -506.5q0 -226 -99 -406t-283.5 -280t-414.5 -100q-163 0 -300 54.5t-233.5 162.5t-140 250t-43.5 259zM256 755q0 -122 39.5 -262.5t118 -241t181 -149.5t233.5 -49q155 0 276 71t184 220.5
t63 335.5q0 202 -72 365t-205 237t-295 74q-243 0 -383 -152t-140 -449zM790 1487zM795 -60zM1324 1860l-408 -318l-13 -3l-24 23l2 13l241 293l180 26l10 -7zM965 1860l-408 -318l-13 -3l-24 23l2 13l241 293l180 26l10 -7z" />
    <glyph glyph-name="ohungarumlaut" unicode="&#x151;" horiz-adv-x="1118" 
d="M68 458q0 119 49 229.5t170.5 191t288.5 80.5q210 0 342 -132.5t132 -340.5q0 -229 -151.5 -377t-365.5 -148q-140 0 -250 75.5t-162.5 184.5t-52.5 237zM257 527q0 -140 36 -250.5t114 -177.5t178 -67q118 0 195 93.5t77 281.5q0 213 -83.5 349t-240.5 136
q-130 0 -203 -94t-73 -271zM560 1016zM545 -60zM975 1474l-291 -381l-10 -4l-29 16l-4 10l153 351l154 29l10 -4zM661 1474l-291 -381l-10 -4l-29 16l-4 10l153 351l154 29l10 -4z" />
    <glyph glyph-name="OE" unicode="&#x152;" horiz-adv-x="2044" 
d="M1941 338h49l9 -8q-14 -137 -17 -179.5t-9 -149.5l-10 -9q-408 8 -590 8q-117 0 -172.5 -3t-185.5 -15q-156 -15 -227 -15q-196 0 -355.5 79t-260 249.5t-100.5 396.5q0 206 86 374.5t266 270t396 101.5q55 0 166 -13q194 -21 325 -21q230 0 616 9l9 -9q-1 -9 -12 -72
q-11 -66 -14 -94.5t-10 -133.5l-9 -10h-46l-9 9q-1 111 -12 180q-130 42 -313 42q-84 0 -203 -8q-11 -131 -11 -243v-304q88 -7 165 -7q87 0 149.5 5.5t73.5 13t15.5 22.5t14.5 97q3 24 4 35l9 8h48l9 -7q-7 -116 -7 -213q0 -77 7 -233l-8 -8h-49l-9 8l-7 95q-4 43 -11 55.5
t-21 20t-88.5 13.5t-119.5 6q-88 -3 -175 -6v-358q0 -114 4 -229h186q207 0 269 4t126 30q15 40 50 208zM1109 1266q-140 87 -310 87q-152 0 -278 -70t-185.5 -208t-59.5 -316q0 -153 42.5 -290.5t116.5 -229t170 -140.5t225 -49q147 0 280 66q12 121 12 300v421
q0 299 -13 429z" />
    <glyph glyph-name="oe" unicode="&#x153;" horiz-adv-x="1694" 
d="M1597 164l16 -17l-32 -72q-104 -67 -185.5 -87t-145.5 -20q-90 0 -165 23.5t-115.5 52.5t-98.5 95q-145 -169 -359 -169q-205 0 -332 136t-127 366q0 160 68.5 269t181 164t245.5 55q81 0 145.5 -19.5t107 -49.5t97.5 -86q99 94 180.5 124.5t174.5 30.5q95 0 163 -26
t122 -78.5t79 -129t25 -154.5q0 -31 -4 -60l-11 -11q-67 -15 -182 -20t-153 -5h-320q2 -207 104 -305t250 -98q67 0 130 22.5t141 68.5zM234 551q0 -115 33 -238.5t106 -199.5t181 -76q118 0 186.5 98.5t68.5 284.5q0 222 -84 348t-222 126q-111 0 -190 -82.5t-79 -260.5z
M972 556q29 -3 141 -7t176 -4q139 0 169 5q1 24 1 37q0 151 -61.5 228.5t-173.5 77.5q-119 0 -185.5 -85t-66.5 -252z" />
    <glyph glyph-name="Racute" unicode="&#x154;" horiz-adv-x="1368" 
d="M42 1406l8 7q183 -8 285 -8q113 0 305 7q71 2 103 2q253 0 343 -92t90 -218q0 -84 -44 -165t-130 -138.5t-237 -86.5q28 -39 101 -135l142 -188q69 -93 148 -196.5t102 -117t39.5 -16.5t52.5 -3l8 -8v-47l-9 -9q-48 6 -114 6q-71 0 -155 -6q-69 84 -217 291
q-172 240 -352 445l10 31q52 -3 81 -3q173 0 271 83t98 230q0 132 -88 199.5t-238 67.5q-105 0 -198 -29q-15 -22 -15 -375v-463l1 -195q1 -113 6 -146t14.5 -44t36.5 -18.5t133 -11.5l8 -6v-50l-8 -8q-5 0 -176 6q-71 2 -111 2q-31 0 -286 -8l-8 8v50l8 6q93 4 124 10
t41.5 15.5t17 40.5t7.5 138l1 211v463l-2 195q-1 114 -5.5 147t-14 44t-36.5 18t-133 11l-8 7v50zM966 1856l-210 -157l-200 -156l-15 -4l-25 24l2 14l144 174q3 3 95 117l187 26l10 -7z" />
    <glyph glyph-name="racute" unicode="&#x155;" horiz-adv-x="809" 
d="M384 953l19 -13q-6 -58 -9 -206l75 95q37 47 65.5 72.5t66.5 39.5t78 14q44 0 83 -18l7 -14q-16 -133 -18 -234h-45q-40 92 -129 92q-62 0 -108 -39.5t-61.5 -99t-15.5 -150.5v-111q0 -30 4 -147t8.5 -135t14 -26.5t25 -11.5t142.5 -10l9 -8v-42l-9 -9q-133 8 -278 8
q-115 0 -240 -8l-9 9v42l9 8q97 6 109.5 9t22 12.5t13 29t8 129t4.5 165.5v197q0 40 -4 109t-6.5 85t-15.5 23.5t-52 7.5l-84 1l-9 8v43l8 8q191 23 322 75zM730 1467l-294 -374l-13 -4l-29 15l-3 13l153 349l156 29l13 -3z" />
    <glyph glyph-name="Rcommaaccent" unicode="&#x156;" horiz-adv-x="1368" 
d="M42 1406l8 7q183 -8 285 -8q113 0 305 7q71 2 103 2q253 0 343 -92t90 -218q0 -84 -44 -165t-130 -138.5t-237 -86.5q28 -39 101 -135l142 -188q69 -93 148 -196.5t102 -117t39.5 -16.5t52.5 -3l8 -8v-47l-9 -9q-48 6 -114 6q-71 0 -155 -6q-69 84 -217 291
q-172 240 -352 445l10 31q52 -3 81 -3q173 0 271 83t98 230q0 132 -88 199.5t-238 67.5q-105 0 -198 -29q-15 -22 -15 -375v-463l1 -195q1 -113 6 -146t14.5 -44t36.5 -18.5t133 -11.5l8 -6v-50l-8 -8q-5 0 -176 6q-71 2 -111 2q-31 0 -286 -8l-8 8v50l8 6q93 4 124 10
t41.5 15.5t17 40.5t7.5 138l1 211v463l-2 195q-1 114 -5.5 147t-14 44t-36.5 18t-133 11l-8 7v50zM605 -561l-8 41q175 28 175 129q0 32 -40 33q-134 5 -134 124q0 52 36 83.5t89 31.5q66 0 103 -45t37 -120q0 -254 -258 -277z" />
    <glyph glyph-name="rcommaaccent" unicode="&#x157;" horiz-adv-x="809" 
d="M384 953l19 -13q-6 -58 -9 -206l75 95q37 47 65.5 72.5t66.5 39.5t78 14q44 0 83 -18l7 -14q-16 -133 -18 -234h-45q-40 92 -129 92q-62 0 -108 -39.5t-61.5 -99t-15.5 -150.5v-111q0 -30 4 -147t8.5 -135t14 -26.5t25 -11.5t142.5 -10l9 -8v-42l-9 -9q-133 8 -278 8
q-115 0 -240 -8l-9 9v42l9 8q97 6 109.5 9t22 12.5t13 29t8 129t4.5 165.5v197q0 40 -4 109t-6.5 85t-15.5 23.5t-52 7.5l-84 1l-9 8v43l8 8q191 23 322 75zM207 -511l-9 35q157 39 157 118q0 29 -34 30q-121 4 -121 109q0 46 32.5 74.5t79.5 28.5q58 0 92 -40.5t34 -106.5
q0 -227 -231 -248z" />
    <glyph glyph-name="Rcaron" unicode="&#x158;" horiz-adv-x="1368" 
d="M42 1406l8 7q183 -8 285 -8q113 0 305 7q71 2 103 2q253 0 343 -92t90 -218q0 -84 -44 -165t-130 -138.5t-237 -86.5q28 -39 101 -135l142 -188q69 -93 148 -196.5t102 -117t39.5 -16.5t52.5 -3l8 -8v-47l-9 -9q-48 6 -114 6q-71 0 -155 -6q-69 84 -217 291
q-172 240 -352 445l10 31q52 -3 81 -3q173 0 271 83t98 230q0 132 -88 199.5t-238 67.5q-105 0 -198 -29q-15 -22 -15 -375v-463l1 -195q1 -113 6 -146t14.5 -44t36.5 -18.5t133 -11.5l8 -6v-50l-8 -8q-5 0 -176 6q-71 2 -111 2q-31 0 -286 -8l-8 8v50l8 6q93 4 124 10
t41.5 15.5t17 40.5t7.5 138l1 211v463l-2 195q-1 114 -5.5 147t-14 44t-36.5 18t-133 11l-8 7v50zM972 1894l-280 -355h-126l-286 355l6 11h63l277 -253l274 253h65z" />
    <glyph glyph-name="rcaron" unicode="&#x159;" horiz-adv-x="809" 
d="M384 953l19 -13q-6 -58 -9 -206l75 95q37 47 65.5 72.5t66.5 39.5t78 14q44 0 83 -18l7 -14q-16 -133 -18 -234h-45q-40 92 -129 92q-62 0 -108 -39.5t-61.5 -99t-15.5 -150.5v-111q0 -30 4 -147t8.5 -135t14 -26.5t25 -11.5t142.5 -10l9 -8v-42l-9 -9q-133 8 -278 8
q-115 0 -240 -8l-9 9v42l9 8q97 6 109.5 9t22 12.5t13 29t8 129t4.5 165.5v197q0 40 -4 109t-6.5 85t-15.5 23.5t-52 7.5l-84 1l-9 8v43l8 8q191 23 322 75zM741 1472l-261 -362h-128l-251 362l7 10h58l250 -246l250 246h68z" />
    <glyph glyph-name="Sacute" unicode="&#x15a;" horiz-adv-x="1075" 
d="M79 344l8 8h49l8 -8q5 -128 13.5 -156.5t54 -60t121 -51.5t152.5 -20q106 0 190.5 39t131.5 114.5t47 169.5q0 66 -22.5 115t-63 78.5t-92.5 44t-155 31.5q-100 16 -156.5 29t-112.5 40t-93.5 68.5t-60 102t-22.5 129.5q0 187 130 306.5t349 119.5q87 0 189.5 -21.5
t186.5 -63.5l7 -12q-22 -92 -27 -262l-9 -8h-52l-8 7q-2 120 -6 151t-91 77t-189 46q-85 0 -159 -34t-112 -107t-38 -149q0 -59 23 -104.5t59.5 -72t85 -39.5t177.5 -32q177 -25 257.5 -60.5t129 -112.5t48.5 -186q0 -213 -173.5 -355t-420.5 -142q-207 0 -363 74l-6 13
q10 63 15 294zM906 1856l-210 -157l-200 -156l-15 -4l-25 24l2 14l144 174q3 3 95 117l187 26l10 -7z" />
    <glyph glyph-name="sacute" unicode="&#x15b;" horiz-adv-x="868" 
d="M101 294h43l9 -9q2 -84 10 -144q31 -47 107 -76.5t150 -29.5q106 0 169.5 57t63.5 136q0 43 -23 74.5t-69.5 52t-166.5 48.5q-103 24 -144 37.5t-79 45.5t-58 78.5t-20 102.5q0 134 106.5 214.5t265.5 80.5q67 0 146 -18.5t120 -35.5l9 -14q-8 -40 -10 -210l-9 -9h-40
l-9 9q-4 61 -11 85.5t-36 53t-82 48t-112 19.5q-61 0 -102.5 -18t-67 -54.5t-25.5 -88.5q0 -38 15.5 -68t47.5 -48.5t67 -26.5l109 -28q140 -34 200.5 -59t93.5 -75.5t33 -122.5q0 -138 -114 -237t-293 -99q-63 0 -156.5 14t-159.5 31l-5 13l10 67q5 31 6 62.5t2 132.5z
M720 1467l-294 -374l-13 -4l-29 15l-3 13l153 349l156 29l13 -3z" />
    <glyph glyph-name="Scircumflex" unicode="&#x15c;" horiz-adv-x="1075" 
d="M79 344l8 8h49l8 -8q5 -128 13.5 -156.5t54 -60t121 -51.5t152.5 -20q106 0 190.5 39t131.5 114.5t47 169.5q0 66 -22.5 115t-63 78.5t-92.5 44t-155 31.5q-100 16 -156.5 29t-112.5 40t-93.5 68.5t-60 102t-22.5 129.5q0 187 130 306.5t349 119.5q87 0 189.5 -21.5
t186.5 -63.5l7 -12q-22 -92 -27 -262l-9 -8h-52l-8 7q-2 120 -6 151t-91 77t-189 46q-85 0 -159 -34t-112 -107t-38 -149q0 -59 23 -104.5t59.5 -72t85 -39.5t177.5 -32q177 -25 257.5 -60.5t129 -112.5t48.5 -186q0 -213 -173.5 -355t-420.5 -142q-207 0 -363 74l-6 13
q10 63 15 294zM884 1550l-7 -11h-62l-264 234l-264 -234h-62l-7 10l288 356h96zM1018 1593zM554 1905z" />
    <glyph glyph-name="scircumflex" unicode="&#x15d;" horiz-adv-x="868" 
d="M101 294h43l9 -9q2 -84 10 -144q31 -47 107 -76.5t150 -29.5q106 0 169.5 57t63.5 136q0 43 -23 74.5t-69.5 52t-166.5 48.5q-103 24 -144 37.5t-79 45.5t-58 78.5t-20 102.5q0 134 106.5 214.5t265.5 80.5q67 0 146 -18.5t120 -35.5l9 -14q-8 -40 -10 -210l-9 -9h-40
l-9 9q-4 61 -11 85.5t-36 53t-82 48t-112 19.5q-61 0 -102.5 -18t-67 -54.5t-25.5 -88.5q0 -38 15.5 -68t47.5 -48.5t67 -26.5l109 -28q140 -34 200.5 -59t93.5 -75.5t33 -122.5q0 -138 -114 -237t-293 -99q-63 0 -156.5 14t-159.5 31l-5 13l10 67q5 31 6 62.5t2 132.5z
M761 1120l-7 -10h-58l-255 248l-255 -248h-58l-7 10l261 362h118zM887 1150zM441 1482z" />
    <glyph glyph-name="Scedilla" unicode="&#x15e;" horiz-adv-x="1075" 
d="M425 -37q-212 4 -355 74l-6 13q10 63 15 294l8 8h49l8 -8q5 -128 13.5 -156.5t54 -60t121 -51.5t152.5 -20q106 0 190.5 39t131.5 114.5t47 169.5q0 66 -22.5 115t-63 78.5t-92.5 44t-155 31.5q-100 16 -156.5 29t-112.5 40t-93.5 68.5t-60 102t-22.5 129.5
q0 187 130 306.5t349 119.5q87 0 189.5 -21.5t186.5 -63.5l7 -12q-22 -92 -27 -262l-9 -8h-52l-8 7q-2 120 -6 151t-91 77t-189 46q-85 0 -159 -34t-112 -107t-38 -149q0 -63 26.5 -112t73 -75t92.5 -35.5t153 -25.5q177 -25 257.5 -60.5t129 -112.5t48.5 -186
q0 -195 -148.5 -333t-374.5 -160l-47 -109q32 6 61 6q81 0 127.5 -39t46.5 -102q0 -70 -61.5 -121t-182.5 -51q-97 0 -181 29l-4 12l24 51l11 5q62 -22 124 -22q56 0 82.5 26t26.5 58q0 35 -27.5 56.5t-74.5 21.5q-29 0 -61 -10l-18 14z" />
    <glyph glyph-name="scedilla" unicode="&#x15f;" horiz-adv-x="868" 
d="M358 -35q-145 11 -279 45l-5 13l10 67q5 31 6 62.5t2 132.5l9 9h43l9 -9q2 -84 10 -144q31 -47 107 -76.5t150 -29.5q106 0 169.5 57t63.5 136q0 43 -23 74.5t-69.5 52t-166.5 48.5q-103 24 -144 37.5t-79 45.5t-58 78.5t-20 102.5q0 134 106.5 214.5t265.5 80.5
q67 0 146 -18.5t120 -35.5l9 -14q-8 -40 -10 -210l-9 -9h-40l-9 9q-4 61 -11 85.5t-36 53t-82 48t-112 19.5q-61 0 -102.5 -18t-67 -54.5t-25.5 -88.5q0 -38 15.5 -68t47.5 -48.5t67 -26.5l109 -28q140 -34 200.5 -59t93.5 -75.5t33 -122.5q0 -128 -100.5 -225t-268.5 -110
l-47 -108q32 6 61 6q84 0 129.5 -40.5t45.5 -100.5q0 -70 -62 -121t-183 -51q-100 0 -180 29l-5 12l24 51l11 5q62 -22 124 -22q55 0 82 25.5t27 58.5q0 35 -28.5 56.5t-73.5 21.5q-29 0 -61 -10l-18 14z" />
    <glyph glyph-name="Scaron" unicode="&#x160;" horiz-adv-x="1075" 
d="M79 344l8 8h49l8 -8q5 -128 13.5 -156.5t54 -60t121 -51.5t152.5 -20q106 0 190.5 39t131.5 114.5t47 169.5q0 66 -22.5 115t-63 78.5t-92.5 44t-155 31.5q-100 16 -156.5 29t-112.5 40t-93.5 68.5t-60 102t-22.5 129.5q0 187 130 306.5t349 119.5q87 0 189.5 -21.5
t186.5 -63.5l7 -12q-22 -92 -27 -262l-9 -8h-52l-8 7q-2 120 -6 151t-91 77t-189 46q-85 0 -159 -34t-112 -107t-38 -149q0 -59 23 -104.5t59.5 -72t85 -39.5t177.5 -32q177 -25 257.5 -60.5t129 -112.5t48.5 -186q0 -213 -173.5 -355t-420.5 -142q-207 0 -363 74l-6 13
q10 63 15 294zM892 1894l-280 -355h-126l-286 355l6 11h63l277 -253l274 253h65z" />
    <glyph glyph-name="scaron" unicode="&#x161;" horiz-adv-x="868" 
d="M101 294h43l9 -9q2 -84 10 -144q31 -47 107 -76.5t150 -29.5q106 0 169.5 57t63.5 136q0 43 -23 74.5t-69.5 52t-166.5 48.5q-103 24 -144 37.5t-79 45.5t-58 78.5t-20 102.5q0 134 106.5 214.5t265.5 80.5q67 0 146 -18.5t120 -35.5l9 -14q-8 -40 -10 -210l-9 -9h-40
l-9 9q-4 61 -11 85.5t-36 53t-82 48t-112 19.5q-61 0 -102.5 -18t-67 -54.5t-25.5 -88.5q0 -38 15.5 -68t47.5 -48.5t67 -26.5l109 -28q140 -34 200.5 -59t93.5 -75.5t33 -122.5q0 -138 -114 -237t-293 -99q-63 0 -156.5 14t-159.5 31l-5 13l10 67q5 31 6 62.5t2 132.5z
M751 1472l-261 -362h-128l-251 362l7 10h58l250 -246l250 246h68z" />
    <glyph glyph-name="Tcommaaccent" unicode="&#x162;" horiz-adv-x="1255" 
d="M1207 1413l9 -9q-9 -90 -9 -314l-8 -8h-47l-8 9l-11 92q-8 74 -12.5 90.5t-14.5 24t-65 12.5t-123 5h-189q-8 -226 -8 -261v-583l2 -195q1 -113 5.5 -146.5t14 -44t36.5 -18t134 -11.5l7 -6v-50l-7 -8q-256 8 -286 8q-32 0 -285 -8l-8 8v50l8 6q94 4 124.5 10t41 15.5
t17.5 40.5t7 138l2 211v583q0 16 -8 261h-149q-92 0 -159 -4t-77.5 -20.5t-19.5 -107.5l-10 -92l-9 -9h-46l-8 8q-2 241 -9 314l9 9q174 -8 579 -8q413 0 580 8zM505 -561l-8 41q175 28 175 129q0 32 -40 33q-134 5 -134 124q0 52 36 83.5t89 31.5q66 0 103 -45t37 -120
q0 -254 -258 -277z" />
    <glyph glyph-name="Tcommaaccent" unicode="&#x21a;" horiz-adv-x="1255" 
d="M1207 1413l9 -9q-9 -90 -9 -314l-8 -8h-47l-8 9l-11 92q-8 74 -12.5 90.5t-14.5 24t-65 12.5t-123 5h-189q-8 -226 -8 -261v-583l2 -195q1 -113 5.5 -146.5t14 -44t36.5 -18t134 -11.5l7 -6v-50l-7 -8q-256 8 -286 8q-32 0 -285 -8l-8 8v50l8 6q94 4 124.5 10t41 15.5
t17.5 40.5t7 138l2 211v583q0 16 -8 261h-149q-92 0 -159 -4t-77.5 -20.5t-19.5 -107.5l-10 -92l-9 -9h-46l-8 8q-2 241 -9 314l9 9q174 -8 579 -8q413 0 580 8zM505 -561l-8 41q175 28 175 129q0 32 -40 33q-134 5 -134 124q0 52 36 83.5t89 31.5q66 0 103 -45t37 -120
q0 -254 -258 -277z" />
    <glyph glyph-name="tcommaaccent" unicode="&#x163;" horiz-adv-x="668" 
d="M46 785v26l7 10q94 35 152 65q0 261 -6 304q103 36 169 77l24 -20q-10 -63 -24 -366q50 -1 108 -1q118 0 169 6l7 -7l-19 -84l-8 -9q-51 1 -113 1q-56 0 -144 -1l-6 -407q0 -141 6.5 -184.5t36 -68t87.5 -24.5q67 0 124 35l24 -36q-24 -17 -115 -100q-52 -24 -106 -24
q-225 0 -225 218q0 80 4 136q1 17 1 35v415h-41q-45 0 -103 -4zM257 -511l-9 35q157 39 157 118q0 29 -34 30q-121 4 -121 109q0 46 32.5 74.5t79.5 28.5q58 0 92 -40.5t34 -106.5q0 -227 -231 -248z" />
    <glyph glyph-name="tcommaaccent" unicode="&#x21b;" horiz-adv-x="668" 
d="M46 785v26l7 10q94 35 152 65q0 261 -6 304q103 36 169 77l24 -20q-10 -63 -24 -366q50 -1 108 -1q118 0 169 6l7 -7l-19 -84l-8 -9q-51 1 -113 1q-56 0 -144 -1l-6 -407q0 -141 6.5 -184.5t36 -68t87.5 -24.5q67 0 124 35l24 -36q-24 -17 -115 -100q-52 -24 -106 -24
q-225 0 -225 218q0 80 4 136q1 17 1 35v415h-41q-45 0 -103 -4zM257 -511l-9 35q157 39 157 118q0 29 -34 30q-121 4 -121 109q0 46 32.5 74.5t79.5 28.5q58 0 92 -40.5t34 -106.5q0 -227 -231 -248z" />
    <glyph glyph-name="Tcaron" unicode="&#x164;" horiz-adv-x="1255" 
d="M1207 1413l9 -9q-9 -90 -9 -314l-8 -8h-47l-8 9l-11 92q-8 74 -12.5 90.5t-14.5 24t-65 12.5t-123 5h-189q-8 -226 -8 -261v-583l2 -195q1 -113 5.5 -146.5t14 -44t36.5 -18t134 -11.5l7 -6v-50l-7 -8q-256 8 -286 8q-32 0 -285 -8l-8 8v50l8 6q94 4 124.5 10t41 15.5
t17.5 40.5t7 138l2 211v583q0 16 -8 261h-149q-92 0 -159 -4t-77.5 -20.5t-19.5 -107.5l-10 -92l-9 -9h-46l-8 8q-2 241 -9 314l9 9q174 -8 579 -8q413 0 580 8zM982 1894l-280 -355h-126l-286 355l6 11h63l277 -253l274 253h65z" />
    <glyph glyph-name="tcaron" unicode="&#x165;" horiz-adv-x="754" 
d="M46 785v26l7 10q94 35 152 65q0 261 -6 304q103 36 169 77l24 -20q-10 -63 -24 -366q50 -1 108 -1q118 0 169 6l7 -7l-19 -84l-8 -9q-51 1 -113 1q-56 0 -144 -1l-6 -407q0 -141 6.5 -184.5t36 -68t87.5 -24.5q67 0 124 35l24 -36q-24 -17 -115 -100q-52 -24 -106 -24
q-225 0 -225 218q0 80 4 136q1 17 1 35v415h-41q-45 0 -103 -4zM517 1086l-9 35q157 39 157 118q0 29 -34 30q-121 4 -121 109q0 46 32.5 74.5t79.5 28.5q58 0 92 -40.5t34 -106.5q0 -227 -231 -248z" />
    <glyph glyph-name="Tbar" unicode="&#x166;" horiz-adv-x="1255" 
d="M335 0v50l7 7q93 3 124 9t41.5 15.5t17.5 40t7 138.5l2 211v388l-418 -5l-8 7v81l8 7q250 -5 418 -5v110q0 29 -8 261h-191q-39 0 -97 -3.5t-75.5 -7.5t-25 -20t-16.5 -101l-10 -92l-9 -9h-46l-8 8q-2 247 -9 314l9 9q147 -8 579 -8q433 0 580 8l9 -9q-9 -98 -9 -314
l-8 -8h-47l-8 9l-11 92q-8 75 -12 91t-15 23.5t-67 12.5t-120 5h-190q-8 -220 -8 -261v-110l215 2l203 3l7 -7v-81l-7 -7q-285 5 -418 5v-388l2 -195q1 -113 5.5 -146t14 -44t36.5 -18.5t134 -10.5l7 -7v-50l-7 -8q-248 8 -286 8q-40 0 -285 -8z" />
    <glyph glyph-name="tbar" unicode="&#x167;" horiz-adv-x="668" 
d="M366 666q56 -1 110 -1q108 0 169 6l7 -6l-19 -85l-8 -9q-51 2 -113 2q-31 0 -147 -2l-3 -192q0 -142 6.5 -185t36 -67.5t87.5 -24.5q67 0 124 35l24 -36q-24 -17 -115 -100q-52 -24 -106 -24q-225 0 -225 218q0 80 4 136q1 17 1 35v200h-41q-45 0 -103 -4l-9 8v27l7 9
q92 35 146 62v113h-41q-45 0 -103 -4l-9 8v26l7 10q94 35 152 65q0 261 -6 304q103 36 169 77l24 -20q-10 -63 -24 -366q50 -1 108 -1q118 0 169 6l7 -7l-19 -84l-8 -9q-51 1 -113 1q-56 0 -144 -1z" />
    <glyph glyph-name="Utilde" unicode="&#x168;" horiz-adv-x="1593" 
d="M30 1406l8 7q248 -8 286 -8q34 0 287 8l8 -7v-50l-8 -7q-69 -2 -106.5 -6t-54.5 -15t-22.5 -51.5t-5.5 -112.5l-2 -230v-318q0 -157 6.5 -230.5t28 -124t65.5 -87t126 -59.5t186 -23q110 0 205.5 30.5t145.5 88.5t65.5 152.5t15.5 262.5v308q0 78 -2.5 214.5t-12 157
t-35 31t-141.5 12.5l-8 8v47l8 9q148 -8 237 -8q76 0 236 8l9 -8v-48l-9 -8q-94 -2 -122.5 -7.5t-40 -16.5t-17 -34t-7.5 -132l-3 -225v-304q0 -182 -14 -287t-62.5 -172.5t-115 -113t-170.5 -70t-216 -24.5q-140 0 -247.5 31t-169.5 82t-89 107.5t-35 133t-8 233.5v384
l-2 195q-1 114 -5.5 147t-14 44t-36.5 18t-133 11l-8 7v50zM811 1487zM805 -60zM1170 1822q-19 -88 -80 -153.5t-138 -65.5q-67 0 -168 49q-101 50 -137 50q-89 0 -123 -99h-45l-7 8q17 88 79.5 153t137.5 65q67 0 167 -50q100 -49 141 -49q81 0 121 99h45z" />
    <glyph glyph-name="utilde" unicode="&#x169;" horiz-adv-x="1235" 
d="M346 953l19 -13q-11 -131 -11 -333v-233q0 -128 19.5 -178t67.5 -76.5t114 -26.5q73 0 133 28.5t100.5 80.5t46.5 70t8 101l3 112v108q0 40 -4 109t-6.5 85t-15.5 23.5t-52 7.5l-84 1l-9 8v43l8 8q191 23 322 75l19 -13q-11 -131 -11 -333v-176q0 -15 5 -245
q2 -85 10.5 -103.5t23.5 -26t89 -7.5h28l9 -8v-40l-8 -9q-141 8 -189 8q-61 0 -141 -7l-9 8q6 102 9 173q-63 -49 -144 -131q-31 -31 -89 -52t-132 -21q-112 0 -174.5 35.5t-88.5 98t-26 215.5l1 79v195q0 40 -4 109t-6.5 85t-15.5 23.5t-52 7.5l-84 1l-9 8v43l8 8
q191 23 322 75zM585 1016zM595 -60zM949 1390q-21 -93 -80.5 -156.5t-136.5 -63.5q-64 0 -164 51t-141 51q-78 0 -117 -101h-50l-6 7q18 87 79 151t136 64q63 0 165 -51q103 -51 143 -51q75 0 114 106h52z" />
    <glyph glyph-name="Umacron" unicode="&#x16a;" horiz-adv-x="1593" 
d="M30 1406l8 7q248 -8 286 -8q34 0 287 8l8 -7v-50l-8 -7q-69 -2 -106.5 -6t-54.5 -15t-22.5 -51.5t-5.5 -112.5l-2 -230v-318q0 -157 6.5 -230.5t28 -124t65.5 -87t126 -59.5t186 -23q110 0 205.5 30.5t145.5 88.5t65.5 152.5t15.5 262.5v308q0 78 -2.5 214.5t-12 157
t-35 31t-141.5 12.5l-8 8v47l8 9q148 -8 237 -8q76 0 236 8l9 -8v-48l-9 -8q-94 -2 -122.5 -7.5t-40 -16.5t-17 -34t-7.5 -132l-3 -225v-304q0 -182 -14 -287t-62.5 -172.5t-115 -113t-170.5 -70t-216 -24.5q-140 0 -247.5 31t-169.5 82t-89 107.5t-35 133t-8 233.5v384
l-2 195q-1 114 -5.5 147t-14 44t-36.5 18t-133 11l-8 7v50zM811 1487zM805 -60zM1145 1665h-648v102h648v-102z" />
    <glyph glyph-name="umacron" unicode="&#x16b;" horiz-adv-x="1235" 
d="M346 953l19 -13q-11 -131 -11 -333v-233q0 -128 19.5 -178t67.5 -76.5t114 -26.5q73 0 133 28.5t100.5 80.5t46.5 70t8 101l3 112v108q0 40 -4 109t-6.5 85t-15.5 23.5t-52 7.5l-84 1l-9 8v43l8 8q191 23 322 75l19 -13q-11 -131 -11 -333v-176q0 -15 5 -245
q2 -85 10.5 -103.5t23.5 -26t89 -7.5h28l9 -8v-40l-8 -9q-141 8 -189 8q-61 0 -141 -7l-9 8q6 102 9 173q-63 -49 -144 -131q-31 -31 -89 -52t-132 -21q-112 0 -174.5 35.5t-88.5 98t-26 215.5l1 79v195q0 40 -4 109t-6.5 85t-15.5 23.5t-52 7.5l-84 1l-9 8v43l8 8
q191 23 322 75zM585 1016zM595 -60zM906 1215h-630v105h630v-105z" />
    <glyph glyph-name="Ubreve" unicode="&#x16c;" horiz-adv-x="1593" 
d="M30 1406l8 7q248 -8 286 -8q34 0 287 8l8 -7v-50l-8 -7q-69 -2 -106.5 -6t-54.5 -15t-22.5 -51.5t-5.5 -112.5l-2 -230v-318q0 -157 6.5 -230.5t28 -124t65.5 -87t126 -59.5t186 -23q110 0 205.5 30.5t145.5 88.5t65.5 152.5t15.5 262.5v308q0 78 -2.5 214.5t-12 157
t-35 31t-141.5 12.5l-8 8v47l8 9q148 -8 237 -8q76 0 236 8l9 -8v-48l-9 -8q-94 -2 -122.5 -7.5t-40 -16.5t-17 -34t-7.5 -132l-3 -225v-304q0 -182 -14 -287t-62.5 -172.5t-115 -113t-170.5 -70t-216 -24.5q-140 0 -247.5 31t-169.5 82t-89 107.5t-35 133t-8 233.5v384
l-2 195q-1 114 -5.5 147t-14 44t-36.5 18t-133 11l-8 7v50zM811 1487zM805 -60zM1124 1871q0 -109 -60 -197q-80 -119 -237 -119q-164 0 -246 112q-63 86 -63 204l5 7h53q39 -193 254 -193q199 0 236 193h53zM829 1881z" />
    <glyph glyph-name="ubreve" unicode="&#x16d;" horiz-adv-x="1235" 
d="M346 953l19 -13q-11 -131 -11 -333v-233q0 -128 19.5 -178t67.5 -76.5t114 -26.5q73 0 133 28.5t100.5 80.5t46.5 70t8 101l3 112v108q0 40 -4 109t-6.5 85t-15.5 23.5t-52 7.5l-84 1l-9 8v43l8 8q191 23 322 75l19 -13q-11 -131 -11 -333v-176q0 -15 5 -245
q2 -85 10.5 -103.5t23.5 -26t89 -7.5h28l9 -8v-40l-8 -9q-141 8 -189 8q-61 0 -141 -7l-9 8q6 102 9 173q-63 -49 -144 -131q-31 -31 -89 -52t-132 -21q-112 0 -174.5 35.5t-88.5 98t-26 215.5l1 79v195q0 40 -4 109t-6.5 85t-15.5 23.5t-52 7.5l-84 1l-9 8v43l8 8
q191 23 322 75zM585 1016zM595 -60zM875 1424q-7 -151 -81.5 -240.5t-202.5 -89.5q-85 0 -146 39t-97.5 113t-40.5 178l8 8h54q15 -93 74.5 -152.5t147.5 -59.5t147.5 59.5t74.5 152.5h54zM590 1423z" />
    <glyph glyph-name="Uring" unicode="&#x16e;" horiz-adv-x="1593" 
d="M30 1406l8 7q248 -8 286 -8q34 0 287 8l8 -7v-50l-8 -7q-69 -2 -106.5 -6t-54.5 -15t-22.5 -51.5t-5.5 -112.5l-2 -230v-318q0 -157 6.5 -230.5t28 -124t65.5 -87t126 -59.5t186 -23q110 0 205.5 30.5t145.5 88.5t65.5 152.5t15.5 262.5v308q0 78 -2.5 214.5t-12 157
t-35 31t-141.5 12.5l-8 8v47l8 9q148 -8 237 -8q76 0 236 8l9 -8v-48l-9 -8q-94 -2 -122.5 -7.5t-40 -16.5t-17 -34t-7.5 -132l-3 -225v-304q0 -182 -14 -287t-62.5 -172.5t-115 -113t-170.5 -70t-216 -24.5q-140 0 -247.5 31t-169.5 82t-89 107.5t-35 133t-8 233.5v384
l-2 195q-1 114 -5.5 147t-14 44t-36.5 18t-133 11l-8 7v50zM811 1487zM805 -60zM1039 1717q0 -57 -27.5 -100.5t-74.5 -69.5t-106 -26q-60 0 -107 26t-74 69.5t-27 100.5q0 84 60 140t148 56t148 -55.5t60 -140.5zM952 1717q0 60 -34.5 105.5t-86.5 45.5t-86.5 -45.5
t-34.5 -105.5q0 -54 32.5 -102.5t88.5 -48.5q52 0 86.5 45.5t34.5 105.5z" />
    <glyph glyph-name="uring" unicode="&#x16f;" horiz-adv-x="1235" 
d="M346 953l19 -13q-11 -131 -11 -333v-233q0 -128 19.5 -178t67.5 -76.5t114 -26.5q73 0 133 28.5t100.5 80.5t46.5 70t8 101l3 112v108q0 40 -4 109t-6.5 85t-15.5 23.5t-52 7.5l-84 1l-9 8v43l8 8q191 23 322 75l19 -13q-11 -131 -11 -333v-176q0 -15 5 -245
q2 -85 10.5 -103.5t23.5 -26t89 -7.5h28l9 -8v-40l-8 -9q-141 8 -189 8q-61 0 -141 -7l-9 8q6 102 9 173q-63 -49 -144 -131q-31 -31 -89 -52t-132 -21q-112 0 -174.5 35.5t-88.5 98t-26 215.5l1 79v195q0 40 -4 109t-6.5 85t-15.5 23.5t-52 7.5l-84 1l-9 8v43l8 8
q191 23 322 75zM585 1016zM595 -60zM791 1282q0 -80 -59.5 -133t-140.5 -53q-58 0 -103.5 25.5t-71 66.5t-25.5 94q0 78 59 132t141 54q58 0 104 -26.5t71 -67t25 -92.5zM707 1282q0 53 -30 97t-86 44q-55 0 -85.5 -43t-30.5 -98q0 -59 32.5 -100t83.5 -41q55 0 85.5 43
t30.5 98z" />
    <glyph glyph-name="Uhungarumlaut" unicode="&#x170;" horiz-adv-x="1593" 
d="M30 1406l8 7q248 -8 286 -8q34 0 287 8l8 -7v-50l-8 -7q-69 -2 -106.5 -6t-54.5 -15t-22.5 -51.5t-5.5 -112.5l-2 -230v-318q0 -157 6.5 -230.5t28 -124t65.5 -87t126 -59.5t186 -23q110 0 205.5 30.5t145.5 88.5t65.5 152.5t15.5 262.5v308q0 78 -2.5 214.5t-12 157
t-35 31t-141.5 12.5l-8 8v47l8 9q148 -8 237 -8q76 0 236 8l9 -8v-48l-9 -8q-94 -2 -122.5 -7.5t-40 -16.5t-17 -34t-7.5 -132l-3 -225v-304q0 -182 -14 -287t-62.5 -172.5t-115 -113t-170.5 -70t-216 -24.5q-140 0 -247.5 31t-169.5 82t-89 107.5t-35 133t-8 233.5v384
l-2 195q-1 114 -5.5 147t-14 44t-36.5 18t-133 11l-8 7v50zM811 1487zM805 -60zM1334 1860l-408 -318l-13 -3l-24 23l2 13l241 293l180 26l10 -7zM975 1860l-408 -318l-13 -3l-24 23l2 13l241 293l180 26l10 -7z" />
    <glyph glyph-name="uhungarumlaut" unicode="&#x171;" horiz-adv-x="1235" 
d="M346 953l19 -13q-11 -131 -11 -333v-233q0 -128 19.5 -178t67.5 -76.5t114 -26.5q73 0 133 28.5t100.5 80.5t46.5 70t8 101l3 112v108q0 40 -4 109t-6.5 85t-15.5 23.5t-52 7.5l-84 1l-9 8v43l8 8q191 23 322 75l19 -13q-11 -131 -11 -333v-176q0 -15 5 -245
q2 -85 10.5 -103.5t23.5 -26t89 -7.5h28l9 -8v-40l-8 -9q-141 8 -189 8q-61 0 -141 -7l-9 8q6 102 9 173q-63 -49 -144 -131q-31 -31 -89 -52t-132 -21q-112 0 -174.5 35.5t-88.5 98t-26 215.5l1 79v195q0 40 -4 109t-6.5 85t-15.5 23.5t-52 7.5l-84 1l-9 8v43l8 8
q191 23 322 75zM585 1016zM595 -60zM1005 1474l-291 -381l-10 -4l-29 16l-4 10l153 351l154 29l10 -4zM691 1474l-291 -381l-10 -4l-29 16l-4 10l153 351l154 29l10 -4z" />
    <glyph glyph-name="Uogonek" unicode="&#x172;" horiz-adv-x="1593" 
d="M1555 1357l-9 -8q-132 0 -158.5 -19.5t-28.5 -170.5l-3 -225v-304q0 -179 -15 -280.5t-50.5 -162.5t-90.5 -102.5t-177 -94.5q-168 -73 -168 -183q0 -43 28 -72.5t75 -29.5q81 0 181 74l13 -1l22 -29v-14q-146 -130 -275 -130q-71 0 -119 44.5t-48 122.5q0 110 129 195
q-44 -4 -85 -4q-173 0 -283.5 43t-169.5 107.5t-76.5 146.5t-17.5 290v384q0 29 -1.5 167t-4.5 165.5t-9 42t-23.5 21.5t-56 12t-96.5 7l-8 7v50l8 7l286 -8q34 0 287 8l8 -7v-50l-8 -7q-140 -3 -165 -22.5t-25 -163.5v-111l-1 -118v-318q0 -261 31 -344t126 -131.5
t255 -48.5q143 0 235.5 38.5t132.5 103.5t52 148.5t12 243.5v308q0 138 -2.5 225.5t-6.5 118.5t-13.5 41.5t-27 17t-30.5 8.5t-111 4l-8 8v47l8 9q148 -8 237 -8q76 0 236 8l9 -8v-48z" />
    <glyph glyph-name="uogonek" unicode="&#x173;" horiz-adv-x="1235" 
d="M1011 0q-76 -69 -104 -109t-28 -81q0 -42 29 -73.5t73 -31.5q80 0 179 85l15 -1l27 -37v-14q-101 -89 -163.5 -113.5t-116.5 -24.5q-71 0 -118.5 49.5t-47.5 119.5q0 61 39 113.5t129 116.5l-84 -6l-9 8q6 102 9 173q-63 -49 -144 -131q-31 -31 -89 -52t-132 -21
q-112 0 -174.5 35.5t-88.5 98t-26 215.5l1 79v195q0 40 -4 109t-6.5 85t-15.5 23.5t-52 7.5l-84 1l-9 8v43l8 8q191 23 322 75l19 -13q-11 -131 -11 -333v-233q0 -128 19.5 -178t67.5 -76.5t114 -26.5q73 0 133 28.5t100.5 80.5t46.5 70t8 101l3 112v108q0 40 -4 109
t-6.5 85t-15.5 23.5t-52 7.5l-84 1l-9 8v43l8 8q191 23 322 75l19 -13q-11 -131 -11 -333v-176q0 -15 5 -245q2 -85 10.5 -103.5t23.5 -26t89 -7.5h28l9 -8v-40l-8 -9z" />
    <glyph glyph-name="Wcircumflex" unicode="&#x174;" horiz-adv-x="2048" 
d="M471 -19l-91 417l-193 823q-23 98 -48 109.5t-108 21.5l-8 8v44l8 9q144 -8 255 -8q83 0 242 8l9 -9v-44l-8 -8q-111 -4 -133.5 -11t-22.5 -33q0 -21 20 -132.5t36 -181.5l157 -693l247 615q97 244 191 511h64q80 -251 165 -487l235 -652l170 597q26 94 64 247t38 177
q0 27 -25 33.5t-144 9.5l-8 9v44l8 8q170 -8 205 -8q32 0 208 8l8 -8v-45l-8 -7q-57 -2 -76 -10.5t-33 -26t-40 -102.5l-58 -186l-103 -337q-22 -73 -81 -296l-111 -414h-102q-104 310 -172 496l-228 617l-199 -494l-107 -280q-42 -111 -67 -181l-55 -158h-101zM1384 1550
l-7 -11h-62l-264 234l-264 -234h-62l-7 10l288 356h96zM1518 1593zM1054 1905z" />
    <glyph glyph-name="wcircumflex" unicode="&#x175;" horiz-adv-x="1708" 
d="M429 -19l-135 448q-38 126 -73.5 234t-47 137.5t-24.5 42.5t-28 18t-85 13l-7 8v41l9 9q72 -7 223 -7q163 0 245 7l9 -9v-41l-7 -8q-109 -1 -129.5 -12t-20.5 -34t29 -123l93 -322q22 -75 56 -175q27 65 76 174l147 329q53 117 98 236h49l90 -242l115 -290l89 -220
l75 197q65 169 101 282t36 145t-22 42t-118 13l-9 8v42l9 8q116 -7 195 -7q100 0 188 7l8 -8v-41l-8 -9q-54 -2 -73.5 -12t-44 -48.5t-74.5 -156.5l-99 -235l-45 -112l-71 -186q-33 -87 -48 -143h-94l-48 125l-228 573l-96 -207l-111 -248l-98 -243h-96zM1191 1120l-7 -10
h-58l-255 248l-255 -248h-58l-7 10l261 362h118zM1317 1150zM871 1482z" />
    <glyph glyph-name="Ycircumflex" unicode="&#x176;" horiz-adv-x="1366" 
d="M15 1319l-9 9v42l9 9l283 47q30 -21 58.5 -53t83 -119.5t140.5 -244t165 -313.5l102 162l115 192l212 363q39 -4 76 -4q23 0 70 4l8 -8v-19q-50 -55 -155 -199.5t-156.5 -226t-126.5 -205t-82 -148.5t-7 -59v-147l1 -150q1 -87 6.5 -121.5t15 -45t36 -17.5t132.5 -11
l8 -6v-50l-8 -8q-5 0 -176 6q-71 2 -111 2q-32 0 -286 -8l-8 8v50l8 6q95 4 125 10t40.5 15.5t16.5 37t7 112.5l2 171v190q-22 54 -147 259l-88 143q-42 68 -105.5 158.5t-98.5 123t-54 38t-102 5.5zM732 1487zM700 -60zM1064 1550l-7 -11h-62l-264 234l-264 -234h-62l-7 10
l288 356h96zM1198 1593zM734 1905z" />
    <glyph glyph-name="ycircumflex" unicode="&#x177;" horiz-adv-x="1139" 
d="M45 -543q34 84 51 154h24q49 -53 106 -53q71 0 123.5 70.5t148.5 311.5q-38 107 -77 202l-159 394q-25 61 -74 174.5t-58.5 125t-24.5 21.5t-81 19l-8 8v40l9 8q115 -7 236 -7q142 0 219 7l8 -8v-40l-7 -8q-11 -1 -61.5 -4.5t-63 -16t-12.5 -28.5q0 -17 31 -110.5
t60 -165.5l63 -156q62 -154 96 -227l53 117q28 64 80 194l83 212q32 82 36.5 102t4.5 29q0 22 -16 30t-71 14l-42 6l-7 8v44l8 8q84 -7 199 -7q105 0 168 7l8 -8v-44l-8 -8q-37 -1 -59 -10t-42 -32t-72 -129.5t-104 -220.5l-98 -215l-231 -540q-30 -70 -74.5 -150
t-109 -115.5t-136.5 -35.5q-63 0 -119 33zM580 1016zM815 -60zM911 1120l-7 -10h-58l-255 248l-255 -248h-58l-7 10l261 362h118zM1037 1150zM591 1482z" />
    <glyph glyph-name="Ydieresis" unicode="&#x178;" horiz-adv-x="1366" 
d="M15 1319l-9 9v42l9 9l283 47q30 -21 58.5 -53t83 -119.5t140.5 -244t165 -313.5l102 162l115 192l212 363q39 -4 76 -4q23 0 70 4l8 -8v-19q-50 -55 -155 -199.5t-156.5 -226t-126.5 -205t-82 -148.5t-7 -59v-147l1 -150q1 -87 6.5 -121.5t15 -45t36 -17.5t132.5 -11
l8 -6v-50l-8 -8q-5 0 -176 6q-71 2 -111 2q-32 0 -286 -8l-8 8v50l8 6q95 4 125 10t40.5 15.5t16.5 37t7 112.5l2 171v190q-22 54 -147 259l-88 143q-42 68 -105.5 158.5t-98.5 123t-54 38t-102 5.5zM732 1487zM700 -60zM968 1604q-47 0 -80 32.5t-33 79.5t33 80t80 33
t79.5 -33t32.5 -80t-32.5 -79.5t-79.5 -32.5zM475 1604q-47 0 -80 32.5t-33 79.5t33 80t80 33t79.5 -33t32.5 -80t-32.5 -79.5t-79.5 -32.5z" />
    <glyph glyph-name="Zacute" unicode="&#x179;" horiz-adv-x="1366" 
d="M36 1v48l241 298l571 735q130 166 175 238h-41l-161 1q-212 0 -341.5 -6.5t-171 -13.5t-51 -19.5t-15.5 -59.5l-14 -132l-9 -9h-47l-9 9q5 76 5 121q0 122 -5 193l9 9q357 -8 499 -8q236 0 620 8l9 -9v-51q-110 -130 -154 -186l-833 -1073l405 -7q121 0 244 6t162 12
t53.5 17.5t19.5 23t16 68.5l22 134l9 8h47l8 -8q-7 -64 -14 -348l-9 -8q-422 8 -666 8q-171 0 -565 -8zM1096 1856l-210 -157l-200 -156l-15 -4l-25 24l2 14l144 174q3 3 95 117l187 26l10 -7z" />
    <glyph glyph-name="zacute" unicode="&#x17a;" 
d="M54 -8l-9 8l-9 38q129 137 247 285l221 274q104 126 194 260h-236q-28 0 -129 -4.5t-112 -16t-30 -130.5l-6 -32l-8 -8h-40l-9 9q10 158 10 183q0 24 -2 68l8 7q372 -8 593 -8q118 0 186 8l8 -8v-48q-69 -76 -215 -262l-262 -333q-116 -147 -163 -213h70l200 3
q110 1 185 9t87.5 13.5t15.5 10t17.5 62.5t22.5 108l9 8h45l9 -9q-24 -178 -27 -274l-8 -8q-300 9 -455 9q-137 0 -408 -9zM820 1467l-294 -374l-13 -4l-29 15l-3 13l153 349l156 29l13 -3z" />
    <glyph glyph-name="Zdotaccent" unicode="&#x17b;" horiz-adv-x="1366" 
d="M36 1v48l241 298l571 735q130 166 175 238h-41l-161 1q-212 0 -341.5 -6.5t-171 -13.5t-51 -19.5t-15.5 -59.5l-14 -132l-9 -9h-47l-9 9q5 76 5 121q0 122 -5 193l9 9q357 -8 499 -8q236 0 620 8l9 -9v-51q-110 -130 -154 -186l-833 -1073l405 -7q121 0 244 6t162 12
t53.5 17.5t19.5 23t16 68.5l22 134l9 8h47l8 -8q-7 -64 -14 -348l-9 -8q-422 8 -666 8q-171 0 -565 -8zM732 1604q-47 0 -80 32.5t-33 79.5t33 80t80 33t79.5 -33t32.5 -80t-32.5 -79.5t-79.5 -32.5z" />
    <glyph glyph-name="zdotaccent" unicode="&#x17c;" 
d="M54 -8l-9 8l-9 38q129 137 247 285l221 274q104 126 194 260h-236q-28 0 -129 -4.5t-112 -16t-30 -130.5l-6 -32l-8 -8h-40l-9 9q10 158 10 183q0 24 -2 68l8 7q372 -8 593 -8q118 0 186 8l8 -8v-48q-69 -76 -215 -262l-262 -333q-116 -147 -163 -213h70l200 3
q110 1 185 9t87.5 13.5t15.5 10t17.5 62.5t22.5 108l9 8h45l9 -9q-24 -178 -27 -274l-8 -8q-300 9 -455 9q-137 0 -408 -9zM520 1163q-46 0 -78 32t-32 78t32 78.5t78 32.5q48 0 79.5 -32.5t31.5 -78.5t-32.5 -78t-78.5 -32z" />
    <glyph glyph-name="Zcaron" unicode="&#x17d;" horiz-adv-x="1366" 
d="M36 1v48l241 298l571 735q130 166 175 238h-41l-161 1q-212 0 -341.5 -6.5t-171 -13.5t-51 -19.5t-15.5 -59.5l-14 -132l-9 -9h-47l-9 9q5 76 5 121q0 122 -5 193l9 9q357 -8 499 -8q236 0 620 8l9 -9v-51q-110 -130 -154 -186l-833 -1073l405 -7q121 0 244 6t162 12
t53.5 17.5t19.5 23t16 68.5l22 134l9 8h47l8 -8q-7 -64 -14 -348l-9 -8q-422 8 -666 8q-171 0 -565 -8zM1092 1894l-280 -355h-126l-286 355l6 11h63l277 -253l274 253h65z" />
    <glyph glyph-name="zcaron" unicode="&#x17e;" 
d="M54 -8l-9 8l-9 38q129 137 247 285l221 274q104 126 194 260h-236q-28 0 -129 -4.5t-112 -16t-30 -130.5l-6 -32l-8 -8h-40l-9 9q10 158 10 183q0 24 -2 68l8 7q372 -8 593 -8q118 0 186 8l8 -8v-48q-69 -76 -215 -262l-262 -333q-116 -147 -163 -213h70l200 3
q110 1 185 9t87.5 13.5t15.5 10t17.5 62.5t22.5 108l9 8h45l9 -9q-24 -178 -27 -274l-8 -8q-300 9 -455 9q-137 0 -408 -9zM841 1472l-261 -362h-128l-251 362l7 10h58l250 -246l250 246h68z" />
    <glyph glyph-name="florin" unicode="&#x192;" 
d="M553 724l-89 -648q-25 -178 -46.5 -250t-76 -141.5t-135.5 -136t-148.5 -96.5t-128.5 -30q-16 0 -30 4l-5 13q27 67 38 114l15 11q42 -15 90 -15q55 0 103 32t76.5 83.5t43 133.5t35.5 262l80 664h-90q-52 0 -135 -5l-15 9v67l15 11q72 -4 147 -4h87q16 123 27.5 186
t33 104t78.5 100t133.5 115.5t128 75.5t107.5 19q65 0 120 -21l7 -15q-29 -82 -39 -133h-18q-73 58 -142 58q-63 0 -121 -40t-86.5 -142t-50.5 -307h102q77 0 196 4l16 -11v-64l-16 -12q-120 5 -193 5h-114z" />
    <glyph glyph-name="Scommaaccent" unicode="&#x218;" horiz-adv-x="1075" 
d="M79 344l8 8h49l8 -8q5 -128 13.5 -156.5t54 -60t121 -51.5t152.5 -20q106 0 190.5 39t131.5 114.5t47 169.5q0 66 -22.5 115t-63 78.5t-92.5 44t-155 31.5q-100 16 -156.5 29t-112.5 40t-93.5 68.5t-60 102t-22.5 129.5q0 187 130 306.5t349 119.5q87 0 189.5 -21.5
t186.5 -63.5l7 -12q-22 -92 -27 -262l-9 -8h-52l-8 7q-2 120 -6 151t-91 77t-189 46q-85 0 -159 -34t-112 -107t-38 -149q0 -59 23 -104.5t59.5 -72t85 -39.5t177.5 -32q177 -25 257.5 -60.5t129 -112.5t48.5 -186q0 -213 -173.5 -355t-420.5 -142q-207 0 -363 74l-6 13
q10 63 15 294zM415 -561l-8 41q175 28 175 129q0 32 -40 33q-134 5 -134 124q0 52 36 83.5t89 31.5q66 0 103 -45t37 -120q0 -254 -258 -277z" />
    <glyph glyph-name="scommaaccent" unicode="&#x219;" horiz-adv-x="868" 
d="M101 294h43l9 -9q2 -84 10 -144q31 -47 107 -76.5t150 -29.5q106 0 169.5 57t63.5 136q0 43 -23 74.5t-69.5 52t-166.5 48.5q-103 24 -144 37.5t-79 45.5t-58 78.5t-20 102.5q0 134 106.5 214.5t265.5 80.5q67 0 146 -18.5t120 -35.5l9 -14q-8 -40 -10 -210l-9 -9h-40
l-9 9q-4 61 -11 85.5t-36 53t-82 48t-112 19.5q-61 0 -102.5 -18t-67 -54.5t-25.5 -88.5q0 -38 15.5 -68t47.5 -48.5t67 -26.5l109 -28q140 -34 200.5 -59t93.5 -75.5t33 -122.5q0 -138 -114 -237t-293 -99q-63 0 -156.5 14t-159.5 31l-5 13l10 67q5 31 6 62.5t2 132.5z
M317 -511l-9 35q157 39 157 118q0 29 -34 30q-121 4 -121 109q0 46 32.5 74.5t79.5 28.5q58 0 92 -40.5t34 -106.5q0 -227 -231 -248z" />
    <glyph glyph-name="circumflex" unicode="&#x2c6;" horiz-adv-x="682" 
d="M661 1120l-7 -10h-58l-255 248l-255 -248h-58l-7 10l261 362h118zM787 1150zM341 1482z" />
    <glyph glyph-name="caron" unicode="&#x2c7;" horiz-adv-x="682" 
d="M661 1472l-261 -362h-128l-251 362l7 10h58l250 -246l250 246h68z" />
    <glyph glyph-name="breve" unicode="&#x2d8;" horiz-adv-x="682" 
d="M625 1424q-7 -151 -81.5 -240.5t-202.5 -89.5q-85 0 -146 39t-97.5 113t-40.5 178l8 8h54q15 -93 74.5 -152.5t147.5 -59.5t147.5 59.5t74.5 152.5h54zM340 1423z" />
    <glyph glyph-name="dotaccent" unicode="&#x2d9;" horiz-adv-x="682" 
d="M340 1163q-46 0 -78 32t-32 78t32 78.5t78 32.5q48 0 79.5 -32.5t31.5 -78.5t-32.5 -78t-78.5 -32z" />
    <glyph glyph-name="ring" unicode="&#x2da;" horiz-adv-x="682" 
d="M541 1282q0 -80 -59.5 -133t-140.5 -53q-58 0 -103.5 25.5t-71 66.5t-25.5 94q0 78 59 132t141 54q58 0 104 -26.5t71 -67t25 -92.5zM457 1282q0 53 -30 97t-86 44q-55 0 -85.5 -43t-30.5 -98q0 -59 32.5 -100t83.5 -41q55 0 85.5 43t30.5 98z" />
    <glyph glyph-name="ogonek" unicode="&#x2db;" horiz-adv-x="682" 
d="M551 -256q-146 -129 -258 -129q-70 0 -116.5 49t-46.5 118q0 95 168 218h71q-125 -111 -125 -188q0 -96 103 -96q77 0 167 76h10l27 -38v-10z" />
    <glyph glyph-name="tilde" unicode="&#x2dc;" horiz-adv-x="682" 
d="M689 1390q-21 -93 -80.5 -156.5t-136.5 -63.5q-64 0 -164 51t-141 51q-78 0 -117 -101h-50l-6 7q18 87 79 151t136 64q63 0 165 -51q103 -51 143 -51q75 0 114 106h52z" />
    <glyph glyph-name="hungarumlaut" unicode="&#x2dd;" horiz-adv-x="682" 
d="M665 1474l-291 -381l-10 -4l-29 16l-4 10l153 351l154 29l10 -4zM351 1474l-291 -381l-10 -4l-29 16l-4 10l153 351l154 29l10 -4z" />
    <glyph glyph-name="uni0312" unicode="&#x312;" horiz-adv-x="682" 
d="M460 1456q-156 -27 -156 -118q0 -29 34 -30q121 -4 121 -109q0 -46 -32.5 -74.5t-79.5 -28.5q-58 0 -92 40.5t-34 106.5q0 227 231 248z" />
    <glyph glyph-name="uni0326" unicode="&#x326;" horiz-adv-x="0" 
d="M-113 -511l-9 35q157 39 157 118q0 29 -34 30q-121 4 -121 109q0 46 32.5 74.5t79.5 28.5q58 0 92 -40.5t34 -106.5q0 -227 -231 -248z" />
    <glyph glyph-name="Delta" unicode="&#x394;" horiz-adv-x="1411" 
d="M69 -8l-13 20q64 120 305 657t329 758h52q45 -135 289.5 -703t324.5 -712l-13 -20q-248 8 -620 8q-441 0 -654 -8zM1100 76q-194 523 -433 1079h-16q-155 -358 -241 -571.5t-194 -507.5h884z" />
    <glyph glyph-name="Omega" unicode="&#x3a9;" horiz-adv-x="1691" 
d="M948 0v140q210 28 317 192.5t107 432.5q0 232 -59.5 359.5t-173.5 194.5t-280 67q-124 0 -234 -41.5t-183.5 -133.5t-98.5 -202.5t-25 -237.5q0 -278 108 -441t316 -190v-140q-107 -3 -301 -5.5t-335 -8.5q-9 117 -36 311l8 7h29l8 -7q20 -78 31.5 -101t36 -33t82.5 -10
h264v15q-205 85 -315.5 254.5t-110.5 391.5q0 200 86 339t256 214t414 75q352 0 540 -168t188 -460q0 -97 -21.5 -187.5t-73.5 -179.5t-134 -160t-197 -119v-15h265q88 0 107 26t42 118l8 7h29l8 -7q-27 -193 -36 -311q-142 6 -333 8z" />
    <glyph glyph-name="pi" unicode="&#x3c0;" horiz-adv-x="1387" 
d="M273 -18l-22 28q92 231 241 779l10 35q-198 -2 -263 -49t-77 -198l-32 15q3 166 16.5 235.5t47.5 98t117 28.5l233 -4q126 -3 266 -3q331 0 498 13l-46 -105l-165 -31q-76 -220 -76 -390q0 -115 29.5 -203.5t67 -122t83.5 -33.5q32 0 57 11.5t70 46.5l4 -32
q-60 -64 -115.5 -96t-120.5 -32q-51 0 -90.5 21.5t-73 74.5t-47 121t-13.5 137q0 218 128 497h-439q-105 -404 -153 -795q-70 -20 -135 -47z" />
    <glyph glyph-name="endash" unicode="&#x2013;" 
d="M0 437v119h1024v-119h-1024z" />
    <glyph glyph-name="emdash" unicode="&#x2014;" horiz-adv-x="2048" 
d="M265 438v118h1518v-118h-1518z" />
    <glyph glyph-name="quoteleft" unicode="&#x2018;" horiz-adv-x="569" 
d="M400 1429l30 -23q-84 -124 -117 -234.5t-44 -215.5q-106 -24 -196 -57l-28 24q123 299 263 458z" />
    <glyph glyph-name="quoteright" unicode="&#x2019;" horiz-adv-x="569" 
d="M75 899l-30 23q55 84 82 141t47 134.5t32 173.5q107 25 195 58l29 -24q-123 -298 -263 -458z" />
    <glyph glyph-name="quotesinglbase" unicode="&#x201a;" horiz-adv-x="569" 
d="M75 -298l-30 24q55 84 82 141t47 134t32 174q104 24 195 58l29 -25q-123 -297 -263 -457z" />
    <glyph glyph-name="quotedblleft" unicode="&#x201c;" 
d="M470 1429l30 -23q-84 -124 -117 -234.5t-44 -215.5q-106 -24 -196 -57l-28 24q123 299 263 458zM896 1429l30 -23q-84 -124 -117 -234.5t-44 -215.5q-106 -24 -196 -57l-28 24q123 299 263 458z" />
    <glyph glyph-name="quotedblright" unicode="&#x201d;" 
d="M87 899l-30 23q55 84 82 141t47 134.5t32 173.5q107 25 195 58l29 -24q-123 -298 -263 -458zM513 899l-30 23q55 84 82 141t47 134.5t32 173.5q107 25 195 58l29 -24q-123 -298 -263 -458z" />
    <glyph glyph-name="quotedblbase" unicode="&#x201e;" 
d="M87 -298l-30 24q55 84 82 141t47 134t32 174q104 24 195 58l29 -25q-123 -297 -263 -457zM513 -298l-30 24q55 84 82 141t47 134t32 174q104 24 195 58l29 -25q-123 -297 -263 -457z" />
    <glyph glyph-name="dagger" unicode="&#x2020;" 
d="M598 1413l9 -7q-22 -160 -26 -466h50q160 0 304 13l8 -13q-4 -36 -4 -65q0 -27 4 -70l-13 -11q-142 18 -349 18v-309q0 -58 4 -225t13 -275l-9 -11q-45 4 -79 4q-40 0 -81 -4l-9 11q6 79 8 124t5.5 200t3.5 176v309q-210 -1 -349 -18l-13 11q4 43 4 70q0 29 -4 65l8 13
q148 -13 303 -13h51q-4 308 -26 466l9 7q42 -4 89 -4q49 0 89 4z" />
    <glyph glyph-name="daggerdbl" unicode="&#x2021;" 
d="M421 -519l-12 15q19 190 22 418h-35q-139 0 -307 -17l-13 10q3 36 3 67q0 27 -3 67l13 13q155 -14 305 -14q7 0 37 1q-1 337 -16 406q16 78 16 406l-37 1q-154 0 -305 -14l-13 13q3 39 3 67q0 29 -3 67l13 10q168 -17 307 -17q8 0 35 1q-3 228 -22 417l12 15q45 -6 84 -6
q40 0 84 6l13 -15q-20 -189 -22 -417l34 -1q140 0 308 17l13 -10q-3 -34 -3 -67q0 -30 3 -67l-13 -13q-151 14 -306 14q-7 0 -36 -1q1 -337 16 -406q-16 -78 -16 -406l36 -1q145 0 306 14l13 -13q-3 -37 -3 -67q0 -33 3 -67l-13 -10q-169 17 -308 17h-34q2 -229 22 -418
l-13 -15q-46 6 -84 6q-37 0 -84 -6z" />
    <glyph glyph-name="bullet" unicode="&#x2022;" horiz-adv-x="1241" 
d="M620 1057q91 0 173.5 -46t131 -129t48.5 -177q0 -145 -104 -249t-249 -104q-146 0 -249 103.5t-103 249.5q0 93 48.5 177.5t132 129.5t171.5 45z" />
    <glyph glyph-name="ellipsis" unicode="&#x2026;" horiz-adv-x="2048" 
d="M223 109q0 49 34 84.5t86 35.5q49 0 84 -35t35 -85q0 -49 -35 -84t-84 -35q-50 0 -85 35t-35 84zM904 109q0 50 35 85t85 35q49 0 84.5 -35.5t35.5 -84.5t-35.5 -84t-84.5 -35q-50 0 -85 35t-35 84zM1585 109q0 49 34.5 84.5t85.5 35.5q50 0 85 -35.5t35 -84.5t-35 -84
t-85 -35t-85 35t-35 84z" />
    <glyph glyph-name="perthousand" unicode="&#x2030;" horiz-adv-x="2343" 
d="M1265 1476l-817 -1545h-89l816 1545h90zM146 1093q0 148 89.5 241.5t216.5 93.5q123 0 202.5 -85t79.5 -229q0 -151 -87 -247.5t-217 -96.5q-120 0 -202 88t-82 235zM291 1083q0 -104 16.5 -156t50 -81t78.5 -29q71 0 112.5 69t41.5 220q0 98 -16 156t-47.5 86t-78.5 28
q-49 0 -84 -29t-54 -88.5t-19 -175.5zM880 292q0 146 89 240.5t218 94.5q122 0 202 -84.5t80 -229.5q0 -152 -88 -248t-216 -96q-85 0 -150 42.5t-100 115t-35 165.5zM1026 282q0 -99 15.5 -152.5t49.5 -83.5t79 -30q72 0 113 69.5t41 219.5q0 75 -11.5 139t-45 97.5
t-85.5 33.5q-49 0 -86 -31t-53.5 -93.5t-16.5 -168.5zM1608 292q0 148 89.5 241.5t217.5 93.5q121 0 201.5 -84.5t80.5 -229.5q0 -151 -88 -247.5t-216 -96.5q-124 0 -204.5 90t-80.5 233zM1754 282q0 -99 15 -152.5t49.5 -83.5t79.5 -30q71 0 112.5 69.5t41.5 219.5
q0 95 -15 154t-47 87.5t-80 28.5t-83.5 -29t-54 -87.5t-18.5 -176.5z" />
    <glyph glyph-name="guilsinglleft" unicode="&#x2039;" horiz-adv-x="678" 
d="M102 448v24q15 16 95 94l114 110l139 143l12 2l37 -26l2 -11q-188 -245 -232 -324q25 -41 100.5 -147t131.5 -177l-2 -11l-37 -26l-12 2q-137 141 -250 251z" />
    <glyph glyph-name="guilsinglright" unicode="&#x203a;" horiz-adv-x="678" 
d="M535 472v-24q-16 -17 -96 -94l-113 -110l-139 -143l-13 -2l-37 26l-1 11q188 245 231 324q-24 41 -99.5 147t-131.5 177l1 11l37 26l13 -2q137 -141 250 -251z" />
    <glyph glyph-name="fraction" unicode="&#x2044;" horiz-adv-x="342" 
d="M-332 -24l909 1425l11 8h80l5 -10l-910 -1427l-11 -7h-78z" />
    <glyph glyph-name="uni2074" unicode="&#x2074;" horiz-adv-x="655" 
d="M213 555l-10 9v32l9 9q91 3 107 5.5t22.5 10t10.5 44t4 75.5v36h-126q-114 0 -203 -4l-13 40q108 197 357 562q53 23 92 36l23 -10q-9 -130 -9 -420v-114q65 0 125 3l11 -10q-2 -25 -2 -36l2 -42l-11 -9q-68 4 -101 4h-24v-33q0 -108 11 -122.5t115 -15.5l10 -9v-31
l-10 -10q-111 5 -183 5q-114 0 -207 -5zM116 866h240l5 387q-84 -120 -157 -238.5t-88 -148.5z" />
    <glyph glyph-name="Euro" unicode="&#x20ac;" 
d="M1010 1303q-18 -101 -34 -277l-5 -8h-55l-6 8l-8 172q-61 129 -252 129q-149 0 -256.5 -128t-124.5 -374h513l8 -11l-5 -56l-9 -10h-511q-1 -31 -1 -53q0 -40 1 -61h495l8 -11l-5 -56l-9 -10h-483q12 -213 122 -353.5t282 -140.5q149 0 271 75l15 -22l-29 -77
q-128 -79 -306 -79q-505 0 -558 597h-94l-7 10l5 56l8 11h83q-1 28 -1 62q0 25 2 52h-90l-7 10l5 56l8 11h94q33 239 202 411t392 172q211 0 337 -95z" />
    <glyph glyph-name="afii61289" unicode="&#x2113;" horiz-adv-x="981" 
d="M900 279q-79 -307 -320 -307q-65 0 -118.5 21.5t-87.5 59t-58 98.5t-24 211v86l-162 -158l-31 32l193 194v474q0 179 76 288t216 109q93 0 147.5 -54t54.5 -145q0 -98 -64.5 -222.5t-262.5 -343.5v-323q0 -146 46 -202t118 -56q153 0 238 256zM721 1152q0 74 -35 121.5
t-95 47.5q-132 0 -132 -264v-363q262 290 262 458z" />
    <glyph glyph-name="trademark" unicode="&#x2122;" horiz-adv-x="2005" 
d="M244 595v41l66 4q30 1 42.5 11t16.5 26t4 76v618h-105q-59 0 -88.5 -17.5t-38 -42t-11.5 -87.5h-48v197h693v-197h-47q-5 68 -13.5 90.5t-39 39.5t-86.5 17h-102v-618q0 -61 4.5 -77t17 -25.5t26 -10.5t82.5 -4v-41h-373zM1154 1421l264 -626l272 626h236v-41
q-58 -3 -72.5 -8.5t-22.5 -22t-8 -72.5v-537q0 -52 6 -68.5t21.5 -24.5t53.5 -9q7 -1 22 -2v-41h-324v41q58 4 72.5 9t22 22t7.5 73v603l-310 -748h-16l-314 748v-603q0 -55 5 -68.5t17.5 -23t57.5 -10.5q8 -1 22 -2v-41h-255v41q57 4 71.5 9t22.5 22t8 73v537q0 52 -6 68.5
t-21.5 24.5t-53.5 9q-7 0 -21 1v41h243z" />
    <glyph glyph-name="uni2126" unicode="&#x2126;" horiz-adv-x="1573" 
d="M889 0v140q210 28 317 192.5t107 432.5q0 232 -59.5 359.5t-173.5 194.5t-280 67q-124 0 -234 -41.5t-183.5 -133.5t-98.5 -202.5t-25 -237.5q0 -278 108 -441t316 -190v-140q-107 -3 -301 -5.5t-335 -8.5q-9 117 -36 311l8 7h29l8 -7q20 -78 31.5 -101t36 -33t82.5 -10
h264v15q-205 85 -315.5 254.5t-110.5 391.5q0 200 86 339t256 214t414 75q352 0 540 -168t188 -460q0 -97 -21.5 -187.5t-73.5 -179.5t-134 -160t-197 -119v-15h265q88 0 107 26t42 118l8 7h29l8 -7q-27 -193 -36 -311q-142 6 -333 8z" />
    <glyph glyph-name="estimated" unicode="&#x212e;" horiz-adv-x="1708" 
d="M366 692v-390q96 -96 211.5 -156t288.5 -60q160 0 263.5 52.5t219.5 164.5h209q-169 -198 -356 -250.5t-363 -52.5q-350 0 -583.5 207t-233.5 524q0 225 111.5 394t301.5 253t416 84q136 0 254 -27t209.5 -76t168.5 -128.5t122.5 -175t60.5 -178.5t19 -185h-1319z
M1353 778v367q-62 100 -196.5 165.5t-303.5 65.5q-167 0 -285 -61t-202 -170v-367h987z" />
    <glyph glyph-name="partialdiff" unicode="&#x2202;" horiz-adv-x="1012" 
d="M120 1390l24 68q299 -7 468.5 -105.5t270.5 -299.5t101 -468q0 -295 -135 -453.5t-361 -158.5q-136 0 -243.5 61t-162.5 171.5t-55 250.5q0 222 135.5 359.5t322.5 137.5q155 0 276 -115q-43 276 -214.5 413.5t-426.5 138.5zM214 569q0 -254 88 -390t235 -136
q126 0 197.5 101t71.5 269q0 124 -37 241.5t-106.5 178t-171.5 60.5q-85 0 -151.5 -43t-96 -125.5t-29.5 -155.5z" />
    <glyph glyph-name="uni2206" unicode="&#x2206;" horiz-adv-x="1253" 
d="M-10 -8l-13 20q64 120 305 657t329 758h52q45 -135 289.5 -703t324.5 -712l-13 -20q-248 8 -620 8q-441 0 -654 -8zM1021 76q-194 523 -433 1079h-16q-155 -358 -241 -571.5t-194 -507.5h884z" />
    <glyph glyph-name="product" unicode="&#x220f;" horiz-adv-x="1612" 
d="M51 1356v50l8 7l57 -1l37 -1l64 -1l135 -1l201 -2q116 -1 257 -2l385 3l228 2q66 1 131 3l8 -7v-50l-8 -7q-86 -3 -122 -9t-47 -19t-14.5 -44.5t-5.5 -148.5t-2 -194v-905q0 -82 2 -198.5t6 -146.5t15.5 -43t47.5 -18.5t120 -8.5l8 -7v-50l-8 -7q-158 8 -273 8
q-109 0 -267 -8l-8 7v50l8 7q99 4 128 10t39 16t15 34.5t7 153t2 201.5v1287l-11 11h-775l-12 -11v-1287q0 -96 2.5 -216.5t8.5 -142.5t16 -31.5t40.5 -15t124.5 -9.5l8 -7v-50l-8 -7q-158 8 -273 8q-104 0 -267 -8l-8 7v50l8 7q86 3 122 9t47 19.5t14.5 44.5t5.5 147.5
t2 194.5v905q0 102 -2.5 219.5t-8 139.5t-16 31.5t-41 15t-123.5 9.5z" />
    <glyph glyph-name="summation" unicode="&#x2211;" horiz-adv-x="1474" 
d="M1374 34l8 -8q-30 -200 -52 -473q-227 8 -680 8q-202 0 -650 -8v33l232 311l138 200l148 217q73 108 135 205q-361 617 -534 862v32q337 -8 580 -8q346 0 589 8l8 -7q11 -179 32 -361l-7 -7h-41l-8 7q-21 100 -42.5 159.5t-44.5 81.5t-57 28.5t-117 6.5h-636l-14 -19
q79 -138 218.5 -359t221.5 -341q-287 -400 -569 -861l10 -16q145 -4 392 -4q110 0 293 2.5t229 11.5t70 28t47 71.5t51 191.5l9 8h41z" />
    <glyph glyph-name="minus" unicode="&#x2212;" 
d="M994 576h-964v112h964v-112z" />
    <glyph glyph-name="uni2215" unicode="&#x2215;" horiz-adv-x="342" 
d="M-332 -24l909 1425l11 8h80l5 -10l-910 -1427l-11 -7h-78z" />
    <glyph glyph-name="radical" unicode="&#x221a;" 
d="M19 835l-39 78l309 152l391 -801l253 1596l87 -12l-304 -1926h-13l-489 1009z" />
    <glyph glyph-name="infinity" unicode="&#x221e;" horiz-adv-x="1460" 
d="M730 666q79 76 152 129.5t123 71.5t109 18q124 0 200.5 -82.5t76.5 -199.5q0 -80 -34 -148t-96.5 -103t-143.5 -35q-105 0 -183.5 45t-203.5 170q-130 -129 -207 -172t-179 -43q-130 0 -202.5 81t-72.5 205q0 116 76.5 199t200.5 83q60 0 110 -18t122.5 -71.5
t151.5 -129.5zM795 604q106 -105 174.5 -142.5t136.5 -37.5q85 0 133 50.5t48 122.5q0 79 -47.5 130.5t-125.5 51.5q-44 0 -85 -15.5t-98 -54t-136 -105.5zM665 604q-72 61 -129 100.5t-100 56.5t-94 17q-73 0 -121 -51t-48 -130q0 -55 25 -93t61.5 -59t91.5 -21
q72 0 140 38t174 142z" />
    <glyph glyph-name="integral" unicode="&#x222b;" horiz-adv-x="561" 
d="M379 704l10 -237q7 -153 7 -258q0 -146 -19 -267t-69.5 -206.5t-109 -118t-130.5 -32.5q-76 0 -111.5 32.5t-35.5 81.5q0 43 25.5 65t61.5 22q34 0 52 -16t34 -57t47 -41q42 0 65 62t23 389q0 74 -4 164l-7 176l-8 235q-4 123 -4 195q0 147 17.5 235t65.5 167.5t110 118
t137 38.5q58 0 101 -28.5t43 -88.5q0 -41 -25.5 -65.5t-61.5 -24.5q-34 0 -54.5 16t-34.5 55q-9 26 -18 36t-26 10q-43 0 -65.5 -76.5t-22.5 -378.5q0 -45 7 -203z" />
    <glyph glyph-name="approxequal" unicode="&#x2248;" 
d="M991 904q-109 -199 -262 -199q-60 0 -286 88q-98 38 -137 38q-44 0 -87.5 -25.5t-118.5 -140.5l-67 73q85 131 144.5 170t123.5 39q70 0 227 -64q152 -62 197 -62q114 0 200 153zM991 526q-109 -199 -262 -199q-60 0 -286 88q-98 38 -137 38q-44 0 -87.5 -25.5
t-118.5 -140.5l-67 73q85 131 144.5 170t123.5 39q70 0 227 -64q152 -62 197 -62q114 0 200 153z" />
    <glyph glyph-name="notequal" unicode="&#x2260;" 
d="M994 424h-535l-198 -354l-90 54l166 300h-307v112h368l107 192h-475v112h535l198 358l91 -54l-168 -304h308v-112h-368l-107 -192h475v-112z" />
    <glyph glyph-name="lessequal" unicode="&#x2264;" 
d="M994 230l-964 466v100l964 466v-126l-816 -390l816 -390v-126zM994 0h-964v112h964v-112z" />
    <glyph glyph-name="greaterequal" unicode="&#x2265;" 
d="M994 696l-964 -466v126l816 390l-816 390v126l964 -466v-100zM994 0h-964v112h964v-112z" />
    <glyph glyph-name="lozenge" unicode="&#x25ca;" horiz-adv-x="1012" 
d="M447 0l-388 754l388 733h121l385 -733l-385 -754h-121zM508 108l327 646l-327 625l-329 -625z" />
    <glyph glyph-name="uniFB01" unicode="&#xfb01;" horiz-adv-x="1239" 
d="M381 885h248q127 0 204.5 14.5t182.5 53.5l18 -13q-10 -131 -10 -333v-226q0 -22 4 -141.5t8.5 -139.5t13.5 -29t22 -11.5t108 -8.5l9 -8v-42l-9 -9q-124 8 -240 8q-108 0 -240 -8l-9 9v42l9 8q96 6 109 9t22.5 12.5t13 29t7.5 129t4 165.5v197q0 41 -4 121t-10 87
t-16.5 12.5t-85.5 5.5l-97 -1l-6 -29l-10 -5h-246v-403q0 -32 4.5 -146.5t8.5 -134.5t13.5 -29t31 -13t112.5 -7l8 -8v-42l-8 -9q-33 1 -92 4q-78 4 -161 4q-108 0 -241 -8l-8 9v42l8 8q97 6 110 9t22 12.5t12.5 29t8 129t4.5 165.5v386l-129 -7l-9 8v25l7 10l131 67v60
q0 100 9 151.5t33.5 95t85.5 110t107 109t80 57t80 14.5q38 0 82 -15l-1 -164l-23 -9q-56 50 -130 50q-52 0 -90 -21.5t-52 -70t-14 -160.5v-207zM931 1400q46 0 79 -32.5t33 -80.5q0 -46 -32.5 -79t-79.5 -33t-80 32.5t-33 79.5t33.5 80t79.5 33z" />
    <glyph glyph-name="uniFB02" unicode="&#xfb02;" horiz-adv-x="1245" 
d="M381 885h107q83 0 157 6l9 -11l-18 -88l-9 -10q-30 1 -39 1l-130 1h-77v-403q0 -32 4.5 -146.5t8.5 -134.5t13.5 -29t31 -13t112.5 -7l8 -8v-42l-8 -9q-45 2 -112 5q-58 3 -141 3q-108 0 -241 -8l-8 9v42l8 8q97 6 110 9t22 12.5t12.5 29t8 129t4.5 165.5v386l-129 -7
l-9 8v25l7 10l131 67v60q0 100 9 151.5t33 95t86 110.5t108 109t80 56.5t75 14.5q40 0 106 -15v-59q181 21 312 73l19 -12q-11 -115 -11 -461v-627q0 -22 4 -141.5t8.5 -139.5t14 -29t22 -11.5t107.5 -8.5l9 -8v-42l-8 -9q-125 8 -241 8q-107 0 -240 -8l-8 9v42l8 8
q97 6 109.5 9t22 12.5t13 29t8 129t4.5 165.5v518l-5 240q-3 139 -8.5 159t-18.5 27t-121 7v-44l-22 -9q-73 50 -152 50q-59 0 -94.5 -24t-48.5 -70.5t-13 -157.5v-207z" />
    <glyph glyph-name="glyph368" horiz-adv-x="682" 
d="M566 1563l-25 -24l-15 4l-200 156l-210 157l12 31l10 7l187 -26l97 -120q16 -20 142 -171z" />
    <glyph glyph-name="glyph369" horiz-adv-x="682" 
d="M588 1604q-47 0 -80 32.5t-33 79.5t33 80t80 33t79.5 -33t32.5 -80t-32.5 -79.5t-79.5 -32.5zM95 1604q-47 0 -80 32.5t-33 79.5t33 80t80 33t79.5 -33t32.5 -80t-32.5 -79.5t-79.5 -32.5z" />
    <glyph glyph-name="glyph370" horiz-adv-x="682" 
d="M674 1550l-7 -11h-62l-264 234l-264 -234h-62l-7 10l288 356h96zM808 1593zM344 1905z" />
    <glyph glyph-name="glyph371" horiz-adv-x="682" 
d="M665 1665h-648v102h648v-102z" />
    <glyph glyph-name="glyph372" horiz-adv-x="682" 
d="M744 1860l-408 -318l-13 -3l-24 23l2 13l241 293l180 26l10 -7zM385 1860l-408 -318l-13 -3l-24 23l2 13l241 293l180 26l10 -7z" />
    <glyph glyph-name="glyph373" horiz-adv-x="682" 
d="M342 1604q-47 0 -80 32.5t-33 79.5t33 80t80 33t79.5 -33t32.5 -80t-32.5 -79.5t-79.5 -32.5z" />
    <glyph glyph-name="glyph374" horiz-adv-x="0" 
d="M-125 -561l-8 41q175 28 175 129q0 32 -40 33q-134 5 -134 124q0 52 36 83.5t89 31.5q66 0 103 -45t37 -120q0 -254 -258 -277z" />
    <glyph glyph-name="glyph375" horiz-adv-x="682" 
d="M549 1717q0 -57 -27.5 -100.5t-74.5 -69.5t-106 -26q-60 0 -107 26t-74 69.5t-27 100.5q0 84 60 140t148 56t148 -55.5t60 -140.5zM462 1717q0 60 -34.5 105.5t-86.5 45.5t-86.5 -45.5t-34.5 -105.5q0 -54 32.5 -102.5t88.5 -48.5q52 0 86.5 45.5t34.5 105.5z" />
    <glyph glyph-name="glyph376" horiz-adv-x="682" 
d="M644 1871q0 -109 -60 -197q-80 -119 -237 -119q-164 0 -246 112q-63 86 -63 204l5 7h53q39 -193 254 -193q199 0 236 193h53zM349 1881z" />
    <glyph glyph-name="glyph377" horiz-adv-x="682" 
d="M692 1894l-280 -355h-126l-286 355l6 11h63l277 -253l274 253h65z" />
    <glyph glyph-name="glyph378" horiz-adv-x="682" 
d="M690 1822q-19 -88 -80 -153.5t-138 -65.5q-67 0 -168 49q-101 50 -137 50q-89 0 -123 -99h-45l-7 8q17 88 79.5 153t137.5 65q67 0 167 -50q100 -49 141 -49q81 0 121 99h45z" />
    <glyph glyph-name="glyph379" horiz-adv-x="682" 
d="M566 1856l-210 -157l-200 -156l-15 -4l-25 24l2 14l144 174q3 3 95 117l187 26l10 -7z" />
    </font>
</defs>
</svg>
